<?xml version="1.0" encoding="UTF-8" standalone="no"?>
<!-- Created with Inkscape (http://www.inkscape.org/) -->

<svg
   xmlns:dc="http://purl.org/dc/elements/1.1/"
   xmlns:cc="http://creativecommons.org/ns#"
   xmlns:rdf="http://www.w3.org/1999/02/22-rdf-syntax-ns#"
   xmlns:svg="http://www.w3.org/2000/svg"
   xmlns="http://www.w3.org/2000/svg"
   xmlns:sodipodi="http://sodipodi.sourceforge.net/DTD/sodipodi-0.dtd"
   xmlns:inkscape="http://www.inkscape.org/namespaces/inkscape"
   version="1.1"
   id="svg8149"
   xml:space="preserve"
   width="800"
   height="800"
   viewBox="0 0 800 800"
   sodipodi:docname="ornament-blue-freesvg.org.svg"
   inkscape:version="0.92.4 (5da689c313, 2019-01-14)"><metadata
     id="metadata8155"><rdf:RDF><cc:Work
         rdf:about=""><dc:format>image/svg+xml</dc:format><dc:type
           rdf:resource="http://purl.org/dc/dcmitype/StillImage" /><dc:title></dc:title></cc:Work></rdf:RDF></metadata><defs
     id="defs8153"><clipPath
       clipPathUnits="userSpaceOnUse"
       id="clipPath8165"><path
         d="M 0,600 H 600 V 0 H 0 Z"
         id="path8163"
         inkscape:connector-curvature="0" /></clipPath><radialGradient
       fx="0"
       fy="0"
       cx="0"
       cy="0"
       r="1"
       gradientUnits="userSpaceOnUse"
       gradientTransform="matrix(286.74023,0,0,-286.74023,300.10352,306.77441)"
       spreadMethod="pad"
       id="radialGradient8185"><stop
         style="stop-opacity:1;stop-color:#ffffff"
         offset="0"
         id="stop8179" /><stop
         style="stop-opacity:1;stop-color:#00adef"
         offset="0.52"
         id="stop8181" /><stop
         style="stop-opacity:1;stop-color:#2c3364"
         offset="1"
         id="stop8183" /></radialGradient></defs><sodipodi:namedview
     pagecolor="#ffffff"
     bordercolor="#666666"
     borderopacity="1"
     objecttolerance="10"
     gridtolerance="10"
     guidetolerance="10"
     inkscape:pageopacity="0"
     inkscape:pageshadow="2"
     inkscape:window-width="1920"
     inkscape:window-height="1018"
     id="namedview8151"
     showgrid="false"
     inkscape:zoom="0.92418819"
     inkscape:cx="418.64407"
     inkscape:cy="408.47458"
     inkscape:window-x="-8"
     inkscape:window-y="-8"
     inkscape:window-maximized="1"
     inkscape:current-layer="g8157" /><g
     id="g8157"
     inkscape:groupmode="layer"
     inkscape:label="tribal-11-publicdomainvectors.org [Converted]"
     transform="matrix(1.3333333,0,0,-1.3333333,0,800)"><g
       id="g8159"><g
         id="g8161"
         clip-path="url(#clipPath8165)"><g
           id="g8167"><g
             id="g8169"><g
               id="g8175"><g
                 id="g8177"><path
                   d="m 388.958,494.194 c -1.036,1.849 -2.01,3.693 -2.918,5.529 -0.908,-1.836 -1.88,-3.68 -2.919,-5.529 1.012,-1.875 1.983,-3.802 2.919,-5.777 0.937,1.975 1.908,3.902 2.918,5.777 m 48.594,-40.836 c 2.18,-0.145 4.33,-0.343 6.444,-0.595 1.341,1.644 2.7,3.225 4.074,4.744 -2.042,0.171 -4.113,0.399 -6.214,0.686 -1.375,-1.627 -2.809,-3.239 -4.304,-4.835 m -39.698,48.693 c 1.535,-2.186 3.077,-4.419 4.631,-6.699 0.245,-0.387 0.496,-0.774 0.752,-1.158 -0.206,-0.385 -0.406,-0.774 -0.602,-1.168 -1.295,-2.365 -2.629,-4.764 -4.01,-7.2 -4.678,-8.485 -8.899,-17.915 -12.585,-28.345 -3.686,10.43 -7.906,19.86 -12.584,28.345 -1.38,2.435 -2.715,4.835 -4.009,7.2 -0.197,0.394 -0.398,0.783 -0.603,1.168 0.256,0.384 0.508,0.771 0.752,1.158 1.554,2.28 3.098,4.513 4.631,6.699 4.826,7.04 8.753,13.959 11.813,20.69 3.061,-6.731 6.989,-13.65 11.814,-20.69 m 71.629,-36.1 c -5.139,-5.315 -10.134,-11.508 -14.914,-18.58 -1.47,-2.227 -2.981,-4.482 -4.533,-6.766 -0.27,-0.368 -0.538,-0.745 -0.8,-1.125 -0.434,0.05 -0.871,0.095 -1.308,0.133 -2.675,0.337 -5.397,0.698 -8.169,1.088 -9.611,1.239 -19.932,1.705 -30.986,1.308 8.351,7.255 15.574,14.642 21.751,22.106 1.761,2.178 3.502,4.301 5.228,6.372 0.293,0.327 0.582,0.657 0.866,0.99 0.449,-0.099 0.903,-0.19 1.352,-0.275 2.692,-0.61 5.335,-1.226 7.931,-1.85 8.32,-1.907 16.199,-3.024 23.582,-3.401 m -90.051,-45.402 c 3.013,1.048 6.038,1.822 9.036,2.318 4.553,1.383 9.033,2.449 13.423,3.215 7.822,1.279 15.302,2.035 22.435,2.303 5.079,0.17 9.988,-0.08 14.699,-0.73 3.204,-0.162 6.332,-0.462 9.378,-0.899 2.114,-0.299 4.19,-0.626 6.237,-0.977 1.077,2.036 2.163,4.026 3.254,5.976 1.522,2.723 3.105,5.314 4.75,7.773 2.073,3.688 4.333,7.059 6.751,10.091 3.168,3.937 6.431,7.466 9.764,10.583 1.765,1.608 3.594,3.024 5.474,4.243 1.036,0.975 2.147,1.796 3.32,2.452 3.367,2.139 6.871,3.645 10.439,4.525 2.143,0.709 4.339,1.101 6.556,1.185 0.286,0.036 0.583,0.023 0.887,-0.039 0.051,-0.019 0.102,-0.056 0.145,-0.111 l 0.024,-0.065 -0.021,-0.066 c -0.054,-0.03 -0.109,-0.062 -0.165,-0.093 -1.235,-0.326 -2.46,-0.754 -3.664,-1.278 -0.853,-0.269 -1.687,-0.617 -2.5,-1.042 -2.53,-1.366 -5.024,-3.013 -7.466,-4.942 -2.382,-2.067 -4.752,-4.333 -7.098,-6.807 -1.841,-2.497 -3.746,-5.036 -5.715,-7.618 -6.347,-9.531 -12.475,-20.657 -18.242,-33.39 -0.556,-1.209 -1.104,-2.434 -1.642,-3.677 -1.128,0.229 -2.267,0.44 -3.417,0.637 -13.208,2.373 -27.876,3.563 -44.179,3.378 -5.318,-0.382 -10.82,-0.739 -16.511,-1.07 -6.862,-1.106 -14.007,-2.53 -21.443,-4.286 -0.869,-0.233 -1.742,-0.474 -2.62,-0.72 -0.092,0.907 -0.189,1.807 -0.291,2.702 -1.095,7.561 -2.39,14.731 -3.878,21.519 -1.782,5.415 -3.466,10.665 -5.062,15.752 -5.811,15.234 -12.299,28.444 -19.352,39.859 -0.603,0.998 -1.219,1.979 -1.847,2.944 0.96,0.959 1.9,1.917 2.82,2.878 9.727,10.036 17.831,19.817 24.37,29.22 1.679,2.779 3.342,5.481 4.988,8.112 1.442,3.089 2.682,6.124 3.73,9.099 0.898,2.979 1.515,5.904 1.858,8.759 0.098,0.911 0.114,1.816 0.051,2.709 0.047,1.312 -0.006,2.607 -0.154,3.877 0.009,0.063 0.017,0.126 0.026,0.188 l 0.054,0.042 0.068,0.002 c 0.068,-0.021 0.121,-0.054 0.157,-0.095 0.168,-0.259 0.29,-0.53 0.363,-0.81 0.734,-2.093 1.174,-4.28 1.301,-6.534 0.491,-3.641 0.375,-7.454 -0.378,-11.371 -0.182,-1.332 -0.537,-2.666 -1.065,-3.988 -0.442,-2.196 -1.089,-4.417 -1.937,-6.649 -1.679,-4.243 -3.765,-8.573 -6.264,-12.966 -1.934,-3.362 -4.24,-6.701 -6.911,-9.983 -1.684,-2.431 -3.514,-4.855 -5.489,-7.268 -1.413,-1.731 -2.866,-3.472 -4.364,-5.222 1.076,-1.774 2.144,-3.587 3.196,-5.443 1.525,-2.672 2.952,-5.472 4.277,-8.393 2.333,-4.145 4.367,-8.619 6.072,-13.406 2.366,-6.735 4.408,-13.971 6.088,-21.717 0.898,-4.364 1.55,-8.924 1.936,-13.667 0.636,-2.97 1.025,-6.067 1.158,-9.256 0.064,-0.838 0.122,-1.682 0.173,-2.53 0.807,0.264 1.614,0.52 2.417,0.767 m 50.642,75.364 c 12.905,-5.369 24.977,-9.317 36.123,-11.951 3.201,-0.543 6.325,-1.098 9.377,-1.666 3.403,-0.206 6.681,-0.248 9.833,-0.128 3.101,0.255 6.048,0.754 8.83,1.482 0.882,0.245 1.73,0.56 2.537,0.947 1.24,0.439 2.424,0.961 3.552,1.566 0.061,0.015 0.122,0.03 0.185,0.045 l 0.057,-0.034 0.027,-0.064 c 0.006,-0.07 -0.004,-0.133 -0.031,-0.181 -0.178,-0.251 -0.386,-0.464 -0.62,-0.633 -1.675,-1.453 -3.55,-2.664 -5.6,-3.608 -3.208,-1.793 -6.798,-3.084 -10.718,-3.821 -1.306,-0.319 -2.679,-0.479 -4.101,-0.472 -2.204,-0.393 -4.509,-0.608 -6.895,-0.639 -4.564,0.007 -9.358,0.357 -14.36,1.072 -3.837,0.564 -7.79,1.485 -11.822,2.766 -2.879,0.674 -5.807,1.488 -8.776,2.439 -2.127,0.678 -4.281,1.393 -6.457,2.145 -1.256,-1.653 -2.553,-3.309 -3.892,-4.97 -1.927,-2.399 -4.007,-4.755 -6.238,-7.059 -3,-3.69 -6.416,-7.223 -10.244,-10.567 -3.225,-2.791 -6.658,-5.54 -10.307,-8.242 1.174,4.384 2.473,8.587 3.886,12.612 1.706,4.787 3.74,9.261 6.073,13.406 1.324,2.921 2.752,5.721 4.278,8.393 1.053,1.855 2.119,3.669 3.196,5.443 -1.499,1.75 -2.953,3.491 -4.365,5.222 -1.975,2.412 -3.805,4.837 -5.489,7.268 -2.671,3.282 -4.978,6.621 -6.91,9.983 -2.5,4.392 -4.585,8.723 -6.265,12.966 -0.848,2.232 -1.492,4.453 -1.936,6.649 -0.527,1.321 -0.884,2.656 -1.065,3.988 -0.753,3.917 -0.87,7.73 -0.378,11.371 0.126,2.254 0.565,4.442 1.302,6.534 0.071,0.28 0.193,0.551 0.362,0.81 0.034,0.042 0.089,0.074 0.156,0.095 l 0.069,-0.002 0.053,-0.042 c 0.009,-0.062 0.018,-0.125 0.026,-0.188 -0.148,-1.27 -0.2,-2.565 -0.154,-3.877 -0.062,-0.893 -0.046,-1.798 0.05,-2.709 0.344,-2.855 0.961,-5.779 1.862,-8.759 1.044,-2.975 2.285,-6.01 3.727,-9.099 1.646,-2.631 3.308,-5.333 4.988,-8.112 6.541,-9.403 14.643,-19.184 24.371,-29.22 0.241,-0.253 0.484,-0.505 0.73,-0.758 0.325,-0.135 0.65,-0.269 0.973,-0.401 M 347.808,374.381 c 7.493,3.016 14.746,5.525 21.739,7.548 10.327,3.22 20.128,5.328 29.337,6.387 2.333,0.634 4.645,0.973 6.894,1.02 5.354,0.043 10.538,0.081 15.566,0.118 1.495,-0.063 2.973,-0.145 4.438,-0.245 l 17.222,11.296 c -2.783,0.138 -5.621,0.238 -8.515,0.303 -12.081,0.899 -25.435,-0.142 -39.942,-3.367 -3.171,-0.944 -6.434,-1.667 -9.763,-2.163 -6.105,-1.663 -12.412,-3.688 -18.911,-6.102 -4.466,-1.678 -9.009,-3.602 -13.614,-5.771 0.325,5.082 0.449,10.014 0.372,14.783 -0.14,6.934 -0.569,13.543 -1.262,19.833 -0.761,3.279 -1.284,6.579 -1.571,9.875 -2.321,14.679 -6.252,27.482 -11.521,38.392 -1.121,2.668 -2.257,5.271 -3.405,7.81 l -4.189,-20.166 c 0.629,-1.325 1.247,-2.671 1.854,-4.038 1.811,-4.69 3.678,-9.528 5.602,-14.523 0.781,-2.109 1.313,-4.385 1.582,-6.788 2.391,-8.956 4.026,-18.848 4.819,-29.634 0.685,-7.25 1.012,-14.916 0.955,-22.992 0.028,-0.804 0.042,-1.613 0.039,-2.429 0.757,0.301 1.516,0.587 2.274,0.853 m 140.088,55.569 c 0.086,0.204 0.172,0.407 0.258,0.611 1.481,3.122 2.933,6.174 4.346,9.16 0.585,1.193 1.275,2.258 2.059,3.172 2.437,4.041 5.112,7.544 7.964,10.483 1.74,1.897 3.541,3.581 5.395,5.049 0.71,0.653 1.478,1.176 2.291,1.564 1.443,0.883 2.878,1.711 4.306,2.482 1.716,0.77 3.45,1.38 5.193,1.834 0.798,0.025 1.581,0.092 2.346,0.206 0.577,0.011 1.156,10e-4 1.735,-0.035 0,0 0.07,0.027 0.09,0.078 0.009,0.043 -0.006,0.1 -0.035,0.137 l -0.059,0.06 c -0.181,0.095 -0.361,0.14 -0.533,0.136 -1.755,0.367 -3.506,0.41 -5.206,0.122 -2.456,-0.18 -4.891,-0.725 -7.273,-1.648 -1.095,-0.343 -2.146,-0.861 -3.137,-1.549 -2.265,-1.001 -4.475,-2.325 -6.608,-3.964 -1.923,-1.502 -3.808,-3.193 -5.651,-5.072 -0.911,-1.264 -1.92,-2.431 -3.017,-3.49 -5.098,-5.885 -9.74,-13.225 -13.716,-21.895 -0.87,-1.707 -1.738,-3.447 -2.605,-5.217 z m -144.985,82.83 c 1.328,1.455 2.628,2.901 3.898,4.336 6.604,6.881 11.731,13.89 15.335,20.793 0.583,1.409 1.297,2.776 2.14,4.087 1.072,2.403 1.952,4.778 2.644,7.119 0.743,2.584 1.164,5.125 1.264,7.6 0.277,1.174 0.372,2.343 0.289,3.487 -0.014,2.556 -0.4,5.02 -1.133,7.37 -0.358,1.688 -1.038,3.3 -2.024,4.798 -0.059,0.162 -0.169,0.314 -0.322,0.446 l -0.077,0.033 c -0.046,0.015 -0.105,0.007 -0.142,-0.016 -0.039,-0.038 -0.039,-0.114 -0.039,-0.114 0.246,-0.526 0.469,-1.06 0.67,-1.601 0.175,-0.753 0.399,-1.507 0.668,-2.259 0.218,-1.787 0.286,-3.624 0.201,-5.502 -0.196,-1.612 -0.438,-3.251 -0.731,-4.917 -0.064,-0.898 -0.268,-1.805 -0.614,-2.706 -0.686,-2.261 -1.59,-4.555 -2.718,-6.869 -1.689,-3.733 -3.965,-7.506 -6.83,-11.256 -0.563,-1.064 -1.3,-2.097 -2.195,-3.079 -2.258,-2.41 -4.567,-4.881 -6.927,-7.403 -0.159,-0.155 -0.316,-0.309 -0.473,-0.464 z m 98.094,1.023 c -0.183,0.146 -0.364,0.292 -0.546,0.437 -5.366,4.247 -10.253,8.555 -14.645,12.887 -2.361,2.524 -4.669,4.992 -6.927,7.403 -0.895,0.981 -1.633,2.015 -2.196,3.079 -2.865,3.751 -5.143,7.523 -6.83,11.256 -1.129,2.314 -2.033,4.608 -2.717,6.869 -0.347,0.902 -0.551,1.808 -0.615,2.706 -0.293,1.666 -0.536,3.305 -0.729,4.917 -0.089,1.878 -0.018,3.715 0.199,5.502 0.271,0.752 0.494,1.506 0.67,2.259 0.199,0.541 0.422,1.075 0.668,1.601 0,0 0,0.077 -0.039,0.114 -0.037,0.023 -0.097,0.035 -0.142,0.016 l -0.077,-0.033 c -0.153,-0.132 -0.263,-0.284 -0.322,-0.446 -0.986,-1.5 -1.666,-3.11 -2.024,-4.798 -0.734,-2.35 -1.119,-4.814 -1.133,-7.37 -0.083,-1.144 0.013,-2.313 0.289,-3.487 0.101,-2.475 0.52,-5.016 1.264,-7.6 0.692,-2.341 1.572,-4.716 2.647,-7.119 0.839,-1.313 1.554,-2.679 2.138,-4.087 3.603,-6.904 8.729,-13.913 15.334,-20.793 3.21,-3.632 6.615,-7.325 10.221,-11.081 0.045,-0.044 0.09,-0.087 0.136,-0.13 0.056,-0.026 0.113,-0.053 0.169,-0.079 4.818,-1.976 9.502,-3.789 14.059,-5.442 8.823,-3.621 17.224,-5.818 24.969,-6.637 1.526,-0.025 3.057,-0.191 4.586,-0.489 2.63,-0.118 5.162,-0.066 7.594,0.15 2.676,0.255 5.194,0.798 7.533,1.611 1.195,0.174 2.317,0.513 3.351,1.01 2.371,0.952 4.523,2.214 6.44,3.76 1.439,0.951 2.688,2.175 3.721,3.642 0.13,0.115 0.228,0.272 0.296,0.463 l 0.004,0.085 c 10e-4,0.047 -0.033,0.099 -0.068,0.125 -0.049,0.022 -0.12,-0.005 -0.12,-0.005 -0.399,-0.422 -0.815,-0.825 -1.245,-1.21 -0.637,-0.439 -1.256,-0.923 -1.855,-1.451 -1.583,-0.858 -3.265,-1.597 -5.045,-2.205 -1.571,-0.411 -3.185,-0.784 -4.843,-1.125 -0.859,-0.271 -1.776,-0.413 -2.74,-0.42 -2.357,-0.193 -4.824,-0.193 -7.389,0.007 -4.092,0.2 -8.436,0.935 -12.977,2.225 -1.197,0.133 -2.429,0.44 -3.67,0.913 -3.071,1.215 -6.212,2.458 -9.428,3.728 -5.641,2.496 -11.442,5.462 -17.362,8.896 -0.201,0.115 -0.403,0.231 -0.604,0.346 M 230.407,502.13 c -2.04,0.575 -4.032,1.19 -5.972,1.846 0.656,-1.94 1.272,-3.931 1.845,-5.973 2.041,-0.611 4.092,-1.286 6.15,-2.022 -0.736,2.06 -1.409,4.109 -2.023,6.149 m 63.237,5.486 c 1.645,1.439 3.305,2.82 4.977,4.136 -0.213,2.11 -0.371,4.188 -0.473,6.235 -1.565,-1.323 -3.191,-2.626 -4.88,-3.909 0.179,-2.123 0.304,-4.277 0.376,-6.462 m -62.502,6.361 c 2.63,-0.461 5.3,-0.95 8.011,-1.463 0.447,-0.101 0.898,-0.197 1.351,-0.287 0.127,-0.418 0.261,-0.835 0.401,-1.252 0.756,-2.588 1.509,-5.228 2.255,-7.927 2.692,-9.307 6.375,-18.96 11.143,-28.942 -9.98,4.769 -19.631,8.453 -28.939,11.145 -2.699,0.746 -5.34,1.499 -7.927,2.256 -0.417,0.141 -0.835,0.272 -1.253,0.4 -0.09,0.453 -0.185,0.905 -0.287,1.351 -0.512,2.712 -1,5.382 -1.463,8.012 -1.565,8.39 -3.68,16.061 -6.276,22.982 6.924,-2.596 14.594,-4.709 22.984,-6.275 m 76.177,25.122 c 0.122,-7.393 0.971,-15.304 2.593,-23.683 0.532,-2.616 1.06,-5.279 1.578,-7.99 0.069,-0.452 0.147,-0.907 0.229,-1.361 -0.342,-0.273 -0.684,-0.548 -1.02,-0.832 -2.129,-1.652 -4.31,-3.322 -6.545,-5.006 -7.672,-5.919 -15.299,-12.889 -22.835,-20.985 0.775,11.034 0.66,21.364 -0.252,31.01 -0.294,2.787 -0.562,5.518 -0.807,8.203 -0.025,0.439 -0.053,0.876 -0.087,1.312 0.386,0.248 0.771,0.504 1.149,0.762 2.336,1.472 4.64,2.906 6.916,4.3 7.231,4.534 13.592,9.316 19.081,14.27 m -31.573,-95.78 c 1.391,2.871 2.982,5.558 4.75,8.028 2.242,4.197 4.656,8.12 7.219,11.766 4.628,6.435 9.381,12.258 14.237,17.492 3.47,3.712 7.117,7.005 10.907,9.877 2.383,2.152 4.805,4.152 7.269,5.996 1.705,1.283 3.404,2.521 5.1,3.719 -0.677,2.201 -1.318,4.377 -1.925,6.527 -0.848,3.001 -1.561,5.954 -2.137,8.855 -1.143,4.073 -1.929,8.056 -2.362,11.909 -0.542,5.024 -0.731,9.827 -0.578,14.387 0.109,2.385 0.402,4.681 0.871,6.872 0.043,1.421 0.247,2.787 0.612,4.082 0.869,3.892 2.28,7.436 4.182,10.58 1.014,2.017 2.291,3.847 3.798,5.474 0.178,0.228 0.397,0.429 0.654,0.599 0.051,0.023 0.113,0.033 0.182,0.024 l 0.062,-0.029 0.033,-0.061 c -0.017,-0.06 -0.033,-0.121 -0.052,-0.181 -0.641,-1.106 -1.206,-2.274 -1.686,-3.495 -0.413,-0.794 -0.758,-1.631 -1.031,-2.505 -0.825,-2.755 -1.424,-5.683 -1.785,-8.774 -0.223,-3.147 -0.296,-6.425 -0.206,-9.833 0.464,-3.067 0.912,-6.21 1.347,-9.426 2.25,-11.229 5.785,-23.429 10.71,-36.511 0.462,-1.248 0.94,-2.501 1.438,-3.762 -0.959,-0.635 -1.913,-1.291 -2.866,-1.965 -11.015,-7.66 -22.23,-17.191 -33.628,-28.85 -3.49,-4.031 -7.127,-8.174 -10.917,-12.432 -4.07,-5.633 -8.116,-11.693 -12.132,-18.193 -0.45,-0.779 -0.897,-1.567 -1.345,-2.362 -0.705,0.576 -1.411,1.144 -2.114,1.705 -6.123,4.572 -12.108,8.726 -17.96,12.474 -5.09,2.569 -9.993,5.09 -14.718,7.559 -14.882,6.663 -28.81,11.416 -41.867,14.502 -1.133,0.277 -2.263,0.536 -3.389,0.775 0,1.356 -0.012,2.698 -0.041,4.028 -0.218,13.976 -1.405,26.622 -3.43,37.894 -0.779,3.152 -1.511,6.239 -2.207,9.263 -1.166,3.203 -2.436,6.227 -3.798,9.071 -1.471,2.743 -3.103,5.248 -4.88,7.508 -0.576,0.714 -1.203,1.365 -1.878,1.952 -0.896,0.961 -1.848,1.839 -2.852,2.632 -0.038,0.051 -0.076,0.101 -0.114,0.152 l 0.009,0.067 0.046,0.051 c 0.064,0.032 0.123,0.046 0.178,0.043 0.302,-0.064 0.582,-0.169 0.829,-0.317 1.999,-0.96 3.858,-2.194 5.542,-3.698 2.921,-2.229 5.534,-5.007 7.772,-8.31 0.814,-1.069 1.505,-2.265 2.068,-3.572 1.239,-1.866 2.353,-3.894 3.331,-6.072 1.812,-4.187 3.401,-8.724 4.739,-13.598 1.01,-3.743 1.74,-7.736 2.172,-11.944 0.529,-2.911 0.949,-5.919 1.259,-9.021 0.225,-2.224 0.428,-4.482 0.606,-6.778 2.016,-0.493 4.052,-1.021 6.108,-1.589 2.969,-0.813 5.957,-1.783 8.96,-2.911 4.579,-1.282 9.181,-3.008 13.772,-5.186 6.436,-3.089 12.996,-6.762 19.662,-11.051 3.72,-2.45 7.406,-5.216 11.031,-8.297 2.552,-1.648 5.017,-3.564 7.364,-5.725 0.64,-0.547 1.277,-1.103 1.912,-1.667 0.385,0.758 0.773,1.51 1.167,2.252 m -17.481,89.099 c 12.923,5.33 24.25,11.075 33.994,17.093 2.646,1.88 5.25,3.696 7.809,5.453 2.551,2.259 4.898,4.549 7.043,6.861 2.012,2.375 3.743,4.811 5.197,7.292 0.449,0.797 0.826,1.62 1.124,2.465 0.565,1.186 1.034,2.394 1.402,3.618 0.033,0.055 0.066,0.109 0.1,0.163 l 0.064,0.016 0.064,-0.026 c 0.055,-0.046 0.091,-0.098 0.108,-0.149 0.051,-0.305 0.055,-0.602 0.007,-0.887 -0.156,-2.213 -0.625,-4.394 -1.407,-6.512 -1.001,-3.536 -2.626,-6.987 -4.877,-10.28 -0.698,-1.149 -1.556,-2.232 -2.565,-3.233 -1.283,-1.836 -2.76,-3.618 -4.425,-5.327 -3.232,-3.223 -6.87,-6.365 -10.912,-9.398 -3.112,-2.314 -6.559,-4.456 -10.315,-6.401 -2.512,-1.56 -5.158,-3.056 -7.931,-4.481 -1.983,-1.026 -4.012,-2.043 -6.083,-3.051 0.281,-2.056 0.537,-4.144 0.763,-6.265 0.334,-3.059 0.529,-6.196 0.58,-9.403 0.489,-4.73 0.572,-9.645 0.229,-14.716 -0.307,-4.253 -0.79,-8.625 -1.46,-13.115 -2.27,3.929 -4.323,7.82 -6.17,11.666 -2.178,4.591 -3.904,9.193 -5.186,13.772 -1.129,3.003 -2.098,5.991 -2.911,8.961 -0.565,2.056 -1.095,4.092 -1.588,6.109 -2.296,0.177 -4.556,0.379 -6.778,0.604 -3.102,0.311 -6.111,0.731 -9.021,1.26 -4.208,0.432 -8.203,1.16 -11.945,2.172 -4.873,1.338 -9.41,2.926 -13.598,4.738 -2.178,0.979 -4.204,2.094 -6.071,3.334 -1.308,0.559 -2.503,1.253 -3.573,2.065 -3.302,2.238 -6.08,4.851 -8.308,7.774 -1.504,1.683 -2.74,3.54 -3.698,5.541 -0.15,0.248 -0.254,0.526 -0.319,0.829 -0.005,0.054 0.011,0.115 0.043,0.177 l 0.053,0.048 0.067,0.008 c 0.049,-0.038 0.1,-0.075 0.15,-0.114 0.793,-1.004 1.673,-1.956 2.633,-2.852 0.588,-0.677 1.239,-1.304 1.951,-1.879 2.262,-1.776 4.765,-3.408 7.508,-4.878 2.844,-1.364 5.868,-2.633 9.071,-3.798 3.023,-0.696 6.111,-1.431 9.264,-2.208 11.272,-2.025 23.917,-3.213 37.893,-3.43 0.35,-0.008 0.7,-0.014 1.052,-0.02 0.327,0.135 0.65,0.269 0.972,0.404 M 286.03,388.313 c 3.166,7.43 6.52,14.333 10.035,20.708 5.027,9.578 10.464,17.999 16.228,25.262 1.202,2.096 2.598,3.971 4.154,5.595 3.755,3.815 7.395,7.509 10.923,11.09 1.103,1.012 2.207,2.001 3.313,2.964 l 4.189,20.166 c -2.065,-1.87 -4.143,-3.806 -6.235,-5.807 -9.178,-7.907 -17.886,-18.085 -25.862,-30.624 -1.576,-2.909 -3.372,-5.728 -5.375,-8.432 -3.142,-5.493 -6.17,-11.385 -9.057,-17.687 -1.971,-4.345 -3.823,-8.918 -5.548,-13.707 -3.361,3.823 -6.76,7.397 -10.189,10.716 -5,4.804 -9.978,9.173 -14.915,13.131 -2.857,1.781 -5.561,3.744 -8.093,5.872 -12.022,8.738 -23.854,15.012 -35.294,19 -2.68,1.094 -5.324,2.132 -7.931,3.114 l 11.298,-17.221 c 1.381,-0.491 2.77,-1.005 4.166,-1.543 4.597,-2.037 9.338,-4.137 14.231,-6.308 2.043,-0.94 4.029,-2.172 5.916,-3.682 8.027,-4.641 16.176,-10.48 24.365,-17.546 5.608,-4.643 11.261,-9.834 16.934,-15.584 0.587,-0.547 1.168,-1.111 1.743,-1.69 0.323,0.749 0.658,1.486 1.004,2.213 m 59.765,138.35 c -0.083,0.205 -0.166,0.41 -0.25,0.613 -1.159,3.256 -2.293,6.441 -3.403,9.551 -0.431,1.257 -0.697,2.498 -0.788,3.699 -1.134,4.581 -1.718,8.949 -1.782,13.044 -0.11,2.572 -0.026,5.036 0.245,7.385 0.04,0.963 0.214,1.876 0.514,2.726 0.398,1.645 0.825,3.245 1.289,4.799 0.67,1.759 1.466,3.416 2.378,4.969 0.545,0.582 1.052,1.183 1.512,1.805 0.399,0.416 0.816,0.818 1.251,1.203 0,0 0.03,0.068 0.01,0.118 -0.025,0.037 -0.076,0.067 -0.123,0.072 l -0.085,10e-4 c -0.193,-0.061 -0.353,-0.157 -0.472,-0.281 -1.5,-0.982 -2.768,-2.188 -3.768,-3.596 -1.608,-1.863 -2.945,-3.97 -3.977,-6.307 -0.532,-1.017 -0.908,-2.127 -1.122,-3.314 -0.895,-2.31 -1.521,-4.808 -1.87,-7.475 -0.297,-2.421 -0.435,-4.95 -0.411,-7.582 0.25,-1.539 0.362,-3.077 0.335,-4.601 0.556,-7.768 2.464,-16.24 5.785,-25.181 0.59,-1.823 1.208,-3.666 1.846,-5.531 z m -161.09,-43.951 c -0.09,1.969 -0.192,3.911 -0.311,5.822 -0.195,9.537 -1.525,18.117 -3.857,25.547 -0.584,1.409 -1.046,2.879 -1.378,4.402 -0.941,2.458 -1.997,4.761 -3.165,6.904 -1.3,2.353 -2.799,4.448 -4.478,6.268 -0.637,1.026 -1.393,1.92 -2.262,2.67 -1.817,1.798 -3.833,3.266 -6.013,4.41 -1.446,0.941 -3.068,1.599 -4.823,1.962 -0.158,0.072 -0.343,0.102 -0.545,0.088 l -0.077,-0.032 c -0.043,-0.022 -0.078,-0.068 -0.088,-0.111 -0.002,-0.054 0.053,-0.108 0.053,-0.108 0.545,-0.197 1.08,-0.419 1.605,-0.659 0.657,-0.409 1.347,-0.783 2.069,-1.124 1.418,-1.11 2.765,-2.361 4.034,-3.75 1,-1.277 1.987,-2.608 2.959,-3.994 0.592,-0.679 1.087,-1.465 1.48,-2.346 1.113,-2.085 2.096,-4.347 2.935,-6.779 1.445,-3.833 2.504,-8.112 3.129,-12.789 0.355,-1.151 0.564,-2.403 0.625,-3.73 0.108,-3.3 0.222,-6.68 0.337,-10.133 -0.003,-0.221 -0.004,-0.441 -0.008,-0.662 z m 68.639,70.086 c -0.232,-0.026 -0.463,-0.051 -0.695,-0.077 -6.797,-0.791 -13.299,-1.2 -19.466,-1.243 -3.456,0.116 -6.832,0.228 -10.134,0.336 -1.327,0.062 -2.579,0.271 -3.731,0.625 -4.677,0.627 -8.956,1.683 -12.788,3.13 -2.434,0.839 -4.695,1.82 -6.779,2.936 -0.883,0.392 -1.668,0.888 -2.347,1.478 -1.385,0.972 -2.717,1.958 -3.993,2.961 -1.39,1.266 -2.639,2.615 -3.75,4.033 -0.34,0.723 -0.715,1.413 -1.124,2.069 -0.239,0.525 -0.461,1.059 -0.659,1.606 0,0 -0.056,0.054 -0.107,0.053 -0.043,-0.01 -0.095,-0.045 -0.112,-0.089 l -0.032,-0.078 c -0.014,-0.203 0.017,-0.387 0.087,-0.543 0.365,-1.758 1.021,-3.378 1.962,-4.823 1.143,-2.182 2.614,-4.197 4.411,-6.014 0.75,-0.868 1.643,-1.627 2.669,-2.261 1.823,-1.679 3.914,-3.18 6.269,-4.48 2.143,-1.167 4.446,-2.223 6.905,-3.163 1.522,-0.335 2.992,-0.794 4.401,-1.378 7.43,-2.333 16.011,-3.666 25.547,-3.859 4.837,-0.3 9.856,-0.503 15.062,-0.609 0.063,10e-4 0.125,0.002 0.188,0.004 0.057,0.021 0.117,0.043 0.175,0.064 4.805,2.01 9.399,4.039 13.789,6.093 8.801,3.678 16.292,8.066 22.349,12.962 1.097,1.061 2.298,2.027 3.589,2.898 1.944,1.776 3.697,3.603 5.263,5.475 1.713,2.073 3.109,4.237 4.187,6.466 0.722,0.968 1.276,2.002 1.657,3.085 1.003,2.349 1.633,4.763 1.894,7.212 0.346,1.688 0.363,3.438 0.057,5.206 0.01,0.172 -0.03,0.355 -0.119,0.537 l -0.058,0.062 c -0.031,0.035 -0.092,0.048 -0.136,0.041 -0.049,-0.018 -0.082,-0.089 -0.082,-0.089 0.018,-0.58 0.008,-1.159 -0.024,-1.735 -0.14,-0.761 -0.233,-1.541 -0.284,-2.337 -0.513,-1.727 -1.18,-3.439 -2.01,-5.127 -0.82,-1.402 -1.695,-2.807 -2.628,-4.22 -0.417,-0.8 -0.964,-1.548 -1.642,-2.236 -1.529,-1.802 -3.272,-3.546 -5.23,-5.219 -3.033,-2.752 -6.625,-5.303 -10.748,-7.602 -0.94,-0.753 -2.029,-1.407 -3.239,-1.95 -3.033,-1.312 -6.132,-2.656 -9.305,-4.031 -5.753,-2.224 -11.952,-4.228 -18.566,-5.986 -0.224,-0.061 -0.448,-0.122 -0.673,-0.183 M 112.684,395.63 c -1.851,-1.037 -3.694,-2.011 -5.529,-2.919 1.835,-0.907 3.678,-1.88 5.529,-2.918 1.875,1.011 3.803,1.983 5.777,2.918 -1.974,0.937 -3.902,1.909 -5.777,2.919 m 40.836,48.593 c 0.145,2.181 0.343,4.33 0.595,6.445 -1.644,1.34 -3.225,2.7 -4.742,4.074 -0.172,-2.042 -0.401,-4.114 -0.688,-6.215 1.627,-1.374 3.239,-2.809 4.835,-4.304 m -48.694,-39.697 c 2.187,1.534 4.42,3.076 6.7,4.631 0.387,0.245 0.774,0.495 1.158,0.752 0.386,-0.206 0.774,-0.407 1.168,-0.603 2.365,-1.295 4.764,-2.629 7.2,-4.01 8.485,-4.678 17.916,-8.899 28.344,-12.585 -10.428,-3.686 -19.859,-7.905 -28.344,-12.584 -2.435,-1.38 -4.835,-2.714 -7.2,-4.009 -0.394,-0.196 -0.782,-0.398 -1.168,-0.603 -0.384,0.257 -0.771,0.509 -1.158,0.752 -2.28,1.555 -4.513,3.099 -6.7,4.631 -7.04,4.826 -13.959,8.755 -20.689,11.813 6.73,3.06 13.649,6.989 20.689,11.815 m 36.101,71.629 c 5.315,-5.141 11.509,-10.135 18.58,-14.913 2.227,-1.472 4.482,-2.983 6.766,-4.534 0.368,-0.27 0.745,-0.538 1.124,-0.8 -0.048,-0.436 -0.094,-0.871 -0.131,-1.309 -0.339,-2.675 -0.699,-5.397 -1.089,-8.169 -1.239,-9.61 -1.705,-19.931 -1.309,-30.986 -7.254,8.351 -14.641,15.574 -22.105,21.751 -2.179,1.762 -4.301,3.503 -6.372,5.228 -0.327,0.294 -0.657,0.583 -0.988,0.867 0.097,0.449 0.188,0.902 0.273,1.351 0.61,2.692 1.226,5.336 1.85,7.932 1.907,8.319 3.023,16.198 3.401,23.582 m 45.402,-90.052 c -1.047,3.014 -1.822,6.039 -2.319,9.035 -1.382,4.554 -2.448,9.034 -3.215,13.425 -1.278,7.822 -2.034,15.301 -2.302,22.435 -0.17,5.079 0.081,9.988 0.729,14.698 0.163,3.205 0.463,6.332 0.9,9.378 0.299,2.114 0.627,4.19 0.976,6.236 -2.035,1.079 -4.025,2.164 -5.975,3.255 -2.723,1.522 -5.314,3.106 -7.773,4.749 -3.687,2.074 -7.059,4.333 -10.091,6.752 -3.937,3.169 -7.466,6.433 -10.583,9.765 -1.608,1.764 -3.024,3.594 -4.243,5.474 -0.975,1.035 -1.796,2.146 -2.453,3.319 -2.138,3.368 -3.644,6.872 -4.524,10.439 -0.709,2.143 -1.102,4.34 -1.185,6.556 -0.037,0.287 -0.022,0.583 0.039,0.886 0.019,0.053 0.056,0.102 0.11,0.147 l 0.066,0.022 0.066,-0.019 c 0.03,-0.054 0.061,-0.109 0.092,-0.165 0.327,-1.236 0.755,-2.46 1.28,-3.664 0.269,-0.854 0.616,-1.688 1.041,-2.501 1.366,-2.53 3.013,-5.024 4.941,-7.466 2.068,-2.382 4.334,-4.752 6.807,-7.097 2.497,-1.842 5.038,-3.746 7.619,-5.715 9.531,-6.348 20.657,-12.475 33.389,-18.243 1.21,-0.555 2.434,-1.102 3.68,-1.642 -0.231,-1.127 -0.443,-2.267 -0.639,-3.417 -2.373,-13.206 -3.562,-27.875 -3.379,-44.179 0.384,-5.318 0.742,-10.819 1.071,-16.51 1.106,-6.862 2.53,-14.007 4.285,-21.443 0.234,-0.869 0.475,-1.743 0.721,-2.62 -0.907,-0.092 -1.807,-0.19 -2.701,-0.291 -7.563,-1.096 -14.731,-2.391 -21.52,-3.879 -5.415,-1.781 -10.665,-3.467 -15.752,-5.062 -15.235,-5.811 -28.444,-12.299 -39.859,-19.351 -0.997,-0.604 -1.98,-1.22 -2.944,-1.847 -0.96,0.959 -1.916,1.898 -2.878,2.819 -10.035,9.729 -19.819,17.83 -29.221,24.37 -2.777,1.678 -5.481,3.342 -8.109,4.989 -3.091,1.44 -6.126,2.68 -9.102,3.728 -2.978,0.9 -5.903,1.517 -8.757,1.859 -0.911,0.098 -1.817,0.115 -2.71,0.052 -1.311,0.046 -2.606,-0.006 -3.877,-0.154 -0.063,0.008 -0.126,0.017 -0.188,0.025 l -0.042,0.055 -0.002,0.068 c 0.021,0.067 0.054,0.12 0.094,0.156 0.261,0.169 0.531,0.291 0.811,0.363 2.093,0.734 4.28,1.175 6.535,1.303 3.64,0.49 7.453,0.373 11.37,-0.38 1.33,-0.182 2.665,-0.537 3.988,-1.064 2.196,-0.444 4.417,-1.089 6.649,-1.939 4.243,-1.678 8.573,-3.763 12.966,-6.263 3.362,-1.933 6.702,-4.239 9.983,-6.91 2.43,-1.684 4.854,-3.514 7.269,-5.489 1.729,-1.413 3.471,-2.867 5.221,-4.364 1.774,1.076 3.587,2.143 5.442,3.196 2.673,1.525 5.473,2.951 8.394,4.277 4.144,2.332 8.619,4.365 13.406,6.072 6.734,2.366 13.971,4.408 21.717,6.088 4.364,0.897 8.924,1.549 13.667,1.934 2.97,0.637 6.067,1.027 9.256,1.159 0.839,0.064 1.681,0.123 2.53,0.173 -0.265,0.808 -0.519,1.613 -0.767,2.417 m -75.364,50.643 c 5.368,12.904 9.317,24.977 11.951,36.123 0.543,3.2 1.098,6.325 1.666,9.376 0.206,3.402 0.247,6.681 0.128,9.833 -0.256,3.102 -0.754,6.048 -1.482,8.831 -0.245,0.882 -0.561,1.73 -0.948,2.537 -0.438,1.238 -0.96,2.425 -1.565,3.551 -0.015,0.062 -0.03,0.123 -0.046,0.185 l 0.035,0.057 0.064,0.027 c 0.07,0.006 0.133,-0.004 0.181,-0.03 0.251,-0.179 0.464,-0.386 0.633,-0.621 1.453,-1.676 2.664,-3.55 3.608,-5.6 1.793,-3.208 3.084,-6.798 3.82,-10.719 0.32,-1.304 0.48,-2.677 0.472,-4.099 0.393,-2.205 0.608,-4.509 0.64,-6.896 -0.006,-4.563 -0.357,-9.358 -1.072,-14.361 -0.564,-3.836 -1.486,-7.788 -2.766,-11.82 -0.675,-2.88 -1.488,-5.808 -2.44,-8.776 -0.677,-2.129 -1.392,-4.282 -2.143,-6.459 1.652,-1.256 3.308,-2.551 4.969,-3.89 2.399,-1.928 4.755,-4.008 7.059,-6.239 3.689,-3 7.224,-6.417 10.567,-10.244 2.791,-3.224 5.54,-6.658 8.241,-10.307 -4.383,1.174 -8.586,2.473 -12.611,3.886 -4.787,1.707 -9.262,3.741 -13.406,6.074 -2.921,1.324 -5.721,2.752 -8.394,4.276 -1.854,1.054 -3.668,2.12 -5.442,3.196 -1.75,-1.497 -3.492,-2.952 -5.221,-4.365 -2.413,-1.974 -4.839,-3.804 -7.269,-5.487 -3.281,-2.671 -6.621,-4.98 -9.983,-6.911 -4.392,-2.5 -8.723,-4.585 -12.966,-6.265 -2.232,-0.847 -4.453,-1.492 -6.649,-1.936 -1.321,-0.528 -2.658,-0.883 -3.988,-1.065 -3.917,-0.753 -7.73,-0.869 -11.37,-0.378 -2.255,0.126 -4.442,0.565 -6.535,1.303 -0.28,0.07 -0.55,0.192 -0.811,0.361 -0.041,0.034 -0.073,0.088 -0.094,0.156 l 0.002,0.07 0.042,0.053 c 0.062,0.008 0.125,0.017 0.188,0.026 1.271,-0.149 2.566,-0.2 3.877,-0.155 0.893,-0.063 1.799,-0.045 2.71,0.05 2.854,0.344 5.779,0.961 8.757,1.862 2.976,1.045 6.011,2.287 9.102,3.727 2.628,1.647 5.332,3.309 8.109,4.989 9.402,6.539 19.186,14.641 29.221,24.37 0.251,0.242 0.505,0.485 0.758,0.73 0.135,0.325 0.269,0.65 0.401,0.974 m 121.53,-82.267 c -3.014,7.493 -5.524,14.746 -7.546,21.74 -3.219,10.327 -5.328,20.126 -6.389,29.337 -0.632,2.332 -0.971,4.645 -1.019,6.894 -0.042,5.353 -0.081,10.538 -0.117,15.566 0.063,1.494 0.145,2.974 0.245,4.437 l -11.295,17.221 c -0.138,-2.781 -0.239,-5.62 -0.304,-8.514 -0.899,-12.081 0.14,-25.435 3.368,-39.942 0.943,-3.17 1.666,-6.433 2.162,-9.762 1.661,-6.106 3.688,-12.413 6.101,-18.912 1.679,-4.466 3.603,-9.008 5.77,-13.615 -5.08,0.327 -10.012,0.45 -14.783,0.373 -6.93,-0.139 -13.54,-0.569 -19.831,-1.262 -3.279,-0.76 -6.579,-1.284 -9.875,-1.571 -14.679,-2.321 -27.482,-6.251 -38.392,-11.521 -2.667,-1.121 -5.271,-2.257 -7.809,-3.405 l 20.165,-4.19 c 1.325,0.631 2.671,1.249 4.038,1.856 4.69,1.81 9.528,3.677 14.523,5.602 2.109,0.78 4.384,1.313 6.787,1.581 8.956,2.393 18.847,4.026 29.635,4.819 7.249,0.685 14.917,1.011 22.994,0.956 0.802,0.028 1.613,0.041 2.427,0.038 -0.302,0.758 -0.586,1.517 -0.855,2.274 m -55.567,140.089 c -0.203,0.086 -0.407,0.172 -0.61,0.258 -3.123,1.481 -6.176,2.932 -9.161,4.346 -1.193,0.584 -2.257,1.274 -3.172,2.059 -4.041,2.437 -7.544,5.111 -10.484,7.964 -1.896,1.74 -3.58,3.541 -5.048,5.394 -0.653,0.71 -1.176,1.478 -1.564,2.291 -0.883,1.443 -1.711,2.878 -2.482,4.306 -0.77,1.717 -1.38,3.451 -1.834,5.194 -0.025,0.797 -0.093,1.58 -0.206,2.345 -0.011,0.577 -10e-4,1.155 0.034,1.735 0,0 -0.026,0.071 -0.077,0.091 -0.043,0.008 -0.1,-0.006 -0.137,-0.036 l -0.061,-0.058 c -0.094,-0.181 -0.14,-0.362 -0.135,-0.533 -0.367,-1.756 -0.41,-3.506 -0.122,-5.207 0.18,-2.455 0.725,-4.89 1.648,-7.273 0.342,-1.095 0.861,-2.146 1.548,-3.137 1.002,-2.265 2.326,-4.474 3.965,-6.607 1.502,-1.923 3.193,-3.808 5.072,-5.652 1.264,-0.91 2.43,-1.92 3.49,-3.016 5.885,-5.1 13.224,-9.74 21.895,-13.717 1.707,-0.869 3.447,-1.737 5.217,-2.605 z M 94.097,349.582 c -1.454,1.329 -2.901,2.629 -4.335,3.897 -6.881,6.606 -13.89,11.732 -20.794,15.336 -1.409,0.583 -2.775,1.298 -4.086,2.14 -2.403,1.072 -4.778,1.953 -7.118,2.645 -2.585,0.743 -5.126,1.164 -7.601,1.264 -1.174,0.276 -2.343,0.372 -3.487,0.289 -2.555,-0.014 -5.02,-0.401 -7.37,-1.134 -1.688,-0.356 -3.299,-1.039 -4.798,-2.023 -0.162,-0.06 -0.314,-0.169 -0.445,-0.322 l -0.035,-0.078 c -0.014,-0.046 -0.006,-0.105 0.017,-0.141 0.038,-0.039 0.114,-0.039 0.114,-0.039 0.525,0.246 1.06,0.468 1.602,0.668 0.753,0.177 1.507,0.4 2.257,0.669 1.788,0.218 3.625,0.287 5.504,0.201 1.611,-0.195 3.25,-0.438 4.917,-0.73 0.897,-0.063 1.804,-0.268 2.703,-0.615 2.263,-0.686 4.557,-1.591 6.871,-2.718 3.731,-1.688 7.506,-3.965 11.255,-6.83 1.065,-0.562 2.099,-1.3 3.08,-2.195 2.41,-2.258 4.881,-4.566 7.403,-6.928 0.155,-0.157 0.309,-0.315 0.464,-0.472 z m -1.022,98.093 c -0.146,-0.181 -0.292,-0.363 -0.437,-0.545 -4.247,-5.366 -8.555,-10.253 -12.887,-14.644 -2.524,-2.361 -4.992,-4.67 -7.403,-6.928 -0.981,-0.895 -2.015,-1.632 -3.08,-2.195 -3.75,-2.865 -7.522,-5.143 -11.255,-6.83 -2.314,-1.128 -4.608,-2.033 -6.871,-2.718 -0.9,-0.346 -1.806,-0.551 -2.703,-0.614 -1.667,-0.292 -3.306,-0.537 -4.917,-0.731 -1.879,-0.087 -3.716,-0.017 -5.504,0.201 -0.75,0.27 -1.504,0.494 -2.257,0.668 -0.542,0.201 -1.077,0.423 -1.602,0.669 0,0 -0.077,0 -0.114,-0.039 -0.023,-0.036 -0.034,-0.097 -0.017,-0.141 l 0.035,-0.078 c 0.131,-0.153 0.283,-0.261 0.445,-0.322 1.5,-0.985 3.11,-1.667 4.798,-2.023 2.35,-0.735 4.815,-1.12 7.37,-1.134 1.144,-0.083 2.313,0.013 3.487,0.289 2.475,0.102 5.016,0.52 7.601,1.265 2.34,0.691 4.715,1.572 7.118,2.646 1.313,0.839 2.679,1.555 4.086,2.137 6.904,3.605 13.914,8.729 20.794,15.336 3.632,3.21 7.325,6.614 11.083,10.22 0.043,0.046 0.085,0.09 0.128,0.136 0.026,0.056 0.052,0.113 0.079,0.169 1.976,4.818 3.789,9.503 5.442,14.06 3.621,8.822 5.817,17.223 6.636,24.969 0.026,1.524 0.192,3.057 0.49,4.586 0.118,2.629 0.066,5.162 -0.149,7.594 -0.256,2.676 -0.799,5.193 -1.612,7.532 -0.175,1.195 -0.513,2.317 -1.011,3.351 -0.951,2.372 -2.213,4.523 -3.759,6.441 -0.951,1.438 -2.175,2.686 -3.641,3.721 -0.116,0.128 -0.272,0.229 -0.464,0.296 l -0.085,0.003 c -0.047,10e-4 -0.099,-0.032 -0.126,-0.067 -0.021,-0.049 0.006,-0.121 0.006,-0.121 0.422,-0.398 0.825,-0.815 1.21,-1.245 0.438,-0.636 0.922,-1.255 1.45,-1.854 0.858,-1.584 1.597,-3.266 2.206,-5.046 0.411,-1.571 0.784,-3.184 1.124,-4.842 0.272,-0.86 0.414,-1.776 0.421,-2.742 0.193,-2.355 0.193,-4.822 -0.007,-7.388 -0.2,-4.091 -0.935,-8.435 -2.226,-12.976 -0.133,-1.197 -0.439,-2.429 -0.912,-3.67 -1.215,-3.071 -2.457,-6.213 -3.728,-9.429 -2.496,-5.641 -5.462,-11.441 -8.896,-17.361 -0.114,-0.202 -0.232,-0.404 -0.346,-0.606 m 11.673,-210.597 c -0.576,-2.039 -1.19,-4.031 -1.846,-5.971 1.94,0.657 3.931,1.272 5.973,1.844 0.611,2.041 1.286,4.094 2.021,6.149 -2.059,-0.733 -4.108,-1.409 -6.148,-2.022 m -5.486,63.235 c -1.439,1.647 -2.82,3.306 -4.137,4.981 -2.109,-0.215 -4.188,-0.372 -6.234,-0.474 1.323,-1.566 2.626,-3.192 3.909,-4.88 2.122,0.179 4.277,0.304 6.462,0.373 m -6.361,-62.499 c 0.461,2.629 0.95,5.301 1.463,8.012 0.1,0.447 0.197,0.899 0.286,1.35 0.42,0.127 0.836,0.26 1.253,0.4 2.588,0.756 5.227,1.51 7.927,2.258 9.307,2.689 18.96,6.375 28.941,11.143 -4.769,-9.983 -8.452,-19.635 -11.144,-28.942 -0.747,-2.697 -1.5,-5.338 -2.256,-7.928 -0.141,-0.416 -0.272,-0.832 -0.401,-1.252 -0.453,-0.087 -0.904,-0.185 -1.349,-0.285 -2.712,-0.513 -5.383,-1 -8.012,-1.463 -8.391,-1.568 -16.062,-3.681 -22.983,-6.279 2.596,6.926 4.709,14.594 6.275,22.986 M 67.778,313.99 c 7.394,0.124 15.305,0.971 23.684,2.593 2.615,0.534 5.279,1.06 7.991,1.578 0.451,0.069 0.906,0.146 1.36,0.229 0.272,-0.344 0.548,-0.682 0.832,-1.019 1.652,-2.13 3.322,-4.31 5.007,-6.545 5.918,-7.671 12.888,-15.299 20.985,-22.836 -11.034,0.778 -21.366,0.658 -31.012,-0.252 -2.786,-0.295 -5.518,-0.564 -8.201,-0.806 -0.44,-0.026 -0.876,-0.053 -1.313,-0.088 -0.248,0.388 -0.504,0.771 -0.762,1.148 -1.472,2.336 -2.906,4.641 -4.3,6.918 -4.533,7.231 -9.316,13.591 -14.271,19.08 m 95.78,-31.572 c -2.871,1.389 -5.557,2.98 -8.027,4.75 -4.197,2.242 -8.12,4.656 -11.766,7.217 -6.435,4.628 -12.258,9.383 -17.492,14.237 -3.712,3.471 -7.005,7.12 -9.878,10.91 -2.152,2.381 -4.151,4.804 -5.996,7.266 -1.282,1.706 -2.52,3.405 -3.718,5.102 -2.202,-0.678 -4.376,-1.318 -6.527,-1.925 -3.001,-0.849 -5.954,-1.561 -8.855,-2.139 -4.073,-1.14 -8.056,-1.926 -11.909,-2.36 -5.024,-0.543 -9.827,-0.73 -14.388,-0.579 -2.384,0.11 -4.68,0.403 -6.87,0.871 -1.422,0.042 -2.788,0.248 -4.083,0.612 -3.892,0.869 -7.436,2.283 -10.58,4.181 -2.018,1.014 -3.847,2.292 -5.474,3.799 -0.228,0.177 -0.429,0.398 -0.599,0.655 -0.023,0.048 -0.033,0.111 -0.026,0.182 l 0.03,0.061 0.062,0.033 c 0.06,-0.017 0.12,-0.033 0.182,-0.052 1.104,-0.642 2.273,-1.205 3.495,-1.686 0.793,-0.412 1.63,-0.758 2.505,-1.031 2.754,-0.823 5.683,-1.422 8.773,-1.784 3.146,-0.223 6.425,-0.296 9.833,-0.207 3.067,0.464 6.21,0.912 9.426,1.345 11.229,2.252 23.429,5.789 36.512,10.712 1.247,0.463 2.5,0.941 3.761,1.439 0.634,-0.959 1.29,-1.914 1.965,-2.866 7.66,-11.016 17.191,-22.229 28.85,-33.629 4.031,-3.489 8.175,-7.127 12.432,-10.917 5.633,-4.07 11.693,-8.115 18.193,-12.133 0.778,-0.449 1.567,-0.896 2.362,-1.343 -0.577,-0.705 -1.144,-1.41 -1.705,-2.116 -4.572,-6.121 -8.727,-12.107 -12.474,-17.959 -2.57,-5.089 -5.089,-9.992 -7.559,-14.716 -6.664,-14.881 -11.416,-28.811 -14.501,-41.869 -0.278,-1.133 -0.537,-2.264 -0.776,-3.389 -1.356,0 -2.698,-0.012 -4.03,-0.039 -13.975,-0.219 -26.619,-1.408 -37.893,-3.432 -3.151,-0.777 -6.238,-1.512 -9.262,-2.207 -3.203,-1.168 -6.226,-2.435 -9.072,-3.799 -2.742,-1.468 -5.247,-3.101 -7.507,-4.881 -0.714,-0.572 -1.365,-1.199 -1.952,-1.877 -0.961,-0.894 -1.84,-1.847 -2.633,-2.849 -0.05,-0.041 -0.1,-0.078 -0.151,-0.115 l -0.067,0.007 -0.05,0.047 c -0.033,0.063 -0.047,0.123 -0.044,0.178 0.064,0.303 0.17,0.582 0.318,0.83 0.959,1.998 2.193,3.858 3.698,5.541 2.228,2.922 5.006,5.537 8.309,7.774 1.069,0.814 2.265,1.503 3.572,2.066 1.866,1.238 3.893,2.352 6.072,3.332 4.186,1.813 8.724,3.398 13.597,4.74 3.744,1.01 7.736,1.739 11.945,2.17 2.909,0.529 5.919,0.951 9.021,1.26 2.224,0.225 4.482,0.428 6.778,0.605 0.493,2.016 1.021,4.051 1.589,6.108 0.811,2.971 1.782,5.957 2.911,8.961 1.281,4.58 3.007,9.181 5.186,13.773 3.089,6.434 6.762,12.996 11.05,19.66 2.451,3.721 5.216,7.405 8.297,11.034 1.649,2.548 3.563,5.013 5.726,7.363 0.547,0.639 1.103,1.275 1.667,1.91 -0.758,0.387 -1.51,0.773 -2.253,1.168 m -89.1,-17.48 c -5.328,12.919 -11.073,24.248 -17.091,33.994 -1.88,2.645 -3.696,5.248 -5.453,7.806 -2.259,2.551 -4.549,4.9 -6.861,7.044 -2.375,2.012 -4.81,3.743 -7.293,5.197 -0.796,0.451 -1.619,0.826 -2.463,1.124 -1.187,0.565 -2.395,1.033 -3.619,1.403 -0.055,0.034 -0.109,0.066 -0.163,0.098 l -0.015,0.066 0.025,0.065 c 0.046,0.053 0.098,0.091 0.149,0.106 0.305,0.052 0.602,0.055 0.887,0.009 2.211,-0.158 4.394,-0.627 6.512,-1.409 3.535,-1 6.987,-2.627 10.28,-4.877 1.148,-0.697 2.232,-1.555 3.232,-2.567 1.837,-1.28 3.619,-2.757 5.329,-4.424 3.222,-3.23 6.365,-6.866 9.396,-10.911 2.315,-3.113 4.457,-6.558 6.402,-10.314 1.559,-2.514 3.056,-5.159 4.482,-7.932 1.026,-1.982 2.042,-4.012 3.05,-6.082 2.056,0.279 4.144,0.535 6.265,0.764 3.06,0.332 6.196,0.527 9.404,0.578 4.729,0.488 9.643,0.57 14.715,0.23 4.253,-0.306 8.625,-0.791 13.115,-1.461 -3.929,-2.269 -7.821,-4.324 -11.666,-6.17 -4.592,-2.177 -9.193,-3.904 -13.773,-5.183 -3.002,-1.129 -5.991,-2.1 -8.96,-2.914 -2.056,-0.563 -4.092,-1.094 -6.109,-1.586 -0.177,-2.297 -0.379,-4.557 -0.605,-6.779 -0.31,-3.102 -0.731,-6.112 -1.259,-9.022 -0.432,-4.209 -1.161,-8.201 -2.172,-11.943 -1.338,-4.875 -2.927,-9.412 -4.739,-13.598 -0.979,-2.18 -2.094,-4.205 -3.333,-6.072 -0.559,-1.309 -1.253,-2.502 -2.066,-3.574 -2.237,-3.301 -4.851,-6.079 -7.772,-8.307 -1.685,-1.504 -3.541,-2.742 -5.542,-3.699 -0.247,-0.149 -0.526,-0.254 -0.829,-0.317 -0.055,-0.006 -0.115,0.012 -0.176,0.043 l -0.049,0.051 -0.008,0.066 c 0.038,0.051 0.075,0.1 0.114,0.153 1.004,0.793 1.956,1.672 2.851,2.631 0.677,0.588 1.305,1.24 1.88,1.951 1.776,2.262 3.408,4.763 4.877,7.512 1.365,2.839 2.634,5.865 3.799,9.07 0.696,3.023 1.431,6.107 2.208,9.26 2.025,11.273 3.212,23.92 3.43,37.894 0.008,0.35 0.014,0.701 0.02,1.053 -0.135,0.324 -0.269,0.65 -0.406,0.973 m 144.107,27.763 c -7.43,3.166 -14.333,6.521 -20.708,10.036 -9.58,5.026 -17.999,10.465 -25.262,16.226 -2.096,1.203 -3.972,2.598 -5.596,4.156 -3.814,3.754 -7.507,7.394 -11.089,10.922 -1.012,1.104 -2,2.206 -2.964,3.311 l -20.165,4.191 c 1.869,-2.065 3.805,-4.143 5.806,-6.234 7.907,-9.179 18.085,-17.887 30.624,-25.862 2.909,-1.575 5.728,-3.371 8.432,-5.375 5.494,-3.142 11.385,-6.17 17.687,-9.06 4.345,-1.969 8.917,-3.821 13.707,-5.545 -3.823,-3.362 -7.397,-6.762 -10.716,-10.19 -4.802,-5 -9.173,-9.978 -13.131,-14.914 -1.781,-2.855 -3.744,-5.562 -5.872,-8.093 -8.739,-12.022 -15.012,-23.854 -19,-35.295 -1.094,-2.682 -2.132,-5.325 -3.114,-7.93 l 17.221,11.297 c 0.491,1.381 1.005,2.771 1.543,4.168 2.037,4.595 4.137,9.336 6.308,14.23 0.94,2.043 2.172,4.03 3.682,5.916 4.641,8.026 10.48,16.176 17.546,24.364 4.642,5.609 9.834,11.263 15.584,16.933 0.547,0.588 1.111,1.168 1.69,1.742 -0.749,0.325 -1.488,0.66 -2.213,1.006 m -138.35,59.765 c -0.205,-0.084 -0.41,-0.166 -0.615,-0.249 -3.253,-1.161 -6.439,-2.293 -9.549,-3.404 -1.257,-0.431 -2.497,-0.696 -3.699,-0.788 -4.58,-1.133 -8.949,-1.718 -13.044,-1.781 -2.572,-0.112 -5.037,-0.028 -7.385,0.245 -0.964,0.04 -1.876,0.213 -2.725,0.514 -1.647,0.395 -3.246,0.825 -4.801,1.289 -1.757,0.669 -3.415,1.466 -4.969,2.376 -0.581,0.546 -1.183,1.052 -1.804,1.513 -0.415,0.401 -0.818,0.816 -1.203,1.251 0,0 -0.068,0.032 -0.119,0.009 -0.036,-0.023 -0.066,-0.074 -0.071,-0.122 v -0.085 c 0.06,-0.194 0.156,-0.353 0.28,-0.472 0.981,-1.5 2.188,-2.768 3.594,-3.767 1.865,-1.61 3.972,-2.946 6.31,-3.976 1.017,-0.533 2.126,-0.912 3.313,-1.125 2.31,-0.893 4.807,-1.52 7.475,-1.868 2.421,-0.298 4.951,-0.436 7.582,-0.41 1.539,0.25 3.077,0.361 4.6,0.334 7.768,0.555 16.241,2.464 25.182,5.783 1.821,0.593 3.665,1.209 5.53,1.848 z m 43.951,-161.089 c -1.969,-0.088 -3.911,-0.191 -5.822,-0.313 -9.537,-0.191 -18.117,-1.523 -25.547,-3.857 -1.409,-0.584 -2.88,-1.045 -4.403,-1.377 -2.457,-0.939 -4.76,-1.996 -6.904,-3.162 -2.352,-1.303 -4.447,-2.801 -6.267,-4.482 -1.026,-0.633 -1.92,-1.393 -2.67,-2.258 -1.798,-1.821 -3.266,-3.836 -4.41,-6.016 -0.941,-1.447 -1.599,-3.066 -1.962,-4.822 -0.072,-0.158 -0.102,-0.342 -0.088,-0.545 l 0.032,-0.076 c 0.021,-0.043 0.068,-0.08 0.111,-0.09 0.053,0 0.108,0.053 0.108,0.053 0.198,0.547 0.418,1.082 0.66,1.605 0.408,0.656 0.782,1.346 1.124,2.068 1.109,1.42 2.36,2.768 3.749,4.036 1.277,1.002 2.608,1.986 3.993,2.957 0.681,0.593 1.465,1.09 2.347,1.482 2.085,1.113 4.346,2.096 6.779,2.936 3.833,1.443 8.112,2.502 12.788,3.127 1.152,0.353 2.404,0.564 3.73,0.627 3.301,0.105 6.681,0.22 10.134,0.334 0.221,-0.002 0.441,-0.002 0.662,-0.004 z m -70.085,68.639 c 0.024,-0.233 0.05,-0.463 0.076,-0.694 0.791,-6.799 1.199,-13.301 1.242,-19.468 -0.115,-3.456 -0.227,-6.831 -0.336,-10.133 -0.06,-1.326 -0.271,-2.58 -0.624,-3.733 -0.627,-4.675 -1.683,-8.955 -3.13,-12.785 -0.838,-2.435 -1.821,-4.697 -2.936,-6.779 -0.392,-0.883 -0.888,-1.668 -1.477,-2.35 -0.973,-1.385 -1.959,-2.717 -2.962,-3.992 -1.267,-1.391 -2.615,-2.641 -4.032,-3.75 -0.723,-0.338 -1.415,-0.715 -2.071,-1.123 -0.524,-0.24 -1.06,-0.461 -1.605,-0.658 0,0 -0.054,-0.055 -0.053,-0.11 0.01,-0.043 0.045,-0.091 0.089,-0.113 l 0.079,-0.029 c 0.201,-0.016 0.385,0.015 0.543,0.088 1.758,0.363 3.377,1.019 4.822,1.963 2.182,1.14 4.197,2.611 6.014,4.408 0.868,0.752 1.627,1.644 2.261,2.67 1.679,1.822 3.181,3.916 4.48,6.269 1.166,2.141 2.223,4.444 3.162,6.905 0.335,1.521 0.795,2.994 1.379,4.402 2.333,7.428 3.666,16.008 3.859,25.545 0.3,4.836 0.503,9.857 0.611,15.064 -0.003,0.063 -0.003,0.123 -0.007,0.186 -0.02,0.06 -0.042,0.117 -0.063,0.178 -2.01,4.8 -4.041,9.396 -6.093,13.789 -3.678,8.797 -8.065,16.291 -12.962,22.347 -1.061,1.095 -2.028,2.297 -2.898,3.59 -1.776,1.941 -3.603,3.696 -5.475,5.262 -2.073,1.711 -4.237,3.109 -6.466,4.188 -0.968,0.722 -2.002,1.274 -3.085,1.654 -2.349,1.004 -4.762,1.633 -7.213,1.898 -1.688,0.343 -3.436,0.361 -5.206,0.054 -0.171,0.009 -0.354,-0.031 -0.535,-0.117 l -0.063,-0.059 c -0.034,-0.033 -0.048,-0.093 -0.042,-0.136 0.019,-0.051 0.091,-0.081 0.091,-0.081 0.579,0.016 1.158,0.006 1.735,-0.025 0.76,-0.14 1.539,-0.235 2.337,-0.285 1.726,-0.514 3.438,-1.181 5.126,-2.009 1.402,-0.819 2.806,-1.697 4.22,-2.629 0.8,-0.416 1.548,-0.964 2.235,-1.641 1.803,-1.53 3.547,-3.274 5.22,-5.23 2.752,-3.034 5.303,-6.627 7.602,-10.75 0.753,-0.94 1.407,-2.027 1.95,-3.24 1.311,-3.03 2.655,-6.131 4.031,-9.303 2.224,-5.752 4.228,-11.951 5.986,-18.563 0.061,-0.226 0.122,-0.449 0.184,-0.675 M 211.248,119.354 c 1.037,-1.848 2.011,-3.692 2.919,-5.528 0.907,1.836 1.88,3.68 2.918,5.528 -1.011,1.875 -1.983,3.804 -2.918,5.779 -0.937,-1.975 -1.909,-3.904 -2.919,-5.779 m -48.593,40.835 c -2.181,0.147 -4.331,0.344 -6.446,0.596 -1.34,-1.644 -2.699,-3.224 -4.073,-4.742 2.042,-0.172 4.114,-0.4 6.215,-0.688 1.374,1.629 2.809,3.241 4.304,4.834 m 39.697,-48.691 c -1.534,2.186 -3.076,4.42 -4.631,6.699 -0.245,0.387 -0.495,0.774 -0.752,1.157 0.207,0.386 0.407,0.777 0.603,1.169 1.295,2.366 2.629,4.764 4.01,7.202 4.678,8.484 8.898,17.914 12.585,28.343 3.686,-10.429 7.905,-19.859 12.583,-28.343 1.381,-2.438 2.715,-4.836 4.01,-7.202 0.196,-0.392 0.398,-0.783 0.603,-1.169 -0.257,-0.383 -0.509,-0.77 -0.753,-1.157 -1.554,-2.279 -3.098,-4.513 -4.63,-6.699 -4.826,-7.039 -8.755,-13.957 -11.813,-20.691 -3.06,6.734 -6.99,13.652 -11.815,20.691 m -71.629,36.1 c 5.141,5.314 10.135,11.509 14.913,18.58 1.472,2.228 2.983,4.482 4.534,6.767 0.27,0.368 0.538,0.744 0.8,1.123 0.435,-0.048 0.871,-0.095 1.309,-0.132 2.675,-0.338 5.397,-0.698 8.169,-1.088 9.61,-1.241 19.931,-1.703 30.986,-1.309 -8.352,-7.254 -15.574,-14.639 -21.752,-22.105 -1.761,-2.178 -3.502,-4.299 -5.227,-6.37 -0.294,-0.33 -0.583,-0.66 -0.867,-0.99 -0.449,0.096 -0.902,0.188 -1.351,0.274 -2.692,0.611 -5.336,1.224 -7.932,1.849 -8.319,1.908 -16.198,3.026 -23.582,3.401 M 220.775,193 c -3.014,-1.047 -6.039,-1.82 -9.035,-2.318 -4.554,-1.381 -9.035,-2.45 -13.425,-3.215 -7.822,-1.279 -15.301,-2.033 -22.435,-2.303 -5.079,-0.17 -9.988,0.082 -14.698,0.732 -3.205,0.161 -6.332,0.461 -9.378,0.899 -2.114,0.297 -4.19,0.625 -6.236,0.976 -1.079,-2.037 -2.164,-4.027 -3.255,-5.976 -1.522,-2.725 -3.106,-5.316 -4.75,-7.774 -2.073,-3.687 -4.333,-7.058 -6.751,-10.091 -3.169,-3.934 -6.433,-7.467 -9.765,-10.582 -1.764,-1.61 -3.594,-3.024 -5.474,-4.244 -1.035,-0.975 -2.146,-1.795 -3.319,-2.452 -3.368,-2.138 -6.872,-3.646 -10.439,-4.525 -2.143,-0.709 -4.34,-1.1 -6.556,-1.186 -0.287,-0.035 -0.583,-0.021 -0.886,0.041 -0.053,0.016 -0.103,0.055 -0.147,0.112 l -0.022,0.062 0.019,0.067 c 0.054,0.031 0.109,0.062 0.165,0.093 1.236,0.329 2.46,0.754 3.664,1.278 0.854,0.269 1.688,0.619 2.5,1.043 2.531,1.365 5.025,3.013 7.467,4.943 2.382,2.065 4.752,4.332 7.097,6.807 1.842,2.494 3.746,5.035 5.715,7.615 6.348,9.533 12.475,20.66 18.243,33.393 0.555,1.207 1.102,2.433 1.642,3.677 1.127,-0.23 2.267,-0.441 3.417,-0.638 13.206,-2.373 27.875,-3.563 44.179,-3.377 5.318,0.381 10.819,0.738 16.51,1.068 6.862,1.105 14.007,2.531 21.443,4.287 0.869,0.231 1.743,0.473 2.621,0.719 0.091,-0.904 0.188,-1.807 0.29,-2.701 1.095,-7.561 2.391,-14.731 3.879,-21.518 1.781,-5.416 3.467,-10.666 5.062,-15.752 5.811,-15.234 12.299,-28.447 19.351,-39.861 0.604,-0.998 1.22,-1.979 1.847,-2.945 -0.959,-0.956 -1.898,-1.916 -2.819,-2.877 -9.729,-10.036 -17.83,-19.815 -24.37,-29.221 -1.678,-2.777 -3.343,-5.481 -4.989,-8.11 -1.441,-3.089 -2.68,-6.126 -3.729,-9.099 -0.899,-2.981 -1.516,-5.904 -1.858,-8.76 -0.098,-0.91 -0.115,-1.814 -0.052,-2.709 -0.046,-1.312 0.006,-2.605 0.154,-3.879 -0.008,-0.062 -0.017,-0.121 -0.025,-0.185 l -0.055,-0.043 h -0.068 c -0.067,0.019 -0.12,0.052 -0.156,0.093 -0.169,0.26 -0.291,0.532 -0.363,0.811 -0.734,2.092 -1.175,4.279 -1.303,6.533 -0.49,3.643 -0.373,7.455 0.38,11.373 0.182,1.332 0.537,2.666 1.063,3.987 0.445,2.197 1.09,4.418 1.939,6.65 1.679,4.24 3.764,8.574 6.264,12.963 1.933,3.363 4.239,6.701 6.91,9.984 1.684,2.432 3.514,4.858 5.489,7.27 1.413,1.73 2.867,3.47 4.364,5.219 -1.077,1.777 -2.143,3.587 -3.196,5.445 -1.524,2.672 -2.951,5.472 -4.277,8.392 -2.332,4.145 -4.366,8.618 -6.072,13.407 -2.366,6.736 -4.408,13.968 -6.088,21.716 -0.898,4.366 -1.549,8.924 -1.934,13.666 -0.637,2.971 -1.027,6.069 -1.159,9.256 -0.064,0.84 -0.123,1.686 -0.173,2.532 -0.808,-0.262 -1.614,-0.522 -2.417,-0.768 m -50.643,-75.363 c -12.904,5.369 -24.977,9.316 -36.123,11.949 -3.2,0.545 -6.325,1.1 -9.376,1.668 -3.402,0.205 -6.681,0.246 -9.833,0.129 -3.102,-0.254 -6.049,-0.756 -8.831,-1.485 -0.882,-0.242 -1.73,-0.558 -2.537,-0.945 -1.239,-0.439 -2.425,-0.961 -3.551,-1.566 -0.062,-0.018 -0.123,-0.032 -0.185,-0.045 l -0.057,0.033 -0.028,0.064 c -0.005,0.071 0.005,0.133 0.031,0.18 0.179,0.252 0.386,0.467 0.621,0.633 1.675,1.455 3.55,2.666 5.6,3.611 3.208,1.793 6.798,3.082 10.719,3.819 1.304,0.32 2.677,0.48 4.099,0.472 2.205,0.393 4.509,0.61 6.896,0.639 4.563,-0.006 9.358,-0.355 14.361,-1.072 3.836,-0.565 7.788,-1.487 11.82,-2.766 2.88,-0.674 5.808,-1.486 8.776,-2.437 2.129,-0.678 4.282,-1.395 6.458,-2.145 1.257,1.652 2.552,3.307 3.891,4.969 1.928,2.398 4.008,4.754 6.239,7.058 3,3.69 6.417,7.223 10.244,10.569 3.224,2.789 6.658,5.537 10.307,8.242 -1.174,-4.385 -2.473,-8.59 -3.886,-12.613 -1.707,-4.789 -3.741,-9.262 -6.074,-13.407 -1.324,-2.92 -2.752,-5.72 -4.276,-8.392 -1.054,-1.858 -2.12,-3.668 -3.196,-5.445 1.497,-1.749 2.952,-3.489 4.364,-5.219 1.975,-2.412 3.805,-4.838 5.488,-7.27 2.671,-3.283 4.979,-6.621 6.911,-9.984 2.5,-4.389 4.585,-8.723 6.265,-12.963 0.847,-2.232 1.492,-4.453 1.936,-6.65 0.528,-1.321 0.883,-2.655 1.065,-3.987 0.753,-3.918 0.869,-7.73 0.378,-11.373 -0.126,-2.254 -0.565,-4.441 -1.303,-6.533 -0.071,-0.279 -0.192,-0.551 -0.361,-0.811 -0.034,-0.041 -0.088,-0.074 -0.156,-0.093 h -0.07 l -0.053,0.043 c -0.009,0.064 -0.017,0.123 -0.026,0.185 0.149,1.274 0.201,2.567 0.155,3.879 0.063,0.895 0.046,1.799 -0.05,2.709 -0.344,2.856 -0.961,5.779 -1.862,8.76 -1.045,2.973 -2.287,6.01 -3.727,9.099 -1.647,2.629 -3.309,5.333 -4.989,8.11 -6.539,9.406 -14.641,19.185 -24.37,29.221 -0.242,0.253 -0.485,0.505 -0.73,0.757 -0.325,0.135 -0.65,0.27 -0.974,0.403 m 82.267,121.531 c -7.493,-3.016 -14.746,-5.523 -21.74,-7.549 -10.327,-3.219 -20.126,-5.326 -29.337,-6.387 -2.332,-0.632 -4.645,-0.972 -6.895,-1.019 -5.352,-0.043 -10.537,-0.078 -15.565,-0.117 -1.494,0.064 -2.974,0.144 -4.437,0.244 l -17.221,-11.295 c 2.781,-0.139 5.62,-0.238 8.514,-0.305 12.081,-0.898 25.435,0.145 39.942,3.369 3.17,0.942 6.433,1.666 9.762,2.162 6.106,1.665 12.412,3.688 18.912,6.104 4.466,1.678 9.008,3.6 13.615,5.77 -0.327,-5.084 -0.45,-10.016 -0.373,-14.784 0.139,-6.933 0.569,-13.543 1.262,-19.832 0.76,-3.279 1.284,-6.58 1.571,-9.873 2.32,-14.681 6.252,-27.486 11.521,-38.392 1.121,-2.67 2.257,-5.274 3.405,-7.811 l 4.19,20.164 c -0.63,1.326 -1.249,2.672 -1.856,4.037 -1.81,4.692 -3.677,9.528 -5.602,14.524 -0.78,2.109 -1.313,4.386 -1.581,6.787 -2.393,8.957 -4.027,18.849 -4.819,29.635 -0.685,7.252 -1.011,14.918 -0.956,22.994 -0.028,0.802 -0.041,1.613 -0.038,2.427 -0.758,-0.3 -1.517,-0.585 -2.274,-0.853 M 112.31,183.6 c -0.086,-0.204 -0.172,-0.407 -0.258,-0.612 -1.481,-3.121 -2.932,-6.174 -4.346,-9.16 -0.584,-1.191 -1.274,-2.258 -2.059,-3.172 -2.437,-4.041 -5.112,-7.543 -7.964,-10.482 -1.74,-1.897 -3.541,-3.582 -5.394,-5.051 -0.711,-0.652 -1.478,-1.174 -2.291,-1.562 -1.443,-0.883 -2.878,-1.711 -4.306,-2.483 -1.717,-0.767 -3.451,-1.379 -5.194,-1.834 -0.797,-0.023 -1.581,-0.092 -2.345,-0.207 -0.577,-0.01 -1.156,0 -1.736,0.035 0,0 -0.07,-0.025 -0.09,-0.078 -0.008,-0.043 0.006,-0.099 0.036,-0.137 l 0.058,-0.06 c 0.181,-0.094 0.362,-0.137 0.533,-0.133 1.755,-0.367 3.505,-0.41 5.207,-0.125 2.455,0.18 4.89,0.725 7.273,1.65 1.095,0.344 2.146,0.86 3.137,1.549 2.265,1 4.474,2.323 6.607,3.965 1.923,1.5 3.808,3.192 5.652,5.07 0.91,1.264 1.92,2.432 3.016,3.489 5.1,5.886 9.74,13.228 13.717,21.896 0.869,1.709 1.737,3.447 2.605,5.215 z m 144.986,-82.829 c -1.329,-1.458 -2.629,-2.902 -3.898,-4.339 -6.605,-6.879 -11.731,-13.889 -15.335,-20.791 -0.583,-1.409 -1.298,-2.776 -2.14,-4.088 -1.072,-2.403 -1.953,-4.78 -2.645,-7.117 -0.742,-2.584 -1.164,-5.125 -1.264,-7.602 -0.276,-1.174 -0.372,-2.344 -0.289,-3.486 0.014,-2.557 0.401,-5.02 1.134,-7.371 0.356,-1.688 1.038,-3.299 2.023,-4.797 0.06,-0.162 0.169,-0.315 0.322,-0.448 l 0.078,-0.031 c 0.045,-0.017 0.104,-0.008 0.141,0.016 0.039,0.035 0.039,0.115 0.039,0.115 -0.246,0.525 -0.468,1.059 -0.669,1.6 -0.176,0.752 -0.399,1.506 -0.668,2.259 -0.218,1.788 -0.287,3.622 -0.201,5.502 0.195,1.612 0.438,3.25 0.73,4.916 0.064,0.899 0.268,1.805 0.615,2.707 0.686,2.26 1.591,4.553 2.718,6.868 1.688,3.734 3.964,7.505 6.83,11.257 0.562,1.063 1.3,2.096 2.195,3.079 2.258,2.408 4.566,4.88 6.927,7.404 0.158,0.154 0.316,0.308 0.473,0.463 z m -98.094,-1.027 c 0.182,-0.144 0.364,-0.287 0.546,-0.433 5.366,-4.247 10.252,-8.557 14.644,-12.887 2.361,-2.528 4.67,-4.992 6.928,-7.404 0.895,-0.983 1.632,-2.016 2.195,-3.079 2.865,-3.752 5.143,-7.523 6.83,-11.257 1.128,-2.315 2.033,-4.608 2.718,-6.868 0.346,-0.902 0.551,-1.808 0.614,-2.707 0.292,-1.666 0.537,-3.304 0.731,-4.916 0.087,-1.88 0.017,-3.714 -0.201,-5.502 -0.27,-0.753 -0.494,-1.507 -0.668,-2.259 -0.201,-0.541 -0.423,-1.075 -0.669,-1.6 0,0 0,-0.08 0.038,-0.115 0.037,-0.024 0.097,-0.035 0.142,-0.016 l 0.077,0.031 c 0.154,0.133 0.262,0.286 0.323,0.448 0.985,1.502 1.667,3.109 2.023,4.797 0.735,2.351 1.12,4.814 1.134,7.371 0.083,1.142 -0.013,2.312 -0.29,3.486 -0.101,2.477 -0.519,5.018 -1.264,7.602 -0.691,2.337 -1.572,4.714 -2.646,7.117 -0.839,1.312 -1.555,2.679 -2.137,4.088 -3.604,6.904 -8.729,13.912 -15.336,20.791 -3.21,3.634 -6.615,7.326 -10.22,11.084 -0.046,0.043 -0.09,0.086 -0.136,0.127 -0.056,0.027 -0.113,0.056 -0.169,0.082 -4.818,1.974 -9.503,3.789 -14.06,5.441 -8.822,3.621 -17.224,5.816 -24.969,6.639 -1.525,0.021 -3.056,0.187 -4.586,0.486 -2.629,0.121 -5.162,0.066 -7.594,-0.148 -2.676,-0.256 -5.193,-0.799 -7.533,-1.614 -1.194,-0.172 -2.316,-0.511 -3.35,-1.008 -2.372,-0.953 -4.524,-2.212 -6.442,-3.761 -1.437,-0.949 -2.686,-2.174 -3.72,-3.641 -0.128,-0.115 -0.229,-0.271 -0.296,-0.465 l -0.003,-0.082 c -10e-4,-0.049 0.032,-0.101 0.067,-0.127 0.049,-0.023 0.121,0.006 0.121,0.006 0.398,0.422 0.815,0.824 1.245,1.209 0.637,0.44 1.255,0.926 1.854,1.451 1.584,0.86 3.266,1.598 5.045,2.205 1.572,0.413 3.185,0.786 4.843,1.127 0.86,0.268 1.776,0.412 2.741,0.42 2.355,0.192 4.823,0.192 7.389,-0.008 4.09,-0.201 8.435,-0.937 12.976,-2.226 1.197,-0.131 2.429,-0.44 3.67,-0.912 3.071,-1.215 6.213,-2.459 9.429,-3.729 5.64,-2.496 11.441,-5.463 17.361,-8.896 0.202,-0.115 0.403,-0.229 0.605,-0.348 m 210.597,11.674 c 2.041,-0.572 4.032,-1.188 5.972,-1.844 -0.656,1.94 -1.271,3.93 -1.845,5.971 -2.04,0.613 -4.092,1.289 -6.149,2.021 0.735,-2.058 1.41,-4.105 2.022,-6.148 m -63.236,-5.484 c -1.646,-1.44 -3.305,-2.821 -4.977,-4.139 0.213,-2.106 0.371,-4.186 0.473,-6.232 1.564,1.322 3.191,2.625 4.879,3.908 -0.178,2.125 -0.303,4.279 -0.375,6.463 m 62.501,-6.36 c -2.629,0.461 -5.299,0.947 -8.011,1.459 -0.447,0.104 -0.899,0.199 -1.35,0.289 -0.128,0.42 -0.261,0.834 -0.401,1.254 -0.756,2.584 -1.51,5.225 -2.255,7.926 -2.693,9.307 -6.375,18.959 -11.145,28.941 9.982,-4.769 19.633,-8.453 28.941,-11.146 2.699,-0.744 5.34,-1.496 7.926,-2.256 0.418,-0.141 0.835,-0.271 1.253,-0.396 0.091,-0.454 0.185,-0.907 0.287,-1.354 0.511,-2.711 1.001,-5.381 1.462,-8.01 1.567,-8.39 3.681,-16.064 6.277,-22.984 -6.923,2.598 -14.593,4.709 -22.984,6.277 M 292.888,74.449 c -0.123,7.395 -0.971,15.305 -2.594,23.684 -0.532,2.619 -1.059,5.279 -1.577,7.99 -0.07,0.453 -0.147,0.908 -0.23,1.359 0.343,0.276 0.684,0.551 1.02,0.834 2.129,1.653 4.31,3.323 6.545,5.008 7.673,5.918 15.3,12.887 22.836,20.987 -0.776,-11.036 -0.659,-21.37 0.252,-31.014 0.294,-2.787 0.561,-5.516 0.806,-8.203 0.025,-0.438 0.054,-0.875 0.088,-1.311 -0.387,-0.25 -0.772,-0.504 -1.15,-0.762 -2.335,-1.472 -4.639,-2.906 -6.915,-4.3 -7.232,-4.533 -13.593,-9.317 -19.081,-14.272 m 31.572,95.781 c -1.391,-2.873 -2.981,-5.558 -4.75,-8.027 -2.241,-4.197 -4.655,-8.119 -7.219,-11.767 -4.626,-6.436 -9.381,-12.258 -14.237,-17.493 -3.469,-3.711 -7.117,-7.004 -10.907,-9.877 -2.383,-2.152 -4.805,-4.15 -7.268,-5.994 -1.705,-1.283 -3.405,-2.521 -5.1,-3.72 0.677,-2.2 1.317,-4.377 1.925,-6.528 0.849,-3 1.561,-5.953 2.137,-8.853 1.142,-4.075 1.928,-8.057 2.362,-11.908 0.542,-5.028 0.73,-9.831 0.577,-14.389 -0.109,-2.385 -0.401,-4.68 -0.87,-6.869 -0.043,-1.424 -0.247,-2.791 -0.613,-4.084 -0.869,-3.893 -2.28,-7.436 -4.181,-10.58 -1.015,-2.016 -2.29,-3.846 -3.799,-5.475 -0.178,-0.227 -0.396,-0.428 -0.654,-0.6 -0.05,-0.023 -0.113,-0.031 -0.182,-0.023 l -0.062,0.029 -0.033,0.061 c 0.018,0.06 0.033,0.119 0.052,0.181 0.642,1.108 1.206,2.274 1.686,3.497 0.413,0.793 0.758,1.628 1.032,2.505 0.824,2.754 1.423,5.682 1.785,8.772 0.223,3.146 0.296,6.426 0.205,9.834 -0.464,3.066 -0.912,6.209 -1.346,9.424 -2.251,11.23 -5.786,23.429 -10.71,36.511 -0.461,1.248 -0.941,2.502 -1.439,3.764 0.959,0.633 1.914,1.291 2.866,1.965 11.015,7.66 22.23,17.191 33.629,28.85 3.49,4.029 7.127,8.173 10.917,12.433 4.071,5.633 8.116,11.692 12.132,18.19 0.45,0.783 0.897,1.57 1.344,2.363 0.705,-0.576 1.411,-1.143 2.115,-1.705 6.123,-4.572 12.108,-8.725 17.96,-12.475 5.089,-2.568 9.992,-5.088 14.717,-7.556 14.883,-6.665 28.81,-11.418 41.868,-14.502 1.133,-0.28 2.263,-0.538 3.388,-0.778 0,-1.353 0.014,-2.697 0.041,-4.027 0.219,-13.975 1.405,-26.621 3.431,-37.893 0.778,-3.154 1.512,-6.24 2.207,-9.265 1.166,-3.201 2.436,-6.225 3.798,-9.069 1.469,-2.744 3.102,-5.248 4.879,-7.509 0.577,-0.713 1.204,-1.364 1.879,-1.952 0.895,-0.961 1.847,-1.837 2.851,-2.63 0.039,-0.051 0.076,-0.104 0.115,-0.153 l -0.009,-0.068 -0.047,-0.049 c -0.063,-0.035 -0.123,-0.049 -0.178,-0.045 -0.302,0.067 -0.581,0.172 -0.828,0.317 -1.999,0.958 -3.858,2.193 -5.542,3.701 -2.921,2.228 -5.534,5.006 -7.773,8.306 -0.812,1.073 -1.506,2.266 -2.067,3.573 -1.239,1.867 -2.353,3.894 -3.331,6.074 -1.814,4.187 -3.4,8.722 -4.74,13.597 -1.009,3.745 -1.74,7.735 -2.172,11.944 -0.529,2.91 -0.947,5.918 -1.258,9.023 -0.226,2.221 -0.429,4.479 -0.606,6.776 -2.016,0.492 -4.052,1.021 -6.109,1.589 -2.969,0.813 -5.957,1.784 -8.96,2.909 -4.578,1.283 -9.181,3.009 -13.772,5.187 -6.437,3.09 -12.995,6.762 -19.661,11.051 -3.721,2.451 -7.406,5.215 -11.032,8.297 -2.551,1.65 -5.017,3.566 -7.364,5.724 -0.64,0.547 -1.276,1.102 -1.911,1.666 -0.386,-0.755 -0.774,-1.509 -1.168,-2.25 m 17.481,-89.099 c -12.921,-5.33 -24.25,-11.074 -33.994,-17.092 -2.645,-1.879 -5.25,-3.697 -7.808,-5.453 -2.551,-2.26 -4.898,-4.551 -7.043,-6.861 -2.012,-2.375 -3.744,-4.813 -5.197,-7.291 -0.45,-0.799 -0.826,-1.621 -1.125,-2.467 -0.565,-1.186 -1.033,-2.393 -1.402,-3.615 l -0.1,-0.164 -0.064,-0.018 -0.063,0.025 c -0.056,0.047 -0.092,0.098 -0.109,0.151 -0.051,0.304 -0.054,0.599 -0.006,0.886 0.156,2.213 0.625,4.393 1.407,6.512 1.001,3.537 2.626,6.988 4.877,10.279 0.698,1.149 1.556,2.235 2.565,3.233 1.282,1.84 2.759,3.621 4.424,5.33 3.232,3.223 6.871,6.363 10.913,9.396 3.111,2.313 6.558,4.456 10.314,6.401 2.513,1.56 5.158,3.056 7.932,4.482 1.982,1.026 4.012,2.041 6.083,3.049 -0.282,2.057 -0.536,4.145 -0.765,6.268 -0.333,3.056 -0.527,6.193 -0.579,9.4 -0.488,4.732 -0.571,9.647 -0.229,14.719 0.308,4.252 0.792,8.625 1.46,13.113 2.271,-3.93 4.324,-7.818 6.171,-11.664 2.178,-4.592 3.905,-9.193 5.184,-13.773 1.13,-3.004 2.1,-5.991 2.911,-8.961 0.567,-2.057 1.096,-4.092 1.591,-6.108 2.295,-0.178 4.554,-0.381 6.776,-0.603 3.102,-0.315 6.112,-0.735 9.022,-1.262 4.209,-0.432 8.202,-1.16 11.944,-2.172 4.873,-1.34 9.411,-2.926 13.599,-4.738 2.178,-0.979 4.203,-2.094 6.07,-3.334 1.308,-0.561 2.503,-1.254 3.573,-2.065 3.302,-2.24 6.08,-4.851 8.308,-7.775 1.506,-1.684 2.741,-3.539 3.699,-5.541 0.149,-0.246 0.253,-0.525 0.318,-0.828 0.006,-0.055 -0.01,-0.113 -0.043,-0.178 l -0.052,-0.049 -0.067,-0.008 c -0.05,0.04 -0.101,0.079 -0.151,0.116 -0.793,1.004 -1.672,1.955 -2.633,2.851 -0.587,0.676 -1.239,1.303 -1.95,1.879 -2.263,1.778 -4.765,3.406 -7.51,4.877 -2.843,1.367 -5.867,2.635 -9.07,3.801 -3.023,0.695 -6.11,1.432 -9.263,2.207 -11.272,2.025 -23.918,3.213 -37.893,3.428 -0.35,0.009 -0.7,0.015 -1.053,0.019 -0.326,-0.133 -0.649,-0.267 -0.972,-0.402 m -27.763,144.105 c -3.168,-7.429 -6.521,-14.334 -10.037,-20.709 -5.026,-9.576 -10.464,-17.998 -16.228,-25.261 -1.202,-2.096 -2.597,-3.969 -4.153,-5.596 -3.755,-3.815 -7.395,-7.506 -10.924,-11.09 -1.102,-1.01 -2.206,-1.998 -3.311,-2.963 l -4.19,-20.164 c 2.064,1.869 4.143,3.805 6.234,5.805 9.179,7.906 17.887,18.084 25.863,30.625 1.575,2.908 3.371,5.728 5.375,8.431 3.142,5.495 6.169,11.385 9.056,17.688 1.972,4.344 3.825,8.918 5.548,13.707 3.361,-3.824 6.761,-7.398 10.189,-10.717 5.001,-4.803 9.978,-9.174 14.916,-13.131 2.855,-1.781 5.561,-3.744 8.092,-5.871 12.023,-8.738 23.855,-15.011 35.294,-19.002 2.681,-1.093 5.325,-2.131 7.932,-3.113 l -11.298,17.221 c -1.382,0.492 -2.771,1.006 -4.167,1.543 -4.597,2.037 -9.338,4.138 -14.229,6.31 -2.045,0.938 -4.031,2.17 -5.918,3.68 -8.026,4.642 -16.175,10.48 -24.364,17.547 -5.609,4.64 -11.262,9.834 -16.934,15.584 -0.588,0.547 -1.168,1.111 -1.744,1.691 -0.323,-0.752 -0.657,-1.488 -1.002,-2.215 M 254.412,86.887 c 0.084,-0.207 0.166,-0.41 0.249,-0.614 1.16,-3.255 2.293,-6.439 3.404,-9.55 0.431,-1.258 0.696,-2.496 0.788,-3.7 1.133,-4.58 1.719,-8.949 1.781,-13.044 0.11,-2.573 0.027,-5.036 -0.245,-7.383 -0.04,-0.967 -0.213,-1.877 -0.514,-2.727 -0.396,-1.644 -0.825,-3.244 -1.289,-4.801 -0.67,-1.757 -1.465,-3.416 -2.377,-4.968 -0.545,-0.58 -1.052,-1.182 -1.512,-1.803 -0.399,-0.416 -0.816,-0.82 -1.251,-1.203 0,0 -0.03,-0.071 -0.01,-0.117 0.025,-0.039 0.075,-0.069 0.123,-0.075 h 0.085 c 0.192,0.059 0.353,0.157 0.472,0.28 1.5,0.982 2.768,2.187 3.767,3.597 1.61,1.862 2.946,3.969 3.978,6.307 0.531,1.016 0.91,2.127 1.122,3.312 0.894,2.311 1.521,4.809 1.869,7.475 0.298,2.422 0.435,4.951 0.411,7.584 -0.25,1.537 -0.362,3.074 -0.335,4.602 -0.555,7.767 -2.464,16.238 -5.783,25.179 -0.592,1.825 -1.209,3.666 -1.848,5.533 z m 161.089,43.951 c 0.091,-1.969 0.192,-3.912 0.312,-5.822 0.194,-9.537 1.525,-18.118 3.857,-25.547 0.585,-1.41 1.045,-2.879 1.378,-4.403 0.94,-2.457 1.997,-4.759 3.164,-6.904 1.301,-2.351 2.802,-4.445 4.479,-6.267 0.636,-1.028 1.394,-1.922 2.262,-2.672 1.817,-1.795 3.832,-3.266 6.013,-4.41 1.444,-0.94 3.067,-1.598 4.823,-1.961 0.157,-0.073 0.342,-0.102 0.544,-0.086 l 0.077,0.031 c 0.043,0.019 0.079,0.068 0.089,0.111 10e-4,0.055 -0.053,0.108 -0.053,0.108 -0.546,0.197 -1.082,0.42 -1.605,0.66 -0.656,0.406 -1.347,0.783 -2.07,1.123 -1.417,1.111 -2.765,2.359 -4.033,3.748 -1.002,1.277 -1.987,2.609 -2.96,3.996 -0.591,0.678 -1.086,1.463 -1.479,2.346 -1.113,2.084 -2.096,4.345 -2.936,6.777 -1.444,3.834 -2.505,8.115 -3.129,12.791 -0.354,1.15 -0.563,2.402 -0.625,3.729 -0.107,3.3 -0.221,6.679 -0.337,10.134 0.003,0.221 0.005,0.442 0.007,0.662 z M 346.862,60.752 c 0.233,0.025 0.463,0.051 0.695,0.078 6.797,0.789 13.3,1.199 19.466,1.242 3.456,-0.117 6.832,-0.228 10.134,-0.338 1.328,-0.06 2.579,-0.269 3.731,-0.625 4.678,-0.627 8.957,-1.679 12.789,-3.13 2.433,-0.836 4.696,-1.819 6.779,-2.936 0.883,-0.393 1.667,-0.887 2.346,-1.477 1.386,-0.97 2.719,-1.957 3.994,-2.961 1.39,-1.265 2.64,-2.615 3.75,-4.033 0.339,-0.722 0.715,-1.412 1.124,-2.07 0.24,-0.525 0.461,-1.057 0.658,-1.604 0,0 0.057,-0.054 0.108,-0.054 0.043,0.011 0.094,0.047 0.111,0.09 l 0.032,0.08 c 0.016,0.199 -0.016,0.386 -0.087,0.541 -0.364,1.758 -1.021,3.379 -1.962,4.822 -1.142,2.182 -2.613,4.197 -4.41,6.014 -0.75,0.867 -1.643,1.627 -2.67,2.263 -1.822,1.676 -3.915,3.178 -6.268,4.479 -2.144,1.166 -4.446,2.222 -6.905,3.164 -1.522,0.334 -2.992,0.793 -4.4,1.377 -7.432,2.332 -16.012,3.666 -25.549,3.857 -4.837,0.303 -9.855,0.506 -15.061,0.612 -0.065,-0.004 -0.125,-0.004 -0.188,-0.004 -0.058,-0.024 -0.118,-0.043 -0.176,-0.067 -4.805,-2.009 -9.398,-4.037 -13.789,-6.093 -8.801,-3.676 -16.292,-8.065 -22.349,-12.961 -1.097,-1.061 -2.297,-2.026 -3.588,-2.895 -1.945,-1.777 -3.698,-3.607 -5.264,-5.477 -1.713,-2.074 -3.108,-4.238 -4.187,-6.466 -0.722,-0.967 -1.276,-2.002 -1.656,-3.084 -1.003,-2.348 -1.633,-4.764 -1.895,-7.215 -0.346,-1.686 -0.362,-3.436 -0.056,-5.203 -0.01,-0.174 0.029,-0.356 0.119,-0.539 l 0.057,-0.063 c 0.031,-0.033 0.092,-0.047 0.136,-0.041 0.05,0.022 0.082,0.09 0.082,0.09 -0.018,0.582 -0.008,1.16 0.024,1.734 0.14,0.764 0.234,1.541 0.285,2.338 0.512,1.727 1.179,3.44 2.009,5.127 0.82,1.403 1.696,2.809 2.629,4.221 0.416,0.799 0.963,1.547 1.641,2.236 1.529,1.803 3.273,3.545 5.229,5.219 3.034,2.752 6.626,5.303 10.75,7.6 0.94,0.754 2.028,1.41 3.24,1.951 3.032,1.314 6.13,2.656 9.303,4.031 5.754,2.223 11.953,4.229 18.566,5.986 0.224,0.061 0.45,0.123 0.673,0.184 M 487.523,217.92 c 1.85,1.035 3.693,2.01 5.529,2.918 -1.836,0.906 -3.679,1.881 -5.529,2.918 -1.877,-1.012 -3.803,-1.983 -5.778,-2.918 1.975,-0.938 3.901,-1.908 5.778,-2.918 m -40.835,-48.596 c -0.147,-2.178 -0.343,-4.328 -0.596,-6.441 1.644,-1.342 3.224,-2.701 4.743,-4.076 0.171,2.043 0.4,4.115 0.686,6.214 -1.626,1.375 -3.239,2.809 -4.833,4.303 m 48.692,39.699 c -2.187,-1.535 -4.419,-3.076 -6.699,-4.63 -0.388,-0.247 -0.775,-0.497 -1.158,-0.752 -0.386,0.205 -0.775,0.406 -1.169,0.603 -2.365,1.295 -4.763,2.629 -7.199,4.01 -8.486,4.676 -17.916,8.898 -28.344,12.584 10.428,3.685 19.858,7.906 28.344,12.582 2.434,1.381 4.834,2.717 7.199,4.01 0.394,0.199 0.783,0.398 1.169,0.605 0.383,-0.258 0.77,-0.512 1.158,-0.754 2.28,-1.554 4.512,-3.099 6.699,-4.631 7.041,-4.826 13.96,-8.755 20.69,-11.812 -6.73,-3.061 -13.649,-6.988 -20.69,-11.815 m -36.1,-71.63 c -5.315,5.14 -11.509,10.136 -18.581,14.916 -2.226,1.472 -4.482,2.98 -6.765,4.533 -0.369,0.269 -0.745,0.539 -1.124,0.799 0.047,0.435 0.094,0.871 0.13,1.308 0.338,2.676 0.7,5.399 1.089,8.172 1.241,9.608 1.705,19.93 1.309,30.983 7.254,-8.35 14.641,-15.573 22.106,-21.75 2.178,-1.762 4.3,-3.502 6.372,-5.227 0.327,-0.295 0.656,-0.586 0.988,-0.867 -0.097,-0.449 -0.189,-0.903 -0.273,-1.352 -0.611,-2.693 -1.225,-5.336 -1.85,-7.931 -1.908,-8.319 -3.024,-16.198 -3.401,-23.584 m -45.402,90.054 c 1.047,-3.015 1.821,-6.041 2.318,-9.035 1.381,-4.555 2.449,-9.035 3.215,-13.426 1.278,-7.82 2.034,-15.302 2.303,-22.435 0.17,-5.078 -0.081,-9.987 -0.73,-14.697 -0.163,-3.206 -0.463,-6.333 -0.898,-9.379 -0.3,-2.114 -0.628,-4.19 -0.978,-6.237 2.036,-1.078 4.026,-2.164 5.976,-3.254 2.723,-1.521 5.314,-3.105 7.772,-4.748 3.688,-2.074 7.06,-4.334 10.091,-6.754 3.939,-3.168 7.466,-6.431 10.583,-9.761 1.609,-1.766 3.026,-3.596 4.243,-5.477 0.976,-1.035 1.796,-2.146 2.454,-3.32 2.137,-3.367 3.644,-6.869 4.524,-10.438 0.709,-2.142 1.101,-4.34 1.184,-6.556 0.038,-0.285 0.023,-0.584 -0.038,-0.887 -0.018,-0.053 -0.056,-0.102 -0.11,-0.147 l -0.066,-0.023 -0.067,0.02 c -0.03,0.056 -0.06,0.109 -0.091,0.168 -0.329,1.232 -0.755,2.459 -1.281,3.662 -0.268,0.853 -0.614,1.689 -1.04,2.5 -1.366,2.533 -3.013,5.025 -4.942,7.466 -2.068,2.383 -4.334,4.754 -6.807,7.1 -2.497,1.842 -5.037,3.746 -7.618,5.713 -9.532,6.35 -20.658,12.475 -33.39,18.242 -1.209,0.557 -2.433,1.104 -3.679,1.645 0.23,1.125 0.442,2.265 0.638,3.416 2.373,13.205 3.563,27.875 3.379,44.177 -0.383,5.319 -0.741,10.821 -1.071,16.51 -1.106,6.863 -2.53,14.008 -4.285,21.446 -0.234,0.867 -0.474,1.74 -0.72,2.619 0.905,0.091 1.807,0.189 2.7,0.291 7.564,1.095 14.732,2.39 21.52,3.881 5.416,1.781 10.665,3.462 15.753,5.058 15.235,5.811 28.444,12.301 39.859,19.354 0.997,0.603 1.979,1.218 2.944,1.845 0.959,-0.959 1.916,-1.9 2.878,-2.818 10.036,-9.729 19.818,-17.83 29.219,-24.371 2.779,-1.68 5.483,-3.342 8.111,-4.99 3.09,-1.44 6.126,-2.68 9.101,-3.729 2.979,-0.898 5.903,-1.515 8.758,-1.857 0.911,-0.098 1.815,-0.116 2.709,-0.053 1.312,-0.045 2.606,0.006 3.879,0.156 0.062,-0.01 0.126,-0.017 0.186,-0.027 l 0.042,-0.053 0.003,-0.07 c -0.021,-0.065 -0.055,-0.119 -0.095,-0.154 -0.26,-0.168 -0.531,-0.293 -0.81,-0.364 -2.093,-0.734 -4.279,-1.174 -6.535,-1.304 -3.64,-0.489 -7.453,-0.372 -11.371,0.382 -1.33,0.18 -2.665,0.536 -3.989,1.063 -2.194,0.443 -4.415,1.09 -6.648,1.937 -4.242,1.68 -8.572,3.764 -12.965,6.264 -3.363,1.934 -6.701,4.242 -9.983,6.912 -2.431,1.682 -4.856,3.512 -7.27,5.488 -1.729,1.413 -3.471,2.868 -5.22,4.366 -1.775,-1.076 -3.586,-2.147 -5.442,-3.196 -2.674,-1.527 -5.474,-2.953 -8.394,-4.279 -4.144,-2.332 -8.62,-4.365 -13.407,-6.072 -6.734,-2.365 -13.971,-4.406 -21.716,-6.088 -4.365,-0.897 -8.925,-1.549 -13.668,-1.932 -2.969,-0.64 -6.066,-1.029 -9.255,-1.162 -0.84,-0.062 -1.681,-0.123 -2.531,-0.17 0.265,-0.808 0.521,-1.617 0.768,-2.418 m 75.363,-50.644 c -5.368,-12.905 -9.316,-24.975 -11.951,-36.121 -0.542,-3.203 -1.098,-6.327 -1.664,-9.377 -0.207,-3.403 -0.249,-6.682 -0.13,-9.834 0.257,-3.102 0.755,-6.049 1.483,-8.828 0.245,-0.883 0.56,-1.731 0.947,-2.539 0.438,-1.241 0.961,-2.424 1.565,-3.551 0.017,-0.063 0.03,-0.123 0.046,-0.186 l -0.034,-0.058 -0.065,-0.026 c -0.07,-0.004 -0.132,0.004 -0.18,0.03 -0.252,0.179 -0.464,0.386 -0.633,0.621 -1.453,1.675 -2.665,3.55 -3.609,5.601 -1.792,3.207 -3.083,6.797 -3.82,10.717 -0.319,1.307 -0.479,2.678 -0.472,4.102 -0.393,2.203 -0.607,4.505 -0.639,6.894 0.006,4.563 0.356,9.357 1.071,14.359 0.565,3.838 1.487,7.791 2.767,11.823 0.675,2.879 1.487,5.808 2.439,8.775 0.678,2.127 1.393,4.281 2.144,6.457 -1.652,1.258 -3.309,2.553 -4.97,3.893 -2.398,1.927 -4.754,4.006 -7.057,6.238 -3.691,3 -7.224,6.418 -10.569,10.244 -2.791,3.225 -5.539,6.658 -8.24,10.307 4.383,-1.174 8.586,-2.473 12.61,-3.887 4.787,-1.707 9.263,-3.74 13.407,-6.072 2.92,-1.324 5.72,-2.752 8.394,-4.278 1.854,-1.054 3.667,-2.119 5.442,-3.197 1.749,1.498 3.491,2.953 5.22,4.365 2.413,1.977 4.839,3.807 7.27,5.491 3.282,2.668 6.62,4.976 9.983,6.91 4.391,2.5 8.723,4.584 12.965,6.263 2.233,0.848 4.454,1.493 6.648,1.936 1.323,0.531 2.659,0.885 3.989,1.066 3.918,0.752 7.731,0.87 11.371,0.377 2.256,-0.125 4.442,-0.564 6.535,-1.302 0.279,-0.069 0.55,-0.192 0.81,-0.362 0.042,-0.033 0.074,-0.088 0.095,-0.154 l -0.003,-0.072 -0.042,-0.051 c -0.06,-0.008 -0.124,-0.018 -0.186,-0.025 -1.273,0.148 -2.567,0.199 -3.879,0.154 -0.894,0.062 -1.798,0.045 -2.709,-0.051 -2.855,-0.344 -5.779,-0.961 -8.758,-1.863 -2.975,-1.045 -6.011,-2.283 -9.101,-3.725 -2.628,-1.646 -5.332,-3.31 -8.111,-4.988 -9.401,-6.543 -19.183,-14.645 -29.219,-24.373 -0.252,-0.24 -0.505,-0.483 -0.758,-0.729 -0.135,-0.324 -0.27,-0.65 -0.402,-0.974 M 367.712,259.07 c 3.014,-7.492 5.524,-14.746 7.546,-21.74 3.219,-10.326 5.328,-20.127 6.388,-29.336 0.632,-2.332 0.971,-4.646 1.02,-6.894 0.042,-5.354 0.081,-10.539 0.116,-15.565 -0.063,-1.496 -0.144,-2.976 -0.245,-4.439 l 11.295,-17.221 c 0.138,2.781 0.239,5.619 0.304,8.514 0.899,12.08 -0.14,25.435 -3.368,39.943 -0.942,3.17 -1.665,6.432 -2.161,9.762 -1.663,6.105 -3.688,12.412 -6.101,18.91 -1.68,4.467 -3.603,9.01 -5.771,13.615 5.08,-0.326 10.012,-0.449 14.784,-0.373 6.93,0.141 13.54,0.57 19.83,1.264 3.279,0.76 6.58,1.283 9.877,1.57 14.677,2.322 27.481,6.252 38.39,11.522 2.668,1.121 5.271,2.255 7.81,3.404 l -20.166,4.189 c -1.324,-0.629 -2.67,-1.248 -4.037,-1.855 -4.69,-1.809 -9.53,-3.676 -14.523,-5.602 -2.109,-0.779 -4.385,-1.312 -6.788,-1.58 -8.956,-2.392 -18.847,-4.027 -29.635,-4.82 -7.248,-0.686 -14.917,-1.012 -22.994,-0.955 -0.802,-0.028 -1.612,-0.043 -2.426,-0.039 0.301,-0.756 0.585,-1.516 0.855,-2.274 m 55.566,-140.088 0.61,-0.257 c 3.123,-1.481 6.176,-2.934 9.162,-4.348 1.192,-0.584 2.256,-1.275 3.172,-2.059 4.041,-2.437 7.543,-5.111 10.482,-7.964 1.898,-1.739 3.582,-3.54 5.05,-5.393 0.652,-0.711 1.176,-1.479 1.563,-2.291 0.884,-1.443 1.711,-2.879 2.483,-4.309 0.769,-1.715 1.38,-3.451 1.833,-5.191 0.025,-0.799 0.093,-1.58 0.207,-2.346 0.011,-0.578 0.001,-1.156 -0.035,-1.736 0,0 0.027,-0.07 0.077,-0.09 0.043,-0.008 0.1,0.006 0.138,0.037 l 0.059,0.057 c 0.096,0.179 0.141,0.361 0.138,0.533 0.365,1.756 0.408,3.504 0.121,5.207 -0.182,2.457 -0.725,4.891 -1.649,7.273 -0.341,1.094 -0.86,2.145 -1.547,3.137 -1.003,2.264 -2.326,4.475 -3.965,6.608 -1.503,1.923 -3.194,3.806 -5.073,5.652 -1.264,0.91 -2.429,1.918 -3.489,3.016 -5.886,5.101 -13.225,9.738 -21.895,13.716 -1.708,0.87 -3.448,1.737 -5.216,2.604 z m 82.831,144.985 c 1.455,-1.328 2.902,-2.629 4.336,-3.899 6.881,-6.603 13.89,-11.73 20.793,-15.336 1.408,-0.58 2.775,-1.296 4.087,-2.138 2.403,-1.071 4.779,-1.953 7.117,-2.643 2.585,-0.744 5.127,-1.166 7.602,-1.265 1.174,-0.276 2.343,-0.373 3.486,-0.29 2.556,0.014 5.021,0.401 7.369,1.133 1.689,0.36 3.3,1.039 4.799,2.026 0.162,0.058 0.314,0.168 0.446,0.32 l 0.035,0.076 c 0.014,0.047 0.006,0.108 -0.018,0.145 -0.038,0.037 -0.112,0.037 -0.112,0.037 -0.527,-0.246 -1.062,-0.467 -1.603,-0.666 -0.754,-0.18 -1.507,-0.403 -2.258,-0.672 -1.788,-0.217 -3.625,-0.285 -5.503,-0.201 -1.611,0.195 -3.25,0.439 -4.917,0.732 -0.898,0.063 -1.805,0.268 -2.704,0.615 -2.262,0.684 -4.556,1.588 -6.87,2.717 -3.732,1.688 -7.506,3.965 -11.255,6.83 -1.066,0.563 -2.099,1.301 -3.08,2.194 -2.411,2.259 -4.881,4.568 -7.404,6.927 -0.154,0.159 -0.309,0.317 -0.464,0.473 z m 1.022,-98.092 c 0.147,0.18 0.293,0.363 0.437,0.543 4.248,5.367 8.556,10.254 12.887,14.646 2.525,2.36 4.992,4.668 7.404,6.928 0.981,0.893 2.014,1.633 3.08,2.194 3.749,2.867 7.522,5.142 11.255,6.83 2.314,1.129 4.608,2.033 6.87,2.718 0.9,0.346 1.806,0.551 2.704,0.616 1.667,0.293 3.306,0.535 4.917,0.73 1.878,0.086 3.715,0.016 5.503,-0.201 0.751,-0.272 1.504,-0.496 2.258,-0.67 0.541,-0.199 1.076,-0.422 1.603,-0.668 0,0 0.077,0 0.112,0.039 0.024,0.035 0.034,0.096 0.018,0.141 l -0.035,0.078 c -0.132,0.152 -0.284,0.262 -0.446,0.322 -1.501,0.984 -3.11,1.666 -4.799,2.024 -2.348,0.734 -4.813,1.119 -7.369,1.134 -1.143,0.082 -2.312,-0.015 -3.486,-0.289 -2.475,-0.103 -5.017,-0.521 -7.602,-1.265 -2.338,-0.692 -4.714,-1.575 -7.117,-2.647 -1.313,-0.84 -2.679,-1.555 -4.087,-2.137 -6.903,-3.605 -13.914,-8.73 -20.793,-15.336 -3.632,-3.21 -7.326,-6.615 -11.083,-10.22 -0.043,-0.047 -0.087,-0.09 -0.13,-0.135 -0.025,-0.057 -0.05,-0.115 -0.078,-0.17 -1.975,-4.818 -3.789,-9.502 -5.441,-14.06 -3.621,-8.821 -5.817,-17.223 -6.637,-24.967 -0.025,-1.528 -0.191,-3.059 -0.489,-4.588 -0.117,-2.629 -0.066,-5.16 0.148,-7.592 0.257,-2.678 0.799,-5.195 1.613,-7.535 0.174,-1.195 0.512,-2.317 1.01,-3.35 0.952,-2.373 2.212,-4.523 3.76,-6.441 0.95,-1.438 2.174,-2.688 3.641,-3.721 0.116,-0.129 0.271,-0.228 0.464,-0.295 l 0.085,-0.004 c 0.046,-0.002 0.098,0.034 0.126,0.067 0.021,0.049 -0.007,0.121 -0.007,0.121 -0.422,0.396 -0.823,0.816 -1.209,1.246 -0.439,0.635 -0.922,1.254 -1.451,1.853 -0.857,1.582 -1.596,3.268 -2.204,5.045 -0.413,1.573 -0.786,3.186 -1.125,4.842 -0.273,0.86 -0.415,1.778 -0.42,2.742 -0.194,2.358 -0.194,4.823 0.005,7.389 0.2,4.092 0.936,8.438 2.226,12.977 0.134,1.195 0.439,2.429 0.912,3.67 1.216,3.07 2.458,6.212 3.729,9.427 2.496,5.643 5.461,11.442 8.895,17.362 0.114,0.203 0.233,0.404 0.346,0.607 m -11.672,210.596 c 0.575,2.04 1.189,4.033 1.846,5.972 -1.941,-0.656 -3.931,-1.272 -5.973,-1.846 -0.611,-2.04 -1.286,-4.091 -2.022,-6.149 2.059,0.735 4.108,1.409 6.149,2.023 m 5.485,-63.235 c 1.44,-1.647 2.82,-3.306 4.137,-4.981 2.109,0.215 4.189,0.372 6.234,0.474 -1.323,1.566 -2.626,3.191 -3.909,4.88 -2.121,-0.179 -4.277,-0.304 -6.462,-0.373 m 6.361,62.5 c -0.461,-2.631 -0.95,-5.301 -1.462,-8.011 -0.1,-0.449 -0.197,-0.898 -0.286,-1.351 -0.42,-0.127 -0.836,-0.261 -1.253,-0.401 -2.587,-0.756 -5.228,-1.509 -7.927,-2.256 -9.308,-2.691 -18.96,-6.374 -28.941,-11.144 4.768,9.982 8.452,19.635 11.143,28.942 0.747,2.698 1.501,5.338 2.257,7.926 0.141,0.417 0.271,0.835 0.4,1.253 0.453,0.09 0.905,0.185 1.349,0.286 2.713,0.513 5.383,1 8.013,1.463 8.39,1.565 16.061,3.681 22.983,6.277 -2.596,-6.924 -4.709,-14.595 -6.276,-22.984 m 25.123,-76.177 c -7.393,-0.124 -15.304,-0.971 -23.685,-2.592 -2.613,-0.533 -5.277,-1.061 -7.989,-1.578 -0.451,-0.069 -0.906,-0.147 -1.36,-0.229 -0.273,0.342 -0.549,0.682 -0.832,1.018 -1.653,2.131 -3.323,4.31 -5.008,6.545 -5.918,7.671 -12.887,15.299 -20.984,22.835 11.034,-0.776 21.366,-0.658 31.012,0.252 2.785,0.296 5.518,0.565 8.201,0.809 0.44,0.024 0.875,0.052 1.313,0.087 0.248,-0.389 0.504,-0.772 0.762,-1.15 1.471,-2.334 2.905,-4.639 4.299,-6.916 4.533,-7.232 9.317,-13.592 14.271,-19.081 m -95.781,31.573 c 2.873,-1.39 5.558,-2.982 8.029,-4.75 4.196,-2.243 8.12,-4.657 11.765,-7.218 6.436,-4.628 12.258,-9.383 17.493,-14.236 3.712,-3.471 7.004,-7.119 9.878,-10.91 2.152,-2.381 4.151,-4.805 5.995,-7.268 1.283,-1.705 2.52,-3.404 3.718,-5.1 2.203,0.678 4.377,1.317 6.527,1.924 3.002,0.848 5.954,1.561 8.855,2.139 4.074,1.141 8.057,1.928 11.909,2.361 5.026,0.541 9.828,0.729 14.388,0.578 2.385,-0.111 4.68,-0.402 6.87,-0.871 1.423,-0.043 2.789,-0.248 4.083,-0.611 3.893,-0.869 7.437,-2.283 10.58,-4.182 2.018,-1.013 3.848,-2.291 5.475,-3.799 0.227,-0.177 0.429,-0.396 0.599,-0.656 0.023,-0.047 0.033,-0.111 0.025,-0.181 l -0.03,-0.061 -0.062,-0.033 c -0.059,0.017 -0.119,0.033 -0.181,0.053 -1.104,0.642 -2.273,1.205 -3.496,1.685 -0.794,0.414 -1.629,0.758 -2.504,1.031 -2.755,0.823 -5.683,1.422 -8.773,1.786 -3.146,0.222 -6.426,0.294 -9.834,0.205 -3.066,-0.463 -6.21,-0.913 -9.426,-1.346 -11.228,-2.25 -23.428,-5.787 -36.511,-10.709 -1.247,-0.465 -2.5,-0.942 -3.761,-1.442 -0.634,0.959 -1.29,1.915 -1.965,2.868 -7.661,11.015 -17.192,22.228 -28.851,33.629 -4.03,3.488 -8.174,7.126 -12.432,10.916 -5.632,4.071 -11.693,8.115 -18.192,12.133 -0.779,0.45 -1.568,0.895 -2.362,1.343 0.576,0.706 1.144,1.411 1.705,2.116 4.571,6.121 8.727,12.107 12.474,17.959 2.568,5.09 5.089,9.993 7.558,14.718 6.664,14.881 11.417,28.81 14.501,41.867 0.279,1.133 0.537,2.263 0.777,3.388 1.356,0 2.697,0.013 4.029,0.042 13.975,0.218 26.619,1.405 37.893,3.43 3.152,0.777 6.239,1.513 9.263,2.207 3.203,1.166 6.226,2.436 9.072,3.799 2.742,1.47 5.246,3.102 7.507,4.879 0.712,0.575 1.365,1.202 1.952,1.878 0.96,0.896 1.839,1.848 2.632,2.851 0.051,0.039 0.101,0.077 0.151,0.115 l 0.067,-0.009 0.051,-0.046 c 0.033,-0.063 0.048,-0.124 0.044,-0.178 -0.064,-0.303 -0.17,-0.581 -0.318,-0.829 -0.96,-2 -2.193,-3.858 -3.699,-5.542 -2.227,-2.921 -5.006,-5.535 -8.309,-7.772 -1.07,-0.814 -2.264,-1.505 -3.572,-2.068 -1.865,-1.238 -3.892,-2.353 -6.072,-3.331 -4.187,-1.812 -8.723,-3.401 -13.597,-4.739 -3.743,-1.011 -7.736,-1.74 -11.944,-2.172 -2.91,-0.529 -5.92,-0.95 -9.02,-1.259 -2.225,-0.225 -4.484,-0.427 -6.781,-0.606 -0.492,-2.016 -1.02,-4.052 -1.587,-6.108 -0.812,-2.969 -1.783,-5.958 -2.911,-8.96 -1.282,-4.58 -3.007,-9.181 -5.187,-13.772 -3.088,-6.436 -6.761,-12.997 -11.049,-19.662 -2.452,-3.722 -5.217,-7.406 -8.298,-11.033 -1.649,-2.549 -3.563,-5.014 -5.725,-7.363 -0.547,-0.638 -1.102,-1.277 -1.667,-1.912 0.757,-0.385 1.508,-0.773 2.251,-1.166 m 89.099,17.481 c 5.33,-12.922 11.075,-24.25 17.093,-33.994 1.881,-2.647 3.696,-5.25 5.453,-7.807 2.26,-2.552 4.549,-4.9 6.861,-7.045 2.375,-2.013 4.81,-3.744 7.294,-5.197 0.796,-0.451 1.619,-0.826 2.463,-1.123 1.187,-0.566 2.394,-1.035 3.617,-1.404 0.057,-0.033 0.11,-0.064 0.164,-0.098 l 0.016,-0.066 -0.025,-0.065 c -0.046,-0.052 -0.098,-0.089 -0.15,-0.105 -0.304,-0.053 -0.6,-0.055 -0.886,-0.01 -2.212,0.158 -4.395,0.627 -6.512,1.41 -3.536,0.998 -6.987,2.625 -10.28,4.877 -1.148,0.696 -2.233,1.555 -3.233,2.566 -1.836,1.28 -3.619,2.757 -5.329,4.424 -3.222,3.231 -6.364,6.867 -9.396,10.911 -2.313,3.112 -4.456,6.558 -6.402,10.314 -1.559,2.514 -3.056,5.16 -4.481,7.932 -1.027,1.983 -2.042,4.012 -3.051,6.082 -2.056,-0.28 -4.144,-0.535 -6.265,-0.762 -3.06,-0.334 -6.195,-0.529 -9.402,-0.58 -4.731,-0.489 -9.645,-0.57 -14.716,-0.23 -4.253,0.307 -8.625,0.791 -13.116,1.461 3.93,2.27 7.821,4.324 11.666,6.17 4.593,2.178 9.192,3.905 13.773,5.185 3.002,1.128 5.992,2.099 8.96,2.911 2.057,0.566 4.093,1.096 6.109,1.588 0.177,2.297 0.38,4.557 0.606,6.779 0.309,3.102 0.73,6.111 1.258,9.021 0.433,4.208 1.161,8.202 2.172,11.945 1.338,4.873 2.928,9.411 4.739,13.598 0.98,2.178 2.095,4.204 3.333,6.071 0.56,1.308 1.253,2.503 2.067,3.572 2.237,3.305 4.851,6.082 7.772,8.309 1.684,1.504 3.542,2.74 5.542,3.698 0.247,0.148 0.525,0.254 0.829,0.319 0.053,0.005 0.113,-0.012 0.176,-0.044 l 0.048,-0.052 0.008,-0.067 c -0.038,-0.05 -0.076,-0.1 -0.114,-0.15 -1.004,-0.793 -1.956,-1.673 -2.85,-2.632 -0.677,-0.587 -1.305,-1.24 -1.881,-1.952 -1.775,-2.261 -3.408,-4.765 -4.877,-7.51 -1.365,-2.841 -2.633,-5.866 -3.799,-9.07 -0.695,-3.024 -1.43,-6.11 -2.208,-9.262 -2.024,-11.273 -3.211,-23.918 -3.429,-37.894 -0.009,-0.349 -0.014,-0.701 -0.02,-1.053 0.134,-0.324 0.268,-0.649 0.403,-0.971 M 381.642,320.847 c 7.429,-3.165 14.333,-6.52 20.708,-10.034 9.579,-5.026 17.999,-10.465 25.262,-16.227 2.096,-1.203 3.971,-2.598 5.596,-4.156 3.814,-3.754 7.507,-7.393 11.088,-10.922 1.013,-1.104 2.001,-2.205 2.964,-3.311 l 20.166,-4.191 c -1.87,2.066 -3.806,4.142 -5.806,6.234 -7.907,9.178 -18.085,17.887 -30.626,25.862 -2.907,1.575 -5.726,3.371 -8.431,5.376 -5.494,3.142 -11.384,6.168 -17.686,9.059 -4.347,1.97 -8.916,3.821 -13.708,5.545 3.823,3.363 7.396,6.763 10.717,10.19 4.802,5 9.173,9.978 13.131,14.916 1.781,2.855 3.744,5.56 5.872,8.093 8.738,12.022 15.011,23.853 19.001,35.294 1.092,2.679 2.131,5.322 3.114,7.93 l -17.222,-11.298 c -0.491,-1.381 -1.006,-2.77 -1.544,-4.166 -2.037,-4.597 -4.136,-9.336 -6.308,-14.231 -0.939,-2.042 -2.172,-4.029 -3.681,-5.916 -4.642,-8.025 -10.48,-16.176 -17.548,-24.363 -4.641,-5.611 -9.832,-11.264 -15.582,-16.934 -0.548,-0.589 -1.112,-1.17 -1.689,-1.744 0.748,-0.323 1.487,-0.659 2.212,-1.006 m 138.349,-59.765 c 0.206,0.084 0.41,0.166 0.614,0.25 3.254,1.162 6.44,2.295 9.55,3.404 1.258,0.43 2.498,0.696 3.699,0.787 4.581,1.135 8.95,1.719 13.044,1.782 2.573,0.111 5.037,0.029 7.385,-0.244 0.965,-0.041 1.876,-0.215 2.725,-0.514 1.646,-0.397 3.247,-0.826 4.802,-1.289 1.756,-0.67 3.415,-1.467 4.968,-2.377 0.581,-0.547 1.183,-1.051 1.805,-1.512 0.415,-0.4 0.817,-0.816 1.202,-1.252 0,0 0.069,-0.031 0.118,-0.008 0.037,0.024 0.067,0.075 0.073,0.12 v 0.085 c -0.06,0.196 -0.156,0.354 -0.281,0.473 -0.98,1.502 -2.188,2.768 -3.593,3.768 -1.866,1.609 -3.972,2.945 -6.31,3.976 -1.017,0.532 -2.127,0.91 -3.313,1.123 -2.31,0.895 -4.807,1.522 -7.475,1.869 -2.421,0.299 -4.951,0.436 -7.582,0.411 -1.539,-0.25 -3.078,-0.362 -4.601,-0.334 -7.768,-0.555 -16.241,-2.465 -25.181,-5.784 -1.822,-0.593 -3.666,-1.209 -5.531,-1.847 z m -43.95,161.091 c 1.968,0.09 3.91,0.193 5.821,0.311 9.537,0.194 18.117,1.525 25.547,3.858 1.409,0.584 2.88,1.045 4.404,1.377 2.457,0.941 4.759,1.998 6.903,3.164 2.352,1.302 4.447,2.801 6.267,4.479 1.028,0.635 1.921,1.393 2.67,2.262 1.797,1.817 3.268,3.833 4.411,6.013 0.942,1.446 1.599,3.068 1.962,4.823 0.072,0.158 0.102,0.342 0.087,0.544 l -0.031,0.078 c -0.021,0.043 -0.069,0.078 -0.112,0.088 -0.053,0.002 -0.108,-0.053 -0.108,-0.053 -0.197,-0.545 -0.417,-1.08 -0.66,-1.605 -0.407,-0.657 -0.782,-1.347 -1.123,-2.069 -1.11,-1.418 -2.36,-2.765 -3.749,-4.033 -1.277,-1.001 -2.609,-1.989 -3.994,-2.96 -0.68,-0.592 -1.464,-1.087 -2.347,-1.479 -2.085,-1.115 -4.345,-2.096 -6.778,-2.936 -3.833,-1.445 -8.111,-2.504 -12.789,-3.129 -1.151,-0.355 -2.402,-0.564 -3.731,-0.625 -3.299,-0.108 -6.678,-0.222 -10.133,-0.336 -0.22,0.002 -0.441,0.003 -0.662,0.007 z m 70.268,-69.312 c 1.758,-6.614 3.763,-12.813 5.987,-18.566 1.376,-3.171 2.719,-6.272 4.03,-9.303 0.543,-1.212 1.197,-2.301 1.951,-3.241 2.298,-4.122 4.85,-7.714 7.603,-10.75 1.672,-1.955 3.415,-3.699 5.219,-5.229 0.686,-0.677 1.434,-1.226 2.235,-1.641 1.412,-0.931 2.817,-1.81 4.22,-2.63 1.687,-0.827 3.399,-1.494 5.127,-2.008 0.797,-0.05 1.575,-0.145 2.337,-0.285 0.576,-0.031 1.154,-0.041 1.734,-0.024 0,0 0.072,-0.03 0.091,-0.082 0.005,-0.043 -0.008,-0.102 -0.042,-0.135 l -0.064,-0.059 c -0.181,-0.086 -0.363,-0.127 -0.535,-0.117 -1.769,-0.307 -3.518,-0.289 -5.206,0.055 -2.45,0.263 -4.862,0.892 -7.213,1.896 -1.082,0.38 -2.116,0.933 -3.084,1.654 -2.23,1.079 -4.393,2.478 -6.467,4.188 -1.871,1.567 -3.699,3.321 -5.473,5.263 -0.872,1.293 -1.838,2.494 -2.9,3.59 -4.896,6.055 -9.284,13.549 -12.961,22.347 -2.053,4.393 -4.084,8.987 -6.094,13.791 -0.021,0.059 -0.043,0.118 -0.064,0.175 -0.002,0.063 -0.002,0.125 -0.005,0.188 0.107,5.206 0.31,10.225 0.611,15.063 0.192,9.535 1.526,18.117 3.858,25.546 0.585,1.409 1.044,2.881 1.379,4.401 0.939,2.459 1.996,4.761 3.161,6.905 1.302,2.355 2.804,4.446 4.481,6.269 0.635,1.025 1.394,1.919 2.261,2.669 1.818,1.798 3.831,3.268 6.014,4.411 1.445,0.942 3.064,1.597 4.823,1.962 0.157,0.072 0.341,0.102 0.543,0.087 l 0.078,-0.031 c 0.044,-0.018 0.079,-0.069 0.089,-0.113 0.002,-0.052 -0.054,-0.107 -0.054,-0.107 -0.545,-0.198 -1.081,-0.418 -1.604,-0.659 -0.656,-0.409 -1.347,-0.784 -2.07,-1.124 -1.418,-1.11 -2.766,-2.36 -4.033,-3.75 -1.002,-1.276 -1.989,-2.608 -2.961,-3.992 -0.59,-0.681 -1.084,-1.465 -1.478,-2.349 -1.115,-2.082 -2.098,-4.344 -2.936,-6.778 -1.446,-3.832 -2.502,-8.111 -3.129,-12.788 -0.354,-1.152 -0.565,-2.405 -0.624,-3.731 -0.11,-3.302 -0.221,-6.678 -0.337,-10.132 0.043,-6.169 0.451,-12.671 1.242,-19.468 0.027,-0.232 0.053,-0.463 0.076,-0.695 0.063,-0.225 0.124,-0.448 0.184,-0.673"
                   style="fill:url(#radialGradient8185);fill-rule:evenodd;stroke:none"
                   id="path8187"
                   inkscape:connector-curvature="0" /></g></g></g></g></g></g></g></svg>