<?xml version="1.0" standalone="no"?>
<!DOCTYPE svg PUBLIC "-//W3C//DTD SVG 20010904//EN"
 "http://www.w3.org/TR/2001/REC-SVG-20010904/DTD/svg10.dtd">
<svg version="1.0" xmlns="http://www.w3.org/2000/svg"
 width="300.000000pt" height="169.000000pt" viewBox="0 0 300.000000 169.000000"
 preserveAspectRatio="xMidYMid meet">
<metadata>
Created by potrace 1.10, written by Peter Selinger 2001-2011
</metadata>
<g transform="translate(0.000000,169.000000) scale(0.100000,-0.100000)"
fill="#000000" stroke="none">
<path d="M2862 1673 c2 -9 -4 -18 -12 -20 -12 -4 -12 -3 -1 5 8 6 9 12 3 16
-6 3 -14 -4 -18 -16 -7 -22 -7 -22 -15 -3 -6 17 -8 17 -8 3 -1 -10 -6 -18 -12
-18 -5 0 -7 -5 -4 -10 4 -6 11 -8 16 -4 6 3 8 -6 4 -23 l-6 -28 15 30 c17 35
17 34 19 -21 2 -35 30 -84 42 -72 9 9 8 85 -2 103 -8 14 -7 24 3 41 13 20 13
22 -6 27 -15 4 -20 1 -18 -10z"/>
<path d="M2918 1668 c3 -14 2 -19 -6 -14 -8 5 -12 0 -12 -13 0 -10 5 -21 12
-23 8 -3 8 -9 1 -22 -13 -23 -5 -58 11 -50 6 3 2 -2 -8 -10 -15 -12 -16 -16
-5 -16 15 0 59 35 59 46 0 4 -7 4 -15 0 -9 -3 -15 0 -15 9 0 20 40 31 51 14 5
-9 8 8 8 44 -1 31 -6 57 -11 57 -4 0 -6 -11 -4 -24 2 -14 -1 -32 -8 -41 -11
-16 -14 -15 -29 8 -9 14 -14 33 -11 41 4 10 1 16 -9 16 -11 0 -13 -6 -9 -22z"/>
<path d="M30 1630 c0 -5 -7 -10 -15 -10 -8 0 -15 -7 -15 -15 0 -9 9 -15 23
-15 17 0 19 -2 7 -9 -8 -6 -18 -7 -24 -4 -5 3 -6 1 -3 -4 4 -6 31 -9 62 -8 30
2 57 -1 60 -6 4 -5 -22 -9 -59 -9 -36 0 -66 -4 -66 -10 0 -5 61 -11 148 -13
l147 -3 -148 -2 -148 -2 7 -22 c10 -33 35 -49 53 -35 12 10 10 13 -11 15 -15
2 -29 10 -32 18 -5 13 15 15 142 14 81 -1 159 1 175 5 17 5 27 3 27 -4 0 -7
31 -11 89 -11 62 0 91 -4 94 -12 4 -10 6 -10 6 0 1 7 4 11 9 9 4 -3 122 -8
262 -12 140 -4 273 -9 295 -10 22 -2 68 -4 102 -5 35 -1 61 -6 58 -10 -3 -5 3
-7 12 -5 10 2 47 6 82 9 54 5 62 4 48 -6 -15 -12 -15 -15 0 -46 19 -39 12 -49
-22 -34 -26 12 -49 -3 -26 -17 7 -5 11 -26 9 -52 -2 -33 -8 -45 -22 -49 -18
-5 -18 -6 0 -20 10 -8 15 -10 11 -4 -4 7 0 15 9 18 24 9 36 7 28 -6 -4 -7 -3
-8 4 -4 7 4 12 27 12 52 0 25 4 43 9 40 5 -3 9 12 9 34 0 22 -3 42 -9 45 -18
12 -9 32 13 31 16 -1 23 -7 23 -21 0 -11 8 -21 19 -23 13 -3 16 0 10 10 -6 10
-5 10 9 -1 20 -16 22 -25 5 -16 -7 4 -2 -3 12 -15 27 -22 90 -66 102 -69 4 -1
21 -15 39 -32 17 -16 33 -28 36 -26 2 2 20 -11 40 -29 26 -24 40 -31 47 -23 8
7 3 16 -16 30 -23 17 -26 23 -16 39 9 14 8 21 -5 35 -9 9 -17 12 -17 6 0 -18
4 -26 12 -24 4 2 5 -4 2 -12 -4 -8 -8 -15 -10 -15 -2 0 -35 23 -74 51 -66 49
-81 71 -42 64 9 -2 20 -4 24 -4 4 -1 5 -10 3 -21 -4 -22 10 -28 17 -7 7 18 -2
37 -18 37 -8 0 -14 5 -14 11 0 5 5 7 12 3 7 -4 8 -3 4 5 -5 8 -13 7 -29 -4
-12 -8 -30 -15 -40 -15 -16 0 -17 3 -7 14 6 8 19 12 28 8 16 -5 16 -5 0 11 -9
9 -22 17 -28 17 -6 0 -9 4 -6 9 3 5 -1 12 -10 15 -24 9 -46 7 -39 -4 4 -6 11
-8 16 -5 5 4 9 2 9 -3 0 -20 -30 -20 -52 -1 -13 11 -17 18 -10 14 7 -4 11 -1
10 7 -2 8 4 12 17 10 18 -3 17 -1 -5 17 -14 11 -31 25 -37 31 -9 8 -13 7 -13
-1 0 -8 -4 -9 -13 0 -10 8 -14 7 -14 -4 0 -7 3 -14 6 -13 3 0 9 -1 14 -2 4 -1
12 -3 17 -4 6 0 9 -5 8 -11 -4 -13 -71 -7 -79 7 -4 6 -5 17 -2 24 2 6 0 15 -6
19 -7 4 -11 -4 -11 -18 l0 -25 -137 4 c-76 2 -159 4 -185 3 -25 0 -49 4 -52 9
-3 5 -29 8 -58 7 -29 -2 -45 0 -35 2 9 3 15 8 12 13 -3 5 -1 11 5 15 5 3 10 0
10 -8 0 -11 11 -14 46 -12 55 4 63 10 39 33 -17 16 -17 16 -12 0 4 -12 2 -15
-9 -11 -7 3 -14 9 -14 13 0 5 -17 7 -37 5 -21 -1 -44 2 -50 7 -16 13 -17 3 -3
-23 8 -13 7 -19 0 -19 -6 0 -16 11 -22 25 -11 24 -38 35 -38 15 0 -5 5 -10 11
-10 5 0 8 -4 5 -9 -4 -5 -3 -11 1 -14 5 -2 2 -2 -5 0 -7 1 -10 -2 -7 -8 4 -5
15 -7 26 -4 11 4 19 2 19 -6 0 -8 -15 -10 -52 -5 -29 3 -77 6 -105 6 -31 0
-53 4 -53 11 0 6 9 8 23 4 17 -5 19 -4 7 4 -13 9 -13 12 0 23 8 7 11 9 7 4
-12 -15 14 -36 44 -36 19 0 30 6 34 21 5 16 10 18 18 10 9 -9 9 -14 -1 -20
-11 -7 -10 -10 3 -14 9 -4 14 -3 10 2 -3 5 1 11 7 14 9 3 8 10 -6 26 -15 16
-22 18 -28 9 -6 -10 -10 -10 -18 2 -7 12 -12 12 -22 2 -9 -9 -9 -12 0 -12 7 0
12 -7 12 -15 0 -8 -8 -15 -17 -15 -13 0 -14 3 -6 8 9 6 7 13 -8 26 -16 13 -24
15 -35 5 -11 -9 -14 -9 -14 1 0 8 -8 10 -24 6 -14 -3 -28 -2 -31 4 -3 6 -17 7
-30 4 -12 -3 -26 -1 -30 6 -5 8 -10 8 -20 0 -10 -8 -20 -8 -37 1 -21 11 -22
11 -9 -4 14 -18 9 -47 -9 -47 -5 0 -10 9 -10 20 0 24 -30 41 -59 33 -14 -4
-26 -1 -31 7 -7 11 -11 11 -24 1 -12 -10 -19 -11 -30 -2 -11 9 -19 9 -36 -1
-18 -11 -23 -11 -34 4 -11 15 -14 16 -28 2 -14 -14 -17 -14 -33 2 -14 15 -20
15 -37 5 -17 -10 -22 -10 -29 0 -6 10 -13 10 -33 1 -20 -9 -28 -8 -40 3 -17
17 -36 20 -36 5z m110 -40 c11 -21 4 -25 -24 -14 -8 3 -12 12 -9 20 7 20 20
17 33 -6z m199 -7 c9 -17 11 -17 24 1 9 12 16 15 20 9 4 -6 -1 -14 -11 -18
-16 -8 -82 -15 -82 -9 0 1 3 9 6 18 8 21 31 20 43 -1z m286 -23 c9 -28 35 -26
28 3 -5 17 -3 19 7 11 6 -7 9 -21 6 -32 -5 -15 -14 -19 -37 -17 -32 2 -53 15
-25 15 9 0 15 4 12 9 -3 5 -15 7 -26 4 -11 -3 -17 -9 -14 -14 3 -5 -4 -9 -16
-9 -12 0 -18 5 -15 10 3 6 1 10 -4 10 -6 0 -11 -4 -11 -10 0 -5 -7 -10 -15
-10 -18 0 -20 20 -2 21 6 1 28 2 47 4 19 2 36 8 38 14 6 18 20 13 27 -9z
m-220 0 c-3 -5 3 -10 14 -10 12 0 21 -5 21 -11 0 -5 -5 -7 -12 -3 -6 4 -27 7
-47 7 -20 0 -26 2 -13 4 12 3 20 9 17 14 -4 5 1 9 10 9 9 0 13 -4 10 -10z
m1151 -146 c-5 -12 -3 -14 7 -8 7 5 5 2 -4 -7 -14 -13 -15 -19 -6 -30 10 -11
9 -11 -5 0 -10 7 -16 17 -13 21 3 5 0 12 -6 16 -8 4 -7 9 2 15 22 14 32 11 25
-7z m-146 -83 c0 -11 -3 -27 -6 -36 -10 -24 -22 0 -16 31 5 28 22 32 22 5z"/>
<path d="M2481 1607 c-1 -10 -4 -16 -8 -14 -5 3 -9 -12 -10 -34 -2 -22 2 -39
8 -39 6 0 8 4 5 9 -3 5 -1 23 5 40 6 17 9 36 6 43 -3 8 -6 6 -6 -5z"/>
<path d="M2586 1608 c-3 -10 -8 -25 -11 -34 -3 -8 -11 -12 -17 -9 -7 4 -5 0 4
-8 14 -11 15 -17 5 -28 -7 -7 0 -3 15 9 24 22 27 23 36 6 9 -16 10 -15 9 8 -2
23 -4 25 -22 15 -17 -8 -18 -8 -9 4 7 8 8 22 4 34 -7 18 -8 18 -14 3z"/>
<path d="M2703 1613 c4 -3 2 -12 -4 -20 -9 -10 -8 -13 5 -13 9 0 16 -4 16 -10
0 -5 7 -10 16 -10 8 0 12 5 9 10 -3 6 -1 10 4 10 6 0 11 5 11 11 0 6 -7 9 -15
5 -9 -3 -15 0 -15 9 0 8 -7 15 -17 15 -9 0 -13 -3 -10 -7z"/>
<path d="M2772 1563 c2 -10 9 -19 16 -19 6 -1 17 -2 22 -3 6 0 10 -10 10 -21
0 -11 4 -20 10 -20 6 0 6 9 1 23 -5 12 -9 25 -10 30 0 4 -4 7 -8 8 -5 1 -16 5
-26 11 -15 8 -18 6 -15 -9z"/>
<path d="M1045 1539 c1 -10 5 -22 10 -26 4 -5 5 -3 2 3 -4 7 0 15 8 18 9 3 18
-1 21 -9 4 -8 10 -15 15 -15 4 0 5 10 0 21 -10 29 -58 36 -56 8z"/>
<path d="M1110 1553 c0 -5 7 -18 15 -29 13 -17 14 -17 15 -1 0 9 4 17 10 17 5
0 7 -8 3 -17 -6 -16 -3 -15 17 2 20 17 22 17 17 3 -3 -10 -2 -20 2 -23 5 -3
11 2 15 10 3 9 12 12 23 8 15 -5 16 -4 5 8 -7 7 -32 14 -55 14 -24 1 -48 5
-55 9 -7 4 -12 3 -12 -1z"/>
<path d="M1243 1538 c2 -7 11 -13 21 -13 9 0 21 -7 26 -15 8 -13 10 -12 10 3
0 10 -11 22 -26 27 -33 13 -37 13 -31 -2z"/>
<path d="M2973 1519 c-5 -18 -11 -20 -39 -16 -23 4 -34 1 -38 -10 -5 -12 -15
-14 -43 -8 -34 6 -36 5 -22 -11 9 -11 9 -15 2 -10 -7 4 -13 3 -13 -3 0 -12
-62 7 -72 23 -5 7 -8 7 -8 -2 0 -7 6 -15 13 -18 15 -5 20 -44 6 -44 -5 0 -8 6
-6 13 1 6 -5 12 -13 12 -8 0 -21 4 -27 8 -13 8 -15 7 -17 -15 0 -7 -8 -13 -16
-14 -19 0 -61 36 -54 47 3 5 -2 9 -10 9 -8 0 -19 8 -25 17 -5 10 -13 14 -18
10 -4 -5 0 -13 10 -18 9 -6 17 -17 17 -24 0 -8 5 -14 12 -12 6 1 13 -10 14
-24 2 -18 -2 -26 -14 -26 -9 0 -20 4 -23 9 -3 5 -13 6 -23 2 -15 -6 -15 -7 1
-19 10 -8 15 -17 10 -21 -4 -4 -7 -2 -7 4 0 7 -15 12 -36 12 -19 0 -33 -4 -30
-9 3 -5 -2 -12 -11 -15 -9 -4 -20 -1 -24 6 -6 10 -12 8 -22 -6 -10 -13 -20
-17 -33 -12 -21 8 -30 5 -26 -6 1 -5 -11 -8 -28 -8 -16 0 -30 -5 -30 -11 0 -7
-9 -9 -21 -6 -13 3 -28 0 -36 -9 -12 -11 -18 -12 -29 -3 -11 9 -14 8 -14 -6 0
-13 -6 -16 -24 -11 -17 4 -26 1 -30 -10 -5 -13 -9 -14 -21 -4 -8 7 -15 19 -15
26 0 8 -6 14 -14 14 -8 0 -18 5 -22 12 -5 8 0 9 16 5 16 -4 20 -3 12 5 -12 12
-46 3 -38 -11 4 -5 -1 -11 -9 -13 -15 -3 -15 -5 0 -23 11 -14 13 -15 9 -3 -7
19 26 20 39 0 10 -15 -1 -35 -14 -27 -5 4 -16 -1 -25 -9 -11 -12 -20 -13 -34
-6 -33 18 -36 11 -5 -11 24 -16 26 -19 8 -14 -13 4 -23 2 -23 -4 0 -6 -7 -7
-17 -4 -12 5 -14 3 -9 -8 4 -8 1 -5 -8 5 -15 18 -16 18 -36 -5 -12 -14 -18
-17 -14 -8 3 10 1 20 -5 24 -6 3 -9 0 -6 -7 8 -21 -8 -36 -48 -43 -25 -5 -37
-4 -37 4 0 7 -5 9 -10 6 -6 -4 -8 -11 -5 -16 4 -5 1 -9 -4 -9 -6 0 -11 6 -11
14 0 8 -7 17 -16 20 -15 6 -15 4 -3 -10 12 -15 11 -16 -9 -10 -17 6 -22 3 -22
-11 0 -15 -2 -16 -10 -3 -9 13 -14 7 -11 -12 0 -5 -4 -8 -9 -8 -6 0 -10 8 -10
18 -1 16 -1 16 -14 -1 -11 -14 -15 -15 -19 -5 -4 9 -6 10 -6 1 -1 -7 -8 -10
-16 -7 -8 4 -15 2 -15 -4 0 -5 -10 -8 -22 -7 -13 1 -32 -1 -43 -6 -17 -6 -15
-8 10 -9 26 0 28 -2 12 -11 -10 -6 -26 -7 -35 -3 -9 4 -21 7 -27 7 -17 -1 -55
-15 -55 -20 0 -3 23 -52 50 -109 29 -60 50 -117 50 -137 0 -37 15 -57 42 -57
14 0 17 6 13 23 -2 12 -6 44 -7 72 -3 43 -7 53 -33 71 -16 11 -29 28 -29 37 1
9 -3 17 -9 17 -6 0 -7 3 -3 7 4 4 22 6 40 5 19 -2 60 5 92 16 33 10 111 31
174 46 118 28 187 51 120 40 -19 -3 -112 -23 -207 -45 -95 -21 -185 -39 -200
-39 -100 0 203 97 485 155 27 6 32 10 26 27 -5 17 -3 20 14 16 12 -3 22 -3 24
2 2 4 82 27 178 52 236 62 371 104 380 118 5 9 9 9 11 1 3 -8 22 -5 64 8 33
11 95 29 138 42 73 21 77 23 77 50 0 34 -19 39 -27 8z"/>
<path d="M2172 1475 c4 -34 2 -45 -8 -45 -7 0 -11 -6 -8 -14 3 -8 1 -24 -6
-35 -8 -16 -8 -27 1 -43 8 -16 14 -19 17 -10 2 8 0 18 -6 24 -6 6 -1 26 14 59
24 49 32 77 14 49 -7 -11 -10 -7 -10 18 0 23 4 31 12 26 7 -4 8 -3 4 4 -17 27
-28 11 -24 -33z"/>
<path d="M2088 1480 c-3 -18 1 -35 9 -41 9 -8 13 -8 13 0 0 6 -6 11 -12 11 -8
0 -9 3 -3 8 11 8 15 52 4 52 -4 0 -9 -14 -11 -30z"/>
<path d="M2544 1485 c-4 -8 -11 -15 -16 -15 -14 0 -37 -31 -38 -48 0 -16 24
-10 26 6 1 7 2 17 3 23 0 5 5 8 10 5 4 -3 13 6 19 19 7 14 9 25 6 25 -2 0 -7
-7 -10 -15z"/>
<path d="M278 1483 c-18 -3 -28 -10 -27 -21 0 -11 3 -12 6 -4 2 6 14 12 26 13
12 0 31 4 42 9 20 9 20 9 0 8 -11 -1 -32 -3 -47 -5z"/>
<path d="M882 1459 c10 -5 23 -19 29 -31 10 -18 9 -20 -7 -14 -18 6 -18 5 0
-9 22 -17 38 -11 29 12 -4 11 -2 14 8 11 8 -3 13 -11 12 -17 -2 -6 7 -11 20
-11 16 0 18 -3 8 -9 -18 -11 2 -23 25 -14 13 5 15 3 9 -7 -5 -9 -4 -11 4 -6 6
4 8 12 5 18 -5 8 -1 9 10 5 11 -4 15 -3 11 4 -4 6 -14 8 -22 5 -8 -3 -24 1
-36 9 -12 8 -16 15 -9 15 6 0 12 4 12 8 0 5 -16 8 -36 7 -25 0 -40 5 -48 17
-6 10 -18 18 -26 18 -12 -1 -11 -3 2 -11z"/>
<path d="M306 1451 c-7 -10 17 -21 45 -21 23 0 25 15 3 24 -22 9 -42 7 -48 -3z"/>
<path d="M1714 1445 c-3 -8 3 -29 15 -47 11 -18 21 -28 21 -21 0 6 -5 15 -10
18 -6 4 -8 10 -5 15 3 5 0 12 -6 15 -5 4 -8 13 -5 21 3 8 3 14 0 14 -2 0 -7
-7 -10 -15z"/>
<path d="M427 1416 c15 -21 19 -22 24 -8 6 18 -6 32 -29 32 -9 0 -8 -7 5 -24z"/>
<path d="M700 1420 c38 -30 60 -34 74 -14 8 10 21 15 32 12 11 -3 25 1 32 9
22 22 -45 16 -70 -7 -12 -11 -24 -17 -27 -12 -3 4 -19 13 -36 20 l-30 13 25
-21z"/>
<path d="M1247 1433 c-3 -5 8 -16 24 -25 28 -17 29 -17 28 5 0 12 -3 16 -6 9
-4 -10 -9 -10 -23 3 -10 9 -20 13 -23 8z"/>
<path d="M60 1417 c0 -4 5 -5 10 -2 6 3 10 1 10 -5 0 -7 7 -10 14 -7 11 4 13
1 9 -11 -3 -10 1 -8 12 6 11 15 23 21 33 17 9 -3 13 -2 8 2 -10 11 -96 11 -96
0z"/>
<path d="M264 1419 c-3 -5 -1 -9 5 -9 6 0 8 -7 5 -15 -4 -10 0 -15 15 -15 12
0 21 -4 21 -9 0 -5 9 -7 20 -4 11 3 20 9 20 14 0 13 -79 48 -86 38z"/>
<path d="M533 1423 c-21 -7 -15 -22 6 -16 10 3 22 0 25 -6 9 -14 46 -14 46 -1
0 6 -6 11 -12 12 -7 0 -17 2 -23 2 -5 1 -14 4 -20 7 -5 4 -16 4 -22 2z"/>
<path d="M1069 1421 c7 -5 9 -11 5 -13 -5 -3 -4 -3 3 -2 7 2 14 0 17 -4 6 -10
-21 -32 -30 -24 -4 4 -4 1 0 -6 4 -7 11 -10 16 -7 5 3 20 1 34 -5 32 -12 35
-3 4 10 -21 9 -21 10 6 7 16 -1 31 3 33 9 2 7 -6 10 -21 9 -14 -2 -32 5 -42
16 -9 10 -22 19 -28 19 -6 0 -5 -4 3 -9z"/>
<path d="M1163 1416 c2 -6 15 -12 30 -14 15 -2 29 -11 32 -23 4 -12 15 -19 32
-19 29 0 27 23 -3 28 -10 2 -24 11 -31 19 -6 8 -16 12 -22 8 -6 -3 -11 -2 -11
3 0 5 -7 9 -15 9 -9 0 -14 -5 -12 -11z"/>
<path d="M206 1400 c4 -14 7 -30 7 -37 0 -6 6 -9 13 -6 8 3 13 15 12 28 -1 13
-6 21 -11 18 -5 -3 -14 1 -19 8 -6 10 -7 6 -2 -11z"/>
<path d="M2310 1399 c9 -15 8 -24 -1 -35 -6 -8 -10 -17 -7 -19 3 -3 10 1 17 9
13 15 5 66 -10 66 -6 0 -5 -9 1 -21z"/>
<path d="M403 1395 c-6 -7 -9 -16 -5 -19 3 -4 -1 -4 -11 0 -9 3 -17 1 -17 -4
0 -14 57 -42 84 -42 20 1 20 2 4 14 -20 15 -25 31 -6 20 7 -5 8 -3 3 6 -6 10
-11 9 -23 -6 -14 -19 -14 -18 -8 1 8 28 -5 47 -21 30z"/>
<path d="M670 1400 c0 -5 6 -10 14 -10 8 0 23 -3 33 -7 16 -6 16 -5 4 10 -15
18 -51 23 -51 7z"/>
<path d="M850 1390 c-29 -23 -48 -26 -30 -6 10 13 8 13 -14 3 -23 -11 -24 -12
-5 -19 30 -12 24 -31 -8 -24 -21 5 -24 4 -13 -4 8 -5 25 -10 37 -10 12 0 25
-4 28 -10 3 -5 12 -10 18 -10 7 1 2 9 -11 20 -22 18 -22 20 -6 39 10 11 21 18
24 16 4 -2 7 2 7 10 0 8 -1 15 -1 15 -1 0 -12 -9 -26 -20z"/>
<path d="M484 1378 c-2 -3 10 -9 27 -13 27 -6 28 -8 13 -19 -31 -23 4 -29 41
-7 27 16 41 18 60 11 14 -5 25 -16 25 -24 0 -23 18 -29 35 -12 10 10 12 17 4
21 -6 4 -8 14 -5 22 4 11 2 13 -9 9 -8 -3 -15 0 -15 7 0 8 -3 8 -9 -2 -6 -9
-18 -11 -40 -6 -20 4 -31 3 -31 -4 0 -6 -6 -11 -14 -11 -9 0 -13 7 -11 18 2
13 -4 17 -32 17 -19 0 -37 -3 -39 -7z"/>
<path d="M2905 1374 c-27 -8 -54 -16 -60 -17 -5 -1 -16 -6 -23 -11 -7 -4 -16
-5 -19 -2 -3 3 -12 -2 -19 -12 -7 -9 -14 -12 -14 -5 0 8 -15 7 -52 -4 -29 -8
-63 -17 -75 -20 -13 -3 -20 -10 -17 -15 4 -6 -2 -8 -15 -3 -11 3 -21 3 -21 -2
0 -4 -20 -9 -44 -11 -25 -1 -56 -6 -70 -12 -19 -7 -26 -6 -26 3 0 8 -2 9 -8 1
-4 -6 -17 -14 -29 -18 -14 -5 -23 -15 -23 -28 0 -12 3 -18 8 -14 4 4 7 12 7
18 0 6 23 12 50 13 28 1 61 7 73 14 17 9 22 9 22 -1 0 -9 2 -10 8 -2 4 6 30
15 59 19 41 5 51 10 46 22 -4 10 -2 14 4 10 6 -4 14 -1 16 5 3 7 6 8 6 2 1 -7
18 -8 54 -3 70 9 81 12 89 24 5 7 13 6 25 -1 21 -13 29 -35 11 -31 -7 2 -10 2
-5 0 4 -3 5 -8 2 -13 -3 -4 4 -6 15 -3 15 4 19 2 15 -10 -8 -18 13 -27 48 -20
25 5 25 6 10 29 -8 13 -20 24 -27 24 -6 0 -4 -5 4 -10 9 -6 11 -10 3 -10 -7 0
-10 -7 -7 -15 5 -11 2 -13 -10 -9 -9 3 -14 10 -11 14 3 4 -4 19 -15 33 -19 24
-19 25 1 43 16 15 22 16 28 5 10 -16 31 -6 31 15 0 8 5 14 10 14 6 0 10 -7 10
-15 0 -9 6 -12 15 -9 23 9 18 29 -7 31 -13 1 -45 -5 -73 -13z"/>
<path d="M2 1369 c3 -8 13 -15 24 -15 28 -3 72 -12 82 -18 5 -3 19 -7 33 -10
13 -3 44 -10 69 -16 24 -6 55 -8 68 -5 15 4 21 2 17 -5 -4 -6 -3 -10 2 -9 11
3 82 -10 113 -21 51 -17 107 -20 107 -6 0 9 -14 12 -44 11 -24 0 -43 3 -43 8
0 5 -6 7 -14 4 -8 -3 -16 -2 -18 4 -4 11 -125 32 -138 24 -5 -3 -11 -1 -15 5
-4 6 -11 8 -16 5 -5 -4 -9 -1 -9 5 0 6 -4 8 -10 5 -5 -3 -18 -1 -28 4 -11 6
-46 15 -78 20 -32 6 -70 13 -83 17 -18 5 -23 4 -19 -7z"/>
<path d="M903 1363 c-23 -11 -30 -19 -25 -31 6 -16 7 -15 10 0 2 10 17 21 35
26 17 4 27 11 21 14 -5 4 -24 0 -41 -9z"/>
<path d="M918 1343 c-10 -2 -18 -8 -18 -13 0 -5 6 -7 14 -4 8 3 19 -3 26 -15
9 -18 8 -21 -12 -21 -21 0 -21 0 -2 -14 17 -13 20 -13 25 2 7 21 0 52 -13 52
-5 0 -6 5 -3 10 3 6 5 9 3 9 -2 -1 -11 -3 -20 -6z"/>
<path d="M1175 1330 c8 -9 12 -20 8 -25 -5 -4 -2 -5 6 0 8 4 16 2 21 -5 5 -8
9 -3 12 13 4 22 1 26 -28 29 -30 4 -32 2 -19 -12z"/>
<path d="M1289 1338 c14 -18 10 -22 -22 -18 -17 1 -17 0 -2 -23 11 -17 22 -23
35 -20 27 7 25 35 -2 59 -19 15 -20 16 -9 2z"/>
<path d="M1670 1340 c0 -20 5 -25 23 -24 11 1 16 -4 13 -12 -3 -7 -2 -15 2
-18 16 -10 10 38 -6 50 -21 16 -32 17 -32 4z"/>
<path d="M1969 1307 c-6 -10 -14 -15 -19 -12 -5 3 -11 1 -15 -5 -3 -6 1 -13 9
-16 9 -3 13 -11 9 -17 -3 -6 -1 -7 5 -3 6 4 9 13 5 21 -3 8 0 15 6 15 6 0 11
8 11 18 1 11 5 9 13 -10 11 -24 13 -25 27 -10 13 14 12 15 -4 9 -12 -5 -16 -3
-13 5 2 7 14 13 26 12 11 0 21 3 21 8 0 16 -72 3 -81 -15z"/>
<path d="M0 1297 c0 -9 24 -17 68 -25 37 -6 111 -20 164 -31 138 -29 144 -30
231 -43 64 -9 82 -16 94 -34 14 -23 18 -68 9 -109 -2 -11 -5 -22 -5 -25 -1 -3
-6 2 -12 10 -7 11 -9 5 -8 -25 5 -82 1 -95 -27 -95 -14 0 -23 -4 -20 -9 3 -5
7 -29 7 -54 2 -34 6 -44 16 -40 8 3 10 10 6 17 -8 10 -9 28 -4 64 3 28 21 9
21 -22 0 -19 5 -38 12 -42 7 -4 8 -3 4 4 -4 7 -3 12 3 12 6 0 13 11 17 25 3
14 10 25 15 25 5 0 4 -11 -1 -25 -5 -14 -9 -29 -9 -33 1 -4 0 -10 -1 -14 -6
-17 -8 -29 -9 -51 -1 -16 -8 -23 -23 -24 -13 -1 -18 1 -11 5 11 7 16 26 14 50
-2 27 -36 -10 -38 -41 l-1 -32 66 -3 c63 -3 80 4 32 13 -25 5 -40 15 -22 15 8
0 12 20 12 58 0 33 5 63 12 70 10 10 10 14 0 21 -19 12 -9 211 12 227 24 17
19 27 -9 20 -14 -4 -25 -2 -25 2 0 11 35 43 41 38 2 -2 19 -6 37 -9 25 -5 32
-3 32 9 0 13 7 15 38 9 34 -6 35 -5 17 8 -10 8 -25 13 -31 10 -7 -2 -22 1 -34
7 -31 16 -70 22 -70 10 0 -5 11 -12 25 -16 14 -3 25 -9 25 -13 0 -16 -281 26
-532 79 -110 23 -138 25 -138 7z m590 -332 c0 -41 -4 -55 -14 -55 -8 0 -17 -8
-19 -17 -4 -14 -5 -12 -6 5 -1 13 5 22 14 22 11 0 15 12 15 50 0 28 2 50 5 50
3 0 5 -25 5 -55z"/>
<path d="M1004 1265 c0 -25 3 -45 8 -45 4 0 8 8 8 17 0 33 17 -4 19 -43 1 -17
59 -23 73 -7 8 10 14 10 24 2 22 -18 16 0 -7 24 -13 13 -20 16 -17 7 3 -8 -1
-21 -8 -28 -8 -7 -14 -9 -14 -3 0 5 -8 7 -19 4 -11 -3 -21 2 -24 11 -4 10 -1
16 8 16 8 0 15 7 15 15 0 9 -6 12 -15 9 -8 -4 -15 -1 -15 5 0 6 5 10 11 9 6
-2 14 3 17 11 3 10 0 12 -12 8 -9 -4 -16 -1 -16 6 0 8 -4 6 -10 -3 -8 -12 -10
-11 -10 8 0 42 -15 22 -16 -23z"/>
<path d="M750 1290 c0 -5 5 -10 10 -10 6 0 10 -7 10 -16 0 -12 6 -15 23 -9 12
4 32 6 45 6 12 0 22 4 22 9 0 11 -11 13 -52 10 -14 -1 -29 3 -33 9 -8 14 -25
14 -25 1z"/>
<path d="M1146 1293 c-4 -4 -13 -8 -19 -9 -7 0 -20 -2 -30 -2 -15 -2 -16 -4
-5 -16 11 -13 14 -13 24 0 10 13 12 13 18 -1 3 -9 11 -13 17 -9 6 3 15 0 20
-7 6 -10 9 -8 9 10 0 16 -4 22 -15 17 -8 -3 -15 -1 -15 3 0 5 6 12 13 14 6 3
7 6 1 6 -6 1 -14 -2 -18 -6z"/>
<path d="M1899 1284 c-22 -27 -18 -39 12 -39 16 0 29 5 29 12 0 6 -9 9 -20 6
-12 -3 -20 0 -20 6 0 7 5 9 10 6 6 -3 10 1 10 9 0 20 -4 20 -21 0z"/>
<path d="M1769 1285 c0 -5 -2 -18 -4 -28 -2 -13 0 -15 9 -8 8 7 16 4 25 -10 7
-12 15 -18 18 -15 4 3 18 -1 32 -10 14 -8 9 -1 -11 16 -21 18 -35 37 -31 43 4
6 1 7 -7 2 -7 -4 -16 -2 -21 6 -5 8 -9 10 -10 4z"/>
<path d="M671 1262 c7 -12 17 -18 21 -16 4 3 8 1 8 -5 0 -12 33 -7 37 6 5 14
-3 19 -45 28 -32 7 -33 6 -21 -13z"/>
<path d="M887 1268 c-3 -10 0 -19 10 -22 12 -5 13 -9 3 -21 -7 -8 -9 -15 -4
-15 4 0 -2 -9 -14 -20 -11 -11 -29 -18 -39 -15 -10 3 -3 -2 15 -10 18 -9 30
-20 27 -25 -3 -6 0 -10 8 -10 8 0 18 7 21 16 3 8 2 13 -2 10 -13 -8 -35 11
-27 23 5 9 10 9 20 1 9 -8 15 -8 20 0 3 5 -1 10 -9 10 -14 0 -14 3 -4 20 7 11
21 20 32 20 25 0 16 9 -14 13 -13 2 -27 12 -30 22 -6 16 -7 16 -13 3z"/>
<path d="M1240 1266 c0 -8 9 -20 20 -26 17 -9 19 -8 11 12 -9 26 -31 36 -31
14z"/>
<path d="M530 1249 c0 -5 8 -9 18 -9 9 0 28 -3 41 -7 21 -5 23 -4 12 8 -15 15
-71 21 -71 8z"/>
<path d="M1540 1249 c0 -5 -4 -7 -10 -4 -6 3 -10 -5 -10 -18 0 -14 -7 -28 -16
-31 -13 -5 -14 -9 -4 -21 6 -7 18 -11 26 -8 8 3 14 1 14 -4 0 -5 7 -10 16 -10
14 0 14 2 -2 14 -10 7 -24 13 -32 13 -13 0 -13 2 0 18 17 18 33 62 24 62 -3 0
-6 -5 -6 -11z"/>
<path d="M2630 1252 c0 -6 6 -12 13 -15 9 -3 9 -8 -2 -21 -12 -15 -12 -17 0
-14 10 2 14 -6 14 -27 0 -16 4 -33 8 -36 4 -3 9 -15 10 -27 0 -11 5 -19 9 -16
4 3 5 10 3 17 -3 7 -9 34 -14 62 -8 42 -7 47 4 32 7 -10 15 -15 18 -10 2 4
-11 21 -29 36 -19 16 -34 24 -34 19z"/>
<path d="M825 1240 c-3 -6 1 -13 9 -16 9 -3 16 -10 16 -16 0 -5 -4 -7 -9 -3
-5 3 -13 0 -16 -6 -5 -7 0 -9 11 -7 13 3 18 11 17 28 -3 24 -2 24 12 6 8 -11
15 -15 15 -10 0 26 -42 44 -55 24z"/>
<path d="M1190 1229 c-8 -15 -7 -19 5 -19 24 0 17 -20 -7 -21 -13 0 -18 -3
-11 -5 6 -3 26 -1 45 5 18 5 25 10 16 10 -10 1 -18 6 -18 12 0 5 5 7 10 4 6
-3 10 0 10 8 0 24 -39 28 -50 6z"/>
<path d="M2320 1224 c-18 -10 -20 -14 -8 -14 11 0 15 -5 12 -14 -3 -8 1 -17 8
-22 7 -4 10 -4 6 1 -11 12 11 47 25 38 7 -4 7 0 -2 10 -7 9 -14 17 -15 16 0
-1 -12 -7 -26 -15z"/>
<path d="M2564 1213 c-24 -37 -26 -51 -5 -49 10 2 18 16 22 39 3 21 5 37 4 37
-2 0 -11 -12 -21 -27z"/>
<path d="M2740 1228 c0 -17 11 -23 34 -19 5 1 6 -5 2 -14 -3 -9 -6 -19 -6 -23
0 -3 -7 3 -16 14 -15 17 -15 17 0 -8 14 -25 14 -27 -2 -31 -9 -2 -1 -4 18 -4
19 0 29 2 21 5 -11 4 -11 6 0 13 8 5 9 9 3 9 -6 0 -9 12 -6 29 2 16 -1 32 -9
36 -7 5 -10 4 -5 -3 3 -6 2 -13 -3 -17 -5 -3 -14 3 -20 12 -10 17 -10 17 -11
1z"/>
<path d="M1280 1215 c0 -15 13 -31 30 -39 8 -3 -2 -4 -22 -2 -25 3 -38 1 -38
-7 0 -8 -3 -8 -9 1 -7 11 -9 11 -14 -2 -10 -24 39 -33 73 -12 39 23 70 21 70
-4 0 -14 7 -20 21 -20 12 0 19 5 17 12 -5 15 15 38 33 38 8 0 8 4 -2 16 -7 8
-21 13 -31 11 -10 -3 -20 -1 -23 4 -3 4 -16 4 -29 -1 -28 -10 -59 -8 -68 5 -5
7 -8 7 -8 0z m129 -38 c-16 -18 -19 -18 -34 -4 -8 9 -22 14 -30 11 -7 -3 -21
-2 -29 3 -10 6 7 9 48 9 63 1 63 0 45 -19z"/>
<path d="M1463 1197 c3 -9 2 -19 -3 -22 -6 -4 -10 -15 -10 -26 0 -17 3 -18 20
-7 11 7 15 15 9 18 -5 4 -7 14 -4 22 4 9 1 19 -6 24 -9 5 -10 2 -6 -9z"/>
<path d="M1601 1203 c-1 -7 8 -17 18 -23 26 -14 31 -13 31 6 0 11 -6 15 -20
11 -10 -3 -21 0 -24 7 -3 8 -5 7 -5 -1z"/>
<path d="M2252 1203 c-18 -2 -30 -8 -27 -14 3 -5 -1 -6 -9 -3 -9 3 -16 1 -16
-5 0 -10 23 -16 45 -11 6 1 17 3 25 4 8 2 16 10 18 19 2 10 2 16 0 15 -2 0
-18 -3 -36 -5z"/>
<path d="M2420 1194 c0 -3 7 -13 16 -21 13 -13 13 -18 2 -25 -10 -8 -10 -11 0
-15 6 -2 12 -15 12 -27 0 -13 6 -23 15 -23 8 0 15 4 15 9 0 4 -5 8 -11 8 -6 0
-9 7 -6 15 4 8 2 17 -4 20 -5 4 -7 11 -3 16 3 5 9 7 13 5 4 -3 8 1 8 9 0 11
-4 12 -13 4 -9 -7 -14 -5 -19 10 -6 19 -25 30 -25 15z"/>
<path d="M732 1170 c14 -4 32 -11 39 -15 8 -5 10 -4 5 3 -8 13 0 14 28 3 17
-6 15 -9 -12 -20 -35 -15 -44 -32 -12 -24 11 3 20 9 20 14 0 5 11 4 25 -1 15
-6 26 -6 30 0 4 6 -3 10 -15 10 -12 0 -18 5 -15 10 9 14 -38 30 -83 29 -35 -1
-35 -1 -10 -9z"/>
<path d="M953 1168 c-7 -13 7 -28 25 -27 14 0 13 2 -3 9 -19 8 -19 9 3 9 13 1
22 -5 22 -14 0 -11 9 -14 34 -11 46 6 73 21 56 31 -7 4 -16 2 -20 -5 -8 -14
-46 -9 -43 6 2 11 -67 12 -74 2z"/>
<path d="M1110 1158 c0 -5 11 -8 25 -8 15 0 25 -6 25 -14 0 -14 87 -42 98 -31
3 3 -2 5 -11 5 -10 0 -17 4 -17 9 0 5 -11 11 -25 13 -23 3 -37 23 -16 23 5 0
12 2 14 5 3 3 -17 5 -44 5 -27 0 -49 -3 -49 -7z"/>
<path d="M2490 1160 c0 -5 4 -10 9 -10 4 0 7 -12 5 -27 -2 -16 -1 -22 2 -15 4
9 10 10 18 2 10 -8 11 -3 2 25 -10 32 -36 50 -36 25z"/>
<path d="M2105 1150 c-3 -5 -15 -10 -26 -10 -10 0 -19 -4 -19 -10 0 -5 6 -9
13 -7 16 3 22 -50 7 -68 -6 -8 -7 -16 -2 -19 5 -3 13 -51 16 -106 5 -65 12
-100 19 -100 7 0 3 -7 -7 -15 -11 -8 -15 -15 -10 -15 5 0 10 -25 9 -55 0 -30
-4 -55 -8 -55 -5 0 -6 -4 -2 -9 3 -5 -1 -28 -9 -50 l-14 -41 33 0 c32 0 33 1
29 38 -5 51 -18 382 -19 465 0 71 0 73 -10 57z"/>
<path d="M2147 1144 c6 -17 15 -18 31 -2 6 6 15 8 19 4 4 -4 -2 -15 -13 -24
-12 -10 -21 -30 -22 -47 -1 -25 1 -27 8 -10 6 14 9 16 9 5 1 -9 -4 -21 -11
-28 -9 -9 -7 -12 9 -12 12 0 24 -6 27 -12 3 -7 3 3 0 22 -4 19 -11 41 -17 49
-9 10 -6 18 11 31 16 14 19 20 9 28 -19 15 -66 12 -60 -4z"/>
<path d="M2322 1147 c-33 -9 -41 -15 -36 -26 3 -9 9 -46 11 -83 8 -100 33 -87
33 17 0 52 15 80 30 56 5 -9 10 -8 20 3 17 21 30 11 30 -25 0 -16 5 -29 10
-29 16 0 11 30 -11 66 -22 36 -22 36 -87 21z"/>
<path d="M2235 1125 c-16 -13 -26 -27 -22 -31 4 -4 7 -2 7 4 0 7 7 12 15 12 8
0 15 -7 15 -16 0 -8 -4 -12 -10 -9 -6 3 -7 -1 -4 -9 3 -9 10 -14 14 -11 4 3
11 -2 14 -11 8 -22 8 -24 -5 -21 -6 1 -13 -10 -16 -25 -3 -22 0 -28 14 -28 15
0 18 7 17 38 -3 49 -9 86 -18 100 -3 5 0 12 6 15 7 2 11 7 8 10 -3 3 -18 -5
-35 -18z"/>
<path d="M2973 1124 c-12 -26 -8 -54 8 -54 6 0 5 9 -1 20 -9 16 -8 20 5 20 16
0 19 9 7 27 -5 8 -11 3 -19 -13z"/>
<path d="M2690 1132 c0 -7 5 -12 11 -12 6 0 8 -7 5 -16 -5 -12 -2 -15 10 -10
8 3 20 6 25 6 5 0 9 5 9 11 0 5 -5 7 -11 4 -5 -4 -19 1 -30 11 -11 10 -19 12
-19 6z"/>
<path d="M706 1101 c-8 -12 21 -34 34 -26 5 3 10 2 10 -4 0 -5 -4 -11 -9 -13
-5 -1 -3 -9 5 -16 11 -10 13 -8 10 17 -2 17 2 33 8 36 6 3 1 3 -11 1 -13 -2
-23 0 -23 5 0 12 -17 12 -24 0z"/>
<path d="M1270 1077 c0 -25 4 -37 14 -37 12 0 13 7 6 31 -13 46 -20 48 -20 6z"/>
<path d="M2597 1103 c-38 -10 -65 -53 -34 -53 6 0 8 3 4 6 -11 12 21 34 39 27
12 -4 15 -3 10 5 -4 7 -2 12 3 12 6 0 11 -4 11 -10 0 -5 7 -10 15 -10 9 0 20
-11 25 -25 5 -14 15 -25 22 -25 9 0 9 -3 -2 -11 -11 -8 -9 -9 10 -3 21 6 23 5
12 -8 -10 -13 -10 -17 1 -21 8 -3 20 -1 28 4 11 7 11 9 0 9 -7 0 -11 6 -8 14
3 8 -1 20 -9 27 -12 9 -12 15 -2 28 11 14 11 14 -3 4 -9 -7 -19 -10 -22 -6 -4
3 -7 2 -7 -4 0 -6 7 -14 16 -17 9 -4 15 -9 12 -11 -9 -9 -38 7 -38 20 0 13
-47 56 -59 54 -3 -1 -14 -3 -24 -6z"/>
<path d="M2777 1095 c3 -10 0 -15 -8 -13 -16 4 -13 -39 4 -60 9 -11 13 -11 24
4 16 21 17 34 3 34 -5 0 -9 -3 -9 -7 3 -19 -2 -34 -10 -29 -4 3 -6 17 -3 31 3
19 9 24 20 20 12 -5 12 -1 -3 15 -22 24 -26 25 -18 5z"/>
<path d="M2377 1093 c-11 -11 -8 -39 8 -69 13 -25 21 -19 15 11 -1 5 -2 18 -3
27 -1 10 -5 18 -10 18 -4 0 -5 5 -2 10 7 11 2 13 -8 3z"/>
<path d="M2934 1092 c5 -8 -3 -10 -26 -5 -18 3 -31 4 -28 2 36 -29 54 -42 48
-35 -4 5 0 14 9 21 13 9 13 14 3 20 -9 5 -11 4 -6 -3z"/>
<path d="M1080 1055 c0 -16 -6 -25 -15 -25 -19 0 -19 -21 0 -46 13 -18 14 -18
15 -1 0 11 4 15 12 11 7 -5 8 -3 2 7 -4 7 -7 28 -5 46 1 18 0 33 -3 33 -3 0
-6 -11 -6 -25z"/>
<path d="M2493 1066 c4 -10 7 -23 7 -30 0 -7 7 -21 15 -32 13 -16 14 -16 9 -1
-3 9 -1 17 5 17 6 0 11 4 11 10 0 5 -7 7 -15 4 -10 -4 -15 0 -15 14 0 12 -5
24 -12 28 -8 5 -9 2 -5 -10z"/>
<path d="M1142 966 c2 -77 7 -109 17 -115 9 -6 10 -11 2 -15 -6 -4 -16 -4 -22
0 -7 4 -10 1 -7 -7 3 -8 13 -14 23 -14 18 0 19 8 16 108 -2 71 1 107 8 107 9
0 18 -151 12 -192 0 -4 6 -5 14 -2 8 4 15 11 15 18 0 6 5 4 10 -4 8 -13 10
-12 10 3 0 9 -4 17 -10 17 -5 0 -10 24 -10 54 0 34 -5 56 -12 59 -8 3 -5 6 5
6 11 1 15 6 11 13 -4 6 1 17 11 25 17 12 18 13 1 13 -9 0 -15 4 -12 8 3 5 -8
6 -25 4 -16 -2 -36 1 -44 8 -14 11 -15 0 -13 -94z"/>
<path d="M2477 1035 c6 -36 5 -39 -10 -26 -10 7 -17 11 -17 8 0 -3 -3 -13 -6
-21 -5 -14 -2 -15 19 -7 17 7 28 6 37 -2 10 -9 11 -9 4 3 -5 8 -10 23 -11 34
-2 10 -7 26 -13 35 -6 11 -7 3 -3 -24z"/>
<path d="M2923 1033 c4 -3 0 -12 -8 -20 -18 -18 -20 -36 -2 -30 6 2 11 10 9
17 -2 11 0 11 11 1 12 -9 16 -8 21 5 10 25 7 30 -15 31 -12 1 -19 -1 -16 -4z"/>
<path d="M782 1006 c11 -8 15 -20 11 -34 -4 -15 -1 -22 9 -22 10 0 13 10 10
35 -3 28 -8 35 -26 35 -19 -1 -20 -2 -4 -14z"/>
<path d="M2176 1003 c-4 -8 -2 -21 2 -27 22 -28 20 -56 -8 -86 l-28 -30 32 5
c17 2 25 2 19 -1 -18 -8 -16 -24 2 -24 8 0 15 -4 15 -10 0 -5 -11 -10 -25 -10
-16 0 -25 -6 -25 -15 0 -13 4 -14 20 -5 17 9 20 8 20 -10 0 -14 -4 -19 -12
-14 -10 5 -10 4 -1 -6 14 -15 6 -43 -10 -33 -6 3 -7 1 -3 -5 4 -7 14 -12 22
-12 8 0 14 -4 14 -10 0 -5 6 -7 13 -5 16 6 38 -8 40 -26 4 -22 17 -39 30 -39
7 0 3 7 -7 15 -14 11 -16 15 -5 15 12 0 12 2 -1 10 -13 9 -13 11 0 20 24 15
44 12 58 -10 10 -16 10 -20 -1 -20 -7 0 -18 5 -25 12 -9 9 -12 8 -12 -5 0 -11
8 -17 25 -17 14 0 25 -5 25 -11 0 -6 -9 -9 -20 -6 -15 4 -22 -1 -26 -20 l-7
-25 -24 29 -25 28 22 -33 c14 -20 33 -35 51 -39 18 -3 29 -12 29 -22 0 -12 2
-13 8 -3 5 7 36 13 80 15 51 1 72 6 72 15 0 7 5 10 10 7 10 -6 14 7 11 33 -1
6 5 12 14 12 8 0 15 -7 15 -15 0 -8 -4 -15 -10 -15 -5 0 -6 -7 -3 -17 4 -10 2
-14 -5 -9 -6 3 -13 2 -17 -4 -4 -6 5 -10 19 -10 14 0 46 -11 71 -25 51 -29 57
-26 20 10 -14 15 -36 25 -52 25 -20 0 -24 3 -14 9 8 5 11 16 6 30 -5 17 -2 21
14 21 12 0 30 -6 41 -12 15 -9 23 -10 28 -2 12 18 40 24 46 9 3 -10 0 -12 -12
-8 -17 6 -15 3 27 -47 2 -3 2 2 -1 11 -4 9 -2 22 3 30 6 10 -1 22 -22 41 -17
16 -36 28 -42 28 -9 0 -9 -2 -1 -8 6 -4 8 -15 5 -26 -7 -17 -8 -18 -24 -1 -11
11 -15 25 -12 39 l6 21 -18 -21 c-10 -11 -25 -18 -33 -16 -13 5 -13 3 -1 -12
14 -16 12 -17 -20 -13 -19 3 -36 6 -39 6 -3 1 2 6 10 11 13 8 13 10 -2 10 -22
0 -35 -40 -17 -51 11 -6 10 -9 -4 -15 -9 -3 -14 -10 -11 -15 3 -5 0 -9 -5 -9
-6 0 -16 9 -23 19 -9 15 -16 17 -25 9 -7 -5 -21 -7 -30 -3 -17 6 -17 7 1 21
21 15 16 17 -21 14 -14 -1 -26 7 -34 22 -11 21 -11 22 4 9 15 -12 17 -11 17 3
0 10 -4 14 -10 11 -5 -3 -10 0 -10 8 0 8 -7 20 -15 27 -13 11 -14 10 -9 -3 5
-14 1 -15 -25 -7 -16 4 -42 7 -56 6 -17 -2 -29 3 -36 15 -8 15 -6 19 8 19 15
1 16 2 3 9 -11 7 -15 28 -15 85 0 42 -4 76 -8 76 -5 0 -6 14 -3 31 5 36 -17
71 -28 42z m218 -389 c10 -25 7 -34 -10 -34 -9 0 -14 6 -11 13 4 10 -2 13 -19
9 -14 -2 -24 0 -24 7 0 7 -4 9 -10 6 -5 -3 -10 -1 -10 4 0 18 77 13 84 -5z"/>
<path d="M2801 1002 c-5 -10 -6 -24 -1 -32 4 -7 6 -20 2 -28 -3 -10 0 -13 9
-10 15 5 13 41 -2 46 -5 2 -4 12 1 23 6 10 8 19 6 19 -3 0 -10 -8 -15 -18z"/>
<path d="M2837 1013 c-2 -5 -2 -14 -1 -20 1 -7 2 -18 3 -24 0 -6 8 -9 18 -7
17 3 27 34 13 43 -5 3 -7 -4 -5 -15 2 -11 0 -20 -6 -20 -8 0 -13 22 -10 43 0
4 -1 7 -3 7 -3 0 -7 -3 -9 -7z"/>
<path d="M480 968 c-34 -25 -40 -34 -27 -36 27 -5 42 3 66 37 29 40 16 39 -39
-1z"/>
<path d="M700 985 c0 -9 6 -12 15 -9 10 4 15 0 15 -12 0 -11 -4 -15 -8 -9 -11
15 -39 14 -39 -1 0 -15 18 -17 55 -8 13 4 22 14 22 26 0 12 4 17 12 12 7 -4 8
-3 4 4 -11 18 -76 15 -76 -3z"/>
<path d="M2606 986 c10 -8 15 -18 11 -22 -4 -5 -12 -2 -17 6 -6 8 -10 11 -10
7 0 -12 54 -77 64 -77 5 0 0 10 -12 23 -23 24 -30 43 -12 32 6 -3 10 -1 10 4
0 6 5 11 11 11 5 0 7 -5 3 -12 -4 -7 -3 -8 4 -4 7 4 12 3 12 -3 0 -5 -5 -11
-12 -13 -7 -3 -5 -7 6 -11 11 -4 15 -3 10 4 -4 7 -1 10 7 7 7 -2 16 -15 20
-29 l7 -24 1 24 c1 20 3 22 17 10 13 -10 17 -10 25 2 12 19 11 29 -2 29 -5 0
-7 -4 -4 -10 12 -19 -40 -5 -65 18 -14 12 -30 20 -37 18 -6 -3 -17 2 -23 10
-7 8 -17 14 -23 14 -6 0 -2 -6 9 -14z"/>
<path d="M2377 972 c-15 -2 -25 -7 -23 -11 3 -4 -8 -5 -24 -3 -42 6 -100 -7
-100 -22 0 -10 19 -12 78 -11 85 3 112 10 112 30 0 18 -9 21 -43 17z"/>
<path d="M0 909 c0 -37 3 -48 12 -42 7 4 22 7 33 8 16 0 21 8 23 43 2 25 -1
42 -7 42 -6 0 -11 -16 -11 -35 0 -24 -5 -35 -15 -35 -10 0 -15 11 -15 35 0 19
-4 35 -10 35 -5 0 -10 -23 -10 -51z"/>
<path d="M1055 946 c15 -10 16 -16 6 -34 -7 -13 -9 -28 -5 -34 5 -7 12 1 19
23 15 42 11 54 -16 56 -20 2 -20 1 -4 -11z"/>
<path d="M99 918 c-14 -37 -16 -48 -22 -100 -2 -21 -6 -40 -9 -44 -14 -14 -28
9 -28 46 0 21 -4 41 -8 44 -5 3 -9 0 -9 -7 0 -7 -3 -29 -7 -49 -3 -20 -2 -39
2 -41 17 -11 112 -16 112 -7 0 5 5 10 11 10 5 0 7 -5 4 -10 -4 -7 3 -8 22 -4
37 9 42 14 13 14 -21 0 -22 3 -16 48 12 78 12 132 0 132 -5 0 -10 -15 -11 -32
0 -18 -1 -49 -2 -68 -2 -29 -4 -32 -11 -15 -8 18 -9 17 -9 -7 -2 -55 -34 -85
-37 -33 -1 14 3 25 8 25 6 0 6 5 -1 14 -14 17 -11 37 8 52 15 11 22 64 10 64
-4 0 -13 -15 -20 -32z"/>
<path d="M2575 939 c-5 -8 -4 -10 3 -5 7 4 12 1 12 -8 0 -8 -8 -16 -17 -18
-13 -3 -10 -6 9 -10 23 -4 27 -2 25 14 -5 27 -23 43 -32 27z"/>
<path d="M2848 936 c-12 -9 -13 -14 -3 -23 10 -9 16 -9 28 0 23 17 -2 40 -25
23z"/>
<path d="M299 931 c8 -5 12 -15 9 -22 -3 -8 -2 -23 2 -34 5 -15 8 -10 11 23 4
37 2 42 -16 42 -15 0 -17 -2 -6 -9z"/>
<path d="M1459 916 c10 -25 31 -33 31 -12 0 9 -5 16 -11 16 -5 0 -8 4 -5 8 3
5 -1 9 -9 9 -9 0 -11 -6 -6 -21z"/>
<path d="M2937 928 c4 -7 6 -21 5 -30 -2 -10 2 -18 8 -18 6 0 8 5 4 12 -5 7 0
9 14 6 13 -4 23 0 26 9 4 11 1 13 -14 8 -13 -4 -22 -1 -26 9 -3 9 -10 16 -16
16 -5 0 -6 -6 -1 -12z"/>
<path d="M350 865 c0 -53 -3 -63 -15 -59 -11 5 -15 -1 -15 -20 0 -16 -6 -26
-15 -26 -11 0 -15 11 -15 40 0 22 -4 40 -9 40 -5 0 -8 -12 -6 -27 4 -35 -4
-53 -21 -53 -10 0 -15 16 -16 58 l-2 57 -3 -55 c-3 -30 -10 -61 -16 -70 -10
-13 -10 -13 4 -3 9 7 18 11 21 8 2 -3 59 -8 126 -11 111 -6 122 -5 116 10 -3
9 -1 16 5 16 6 0 11 7 11 15 0 8 -7 15 -15 15 -17 0 -20 25 -5 35 7 4 6 13 -1
27 -6 11 -9 28 -6 37 3 11 -1 18 -12 18 -19 0 -37 -17 -44 -43 -4 -10 -5 -3
-4 17 2 28 -1 35 -17 37 -12 0 -16 -2 -9 -9 12 -12 5 -69 -9 -69 -5 0 -6 -6
-2 -12 5 -10 4 -10 -6 -1 -7 7 -11 27 -8 52 2 23 0 41 -4 41 -5 0 -8 -29 -8
-65z m108 -47 c-5 -10 -13 -18 -18 -18 -18 0 -15 66 3 89 10 12 13 8 18 -20 3
-19 1 -42 -3 -51z m-44 18 c-3 -8 -6 -30 -7 -48 -1 -18 -6 -33 -12 -33 -15 0
-18 51 -5 75 12 23 32 28 24 6z m-64 -48 c0 6 5 12 10 12 6 0 10 -9 10 -20 0
-11 -7 -20 -15 -20 -8 0 -15 2 -15 4 0 2 -3 13 -6 23 -5 15 -4 15 5 3 7 -10
11 -11 11 -2z"/>
<path d="M1290 915 c0 -6 3 -15 8 -19 4 -4 7 -16 7 -27 0 -10 5 -18 10 -18 11
0 11 15 0 41 -5 12 -1 17 17 20 19 3 18 5 -9 9 -22 4 -33 1 -33 -6z"/>
<path d="M2298 907 c-16 -6 -28 -17 -28 -24 0 -7 -4 -13 -8 -13 -13 0 -9 -39
5 -44 9 -4 12 1 8 17 -5 19 1 27 42 50 48 27 36 36 -19 14z"/>
<path d="M2507 901 c-5 -19 9 -41 25 -41 4 0 8 5 8 11 0 5 -4 8 -9 4 -5 -3
-12 -1 -15 4 -4 5 1 11 10 13 15 3 15 4 2 16 -13 10 -16 9 -21 -7z"/>
<path d="M2390 898 c0 -10 6 -18 14 -18 17 0 23 -15 22 -60 -1 -19 5 -41 12
-48 16 -18 15 -32 -3 -32 -9 0 -12 -6 -8 -16 4 -11 8 -12 13 -4 5 7 16 9 29 5
17 -5 22 -3 19 8 -2 9 2 16 7 16 6 0 9 -9 8 -19 -1 -10 4 -21 12 -24 12 -4 14
0 9 19 -4 15 -2 25 5 25 6 0 11 -9 11 -20 0 -11 3 -20 8 -20 4 0 7 11 7 24 0
20 -6 25 -33 28 -18 2 -36 0 -39 -5 -12 -19 -39 23 -37 60 0 21 -3 46 -8 56
-6 12 -5 17 4 17 9 0 9 3 0 12 -10 10 -15 10 -22 -2 -9 -13 -11 -13 -20 0 -8
13 -10 12 -10 -2z"/>
<path d="M2589 872 c-2 -7 -12 -14 -22 -16 -9 -1 -23 -8 -30 -15 -10 -10 -6
-10 16 -2 34 13 38 13 35 2 -2 -5 2 -9 7 -9 6 0 9 4 8 9 -2 5 4 9 13 9 8 0 12
5 9 10 -4 6 -10 8 -15 5 -4 -3 -10 1 -12 7 -4 10 -6 10 -9 0z"/>
<path d="M2795 861 c-3 -5 -1 -12 5 -16 5 -3 10 0 10 7 0 9 3 9 10 -2 13 -20
13 -33 0 -25 -5 3 -10 2 -10 -4 0 -5 9 -9 20 -8 11 1 20 8 20 15 0 11 3 12 14
3 10 -9 16 -9 21 -1 4 6 4 14 1 17 -3 4 -6 1 -6 -7 0 -9 -3 -10 -13 -1 -8 6
-17 8 -20 4 -4 -3 -9 2 -13 11 -7 17 -29 22 -39 7z"/>
<path d="M735 850 c-10 -16 -5 -18 42 -26 37 -6 41 -4 39 12 -2 14 -13 20 -38
22 -20 2 -39 -2 -43 -8z"/>
<path d="M2310 849 c0 -6 6 -9 14 -6 8 3 20 -1 26 -9 17 -19 31 -18 23 3 -4
11 -3 14 5 9 7 -4 12 -2 12 3 0 6 -7 11 -15 11 -8 0 -15 -5 -15 -12 0 -9 -3
-9 -12 0 -15 15 -38 16 -38 1z"/>
<path d="M672 818 c2 -18 8 -33 13 -32 6 1 15 -6 22 -15 6 -9 15 -13 19 -9 4
5 -1 18 -12 30 -10 12 -13 18 -6 14 8 -5 12 0 12 13 0 15 -4 19 -17 14 -11 -4
-14 -3 -9 5 4 7 1 12 -9 12 -12 0 -16 -8 -13 -32z"/>
<path d="M1040 824 c0 -11 33 -54 41 -54 5 0 9 8 10 18 0 10 3 12 6 4 5 -14
44 -37 42 -25 -3 19 2 27 10 14 5 -7 14 -12 20 -10 7 3 7 9 1 19 -8 12 -13 13
-30 3 -28 -18 -35 -16 -19 4 8 9 10 14 4 11 -5 -3 -21 -1 -35 5 -31 12 -50 17
-50 11z"/>
<path d="M1221 812 c-7 -13 -6 -23 2 -31 9 -10 8 -11 -5 -6 -10 4 -18 3 -18
-3 0 -12 40 -23 53 -15 5 3 2 10 -7 15 -11 6 -14 17 -10 34 7 28 -1 32 -15 6z"/>
<path d="M2760 795 c7 -9 20 -13 28 -10 12 4 12 3 3 -9 -9 -11 -8 -15 4 -20 8
-3 15 -11 15 -18 0 -9 -3 -9 -11 2 -9 13 -10 13 -6 0 2 -8 10 -14 17 -12 8 2
11 -4 8 -16 -5 -17 0 -20 44 -21 40 0 49 2 44 14 -4 12 4 15 39 15 24 0 47 5
51 12 4 6 3 8 -3 5 -6 -4 -13 4 -15 18 -4 17 -1 25 8 25 8 0 14 4 14 9 0 5
-10 7 -22 4 -19 -4 -20 -3 -8 7 12 9 7 10 -25 6 -22 -3 -54 -6 -72 -6 l-31 0
16 -42 c9 -24 21 -47 27 -51 5 -4 -3 -5 -20 -1 -29 7 -45 20 -45 37 0 5 5 5
10 2 6 -3 10 -1 10 4 0 6 -7 11 -15 11 -8 0 -15 7 -15 15 0 9 -12 20 -26 25
-35 14 -39 13 -24 -5z m184 -11 c9 -3 16 -17 16 -30 0 -27 -17 -32 -26 -9 -4
8 -10 15 -15 15 -4 0 -6 -7 -3 -15 4 -8 3 -15 0 -15 -9 0 -46 33 -46 41 0 14
50 22 74 13z"/>
<path d="M2589 786 c9 -11 9 -15 -1 -19 -7 -3 -2 -5 11 -4 13 1 26 -3 28 -10
3 -8 -6 -10 -25 -8 -27 3 -29 1 -28 -26 1 -32 16 -41 16 -8 0 11 5 17 10 14 6
-3 10 -1 10 6 0 8 4 8 15 -1 11 -9 15 -9 15 -1 0 9 5 9 23 0 13 -7 5 6 -20 30
-23 22 -47 41 -54 41 -9 0 -9 -3 0 -14z"/>
<path d="M2682 788 c-15 -15 -16 -38 -1 -38 5 0 8 4 5 9 -3 5 1 14 8 20 10 8
16 9 21 1 3 -5 11 -10 17 -10 7 0 6 6 -2 15 -15 18 -32 19 -48 3z"/>
<path d="M1667 784 c-3 -3 -3 -12 0 -20 3 -10 -2 -14 -18 -14 -13 0 -32 -7
-43 -15 -17 -13 -17 -18 -6 -44 7 -17 17 -28 22 -25 5 3 14 -8 21 -25 6 -17
17 -32 24 -32 7 -1 18 -2 25 -3 7 0 15 -12 19 -26 4 -14 7 -19 8 -12 1 8 6 10
14 6 10 -6 10 -4 0 7 -7 7 -13 21 -13 30 0 12 -6 17 -18 14 -23 -4 -33 3 -50
33 -10 18 -10 27 -1 38 6 8 8 14 4 14 -4 0 5 14 19 31 14 17 24 35 20 40 -6
10 -18 12 -27 3z"/>
<path d="M2353 770 c1 -14 10 -31 20 -38 9 -7 17 -24 17 -38 0 -17 5 -24 20
-24 10 0 23 -6 27 -13 10 -17 43 -30 43 -17 0 6 -7 10 -16 10 -8 0 -12 5 -9
10 4 6 15 8 26 5 27 -9 26 31 -1 45 -17 9 -20 8 -20 -9 0 -26 -10 -31 -38 -20
-20 8 -23 14 -17 39 6 25 4 30 -13 30 -10 0 -24 10 -30 23 l-12 22 3 -25z"/>
<path d="M2753 768 c6 -18 -2 -23 -32 -19 -7 2 -10 -3 -6 -9 4 -6 14 -9 22 -6
20 8 33 -1 27 -18 -4 -11 -13 -12 -35 -6 -17 5 -29 5 -29 0 0 -5 -8 -7 -17 -4
-17 5 -17 5 0 -6 9 -6 25 -9 35 -6 23 8 50 -32 30 -45 -10 -7 -10 -9 2 -9 13
0 13 -2 1 -9 -12 -8 -12 -12 2 -26 10 -9 17 -21 17 -26 0 -13 -18 -11 -23 4
-2 6 -7 9 -11 6 -3 -3 4 -19 16 -35 14 -18 16 -24 5 -15 -10 8 -17 9 -17 3 0
-6 8 -15 17 -21 15 -8 18 -25 18 -113 0 -96 -1 -103 -20 -106 -18 -2 -20 3
-20 38 0 22 4 40 8 40 5 0 5 10 1 23 -9 30 -35 69 -42 63 -3 -3 1 -13 9 -23
12 -15 12 -16 -6 -10 -18 6 -18 5 3 -12 12 -11 19 -22 14 -25 -10 -6 -62 37
-62 53 0 6 6 11 13 11 6 0 13 11 13 25 1 18 -3 25 -16 25 -13 0 -17 -5 -13
-20 4 -16 0 -20 -21 -20 -14 0 -26 5 -26 10 0 6 5 10 10 10 6 0 5 8 -2 20 -19
30 -24 25 -23 -27 2 -57 14 -91 26 -72 4 8 11 11 14 8 11 -11 24 -69 15 -69
-4 0 -6 -10 -3 -22 3 -19 1 -18 -12 6 -13 21 -14 30 -5 36 8 5 7 9 -4 13 -11
5 -16 1 -16 -13 0 -26 35 -82 45 -72 5 4 5 1 1 -6 -5 -9 -12 -9 -27 -2 -10 6
-19 7 -19 3 0 -4 -6 -1 -12 5 -10 10 -10 14 0 21 9 5 6 11 -12 19 -24 11 -25
10 -16 -12 12 -33 4 -37 -59 -31 -31 3 -72 7 -91 9 -32 3 -35 6 -34 35 1 22
-2 28 -10 21 -18 -14 -34 2 -41 44 -5 26 -4 37 3 32 6 -4 8 2 4 16 -3 12 -7
17 -10 10 -3 -9 -7 -8 -18 2 -17 17 -18 36 -3 36 5 0 7 5 3 12 -5 8 -2 9 10 5
14 -6 17 -3 12 9 -3 8 -6 23 -7 32 0 10 -5 5 -11 -11 -5 -15 -13 -25 -18 -22
-4 3 -7 -3 -6 -12 0 -9 -5 -18 -13 -21 -8 -3 -11 0 -7 6 3 6 2 13 -3 16 -24
15 -17 -14 9 -39 20 -20 28 -36 27 -56 -1 -16 -6 -29 -10 -29 -4 0 -3 -9 3
-20 6 -11 19 -20 29 -20 11 0 21 -7 25 -15 4 -11 -2 -14 -22 -13 -15 1 -30 7
-34 13 -5 6 -8 3 -8 -7 0 -9 -6 -18 -12 -21 -7 -2 -9 -8 -5 -13 4 -5 12 -2 16
5 9 15 61 8 71 -10 3 -4 17 -10 30 -12 13 -2 26 -10 28 -18 3 -11 1 -11 -7 1
-9 12 -11 10 -11 -12 0 -21 5 -28 19 -28 11 0 26 -6 34 -14 17 -17 48 -23 65
-13 22 14 13 22 -25 22 -25 0 -37 4 -35 13 1 6 -3 11 -9 10 -6 -2 -14 3 -16
10 -6 17 12 15 27 -3 15 -18 31 -10 23 10 -3 8 -16 15 -29 15 -13 0 -24 3 -24
8 0 6 16 7 77 3 15 -1 45 -56 36 -65 -4 -3 3 -6 15 -6 15 0 20 4 15 16 -5 14
-3 15 23 1 26 -13 31 -13 43 0 12 14 12 15 0 11 -8 -3 -23 2 -33 11 -11 9 -16
11 -13 4 5 -8 -1 -11 -19 -9 -15 2 -31 10 -36 20 -8 15 -3 16 56 12 35 -2 69
-7 74 -10 6 -3 14 -2 17 4 4 6 1 9 -6 8 -10 -2 -14 14 -15 59 -1 58 1 61 20
53 13 -5 20 -15 18 -27 -1 -11 4 -25 12 -32 11 -9 12 -19 6 -35 -5 -14 -3 -30
6 -46 8 -14 14 -18 13 -10 -4 38 1 48 21 43 11 -3 20 -10 21 -17 1 -6 4 -1 7
12 4 13 4 74 0 135 -4 62 -10 166 -13 232 -3 67 -11 124 -17 130 -8 7 -9 5 -5
-7z"/>
<path d="M2046 736 c4 -9 1 -16 -6 -16 -7 0 -10 -7 -7 -14 6 -15 -1 -17 -108
-29 -16 -2 0 -5 36 -6 52 -1 69 3 82 17 10 10 14 22 10 25 -3 4 -1 7 5 7 7 0
12 -4 12 -10 0 -5 5 -10 11 -10 6 0 9 8 7 18 -2 9 -8 17 -13 17 -6 0 -16 4
-22 8 -9 6 -11 3 -7 -7z"/>
<path d="M1 725 c2 -10 11 -20 19 -22 13 -4 13 -3 0 6 -11 8 -3 10 35 10 42
-1 46 -2 25 -10 -15 -5 61 -7 195 -5 121 2 191 0 155 -4 -50 -5 -29 -7 91 -8
85 0 161 3 169 8 19 11 -58 18 -285 25 -104 3 -239 8 -299 12 -101 6 -108 5
-105 -12z m206 -12 c-20 -2 -52 -2 -70 0 -17 2 0 4 38 4 39 0 53 -2 32 -4z"/>
<path d="M738 713 c-6 -31 -3 -63 6 -63 6 0 12 16 13 35 1 19 -3 35 -8 35 -5
0 -10 -3 -11 -7z"/>
<path d="M2199 665 c-1 -17 -1 -33 0 -37 0 -5 -9 -8 -21 -8 -22 -1 -22 -1 -4
-15 13 -10 17 -21 12 -39 -4 -15 -2 -26 4 -26 5 0 10 10 11 23 1 15 4 11 10
-13 5 -21 5 -54 -1 -83 -11 -52 -7 -67 16 -67 9 0 14 -11 14 -31 0 -24 -4 -30
-17 -27 -11 2 -18 12 -17 26 1 24 -12 30 -19 10 -2 -7 2 -22 9 -33 15 -23 75
-28 82 -7 2 6 -1 12 -8 12 -6 0 -8 -4 -5 -10 3 -5 1 -10 -5 -10 -7 0 -11 14
-10 33 3 48 1 59 -9 53 -5 -3 -11 7 -13 23 l-4 30 30 -15 c29 -14 30 -14 11 1
-11 9 -19 21 -17 26 1 6 -2 8 -8 4 -6 -4 -11 17 -12 57 -1 35 -3 78 -3 96 -2
44 -25 68 -26 27z"/>
<path d="M1494 635 c0 -27 5 -35 23 -40 13 -3 22 -9 19 -13 -2 -4 12 -6 32 -3
l37 4 -28 9 c-15 6 -25 14 -21 19 3 5 0 9 -6 9 -6 0 -21 11 -33 24 l-23 25 0
-34z"/>
<path d="M811 650 c-17 -10 -10 -33 12 -36 11 -1 17 5 17 16 0 23 -12 31 -29
20z"/>
<path d="M2013 652 c10 -15 -25 -21 -133 -19 -77 2 -96 -1 -88 -10 7 -9 3 -16
-16 -24 -31 -14 -35 -29 -6 -22 11 3 20 10 20 16 0 5 8 3 18 -5 17 -16 52 -11
55 7 1 6 9 9 17 7 41 -9 56 -8 63 2 4 7 10 8 15 1 9 -13 64 -17 56 -4 -3 5 0
8 8 7 18 -4 17 44 -1 50 -8 3 -11 0 -8 -6z"/>
<path d="M769 645 c-1 -6 -1 -14 0 -18 1 -4 -7 -3 -18 2 -15 8 -20 7 -25 -5
-5 -13 -1 -15 24 -12 33 5 51 -8 26 -18 -9 -3 -16 -11 -16 -17 0 -5 9 -2 19 8
19 17 21 16 40 -16 15 -25 20 -46 17 -76 -5 -49 11 -59 21 -13 3 18 12 30 21
30 11 0 0 17 -29 48 -26 26 -53 58 -63 72 -9 13 -17 20 -17 15z"/>
<path d="M865 637 c13 -7 14 -11 5 -17 -6 -4 1 -7 18 -6 41 1 32 33 -10 33
-24 0 -26 -2 -13 -10z"/>
<path d="M2830 630 c0 -5 4 -10 8 -10 18 0 34 -58 42 -150 4 -52 9 -101 11
-109 3 -9 -9 -17 -31 -23 -53 -14 -61 -29 -13 -23 42 5 42 5 48 -32 10 -61 13
-61 14 -3 1 30 5 60 9 67 4 6 4 62 0 125 -8 124 -6 128 49 123 23 -2 33 1 33
11 0 10 -17 14 -67 16 l-68 2 70 6 70 6 -87 2 c-53 1 -88 -2 -88 -8z"/>
<path d="M1639 582 c5 -20 15 -28 34 -30 21 -3 26 0 21 13 -4 9 -19 22 -34 30
-28 14 -28 14 -21 -13z"/>
<path d="M2806 602 c-3 -6 -3 -17 0 -25 3 -9 0 -25 -6 -36 -9 -17 -8 -22 5
-27 12 -5 13 -9 4 -20 -6 -8 -7 -14 -2 -14 5 0 8 -16 8 -35 -1 -22 3 -34 9
-32 6 2 10 13 9 23 -1 10 -5 53 -8 94 -6 77 -9 88 -19 72z"/>
<path d="M1985 566 l-30 -13 37 1 c21 1 40 7 43 13 6 16 -11 16 -50 -1z"/>
<path d="M1158 555 c-49 -27 -62 -67 -68 -207 -4 -97 -2 -129 8 -133 6 -2 12
0 12 5 0 14 34 12 48 -2 9 -9 15 -9 25 1 10 10 9 11 -5 6 -16 -7 -18 1 -18 87
l0 95 -30 -5 c-23 -3 -30 0 -30 12 0 9 4 15 9 14 5 -2 9 2 9 7 0 6 -4 9 -10 7
-5 -1 -6 3 -3 9 4 6 16 9 26 6 11 -3 17 -1 14 3 -3 5 -2 11 3 14 5 3 7 19 4
35 -3 25 0 31 20 36 28 7 68 -6 87 -29 9 -11 11 -27 5 -53 -4 -21 -7 -45 -6
-53 9 -68 11 -150 2 -145 -5 3 -10 -3 -10 -14 0 -11 -6 -21 -12 -24 -7 -2 -1
-2 15 0 16 3 27 0 27 -7 0 -6 5 -8 10 -5 6 3 10 11 10 16 0 6 -4 7 -10 4 -6
-4 -10 10 -10 35 0 23 4 39 8 36 10 -6 9 24 0 39 -3 6 -5 47 -3 92 3 73 1 83
-19 102 -30 28 -75 34 -108 16z"/>
<path d="M2043 551 c-10 -16 -9 -18 8 -14 30 8 83 -49 77 -82 -3 -14 -1 -25 3
-25 5 0 9 -11 9 -25 0 -16 -6 -25 -15 -25 -24 0 -18 -37 8 -45 19 -6 19 -8 5
-12 -19 -5 -25 -23 -8 -23 5 0 9 -5 7 -12 -1 -6 5 -13 15 -15 13 -3 15 2 11
34 -9 74 -12 99 -19 163 -3 36 -13 72 -21 80 -8 8 -13 11 -12 5 5 -31 -3 -37
-17 -12 -17 32 -34 35 -51 8z"/>
<path d="M1484 531 c-12 -59 -12 -59 7 -54 13 4 19 0 19 -13 0 -9 3 -15 6 -11
3 3 0 21 -7 41 -10 26 -10 38 -1 49 9 11 8 14 -3 14 -9 0 -18 -12 -21 -26z"/>
<path d="M1550 486 c0 -79 8 -119 21 -110 12 7 12 64 0 64 -14 0 -8 93 7 98 8
2 12 -8 13 -30 0 -18 3 -27 6 -20 2 6 9 10 14 6 5 -3 9 0 9 5 0 6 -4 11 -9 11
-5 0 -8 11 -5 24 4 22 1 25 -26 24 l-30 -1 0 -71z"/>
<path d="M1736 548 c3 -4 -8 -11 -25 -14 -29 -6 -31 -9 -29 -48 1 -37 2 -38 5
-8 2 18 8 30 12 28 4 -3 20 7 35 23 18 19 22 28 12 28 -8 0 -13 -4 -10 -9z"/>
<path d="M1627 536 c-3 -6 2 -17 9 -24 12 -10 14 -10 14 3 0 9 5 13 10 10 6
-3 10 -2 10 3 0 14 -38 22 -43 8z"/>
<path d="M243 533 c-79 -2 -143 -7 -144 -11 -3 -34 -7 -91 -9 -165 -1 -48 -6
-90 -11 -93 -5 -3 -17 -1 -27 5 -14 7 -18 6 -18 -9 0 -11 2 -17 5 -15 2 3 11
-1 19 -8 11 -8 14 -8 9 0 -5 7 1 13 15 15 17 2 22 9 20 26 -3 19 1 22 30 22
68 0 78 8 78 57 l0 44 -56 -7 c-41 -5 -55 -4 -50 5 4 6 29 11 57 11 l49 0 0
50 c0 43 3 50 20 50 17 0 20 -7 20 -50 0 -27 5 -50 10 -50 6 0 10 19 10 43 1
34 3 39 11 24 6 -10 9 -27 6 -38 -4 -16 0 -19 29 -19 34 0 34 0 34 45 0 25 5
45 11 45 14 0 9 -219 -6 -264 -7 -19 -9 -40 -5 -47 5 -6 8 -39 8 -72 0 -33 -3
-55 -7 -48 -6 9 -11 9 -19 -2 -10 -11 -6 -13 21 -10 17 2 42 3 55 3 12 0 22 4
22 8 0 4 11 8 25 8 23 2 25 -1 25 -43 0 -37 3 -44 16 -39 9 3 18 6 20 6 2 0 4
20 4 45 0 34 5 47 19 55 26 13 44 13 35 -1 -4 -8 3 -9 24 -4 36 8 40 2 43 -58
3 -55 15 -63 17 -11 1 20 4 45 7 54 6 20 -4 26 -67 35 -26 4 -63 2 -89 -6 -24
-7 -65 -13 -92 -14 l-47 -1 5 90 c3 50 7 142 9 204 2 62 7 116 10 119 9 9 7
23 -1 21 -5 -1 -72 -4 -150 -5z m-65 -71 c3 -21 0 -24 -30 -26 -16 -1 -18 24
-5 42 14 18 31 10 35 -16z m-8 -106 c0 -8 -5 -18 -11 -22 -14 -8 -33 11 -25
25 10 16 36 13 36 -3z"/>
<path d="M536 526 c5 -12 -1 -16 -22 -16 -34 0 -21 -15 21 -23 17 -4 25 -4 19
-1 -7 3 -10 13 -7 23 3 10 0 22 -6 25 -7 4 -8 1 -5 -8z"/>
<path d="M2394 513 c10 -24 15 -54 20 -106 2 -27 6 -50 8 -52 1 -1 29 -5 61
-7 l57 -5 0 54 c0 31 -4 53 -11 53 -5 0 -8 -4 -5 -8 2 -4 1 -14 -5 -22 -7 -12
-9 -11 -10 5 0 11 -2 35 -5 54 -3 26 -1 32 10 28 8 -3 17 1 20 8 4 12 -10 14
-70 14 -63 0 -75 -3 -70 -16z m65 -28 c2 48 18 15 23 -47 4 -54 3 -57 -16 -54
-17 2 -22 12 -26 47 -3 24 -3 53 -1 64 4 16 6 15 12 -10 l7 -30 1 30z"/>
<path d="M1373 503 c-12 -2 -24 -11 -27 -19 -5 -12 -1 -14 17 -9 20 5 20 5 -3
-9 -24 -15 -24 -15 -3 -16 12 0 25 5 28 10 4 6 10 8 15 5 4 -3 7 3 6 12 -2 10
2 21 8 25 12 8 -3 8 -41 1z"/>
<path d="M2730 485 c11 -12 18 -25 15 -28 -3 -4 1 -2 7 3 10 9 10 13 -2 20
-10 7 -11 10 -2 10 6 0 12 4 12 10 0 5 -11 9 -25 8 l-24 -2 19 -21z"/>
<path d="M722 449 c-1 -16 2 -29 7 -29 13 0 20 48 7 53 -7 3 -13 -7 -14 -24z"/>
<path d="M1510 441 c-24 -7 -25 -7 -3 -13 17 -4 22 -13 21 -37 -1 -17 2 -34 5
-38 4 -3 7 17 7 45 0 29 -1 52 -2 51 -2 -1 -14 -4 -28 -8z"/>
<path d="M762 413 c-60 -6 -49 -27 16 -31 29 -2 52 -7 52 -13 0 -5 5 -9 10 -9
6 0 10 8 8 18 -2 12 3 17 20 16 12 0 22 3 22 6 0 8 -55 21 -74 18 -6 -1 -30
-3 -54 -5z"/>
<path d="M308 403 c-26 -4 -28 -8 -28 -49 0 -51 14 -58 25 -11 l7 32 10 -27
c15 -42 28 -34 28 17 0 25 -3 44 -7 44 -5 -1 -20 -4 -35 -6z"/>
<path d="M1624 399 c-4 -7 0 -16 9 -20 11 -7 14 -19 10 -49 -4 -27 -2 -40 6
-40 7 0 10 -4 7 -9 -5 -8 -92 -26 -108 -23 -5 1 -8 -2 -8 -7 0 -13 193 -2 202
11 3 6 -1 22 -9 35 -12 19 -18 21 -25 11 -5 -9 -7 -4 -5 12 4 23 8 25 70 28
39 2 67 7 67 14 0 6 -9 8 -20 5 -11 -3 -22 -2 -25 3 -2 4 -19 5 -37 2 -18 -2
-44 -4 -57 -4 -30 0 -72 22 -65 34 3 4 3 8 0 8 -3 0 -8 -5 -12 -11z"/>
<path d="M242 355 c0 -32 4 -45 14 -45 8 0 14 5 14 10 0 6 -4 10 -9 10 -6 0
-6 12 0 32 11 41 12 38 -4 38 -10 0 -14 -14 -15 -45z"/>
<path d="M718 340 c-3 -17 -1 -33 4 -36 15 -10 28 7 28 37 0 39 -26 38 -32 -1z"/>
<path d="M1541 343 c-17 -19 -2 -33 24 -23 11 5 14 9 6 9 -10 1 -11 4 -2 14
15 19 -11 18 -28 0z"/>
<path d="M1597 353 c-12 -11 -8 -50 7 -62 11 -9 15 -6 19 16 8 40 -7 66 -26
46z"/>
<path d="M1815 310 c-19 -37 -10 -79 20 -90 30 -11 137 -31 142 -26 3 2 -6 13
-18 25 -15 14 -30 19 -46 15 -12 -4 -31 -3 -40 2 -20 8 -29 11 -43 13 -5 0 -7
7 -4 15 3 8 12 12 20 9 8 -3 14 0 14 6 0 6 -9 11 -20 11 -11 0 -20 5 -20 10 0
6 6 10 13 10 8 0 14 7 14 15 0 24 -15 17 -32 -15z"/>
<path d="M1218 318 c0 -7 -2 -17 -2 -23 -1 -5 -5 -16 -9 -22 -5 -7 -6 -13 -3
-13 2 0 12 -3 20 -6 14 -5 15 -2 6 22 -8 20 -8 29 1 34 8 6 8 9 0 14 -6 4 -12
1 -13 -6z"/>
<path d="M1730 323 c1 -11 26 -43 34 -43 3 0 6 10 6 23 0 18 2 19 10 7 8 -13
10 -12 10 3 0 12 -8 17 -30 17 -16 0 -30 -3 -30 -7z"/>
<path d="M1507 280 c5 -36 4 -40 -16 -40 -12 0 -19 -4 -16 -10 9 -14 -34 -12
-69 3 -31 14 -96 11 -96 -4 0 -5 5 -10 10 -10 6 -1 14 -2 19 -3 19 -2 25 -17
11 -26 -13 -8 -12 -10 2 -10 9 0 22 -2 30 -3 7 -2 10 -2 5 0 -4 3 -5 9 -1 14
3 5 -2 12 -10 15 -9 3 -16 11 -16 16 0 6 11 3 24 -5 13 -9 27 -12 32 -8 5 4
19 2 32 -4 l23 -13 -26 -6 c-25 -6 -27 -10 -23 -56 2 -42 0 -50 -14 -50 -11 0
-15 5 -12 14 4 11 0 13 -15 9 -11 -3 -18 -9 -15 -14 3 -5 0 -9 -5 -9 -6 0 -11
4 -11 10 0 5 -3 9 -7 9 -5 -1 -12 0 -18 1 -23 5 -105 5 -105 -1 0 -5 293 -49
325 -49 6 0 4 -4 -3 -9 -11 -6 -9 -9 7 -14 11 -3 25 1 32 9 7 9 8 14 1 14 -6
0 -13 -6 -15 -12 -3 -8 -6 -6 -6 5 -1 11 -9 17 -27 17 -14 0 -23 4 -20 9 4 5
2 20 -3 33 -8 20 -10 21 -16 6 -4 -10 -18 -18 -31 -18 -22 0 -24 4 -24 45 0
38 3 45 19 45 11 0 23 -4 26 -10 9 -15 25 -12 25 5 0 9 -6 12 -15 9 -18 -7
-21 21 -3 32 7 4 8 3 4 -4 -4 -7 -3 -12 3 -12 11 0 31 87 24 107 -11 28 -21
11 -16 -27z"/>
<path d="M2212 311 c-12 -7 -7 -88 7 -107 11 -16 51 -35 51 -24 0 5 -4 10 -10
10 -5 0 -10 10 -10 23 0 16 -3 18 -9 8 -9 -14 -19 -4 -15 17 1 6 2 17 3 23 0
5 5 7 11 4 6 -3 7 1 3 10 -4 12 -8 13 -13 5 -5 -8 -10 -9 -14 -2 -4 6 1 15 10
20 9 5 12 12 7 15 -5 3 -14 2 -21 -2z"/>
<path d="M329 303 c-1 -5 0 -16 1 -26 1 -10 -4 -25 -12 -34 -11 -15 -11 -15 6
-6 19 10 32 73 15 73 -5 0 -10 -3 -10 -7z"/>
<path d="M245 288 c-10 -32 -10 -88 0 -88 43 1 55 13 55 56 0 51 -16 58 -32
13 -6 -16 -12 -28 -14 -26 -3 2 0 16 5 31 7 17 7 26 0 26 -5 0 -11 -6 -14 -12z"/>
<path d="M133 275 c0 -11 4 -12 13 -4 8 7 14 7 19 -1 9 -15 -5 -32 -21 -26 -8
3 -14 2 -14 -3 0 -4 -11 -6 -25 -3 -23 4 -25 2 -26 -39 -1 -24 -1 -50 0 -57 1
-8 -3 -19 -9 -27 -7 -8 -7 -15 -1 -19 15 -10 0 -46 -20 -47 -34 -3 -39 -4 -39
-11 0 -5 0 -15 0 -23 0 -8 5 -15 10 -15 6 0 10 6 10 14 0 9 15 16 40 20 22 3
58 9 80 12 35 5 40 3 40 -14 0 -11 7 -22 15 -26 17 -6 22 29 5 39 -5 3 -10 12
-9 18 0 9 2 9 6 0 5 -15 58 -16 88 -3 19 8 19 9 -2 9 -13 1 -23 6 -23 11 0 7
-6 8 -16 2 -9 -5 -25 -7 -34 -5 -10 3 -21 0 -24 -6 -10 -15 -83 -14 -89 2 -4
9 -6 9 -6 0 -1 -7 -4 -13 -9 -13 -4 0 -6 18 -4 39 3 29 8 38 18 34 8 -3 14 1
14 8 0 12 2 12 9 1 7 -11 9 -11 14 1 3 10 13 13 25 10 11 -2 23 0 26 6 4 6 1
9 -7 5 -8 -3 -18 0 -22 5 -3 6 -11 9 -16 6 -5 -4 -9 -2 -9 3 0 12 30 26 48 23
7 -1 12 8 11 21 0 13 -3 17 -6 11 -2 -7 -11 -13 -18 -13 -7 0 -15 -5 -17 -11
-2 -7 -9 -5 -17 5 -11 13 -11 16 2 16 8 0 20 7 27 15 7 8 16 12 21 9 5 -3 9 4
9 15 0 17 -6 21 -33 21 -23 0 -34 -5 -34 -15z m2 -91 c1 -13 -2 -24 -6 -24 -4
0 -14 -3 -23 -6 -11 -4 -16 0 -16 15 0 13 5 19 14 15 8 -3 17 -1 21 5 3 6 -2
11 -12 11 -15 0 -16 2 -3 10 18 11 25 5 25 -26z"/>
<path d="M2303 275 c0 -8 4 -12 8 -9 4 2 10 0 14 -6 3 -5 -3 -10 -14 -10 -11
0 -23 5 -26 10 -11 18 -25 10 -25 -14 0 -13 7 -27 16 -30 26 -10 29 -7 8 9
-18 14 -17 15 18 9 31 -5 38 -3 48 18 7 12 9 20 5 16 -4 -4 -14 -1 -22 7 -18
19 -30 19 -30 0z"/>
<path d="M1755 259 c-8 -13 -6 -15 23 -24 22 -6 22 -5 10 14 -14 23 -24 26
-33 10z"/>
<path d="M2142 236 c2 -15 8 -26 13 -26 15 0 12 43 -3 48 -10 3 -13 -4 -10
-22z"/>
<path d="M2380 225 c0 -8 -5 -15 -11 -15 -5 0 -7 5 -4 10 3 6 -1 10 -9 10 -9
0 -16 -7 -16 -15 0 -8 9 -15 20 -15 10 0 23 -8 29 -17 5 -10 12 -15 16 -11 3
3 0 12 -8 19 -8 7 -12 21 -9 31 2 10 2 18 -2 18 -3 0 -6 -7 -6 -15z"/>
<path d="M636 221 c-11 -16 -6 -19 37 -26 29 -5 37 -3 37 9 0 12 -5 13 -22 7
-16 -6 -26 -4 -34 7 -8 11 -13 12 -18 3z"/>
<path d="M1195 208 c-11 -48 -10 -91 3 -95 9 -3 12 12 12 56 0 63 -6 78 -15
39z"/>
<path d="M1543 217 c14 -12 15 -16 5 -21 -7 -3 -3 -3 9 0 14 3 25 -1 31 -12 5
-9 14 -14 21 -10 20 13 11 36 -16 42 -16 3 -37 8 -48 10 -19 5 -19 4 -2 -9z"/>
<path d="M1065 200 c-3 -5 -12 -7 -19 -4 -8 3 -34 -1 -58 -9 -23 -8 -45 -12
-48 -7 -3 4 -14 10 -25 13 -23 7 -79 -33 -57 -40 7 -3 12 -24 12 -57 l0 -52
-60 -12 c-32 -7 -62 -18 -66 -24 -5 -8 -1 -9 12 -4 10 5 37 10 59 13 22 2 47
7 55 10 19 8 14 7 93 22 37 7 67 16 67 20 0 4 29 13 65 20 36 7 65 17 65 22 0
13 -39 10 -85 -6 -22 -8 -41 -15 -41 -15 -1 0 -4 20 -6 45 -3 45 4 53 45 46 4
0 7 6 7 14 0 17 -6 19 -15 5z m-65 -84 c0 -27 -3 -46 -6 -43 -4 3 -15 2 -26
-4 -50 -27 -58 -22 -58 36 0 33 -5 55 -12 58 -7 3 13 4 44 3 l58 -1 0 -49z"/>
<path d="M1704 184 c13 -29 30 -32 21 -4 -7 23 19 29 28 6 4 -9 25 -15 55 -17
28 -2 48 -1 45 4 -2 4 -12 7 -22 7 -9 0 -22 5 -27 10 -6 6 -33 12 -61 14 -50
5 -50 5 -39 -20z"/>
<path d="M2120 199 c0 -7 -23 -9 -65 -6 -36 2 -65 1 -65 -2 0 -3 18 -12 41
-19 30 -9 45 -10 54 -2 11 9 17 7 26 -8 10 -16 18 -18 41 -12 15 5 28 5 28 0
0 -4 9 -10 20 -13 17 -4 18 -2 9 15 -8 16 -8 19 1 13 8 -5 11 -3 8 6 -3 8 -17
14 -31 14 -15 1 -32 6 -39 13 -15 15 -28 16 -28 1z"/>
<path d="M2418 184 c3 -17 9 -23 19 -20 8 3 22 6 31 6 14 0 15 2 2 9 -8 6 -18
7 -22 5 -5 -3 -11 2 -14 10 -10 26 -22 18 -16 -10z"/>
<path d="M792 193 c-13 -3 -27 -16 -33 -30 -12 -32 -7 -37 23 -27 13 4 28 7
35 6 18 -4 25 15 8 22 -8 3 -17 1 -20 -4 -8 -13 -35 -13 -35 0 0 6 11 15 25
20 14 5 25 12 25 15 0 3 -1 4 -2 4 -2 -1 -13 -4 -26 -6z"/>
<path d="M1253 193 c-15 -6 -18 -83 -3 -83 6 0 10 18 10 39 0 22 5 42 13 44 6
3 8 5 2 5 -5 0 -16 -2 -22 -5z"/>
<path d="M1877 164 c6 -17 -16 -29 -30 -15 -17 17 -22 14 -25 -13 -1 -19 2
-23 17 -19 11 3 28 13 38 23 17 15 23 16 51 5 26 -12 30 -11 25 1 -3 8 0 14 5
14 6 0 13 -8 15 -17 3 -11 4 -8 4 7 -1 23 -5 25 -53 26 -37 0 -51 -3 -47 -12z"/>
<path d="M209 158 c-8 -18 -2 -58 8 -58 15 0 18 46 3 55 -5 3 -11 5 -11 3z"/>
<path d="M665 140 c-18 -20 -17 -20 13 -20 38 0 64 9 57 21 -3 4 -12 6 -20 2
-8 -3 -15 0 -15 6 0 17 -15 13 -35 -9z"/>
<path d="M1540 115 c0 -25 5 -45 10 -45 6 0 10 20 10 45 0 25 -4 45 -10 45 -5
0 -10 -20 -10 -45z"/>
<path d="M2010 153 c0 -3 70 -33 76 -33 1 0 2 8 1 18 -1 13 -10 17 -39 17 -21
0 -38 -1 -38 -2z"/>
<path d="M2240 155 c0 -25 17 -36 42 -26 39 15 53 -7 33 -52 -13 -31 5 -32 29
-2 17 21 27 26 42 21 17 -8 16 -9 -8 -18 -27 -9 -39 -28 -18 -28 6 0 10 5 10
10 0 6 6 10 14 10 8 0 21 6 28 13 16 15 48 21 48 9 0 -5 12 -12 28 -15 24 -4
25 -3 8 7 -11 6 -30 21 -43 33 -17 17 -23 18 -23 7 0 -10 -5 -12 -12 -7 -19
11 -38 12 -38 2 0 -5 -7 -9 -15 -9 -8 0 -15 -5 -15 -12 0 -9 -3 -9 -11 -1 -13
13 12 58 26 45 5 -4 5 -1 1 6 -4 6 -17 12 -29 12 -18 0 -19 -2 -7 -10 11 -7 2
-9 -30 -7 -25 1 -48 6 -52 12 -5 6 -8 6 -8 0z"/>
<path d="M1762 132 c-16 -11 -5 -91 14 -99 7 -3 23 2 36 11 l23 17 -25 -3
c-23 -3 -25 0 -24 40 1 43 -2 47 -24 34z"/>
<path d="M150 121 c0 -7 -3 -10 -7 -8 -5 3 -17 1 -28 -4 -18 -8 -17 -8 5 -6
14 1 24 -3 23 -9 -1 -6 4 -11 12 -11 8 0 13 8 12 18 -4 22 -17 38 -17 20z"/>
<path d="M2025 120 c-4 -6 -15 -8 -25 -5 -19 6 -126 -30 -136 -46 -6 -11 44
-2 61 11 6 4 24 12 42 18 28 9 32 8 37 -11 3 -12 6 -37 6 -54 0 -23 5 -33 15
-33 12 0 15 14 15 65 0 64 -3 75 -15 55z"/>
<path d="M1587 80 c-16 -19 -16 -20 6 -20 12 0 32 -3 45 -6 14 -4 22 -2 22 6
0 7 -6 10 -13 7 -8 -3 -20 -1 -28 4 -10 6 -10 9 -1 9 6 0 12 5 12 10 0 17 -25
11 -43 -10z"/>
<path d="M2193 93 c-7 -3 -13 -11 -13 -19 0 -9 4 -13 9 -10 10 6 25 -24 16
-32 -3 -3 -5 0 -5 6 0 7 -4 12 -10 12 -5 0 -10 -11 -10 -25 0 -18 5 -25 20
-25 17 0 20 6 18 40 -1 45 -8 59 -25 53z"/>
<path d="M1273 53 c-18 -7 -16 -43 3 -50 9 -3 20 0 24 8 13 19 3 24 -16 8 -14
-12 -16 -11 -12 6 2 11 10 19 17 17 7 -1 10 2 6 8 -3 5 -7 10 -8 9 -1 0 -8 -3
-14 -6z"/>
<path d="M1352 56 c4 -5 2 -16 -5 -24 -10 -13 -9 -14 2 -7 9 5 19 2 28 -10 12
-18 13 -17 11 8 -1 14 -4 24 -7 22 -2 -3 -11 1 -20 7 -9 7 -13 8 -9 4z"/>
</g>
</svg>
