<?xml version="1.0"?>
<svg xmlns:rdf="http://www.w3.org/1999/02/22-rdf-syntax-ns#" xmlns="http://www.w3.org/2000/svg" xmlns:cc="http://web.resource.org/cc/" xmlns:xlink="http://www.w3.org/1999/xlink" xmlns:dc="http://purl.org/dc/elements/1.1/" id="Layer_1" xml:space="preserve" overflow="visible" height="361.66" viewBox="0 0 773.099 361.664" width="773.1" version="1.1" enable-background="new 0 0 773.099 361.664">
<g clip-rule="evenodd" fill-rule="evenodd">
	<path d="m91.776 35.519c-2.979-0.665-8.344-2.901-11.385-5.176 4.624-1.101 10.578 0.755 11.385 5.176z"/>
	<path d="m63.832 30.86c2.918 1.049 4.123 3.812 7.245 4.658-3.037 1.128-6.119-2.153-7.245-4.658z"/>
	<path d="m90.224 74.848c2.918 8.833 1.565 22.254 2.588 34.155-1.625 0.575-1.368 0.243-2.588-0.518-0.222 8.024 3.118 12.319 2.07 22.252-2.418 0.004 0.008-4.838-1.553-5.692-1.11 2.702 0.396 6.365-1.552 7.245-2.131-4.626 0.105-10.281 0.518-16.56 0.889-13.53-4.051-29.614 0.517-40.872z"/>
	<path d="m671.38 103.83c0.836-0.146 0.892 0.49 1.553 0.518-1.526 8.442-0.017 17.855-3.623 24.84-0.53-7.63 2.34-16.27 2.07-25.36z"/>
	<path d="m84.531 122.98c0.602-0.084 0.92 0.115 1.035 0.518 1.384 26.393-0.301 50.065-0.518 76.59-1.988-9.262-1.353-21.801-1.035-34.155 0.344-13.373 0.586-27.651 0.518-41.4-0.621-0.69-0.201-0.82 0-1.56z"/>
	<path d="m71.594 132.29h1.553c1.292 6.986-1.735 14.167-2.587 21.218-0.598 4.938 0.616 11.211-2.588 15.525 0.43-11.83 2.369-23.27 3.622-36.75z"/>
	<path d="m667.76 133.84c0.837-0.146 0.892 0.489 1.553 0.518-2.811 36.618-5.101 70.5-8.28 107.12-0.392 4.509 0.551 9.724-2.587 13.456-0.278-9.949 0.745-19.959 1.552-30.016 0.859-10.688 1.606-21.456 2.588-32.085 1.789-19.39 3.868-35.021 5.175-57.442-0.92-0.38-0.08-0.94 0-1.56z"/>
	<path d="m165.78 166.45c4.205 1.488 5.686 5.698 7.245 9.833-2.67-3.02-4.82-6.56-7.24-9.83z"/>
	<path d="m180.27 186.63c1.625-0.245 1.367 1.394 2.587 1.553-0.81 1.43-2.54-0.51-2.59-1.55z"/>
	<path d="m582.37 186.63c-0.228 1.496-1.091 2.358-2.588 2.588 0.53-1.2 1.04-2.41 2.59-2.59z"/>
	<path d="m73.146 205.26c1.388 1.21 0.93 5.312 0 7.763-1.147-2.28 0.137-4.24 0-7.76z"/>
	<path d="m84.531 208.36c2.059 3.508 1.029 12.707 0.518 17.077-1.385-4.48-2.148-12.73-0.518-17.08z"/>
	<path d="m65.901 216.13c-3.14 14.59-2.816 28.548-5.692 42.436-1.679-6.781-0.216-15.001 0.517-22.771 0.658-6.961 1.034-14.684 3.623-19.665 0.517-0.01 1.035-0.01 1.552-0.01z"/>
	<path d="m95.398 219.23c1.691 0.548 0.346 3.663 0.518 4.657-1.174-0.55-0.197-3.25-0.518-4.66z"/>
	<path d="m320 223.89c1.615 0.628 1.558 2.927 2.07 4.657-1.97-0.28-1.27-3.22-2.07-4.66z"/>
	<path d="m100.06 229.58h1.552c-1.239 4.467 0.556 8.542 0 11.902-2.691-1.64-1.87-8.89-1.55-11.9z"/>
	<path d="m363.98 235.27c-1.544-1.172-3.163 1.992-5.175 2.07 1.159-3.498 5.363-3.951 8.797-5.175 1.269 0.689-0.932 1.562 0.518 2.069-1.222 1.712-3.89 1.976-5.693 3.105-0.09-1.29 0.8-1.62 1.55-2.07z"/>
	<path d="m433.85 238.9c-3.694 0.671-10.132-1.206-14.49 1.036 3.3-3.98 9.64-2.42 14.49-1.04z"/>
	<path d="m324.65 238.9c1.685 0.041 1.104 2.347 1.553 3.623-1.44-0.28-0.95-2.5-1.55-3.62z"/>
	<path d="m436.43 282.37c0.19-0.88-0.403-0.977-1.034-1.035 2.149-2.966 7.054-4.967 5.175-10.351-2.308 0.562-0.408 2.114-1.553 3.623-1.374 2.248-6.722 0.522-6.727 4.14h-5.693c-4.962-5.136-9.823-14.766-6.21-23.805 4.29-0.886 6.754-3.596 10.867-4.658 1.975 0.097 2.286 1.854 4.141 2.07-2.204 1.592-5.937 1.654-8.28 3.104 0 3.385-1.223 4.289 2.07 5.693-1.923 1.718-4.449 9.362 0 9.832 0.593-2.146-1.089-2.016-1.035-3.622 1.527-1.232 2.228-3.293 3.622-4.658 1.439 2.011 4.039 2.86 7.245 3.105-0.056-4.602-5.76-3.556-7.763-6.21 6.812-0.775 8.707 3.367 10.351 7.763 1.546-9.829-4.683-16.362-10.867-20.184 14.4-0.2 19.47 29.64 5.69 35.2zm-14.49-19.15c1.229-1.877 1.817-4.394 2.588-6.727-0.661-0.029-0.717-0.664-1.553-0.519-0.87 1.56-2.52 5.05-1.04 7.25z"/>
	<path d="m269.28 250.8c2.957-0.704 5.988 2.976 9.315 3.622 2.438 0.195 1.742-2.743 3.623-3.104 2.372 0.493-1.188 3.034 0 5.692 1.191 1.742 2.99 2.876 5.693 3.105-1.582 3.049-5.78 0.545-7.762-0.518-1.23-5.33-7.51-5.6-10.87-8.8z"/>
	<path d="m370.19 253.39c-0.104 2.751-6.161 5.469-6.728 1.554 2.28-0.49 3.56-1.97 6.73-1.55z"/>
	<path d="m241.85 262.7c1.923 2.217 5.094 3.187 6.21 6.21-2.49-1.65-5.24-3.03-6.21-6.21z"/>
	<path d="m327.24 266.32c-0.01 1.42-2.441 1.229-3.105 0.519 0.01-1.42 2.44-1.23 3.1-0.52z"/>
	<path d="m248.58 269.95c1.459-1.921 2.019 1.391 3.105 1.553-1.14 1.6-2.11-1.29-3.1-1.55z"/>
	<path d="m279.11 272.02c0.83-1.292 3.054 0.355 3.105 1.552-1.06-0.5-2.05-1.06-3.11-1.55z"/>
	<path d="m71.594 273.05c1.514-1.812 1.818 1.942 1.553 3.623-1.931 0.21-0.218-3.23-1.553-3.62z"/>
	<path d="m332.42 276.16c1.022 0.358 1.38 1.38 1.553 2.588-1.62 0.23-1.66-1.11-1.55-2.59z"/>
	<path d="m375.89 279.26c1.055-0.325 0.145-2.615 2.069-2.07 0.156 2.808-0.712 3.44 0 5.693-2.516-2.487-5.618-4.388-9.314-5.693 1.87-2.48 6.12 0.45 7.24 2.07z"/>
	<path d="m355.7 289.09c-1.859-3.364-2.704-5.174-2.587-9.832 2.429 3.781 5.001 7.418 7.762 10.868-2.74 0.67-2.63-1.5-5.17-1.04z"/>
	<path d="m441.61 280.3c1.597 0.473 1.718 2.421 2.069 4.14-1.6-0.48-1.72-2.42-2.07-4.14z"/>
	<path d="m471.62 288.58c-0.115 2.472-3.769 1.407-5.692 2.069 1.39-1.2 3.14-2.04 5.69-2.07z"/>
	<path d="m491.29 298.41c-1.613 0.635-6.822-0.208-8.28 0 1.52-1.57 6.73-1.41 8.28 0z"/>
	<path d="m486.63 303.07c0.718-1.018 4.392-0.632 5.176 0-1.29 1.58-3.15-0.62-5.18 0z"/>
	<path d="m487.15 311.86c3.328 0.525 4.593 4.125 3.622 6.21-1.13-2.14-2.97-3.58-3.62-6.21z"/>
	<path d="m484.04 313.94c1.926 0.357 2.578 4.023 1.553 5.691-1.54-0.88-1.49-3.34-1.55-5.69z"/>
	<path d="m402.8 318.07c0.133-1.211 2.273-0.298 2.588 0-0.41 1.82-1.82 0.6-2.59 0z"/>
	<path d="m306.54 322.21c1.152 1.43-0.05 3.729 0 4.658-1.28-0.82-0.21-3.62 0-4.66z"/>
	<path d="m450.4 322.73c0.443 1.652-0.814 1.601-1.036 2.587 0.44 1.518 1.667-0.308 2.588 0 0.705 1.711 1.039 3.792 3.106 4.141-1.32 1.975-1.08 3.278 0.517 4.658-9.28 2.81-13.55-11.53-5.18-11.39z"/>
	<path d="m87.636 323.77h1.553c-0.165 1.215-0.818 1.942-0.518 3.622-1.48-0.07-0.946-2.16-1.035-3.62z"/>
	<path d="m412.63 326.35c2.008 0.586 1.279 7.906 1.035 10.351-2.47-1.24-1.63-7.66-1.03-10.35z"/>
	<path d="m91.259 327.39c1.432 0.218 2.224 4.791 0 4.141v-4.14z"/>
	<path d="m87.636 327.91c2.223 1.522 1.166 5.182 1.035 6.728-1.295-1.82-0.864-3.2-1.035-6.73z"/>
	<path d="m415.73 330.49c2.438 2.152 0.233 9.746 3.105 11.902-2.69-0.27-5.01-8.42-3.11-11.9z"/>
	<path d="m94.364 331.01c1.767-0.187 2.184 2.995 0 2.588v-2.59z"/>
	<path d="m425.05 333.6h1.034c3.204 2.145 4.811 5.886 4.658 11.386-2.25-3.45-3.75-7.64-5.69-11.39z"/>
	<path d="m333.97 339.29c1.728 2.129 0.226 8.55 0.518 11.386-2.38-2.46-1.15-7.81-0.52-11.39z"/>
	<path d="m342.76 339.29h1.552c1.365 1.913 1.016 5.54 1.035 8.798-3.946-0.773-2.155 2.296-3.623 1.553-0.818-0.414-3.614 0.397-5.175 0 0.369-2.563 1.074-4.791 1.553-7.245 2.369 1.866 2.472-2.382 4.658-0.518 0.01-0.86 0.01-1.73 0.01-2.59z"/>
	<path d="m51.929 30.86c-6.649-5.599-14.219-14.761-25.876-17.077 7.792-2.803 17.133 3.552 22.771 7.762 0.812-0.222 0.442-1.627 2.07-1.035-10.251-9.292-35.026-27.618-47.611-9.832 4.286-0.026 4.005-4.62 8.798-4.14-0.867 2.066-3.21 2.655-4.14 4.658 4.084-0.674 6.506-5.197 9.315-0.518-4.742-0.394-8.026 2.13-6.728 6.21-3.101 2.246-5.419 5.275-5.175 10.868 4.01-0.208 9.668-1.269 13.455 0-2.422 0.955-1.518 0.479-1.035 3.104-3.502-1.745-8.541 0.141-11.385 2.07 0.16 1.22 1.797 0.963 1.553 2.588-3.792 0.175-3.266 4.669-6.728 5.175-2.172-8.505 3.892-12.453-0.517-16.042-0.929-7.375-1.481-13.111 2.07-19.666 24.373-16.091 42.665 11.282 60.548 18.63 2.512 3.525 6.96 5.115 10.867 7.245 4.862-4.639 18.263-9.698 24.323-2.587 8.309 2.096 17.066-5.516 24.323-9.833 8.513-5.064 16.355-10.306 27.428-10.35 9.184-0.037 21.685 4.217 22.77 12.42 0.726 5.485-2.804 11.173-2.587 18.112 0.265 8.505 3.051 17.134-3.623 21.735-6.801 4.689-23.487 3.864-33.121 1.553-3.412-0.819-7.092-3.208-11.385-4.14-5.114-1.111-11.57-0.76-15.525-3.622 2.759 10.362 11.553 19.144 17.078 28.462 44.009 60.526 94.653 114.42 160.43 153.18 2.691-4.926 11.202-4.711 13.455-1.035 0.494-4.335 3.048-6.611 5.175-9.314 7.311-0.797 10.645-5.57 13.455-10.867 12.873-2.309 20.364 5.134 22.77 15.007 4.761-4.292 9.361-16.528 19.147-13.972 3.744 0.977 5.08 5.677 7.245 9.314 1.987 0.256 3.595 0.89 4.14 2.587 1.022-0.357 1.38-1.38 1.552-2.587 1.574 0.497 2.062 2.078 3.623 2.587 1.697-1.324 3.663-2.425 2.588-5.175 3.909 0.389 5.396-5.937 9.832-6.727-1.013 3.472-3.874 5.095-5.692 7.762 1.122 1.854 5.511 1.873 7.763 1.035-3.378 2.658-4.978 8.687-11.903 6.21 3.551 5.479 11.698-2.306 16.56-3.623-1.024-4.61 1.869-6.59 0.517-9.832-1.924-4.618-9.72-2.042-14.489-1.035-0.402 1.15-1.088 2.019-1.036 3.622-2.065-2.048-3.35 1.89-5.692 2.588-1.217-0.163-0.308-2.452-2.071-2.069-1.846 0.051-1.518 2.275-2.586 3.104-2.75-1.002 0.292-4.303 0.517-5.691 2.108-0.565 3.833-0.356 5.175 1.034 4.088-6.088 13.142-5.914 20.182-5.692 3.132 2.47 3.785 10.281 2.07 14.489 2.471 1.325 5.956 1.635 7.763 3.623 5.236-8.438 15.1-11.161 28.98-9.832 8.033 3.675 21.264 7.162 17.077 19.665 3.741 2.813 6.324 6.785 8.28 11.385 2.724-0.381 6.136-0.074 6.209-3.104-1.689-1.487-4.491 0.314-5.692 1.034-1.11-1.822 3.064-2.785 5.176-3.105 2.877-1.262 2.988-5.292 5.692-6.728 4.651-0.338 7.581 1.045 10.868 2.07 24.186-14.454 44.486-32.794 67.274-48.645 16.032-17.606 35.815-31.461 51.75-49.163 2.346-3.865 5.577-6.843 9.316-9.314 6.506-11.952 17.323-19.593 23.287-32.086 12.259-12.235 19.155-29.834 30.532-42.953-5.062-0.756-8.8 3.106-13.455 4.658-11.396 3.799-24.14 6.367-38.812 6.728-5.565-3.183-14.456-7.141-16.561-14.49-2.025-7.072 0.625-14.484 4.658-19.147-6.898-8.728 0.245-19.867 6.21-24.84 6.501-1.418 21.209-3.806 27.945 1.035 10.09 1.193 18.704 6.431 24.84 12.42 3.458 3.376 8.028 10.21 12.938 10.351 3.32 0.095 6.793-3.791 10.351-4.14 5.999-0.589 9.029 2.261 15.007 5.175 23.174-6.152 31.47-27.18 61.065-26.91 10.523 3.529 22.018 17.017 11.902 28.98 1.306 5.828 0.93 11.64 1.035 18.112-6.534 11.327-17.071 19.151-33.12 15.008-5.531-1.428-10.44-4.888-15.524-6.728-5.004-1.81-13.686-3.934-17.595-3.105-4.157 0.881-6.579 7.351-10.868 8.797 5.45 77.358 16.914 157.22 19.665 237.02-0.702 2.231-2.45 3.415-2.588 6.21-3.027 3.011-6.209 5.865-11.902 6.21 4.11 14.514-6.314 25.014-14.49 32.085-3.801-1.718-6.114-4.924-7.245-9.314-5.633-2.819-11.497-5.408-14.489-10.868 0.644-14.387 0.782-25.865 2.069-39.847-10.463 0.112-19.612-4.265-20.183-15.008-0.251-4.735 1.882-12.999 2.588-20.7 1.822-19.875 7.899-47.461 8.279-60.547 0.067-2.325 0.003-3.788-0.518-5.176-0.454-1.663 1.706-0.709 1.553-2.069 0.579-12.331 4.557-31.005 4.14-42.437-0.158-1.192 1.496-0.574 1.553-1.552-0.336-0.526-1.189-0.535-1.035-1.553 2.988-20.505 7.312-37.179 9.315-57.96-16.7 32.635-27.025 71.644-54.338 93.667-7.018 16.098-12.188 34.043-27.944 41.401-9.621 16.771-21.491 31.294-37.261 41.918-6.717-0.539-8.514 6.045-11.902 9.831-10.454 11.685-24.745 21.568-37.777 30.016-0.658 1.757-1.838 2.993-2.588 4.658 4.625 4.014 3.761 17.8-2.587 17.595 0.136-1.761 2.331-1.464 3.104-2.588-0.611-4.219-3.672-5.988-5.692-8.797 1.948 0.12 2.191 1.949 4.141 2.069-0.956-3.528-4.943-4.027-6.729-6.727 1.285-0.674 2.148 1.518 2.588 0 0.057-2.817-4.621-0.899-5.176-3.104 2.287 0.296 4.559-1.542 7.245-0.519 4.798-5.882-6.001-12.553-13.972-10.35-1.574-1.946 3.585-1.571 5.691-1.553-2.516-3.759-8.47-0.204-11.385 0.518 1.042-2.754 5.758-1.832 7.246-4.141-5.475-1.328-10.83 1.933-13.974 4.658 0.871-2.579 2.437-4.465 5.175-5.175 0.64-1.676-1.674-0.396-1.034-2.07 4.602 1.726 6.533-2.025 10.35 0 0.237-1.617-1.105-1.654-2.588-1.553 2.933-3.346 1.995-11.195 1.036-14.49-4.785 0.046-2.617 7.044-6.729 7.763 3.688-8.243-2.161-16.19-9.833-12.938 1.064-1.523 2.763-2.414 5.176-2.588-1.674-2.403-5.795-1.336-8.28-0.517-0.047-3.153 3.724-2.488 6.211-3.106-3.442-6.148-10.859 0.059-8.799 7.246 2.007 6.992 10.069 0.705 15.525 3.104-4.204 3.175-8.78 10.821-5.175 17.078-3.449-0.517-4.469 1.395-7.245 1.553 0.149-2.784 4.576-1.29 5.175-3.623-0.274-0.416-0.539-0.84-0.517-1.553-3.773 1.058-6.502 3.158-8.798 5.693-4.39-2.007-4.682 2.792-8.28 3.104 2.253 2.911 9.115-0.427 11.902 3.623-1.65 4.17 1.185 8.053 1.035 12.419-2.069-3.104-3.597-6.753-3.623-11.902-1.2 4.312-0.398 11.09 2.07 13.455-0.473 1.737-0.962 0.256-2.587 0.519 1.624 3.032 3.844 5.471 7.762 6.21 1.851-5.437-6.522-11.714-2.587-19.666 1.492 0.578 1.532 2.607 3.622 2.588-0.64 0.899 0.396 3.437 0 5.692 1.542-0.7 0.075-4.41 2.588-4.14-0.447 3.139 0.099 9.018 3.105 10.35-0.069-3.726-1.938-5.652-1.553-9.832 3.835 3.409 2.401 12.089 5.692 16.042 0.925-3.686-2.815-10.346 0-14.489-0.702-2.23-4.661-1.204-5.176-3.623 4.458 0.891 8.109 2.586 10.352 5.692-1.324 1.064-2.262-1.57-4.141-1.553-0.542 4.74-0.376 13.099 3.105 15.524 0.837-2.383-5.093-9.622-0.518-12.419 0.644 9.188 2.088 17.576 10.867 18.629 1.349-1.383 0.104-4.562 0-6.21 2.543 0.045 0.753 4.422 2.07 5.693-5.32 6.519-12.174-1.795-18.631-2.07-2.038-2.446-3.377-5.593-6.728-6.728-1.787 0.455-0.893 3.593-3.623 3.104 0.689 12.592-7.82 15.984-13.454 22.253-9.251 2.951-11.176-4.729-15.524-8.279-1.146 2.301 0.946 3.215 1.035 5.174 0.594 13.185-16.993 14.521-24.323 6.211-4.902 1.035-8.42-2.207-10.35-5.692-0.665 2.852 1.387 13.033-6.729 12.42 3.293-1.309 2.245-3.854 5.176-5.175-0.879-2.228-1.502-4.709-3.104-6.211-2.322 2.083 0.998 2.235 0.517 5.176-2.711-1.602-3.133-5.492-6.728-6.21-2.912 3.507 4.48 4.998 4.657 8.798-4.575-1.199-6.562-3.759-8.797-6.211-1.413-0.376-1.042 1.029-2.07 1.035 0.082 5.094 3.459 6.891 5.692 9.833-1.02 2.766-3.069-1.527-5.175-1.035-0.403 3.53 2.267 2.315 1.035 5.692-3.79-1.557-0.92-9.774-4.657-11.386-0.844 5.158 1.941 6.685 2.07 10.868-4.218-2.055-5.138-10.183-2.07-13.973-5.319-3.998-5.11 7.252-3.105 9.833-3.648-1.743-3.97-7.357-2.587-11.386-3.724 0.952-0.035 8.341-1.553 10.351 2.844 5.848 21.684 12.989 21.217 1.035 7.005 7.444-11.807 12.039-15.007 4.657h-3.622c-1.579-2.217-4.113-3.478-4.14-7.245-9.392 0.756-9.858-11.398-12.938-18.63-1.729 0.341-2.531 1.609-4.141 2.07 0.324 5.326-1.694 8.311-5.692 9.314-0.382 4.275-2.782 6.533-4.657 9.315-2.413 0.05-7.805 2.508-10.868 0 2.082-1.248 5.853 0.333 8.797-1.035 3.503-1.628 4.331-6.057 5.692-9.315 0.242-2.128-1.301 0.406-2.07-1.034 0.057-3.163-0.533-5.677-1.035-8.28h3.623c0.843 1.572 1.519 3.311 1.552 5.692-1.563 1.502-1.444-1.597-2.587-2.07v3.105c2.584 1.763 7.767-0.977 5.692-5.176-1.48 0.073-0.946 2.16-1.035 3.622-1.246-2.03-1.027-5.526-2.588-7.245 0.359-1.621 1.381-0.674 2.588-0.517 0.114-1.666-0.915-2.189-0.517-4.141 2.278 0.137 1.579 3.252 2.587 4.657 5.918-0.865 7.08-3.516 9.315-8.279-3.383-2.482-2.66-9.069-3.622-13.972-1.193 1.395-0.185 4.991-0.518 7.245-1.417-1.861-1.77-4.785-4.14-5.692-0.419 2.834 1.729 3.101 1.552 5.692-1.795 0.069-0.828-2.622-2.587-2.588-0.232 2.646 1.417 3.412 1.553 5.691-1.373-0.524-1.402-2.392-2.588-3.104-0.953 1.904-1.312 6.441-2.07 8.279-2.872-0.577-1.668-5.231-3.622-6.727-0.866 1.575 1.354 4.495 1.035 7.244-1.063 1.047-1.033-0.211-1.553-1.035-1.492 0.749 1.13 3.08-0.518 4.14-1.846-1.086-0.819-5.045-3.104-5.692-1.149 1.018 0.679 3.433 0 5.692-2.739-1.457-0.312 1.273-1.035 3.623-2.893-0.729-1.455-5.79-4.14-6.728-4.455 0.203-2.752 6.562-5.175 8.797-1.104 0.242-0.986-0.739-1.035-1.552-2.803 0.303-2.643 3.567-5.175 4.14-2.37-3.446 0.74-7.034 5.175-6.728-0.165-1.199 0.083-1.986 0.517-2.587-4.328-0.36-4.271 3.664-7.762 4.139-0.402-2.988 1.955-3.219 3.104-4.657-0.439-1.519-1.302 0.674-2.587 0 1.744-6.018 11.774-3.751 14.491-8.796-6.386 2.218-16.422 0.771-19.148 7.761 1.011 0.715 2.726 0.726 3.104 2.07 0.521 4.489-2.393 5.542-2.07 9.833 0.394 2.584 6.339 1.046 7.245 1.553 1.925 2.184-2.497 1.335-2.07 3.622 0.076 4.588 4.6 7.469 5.175 9.833-5.236 0.061-5.521-4.83-6.21-9.315-4.368-0.405-7.515-6.805-5.693-13.455-0.467-0.912-1.157-1.603-2.069-2.07-10.376 3.883-17.099 10.069-30.533 9.833-0.896-3.762-6.386-2.928-7.763-6.211 1.044-4.647 1.838-9.545 2.588-14.489-8.012 5.099-19.643-1.3-15.008-11.385-3.677-0.693-6.529 0.601-9.833-1.553-0.328-1.742-1.486-2.653-1.035-5.174-5.529-1.718-10.062-4.43-12.42-9.316-12.761-4.654-21.48-15.256-27.945-26.393-1.519-2.616-2.921-5.88-4.657-8.28-2.292-3.167-6.519-4.553-9.833-7.245-9.022-7.327-15.991-18.23-21.217-29.496-6.087-1.879-14.821-8.983-18.63-15.008-3.75-5.932-5.461-13.324-8.797-18.631-1.024-1.628-2.742-2.14-4.14-3.623-9.851-10.439-15.76-25.23-20.701-39.329-14.299-18.303-23.511-41.694-31.05-66.758-1.294 12.229 1.554 23.389 2.07 37.26 2.5 6.713 3.077 19.193 4.14 28.98 1.364 12.566 3.838 25.269 3.623 36.742 0.001-0.062 0.234 1.593 0 1.035 4.354 10.38 4.327 29.049 6.21 41.918 1.405 9.604 2.759 19.464 5.175 30.532 1.955 8.955 7.307 19.577 3.105 30.533-4.417 2.999-9.906 4.93-15.525 6.728 2.381 11.894-1.338 26.841 3.104 35.707-0.604 6.296-3.903 9.897-6.727 13.973-5.305 2.274-10.882 3.584-15.008 6.728-2.307 1.758-3.36 5.054-6.728 5.175 0.363-12.955-8.979-16.205-15.525-22.253-0.588-5.419-1.716-11.995-1.035-14.489-5.266-3.339-11.728-5.466-12.421-14.489 0.222-1.43-1.929-0.486-2.069-1.553-1.296-30.791 3.231-58.545 4.657-91.599 0.529-0.506 1.047-1.023 1.552-1.552 2.452-18.793 4.444-40.89 8.798-59.514 2.499-28.429 5.108-55.845 11.385-81.765-2.167-4.215-5.867-6.898-7.245-11.902-13.638 6.22-30.263 15.527-48.177 13.527-7.552-0.842-12.598-4.646-19.665-6.728-0.873-3.365-0.152-9.778-1.035-14.489 1.483-1.42 4.021-4.063 6.21-3.105-0.912 2.021-3.322 2.543-3.623 5.175 0.34 1.549 1.106-0.496 2.07 0-0.218 2.36-1.426 2.188-0.518 4.657 9.066-10.934 30.661 0.198 44.505-5.175 0.277-2.348-3.792-0.348-3.623-2.588 2.324-0.253 3.877 0.263 5.692 0.518-5.801-3.963-12.544-3.814-17.595-8.28 3.752-2.607 8.966 3.11 15.007 4.14-2.787-3.273-13.844-5.187-12.938-10.867 5.874 2.253 8.088 5.501 15.008 4.658-0.705-1.34-1.67-1.626 0.52-1.036zm411.93 253.06c-2.761 0.515-5.269 1.286-6.21 3.622 2.43 1.04 4.22-2.55 6.21-3.62zm-333.79-246.33c-0.153-0.925 2.008-0.033 1.553 1.035-1.894 0.83-6.49 0.764-8.28 3.105 2.908 0.538 3.388-2.021 5.175 0-2.181 1.618-3.92 2.741-8.797 2.588 0.683 4.176 7.852-0.787 8.28 1.552-6.612 8.042-13.127-3.169-19.665-4.657-0.021 1.703-0.874 2.576-0.517 4.657 2.082 0.841 6.384-0.145 7.763 2.587-1.696 1.246-3.48-1.11-5.176 1.035 15.69 5.491 28.872-6.607 42.953-5.692 4.771 0.31 7.989 3.332 11.385 4.14-1.551-2.185 0.109-4.511-1.035-7.245-2.515-1.972-6.923-2.047-8.798-4.658h3.105c0.683-1.295-2.046-1.62-0.518-2.07 2.265 0.494 4.979 0.541 7.245 1.035-2.181-6.422-13.795-0.165-17.078-3.623 4.761-0.956 5.655-2.602 10.868-3.105-1.469-2.154-5.836-1.409-7.245-3.623 1.206-1.336 6.012 2.565 7.245-0.518-2.697-2.941-9.843 0.651-12.938-1.036 1.653-1.279 5.483-0.381 6.728-2.069-4.013-1.135-8.015 2.274-9.833 0 2.326-1.133 7.642-2.007 8.797-2.588-5.062-1.262-12.147 2.545-14.49-1.035 2.566-0.176 4.089-2.183 5.693-0.517 0.882-0.212-0.109-0.667 0-1.553 6.529-2.36 14.395-0.328 21.218-1.035-24.302-10.595-39.252 11.007-57.96 17.078 0.005 1.375-0.195 2.956 0.518 3.623 3.741-3.677 8.685-6.15 14.49-7.763-0.116 0.978 0.583 1.142 0.517 2.07-3.741 1.434-7.146 3.204-9.832 5.693 6.003-0.311 8.937-6.101 14.489-5.175 0.818-1.08 1.199-2.596 3.105-2.587 0.416 1.202 1.658 2.938 0.518 4.14 3.229 0.332 5.046-1.425 7.763-0.518-0.525 1.372-2.393 1.402-3.105 2.588 0.891-0.028 1.327 0.398 1.553 1.035-1.37 1.215-6.23 1.669-5.68 3.106zm477.14-22.253c2.152 3.024 7.309 3.042 11.386 4.14-4.107 0.867-7.173 1.303-10.867 1.553-0.522 3.963-7.08 1.89-6.211 7.245 1.958-0.501 5.55-2.343 6.729-0.518-3.061-0.127-4 1.866-5.693 3.104-0.388 1.769 2.104 0.658 1.553 2.588-0.773-0.821-2.95-0.757-2.588 1.035 0.775 0.088 1.91-0.185 2.07 0.518-2.502 1.295 1.004 3.229-0.518 5.175 2.455 0.208 5.392-1.593 6.728 0.518-2.164 0.456-6.863 0.001-8.28 2.587 2.034 0.036 3.89 0.25 5.176 1.035-3.624 0.861-5.354 3.617-7.763 5.692 1.778 0.365 3.117-2.355 4.657-0.517-1.974 1.131-4.049 2.161-4.657 4.658 1.789 0.705 2.438-2.325 3.622-0.518-2.229 0.373-4.482 3.435-3.104 5.693 7.087-11.013 24.372-5.293 38.295-4.14 0.155-1.018-0.698-1.026-1.034-1.553 8.757 2.051 16.46 2.109 25.874 3.105 0.79-1.874-0.431-4.229 0-7.245-7.293-1.671-16.065 3.716-21.735 2.07 2.724-1.416 8.15-0.131 9.833-2.588-6.766-0.824-13.842-1.338-17.595-5.174 1.545-1.292 5.183 1.867 6.728 0.518-4.003-3.588-12.589-2.593-19.147-3.623 2.92-1.221 6.481-1.799 10.867-1.552-5.103-4.281-17.095 0.8-20.7-0.518 4.362-2.549 11.622-3.431 16.561-2.587-0.88-3.023 4.943-1.771 7.245-3.105-2.035-1.071-6.169-0.042-6.728-2.588 10.217 1.686 19.613 4.192 25.356 10.351-4.892-2.183-10.313-6.588-16.042-6.21 7.733 2.617 12.81 7.891 22.253 8.798-2.865-6.106-10.335-7.606-15.525-11.385 3.568-0.119 4.886 2.014 7.762 2.587-1.138-5.417-6.432-6.678-7.762-11.902 3.748 3.152 7.37 6.43 11.385 9.315-7.46-14.137-29.84-21.094-48.15-16.562zm137.65 3.623c3.423-1.408 6.354-3.307 9.833-4.658-2.013-0.229-4.093-0.391-5.692-1.035-9.182 1.382-12.88 5.439-18.63 9.832-3.599 2.751-8.483 3.672-10.35 7.763 1.19 1.155 3.842-3.366 5.175-2.07-7.011 6.13-16.342 8.116-25.357 12.938 0.613 1.8 0.947 3.882 3.104 4.14 3.712-0.944 5.819-5.029 9.315-6.727 1.076-0.523 2.763-0.119 3.623-0.518 4.753-2.208 8.432-8.788 13.973-7.245-0.737 2.196-4.133 1.733-4.658 4.14 6.057-0.499 8.042-5.069 13.455-6.21 2.276-7.901 12.192-8.163 19.147-11.385-6.38-1.286-10.23 4.57-12.93 1.035zm-136.1 1.035c1.655-0.07 3.96 0.51 3.623-1.553-1.54 0.183-3.15 0.3-3.62 1.553zm120.58 16.56c-0.553 1.933 1.285 1.475 1.035 3.105-1.406 0.318-2.424 1.026-3.104 2.07 1.744 0.497 3.535-1.585 4.657 0-2.009 2.649-6.873 2.442-8.28 5.692 3.147 0.888 5.522-1.7 7.245-0.517-3.004 6.832-12.895 4.876-21.217 4.657 5.106 1.817 8.492 6.625 13.972 7.763 12.821 2.663 29.396-8.87 40.883-0.518 1.362-1.621 0.327-4.159-1.553-4.14 1.15-1.198 2.018 0.176 3.622 0-0.672-6.227-8.29-5.508-13.455-7.245 0.654-1.265 6.756 0.23 5.693-1.035-1.932 0.207-3.037-0.414-3.105-2.07 0.924-0.628 3.011-0.095 3.622-1.035-1.789-0.868-3.429 0.422-6.21 0 0.125-0.738 0.853-0.873 1.036-1.553-8.272 1.93-13.854 0.486-20.184 4.658 3.809-8.909 20.41-6.773 27.945-10.35 0.507-3.721-9.694-0.557-11.385-2.587 4.225-2.439 11.512 0.73 14.49-1.035-2.55-2.453-9.221-0.785-12.938-2.07 4.738 0.078 6.557-4.931 11.902-2.587-2.04-5.891-10.381-1.044-13.972-1.553 0.188-1.563 4.936-1.24 3.104-3.105-9.1 4.079-16.12 7.562-23.8 13.455zm-658.26 3.105c0.842-1.228 1.146-2.993 1.552-4.657-5.896-3.593-11.01-7.966-17.078-11.385 3.212 7.31 8.75 12.295 15.526 16.042zm11.902 17.077c-4.358-7.145-1.748-20.778 5.693-20.7-1.13 4.371-2.546 9.785-1.035 13.972-2.476-0.751-1.286 2.164-1.552 3.623 4.552-2.951 4.131-11.269 5.692-14.489 3.663 5.274-0.372 14.657-5.175 17.594-0.145 1.18 0.125 1.946 1.035 2.07 0.427-2.305 4.108-0.558 4.658-1.553 0.808-2.992 4.219-7.852 5.175-12.419 2.259-0.188 3.2 0.94 4.14 2.07 0.674 8.091-3.422 11.413-7.763 14.49 10.063-1.821 14.173-20.228 7.245-26.91-0.681 1.604 1.534 2.871 0 3.623-1.085-2.02-2.97-3.24-4.14-5.175-0.559 2.86 1.977 6.768 0 7.763 0.901-12.531-14.89-19.125-20.183-8.28 1.269 0.455 2.984 0.466 3.104 2.07-0.727 0.135-0.59 1.135-1.035 1.553-0.865-0.686-1.733-1.371-3.623-1.035-2.06 5.458-3.688 16.532 1.035 20.182-1.916-6.444-3.326-13.688 1.035-18.112-2.322 7.626 0.889 17.872 5.696 19.663zm39.331-20.182c1.956 0.375 5.068-0.758 3.622-2.07-0.65 1.245-2.75 1.043-3.62 2.07zm548.55 17.077c0.707-1.018 0.494-2.956 1.034-4.14 0.612 0.596 1.83 0.585 3.106 0.517 1.783-6.259 6.252-11.443 12.419-10.867 7.676 0.717 8.144 9.499 8.798 16.56 3.661-1.283-0.526-7.289 2.07-9.315-4.278-6.857-12.654-14.609-23.806-9.833-3.443 5.11-6.57 7.357-7.245 15.007 2.901-0.549 1.981-4.919 4.657-5.692-1.45 2.218-1.84 5.019-1.04 7.763zm-615.83-13.454c-0.516-0.568-2.821-1.942-3.623-0.518 1.325-0.241 2.934 1.83 3.623 0.518zm608.59 4.14c0.977-0.749 2.295-1.156 2.07-3.105-1.599-1.005-5.406-2.51-7.245-1.553 2.07 1.209 2.47 4.082 5.18 4.658zm-541.83-3.623c-0.393-0.856-4.265-0.856-4.657 0 0.84 0.773 2.6-0.446 4.66 0zm-79.176 6.727c2.713 0.481 7.655 1.952 12.42 2.07 5.097 0.126 12.374 0.554 14.49-3.105-7.107-2.874-18.054-0.106-26.91 1.035zm637.57 2.588c0.599-0.777 1.816-2.179 0-2.587-0.77 0.949-1.39 1.752 0 2.587zm-521.65 1.553c0.953-1.925-4.182-3.651-7.245-3.622-4.487 0.042-10.086 2.523-12.42 3.622 6.45-0.312 13.8-2.119 19.67 0zm-142.31 3.105c2.458 1.337 1.926 5.664 6.21 5.175-0.572-1.622-0.334-1.459 1.035-2.07 2.675 5.86 14.623 3.643 18.63 0.518-0.882-0.212 0.108-0.667 0-1.553-5.601-0.655-7.574 0.505-13.455-1.552 0.628-0.915 4.519 1.041 5.693-0.518-3.538-2.327-11.798 0.068-13.973-3.623 2.402-1.171 5.76 0.652 9.314 0 2.414 0.367 2.414-0.884 0-0.517-3.334-2.417-8.856-2.347-13.455-1.035-0.463 1.807 1.688 0.884 2.07 0.517-0.728 1.514-2.697 1.787-2.069 4.658zm674.31-1.553c-0.681 0.528-1.907 0.508-2.587 1.036 0.705 8.64-5.322 10.549-7.764 16.042 7.6 0.181 7.423-7.413 10.868-11.385 1.212 0.168 0.503 2.258 1.553 2.587 1.644-3.73 2.532-9.152-0.519-12.42-1.37 0.893-2.77 2.06-1.55 4.14zm-7.25 7.245c1.112-3.278 2.039-6.928 0.518-10.35h-1.552c-0.98 2.84-0.93 8.754 1.03 10.35zm-522.68-8.28c-0.179 1.593 3.405 2.069 2.07 3.105-11.02-3.721-27.407-3.626-37.261 0 6.039 1.431 13.754-1.053 19.666-0.518-1.83 1.793-5.893 1.353-7.763 3.105 3.551 0.326 8.315-0.49 10.35 0-0.02 1.494-2.925 1.224-1.552 2.587 5.417-0.716 12.055 0.526 17.078-1.552-0.089-2.849 3.042-2.477 2.07-6.21-1.94-1.876-2.38 0.646-4.67-0.517zm547 3.105c-0.772-1.297-1.31-2.83-3.621-2.588-0.37 2.445 1.87 2.271 3.62 2.588zm-97.8 7.763c-0.262 11.442 25.925 4.232 32.085 0.518-9.476-0.307-16.121 3.161-23.287-1.035 7.299-1.154 16.976 0.071 23.287-2.07-9.6 1.887-31.82-9.141-32.08 2.587zm-439.88 99.874c-3.147-4.626-7.931-9.105-11.385-13.973-2.022-2.85-3.439-6.993-6.728-7.763 1.392-0.144 1.475 3.646 0.518 4.14-19.022-25.482-35.584-53.427-47.61-85.905-2.506-0.091-2.876 1.954-3.623 3.623 10.106 28.866 21.442 54.708 34.673 79.178 11.905 22.017 28.392 40.936 37.777 63.652-4.308-6.732-9.404-12.677-12.419-20.7-7.369-8.847-14.675-17.755-19.148-29.497-4.242-2.004-5.65-12.243-9.315-11.386 3.31 7.346 5.509 13.947 9.833 20.7 3.54 5.529 11.538 10.359 13.455 15.524 3.208 8.643 6.531 15.175 10.868 21.218 4.711 6.566 13.185 10.699 18.112 17.078 2.753 3.563 4.033 8.173 6.728 11.902 6.165 8.533 13.756 15.691 22.77 21.218 6.401 12.229 13.956 23.305 24.84 31.051 4.746 1.118 7.797 3.933 9.833 7.762 3.04 0.419 4.614 5.033 7.763 3.623-29.088-25.94-56.87-55.945-76.59-89.527 0.912 0.468 0.855 1.904 2.069 2.069-0.327-3.538-4.631-5.034-3.105-8.798-5.266-1.979-6.019-8.471-9.832-11.902-2.28-9.795-10.007-14.144-11.385-24.84-7.642-11.161-15.229-22.378-21.218-35.19 11.22 14.204 19.135 30.646 30.016 45.022 5.017 6.629 10.696 12.864 13.972 20.701 4.031 5.498 7.337 10.807 11.903 16.56 4.016 5.06 10.919 12.326 12.938 18.112 0.612 1.273 1.955-1.061 2.588 0.517 0.115 0.979-0.584 1.143-0.518 2.071 15.265 16.647 28.687 35.137 47.092 48.645 1.013-3.273-3.259-3.962-2.587-5.175 5.274 2.661 8.451 7.419 13.973 9.833-2.334-5.112-10.451-7.106-11.385-11.903 5.382 2.065 8.207 9.352 15.008 8.28-2.481-4.512-7.604-6.647-11.385-9.833-11.869-9.997-22.565-21.083-33.638-31.567 1.675-0.64 0.396 1.675 2.07 1.035-0.496-2.791-5.022-4.279-4.657-6.21 6.32 4.893 11.494 10.932 17.595 16.043 17.684 6.984 27.089 25.005 47.093 27.944-1.647-0.596-3.454-1.03-4.14-2.588 1.932 0.945 4.553 1.615 5.175-1.034-14.425-7.31-27.494-15.978-38.812-26.394 3.496 1.512 6.787 5.974 10.35 5.693-7.303-4.945-14.482-12.771-22.253-15.524 3.67 3.229 8.414 5.385 11.385 9.314-11.768-7.725-21.444-17.541-32.085-26.393-0.994-0.73-0.937-2.514-1.552-3.622-20.439-16.305-36.312-37.175-52.268-57.961 24.763 27.677 48.379 56.501 79.695 77.625 3.037 3.863 7.232 6.569 11.903 8.798 3.716 6.205 13.842 8.462 16.56 13.973 2.134-0.59 3.506-0.027 4.657 1.553-0.89 0.204-1.326-0.768-1.552 0 4.412 1.816 9.258 1.813 13.456 6.21-3.132-0.326-6.152-3.496-8.281-3.105 2.918 1.396 5.146 3.48 5.693 7.245 2.342-0.204 4.503 1.719 5.692 1.035 1.868-1.983 1.109-7.732-0.518-7.763 2.164-2.745 1.849-6.959 0-11.902-1.428-0.814-4.463-0.021-5.175-1.553-2.106-3.098 1.669-5.712 1.035-7.245-0.766-2.484-4.659-2.306-7.246-1.552 0.389 3.366-3.588 1.438-3.105 6.727 1.663 2.297 5.383 0.248 6.728 2.07-1.352 1.781-5.58 0.953-7.762 0.518-0.079-1.646-1.173-2.276-1.035-4.141-6.731-2.928-11.158-8.161-18.112-10.867-20.81-15.07-39.89-31.87-58.478-49.162-6.601-8.234-14.191-15.479-21.218-23.287-1.101-3.62-7.043-4.946-5.692-9.315 1.877 1.917 4.161 3.43 6.728 4.657 0.116 0.979-0.583 1.142-0.518 2.07 3.947 3.94 7.339 8.767 10.868 12.42 21.337 22.093 46.703 42.597 72.968 58.994 4.976 3.107 10.618 8.097 17.077 7.245-4.947-2.987-10.742-5.126-15.007-8.797 5.557 1.519 10.431 6.472 15.525 6.728-5.62-3.695-13.055-5.574-16.56-11.385h-3.105c-5.128-7.456-14.738-10.465-21.736-16.042-6.858-5.466-12.208-11.815-19.665-16.043-8.866-11.317-20.664-19.701-28.98-31.568-1.287 0.08-1.602-0.812-2.587-1.034-20.737-22.896-40.988-48.47-61.065-73.485-4.268-8.325-9.718-15.467-15.007-22.771 13.209 28.019 31.991 50.464 49.68 74.003-2.009 1.757-0.922 1.96 0 4.141-1.22-0.16-0.962-1.798-2.587-1.553 4.23 8.19 10.97 13.869 15.007 22.252-0.49 0.01-0.59-0.41-1.01-0.51zm44.5 87.46c2.583 1.103 3.937 3.625 6.21 6.211 8.956 10.185 18.085 18.554 26.91 27.428 3.55 3.567 6.244 8.998 11.903 9.832-7.769-9.158-17.033-16.944-25.357-25.357-18.726-18.927-34.586-40.29-51.233-61.065 8.63 16.23 21.5 28.2 31.57 42.96zm491.63-188.89c-0.063-1.317-0.753-2.007-2.069-2.07-0.24 1.62 0.45 2.311 2.07 2.07zm28.46 0.518c-0.791 2.345 3.379-0.274 2.588 2.07-1.978-0.08-3.768 0.027-4.657 1.035 4.938 0.297 11.242 2.27 12.937-2.07h-4.14c-0.077-0.689 2.104-1.562 0.518-2.07-1.96 0.804-4.51 1.009-7.25 1.035zm25.36 2.587c0.483-1.732-1.656-3.463-2.588-2.07 1.21 0.35 1.39 1.72 2.59 2.07zm-165.6 134.55c-4.68 2.219-6.278 7.521-9.832 10.867-1.326-2.338-0.814 0.987-3.105 0.518 7.249-11.707 16.402-23.477 24.323-35.19 2.701-3.997 6.142-9.614 6.728-13.456 12.865-14.39 20.529-33.98 32.603-49.162 6.529-15.896 15.094-29.756 21.217-46.058-1.104-0.794-1.495-2.3-2.069-3.623-9.024 10.587-15.771 23.228-23.805 34.673-1.914 2.726-5.098 4.228-5.692 7.762-4.731 5.075-8.503 10.59-12.938 16.042-4.413 5.427-7.806 12.085-12.419 17.078-18.498 20.016-39.66 36.919-58.479 56.408-9.169 4.803-15.438 12.508-24.84 17.078-8.681 9.604-23.312 16.016-31.051 24.839 1.444-0.986 3.672-3.897 5.693-2.588-1.942 2.705-3.941 5.45-6.21 7.764 3.113-1.372 5.784-3.186 8.797-4.658 0.049 0.812-0.069 1.795 1.035 1.552 1.627-0.441 2.184-1.955 4.141-2.069 0.212 1.247-0.945 1.125-0.519 2.588 4.328-1.538 6.053-5.677 10.868-6.728 4.473-5.385 12.629-11.554 18.631-17.077 6.433-5.922 17.156-12.948 22.251-18.112 1.091-1.105 1.956-3.485 3.623-5.176 1.275-1.295 3.438-1.847 4.657-3.104 2.822-2.914 3.113-6.714 4.657-4.141 25.686-23.65 45.817-52.854 65.723-82.283 1.576 0.023 2.013-1.092 3.105-1.552 0.717-1.871 2.276-2.899 2.588-5.175 5.23-5.543 8.454-12.931 12.42-19.665 2.292-3.892 4.024-8.48 7.763-10.868-8.189 18.204-16.481 36.304-28.463 50.715-0.64 1.674 1.675 0.396 1.036 2.07-8.705 11.133-12.925 26.751-23.806 35.708 5.432-8.541 13.32-17.385 16.042-26.91-8.466 10.106-15.784 24.141-24.322 34.155-3.268 3.833-5.465 7.923-8.28 11.385-1.646 2.025-5.396 3.729-8.28 6.728-1.625 1.69-2.803 5.587-4.657 6.21-1.665 0.56-0.568-1.679-2.07-0.518-1.893 1.465-3.335 4.837-5.175 7.245-5.576 7.298-11.239 14.245-18.112 18.631 2.394-2.265 5.156-4.16 6.728-7.245-1.842-0.427-2.267 3.206-3.623 1.552 4.973-5.205 9.209-11.146 14.49-16.042 0.11-1.515-2.921-1.68-0.518-2.588 2.759-0.549 0.129 1.089 1.553 1.553-0.224-5.575 6.887-6.562 7.245-9.833-3.198 2.148-6.212 4.483-9.314 6.728-19.995 26.582-48.619 44.531-74.521 65.205 0.806 1.609 0.499 4.332 2.069 5.175 13.246-10.623 26.939-17.598 38.813-29.498-4.903 7.52-14.485 13.114-18.112 20.183 9.074-7.484 16.452-16.666 25.874-23.805-8.188 9.408-20.096 17.854-26.393 27.428 10.58-9.602 20.768-19.599 31.567-28.979-15.665 18.317-35.882 32.082-52.267 49.68 1.758 1.175 0.834 5.031 2.069 6.728 8.664-7.551 17.11-15.319 25.875-22.771 9.863-11.407 20.217-23.141 30.533-33.637 4.169-4.241 9.467-8.818 10.35-15.008 8.354-9.746 16.077-20.577 23.805-30.016 2.749-3.355 5.158-6.912 8.798-9.314-5.011 8.789-12.194 15.406-17.077 24.323-0.684-0.007-0.473-0.907-1.035-1.036-3.792 4.696-6.876 8.301-8.798 12.938 0.202-0.489 0.93-0.729 1.035-1.036-1.788 5.157-9.358 9.518-10.351 16.044 6.336-7.12 11.623-15.288 18.113-22.253-6.83 9.385-14.309 20.881-21.735 27.944-0.131-1.856 1.555-1.896 1.553-3.623-11.137 11.979-18.631 27.6-31.05 38.296-5.602 8.372-15.32 15.385-19.666 23.288 11.145-11.312 23.097-23.902 33.121-35.708 1.353-1.594 2.677-4.354 5.174-4.141-5.658 7.624-12.635 13.929-17.594 22.254-6.492 5.381-11.283 12.562-17.595 18.111-6.457 5.679-14.026 10.081-19.148 17.078 4.097-0.674 7.714-3.962 10.868-6.728 10.101-8.858 20.2-17.853 28.979-27.428v-2.07c6.676-6.711 13.287-13.506 19.665-20.699 7.786-8.783 13.749-19.709 22.771-27.428-8.066 14.359-20.248 24.603-28.981 38.295-1.209 0.17-2.138 0.622-3.104 1.035 0.363 1.593 0.363 0.994 0 2.588-11.916 11.371-23.728 25.605-35.189 35.707 5.911-4.58 11.635-9.093 16.56-13.973 1.816-1.8 4.045-2.921 5.692-4.658 4.736-4.989 6.951-14.121 16.561-13.454 9.18-7.381 19.296-16.584 23.805-26.911-2.946 4.472-6.238 8.598-10.35 11.903 12.241-16.91 24.223-34.082 36.225-51.232 0.678 2.438-4.463 3.873-1.553 5.176 1.392-1.542 2.006-3.861 3.105-5.693-0.608-0.081-1.469 0.088-1.553-0.518 2.646-4.085 7.059-9.153 7.764-13.455-4.801 7.103-10.01 13.796-13.974 21.735-4.31 2.593-6.472 10.084-10.35 11.385 3.27-4.32 6.79-8.39 9.3-13.47zm-51.75 42.95c0.545-0.54 2.753-2.013 1.553-2.588-0.34 0.74-3.16 1.6-1.55 2.59zm-465.75 37.26c2.809-1.126 1.576-5.603 1.552-8.798-0.046-6.22 0.235-12.757 0-18.112-3.31 0.377-2.295-3.569-4.658-4.14 0.609-0.081 1.469 0.088 1.552-0.519-0.903-11.625-1.24-25.407 1.035-36.741 0.684 0.006 0.474 0.907 1.035 1.035-0.308-1.073 0.64-3.401-0.517-3.623-0.081 0.608 0.088 1.469-0.518 1.553 2.053-46.972 2.459-99.136 6.728-145.94-1.239-0.313-2.361-0.744-4.14-0.517-0.388 1.768 2.103 0.657 1.553 2.587-1.422 11.755-2.218 22.24-5.693 30.533 1.689 0.26 1.097-2.574 2.587-1.035-2.023 10.314-1.605 23.731-4.14 32.085-1.33-5.974 2.035-14.28-0.518-19.148-1.646 12.431-0.649 24.074-4.658 35.19-0.34 1.893 1.12 1.985 1.035 3.623-0.318 0.717-1.992 0.077-2.07 1.035 2.785 0.319 0.247 3.812 1.035 6.727-0.712 0.023-1.136-0.243-1.552-0.518-0.695 13.323-3.597 20.905-4.14 34.674 0.467 1.412 1.158-1.575 2.07 0 0.062 0.859-0.283 4.686 0.518 3.104 1.016-6.465 0.188-12.485 2.588-18.113-0.021 11.613-0.94 23.651-3.105 36.227-1.235-0.678-0.795-7.915-1.552-5.692-0.829 4.69-0.521 10.519-2.587 13.972 0.145-1.18-0.125-1.945-1.035-2.069-1.003 11.632-4.153 23.604-2.588 34.672 0.313-1.066-0.835-3.595 1.036-3.104-1.449 5.947 0.6 14.885-2.07 19.665-0.676-2.193 1.578-4.1-0.518-4.658-0.666 7.936-0.812 16.457-1.035 25.875 5.418-4.918 12.403-10.254 21.217-8.797-0.402-11.553-1.196-21.596-0.517-28.98 0.199 2.907 0.797 5.413 0.517 8.798 2.663 0.497-1.496-4.25 1.553-4.141-0.239 8.18-0.325 14.13 0 23.3zm50.711-145.42c-11.405-21.024-19.646-45.213-27.945-69.345h-1.553c6.758 24.129 16.038 50.205 29.498 69.345zm607.55-65.719c4.727 1.923 13.676 2.065 19.665 1.035-4.42-5.652-12.11-1.46-19.67-1.035zm-645.32 175.43c8.041 0.3 15.014 9.956 20.7 2.07-0.927-1.781-4.287-0.328-5.692-2.588 1.3-0.943 3.229-1.257 2.588-4.141-1.217-1.616-3.978 1.003-4.141-1.034 0.852-0.874 2.808-0.643 3.623-1.552 0.049-2.81-1.115-4.404-2.587-5.693 0.578-0.802 1.682-1.078 1.552-2.588-0.124-1.429-1.924-1.181-2.588-2.07 0.459-1.265 2.89-0.56 2.588-2.587 0.212-1.246-0.945-1.125-0.518-2.587-0.922-0.31-2.149 1.518-2.587 0 1.473-1.975 3.013-1.569 2.07-5.175-1.372-0.009-3.047 0.287-3.105-1.035 0.967-0.414 1.896-0.865 3.105-1.035 0.171-1.896-0.575-2.875-1.035-4.14-1.405-0.321-4.107 0.656-4.658-0.519 0.882-1.533 3.558-1.271 5.175-2.069v-2.588c-0.314-0.893-2.455 0.04-2.588-1.034-0.304-2.203 2.794-1.001 2.07-3.623-0.055-2.016-3.25-0.89-3.623-2.588 0.788-0.937 3.548 0.099 3.104-2.069 0.617-2.17-2.181-0.924-2.587-2.07 2.446-0.951 1.819-1.854 2.07-4.657-0.438-1.115-3.299 0.194-3.623-1.035 0.612-0.596 1.83-0.586 3.105-0.518 0.114-1.667-0.915-2.189-0.518-4.14-1.573 0.021-3.406 0.3-3.105-1.553 1.846-0.742 4.284-0.891 6.21-1.553 0.472-2.197-0.845-2.605-2.07-3.104-0.717 0.317-0.078 1.992-1.035 2.069-1.16-1.427-1.172-4.003-3.105-4.657 0.7-0.163 0.988-0.736 2.07-0.519-0.313-1.238-0.745-2.36-0.518-4.139-0.314-0.895-2.455 0.039-2.588-1.035 3.414-0.827 2.037-6.046 0-7.245 2.199 0.475 2.21-1.24 2.07-3.105-0.698-1.027-3.613 0.163-3.623-1.552 0.662-0.719 2.443-0.317 3.105-1.036 0.745-3.678-1.247-4.617-2.587-6.209 2.063-0.353 1.734-3.096 2.07-5.176-0.341-1.556-2.981-0.813-3.105-2.587 0.979-1.308 1.814 0.478 3.105-0.518 0.504-2.575-2.092-2.048-2.587-3.623 1.354 0.146 2.226-0.189 2.07-1.552 0.153-1.361-2.008-0.408-1.552-2.07 1.57 0.19 1.074-1.686 1.552-2.588-0.68-1.39-2.281-1.858-3.105-3.104 1.295 0.087 1.62-0.795 2.07-1.553-1.62-14.08-1.902-32.593-3.623-49.163 2.875-2.94-1.172-7.418-0.518-9.832-4.554-0.001-0.138 7.797-3.623 7.762 0.423-1.861-0.998-7.6 1.035-6.21-0.068-1.656-1.173-2.277-3.105-2.07-0.564 9.101 0.867 25.489-0.518 33.638-2.552-8.263 0.01-17.193-2.07-25.358-2.185 10.576-1.093 21.164-2.07 31.567-3.412 36.355-3.086 72.111-2.069 107.12 0.341 11.764-2.629 24.062 0.517 35.708 6.071 0.22 7.314-3.97 8.836-5.69zm-4.658-169.74c0.182-1.741 1.176-3.773-0.518-4.658 0.011 2.189-0.984 3.325 0.518 4.658zm578.05 11.903c-8.562 17.74-19.812 33.892-28.462 50.715-2.667 5.187-4.543 10.713-9.315 14.49 0.087-1.587-2.632 0.595-1.035 0.518 0.029-0.315 0.077-0.612 0.519-0.518-0.728 6.005-9.02 11.678-9.833 17.596 3.169-3.213 7.307-5.457 8.798-10.351 3.104-1.552 4.883-4.431 5.692-8.28 15.71-23.447 28.784-49.531 39.847-77.625 1.182 1.853 4.184-0.121 4.658 1.553-0.915 2.454 0.008 3.032 1.035 4.658-1.296 2.904-0.195 13.086-2.588 15.007-0.349-2.559 1.718-4.41-0.519-6.21-1.559 14.582-4.651 29.407-6.209 41.4-3.327 25.612-4.97 43.881-8.798 66.758-3.76 22.466-4.278 46.535-8.798 68.827 7.873-1.614 14.615-4.36 17.596-10.868 7.072-2.471 10.011 5.526 19.665 3.623 0.421-26.783-0.794-54.59 0-75.556-2.605-35.664-0.716-66.754-1.553-98.325-0.083-3.147 1.686-7.086-1.035-8.797-0.21 20.565-1.211 49.852-4.14 69.345 3.482 13.628 1.196 35.78 0.517 50.716-0.153 1.36 2.008 0.407 1.553 2.07 0.189 18.919-2.008 35.958-1.553 54.337 0.024 0.961 2.413 3.807 0 4.657-2.087-7.561-0.96-21.138-1.034-31.567-5.141 9.555 0.502 18.79-2.07 28.98-3.814-0.892-2.382-6.575-2.069-9.833 1.208-12.632 0.756-29.458 2.069-41.4 0.378 1.176-0.932 4.038 1.035 3.623 0.43-3.555-0.282-4.3-1.553-5.175-0.137-4.544-0.916-7.183 0.518-11.902 1.6 2.512 0.873 6.554 0.518 9.832 2.938-2.217 1.33-8.677 1.553-13.454 0.153-3.303 1.833-7.166-0.518-8.799-0.34 4.318 0.28 9.596-2.07 11.903 1.463-6.867-1.478-14.942 1.035-20.7 1.391 1.211 0.167 7.75 2.07 6.728-0.896-6.18 0.603-18.895-0.518-27.428-3.642 4.454 0.303 13.636-1.553 20.183-2.891-2.31 0.948-7.193-1.035-10.867-2.717 22.878-1.886 43.155-2.07 62.618-0.091 9.748-0.386 20.063-2.587 29.496 1.899-19.502-0.108-43.102 1.034-65.722 0.689-13.622 2.588-25.871 2.588-38.296 0-4.722-1.8-9.83 0-13.972 1.533 0.217 0.512 5.664 1.553 4.657-0.394-2.809 0.639-4.191 0.518-6.727 0.206-1.24-2.356 0.287-1.552-1.553 0.676-5.563 0.66-11.058 1.034-16.56 0.701-10.291-0.264-27.096 4.14-34.673-3.972-1.375-7.604-3.091-10.867-5.175-2.74 5.1-3.72 10.898-6.2 16.044zm2.07 4.658c1.165-4.187 5.144-8.305 4.657-12.42-1.91 3.141-4.99 10.47-4.66 12.42zm14.49-1.035c-0.658-2.176 1.351-4.327-0.519-4.658-0.01 2.206-0.76 3.097 0.52 4.658zm-1.04 6.209c1.72 0.637 1.266-3.499 0.517-3.623 0.42 1.796-0.77 1.99-0.52 3.623zm-27.42 22.252c4.618-5.561 8.507-14.606 10.35-21.217-4.07 6.457-7.59 13.457-10.35 21.217zm46.05 165.6c-2.01-2.238-0.671 0.724-2.588 1.035-0.66-4.712-0.17-14.056-2.588-18.63-0.31 5.194 1.727 12.2 0 15.525-0.262-7.552-1.898-21.638 0.519-27.946-1.435-20.479-2.515-34.334-1.553-51.75 0.513 0.99 0.9 1.97 1.034 3.106 1.838 15.536-0.955 36.501 3.623 48.127-3.009-52.926-3.244-106.36-8.28-152.66-2.04 68.532 3.139 123.06 2.588 186.82-1.583-3.494 0.853-8.287-2.069-9.833 0.481 3.621 0.683 10.633-2.588 11.386 2.071 3.834 5.945 0.954 8.798 0.517 7.21-1.106 10.484 1.637 15.007 5.693 0.398-1.951-0.631-2.474-0.517-4.141-2.245 0.806-1.843-3.126-4.657-1.553 0.465-1.515 0.465-1.59 0-3.104-2.226-1.61-5.676 0.528-6.211-2.069 0.682-1.682 4.119 1.48 4.658-2.071-2.24-3.18-3.62-0.06-5.17 1.52zm-18.11-166.12c-0.576-3.533 1.074-8.5-0.517-9.833 0.08 3.59-1.24 7.58 0.52 9.83zm-36.74 16.56c-7.46 16.16-20.945 27.188-27.945 43.47 3.039-1.178 5.804-3.774 7.764-6.21 12.063-14.995 22.424-33.271 28.462-52.268-3.53 4.8-5.94 9.94-8.28 15.01zm-32.6 13.98c1.5-0.742 2.565-1.919 3.105-3.622-2.01 0.22-2.12 2.36-3.1 3.62zm-15.01 18.63c4.312-3.106 9.097-8.494 10.35-12.938-3.7 4.06-6.76 8.76-10.35 12.94zm-491.63 0.51c0.214-2.111-0.53-3.266-2.587-3.105-0.21 2.11 1.9 1.9 2.59 3.1zm-1.55 6.21c1.247 0.213 1.125-0.944 2.588-0.517v-1.034c-0.52 0-0.616-0.42-1.036-0.519-0.21 1-2 0.41-1.55 2.07zm509.22 4.66c1.55-0.201 2.987-3.188 2.07-4.14-0.24 1.83-2.32 1.82-2.07 4.14zm87.46 1.55c0.278-1.83-0.438-2.666-1.553-3.104 0.4 1.15 0.3 2.8 1.55 3.1zm-527.34 1.04c-0.318-1.405-1.026-2.423-2.069-3.104-1.12 1.26 1.38 2.06 2.07 3.1zm416.07 37.78c14.456-5.212 19.093-22.998 24.323-35.708-6.67 13.33-15.04 24.97-24.32 35.71zm-368.46-26.91c-2.032-3.144-4.529-5.821-7.763-7.762 1.94 3.23 4.23 6.12 7.76 7.76zm-154.73 10.86c0.282-3.035 1.523-6.819 0-8.798 0.695 3.3-1.556 6.37 0 8.8zm497.32-3.62c1.546-0.869 2.754-2.076 3.623-3.622-2.03 0.39-2.78 2.05-3.62 3.62zm-372.6 11.39c-0.888-1.543-2.237-5.333-3.623-4.658 1.41 1.35 1.74 3.78 3.62 4.66zm509.74 5.69c0.729-2.145-1.747-3.726-2.588-2.588 1.04 0.69 0.07 3.38 2.59 2.59zm-448.67-1.04c-0.891 0.204-1.327-0.769-1.553 0 3.63 2.5 5.86 3.91 1.55 0zm-39.85 20.19c-5.906-6.687-10.912-14.273-17.595-20.182 5.012 8.961 10.776 17.169 18.112 23.805-0.808-1.779-2.052-3.123-3.104-4.657 0.94-0.02 1.74 2.65 2.58 1.04zm109.19-16.05c2.426 0.012 5.103 0.271 5.175-2.069-2.34 0.09-5.02-0.18-5.18 2.07zm-18.63 55.89c5.638-2.47 10.503-5.711 17.077-7.245-1.573-0.325-4.458 0.662-5.175-0.518 1.458-1.461 6.687 1.204 8.28-1.035-4.541-0.682-8.223 0.345-11.902-0.518 1.509-1.264 6.143-2.119 6.728-2.588-1.289-0.263-3.122 0.017-3.105-1.552 0.549-1.866 4.502-0.328 4.657-2.588 0.406-2.303-2.776-1.02-2.587-3.105 1.95-0.397 2.473 0.632 4.14 0.518-0.091-3.599-4.356-10.099 0.518-12.42-1.191 2.537 2.67 6.885 4.14 6.728-1.357-0.713-2.24-1.899-2.07-4.141 0.553-0.999 0.359-2.745 2.587-2.069 0.369-1.291-2.278-2.126-0.518-3.104 1.129 1.631 1.408 4.112 3.105 5.174 0.037-1.515 0.187-2.916 2.07-2.587 0.811 1.432 1.607 2.878 2.07 4.658 2.362-0.292 3.223 0.916 5.692 0.517 1.806-8.081 0.116-22.295-2.587-27.427-3.406-0.044-3.899-3.001-6.728-3.622-0.744 3.935-6.886 3.376-10.867 2.587-7.37 3.325-7.941 13.448-15.525 16.56-0.176 2.83-0.514 2.82 1.035 4.141-2.755 5.732 6.963 7.838 8.797 12.419-0.403 0.115-0.602 0.434-0.517 1.035-6.453-0.604-13.028 2.263-16.56 6.21 2.193 3.387 4.773 12.061-1.035 13.456 0.338 4.133-0.458 7.132-0.518 10.867 4.788 2.112 10.91 2.891 9.315 11.385 13.215 1.972 17.972-5.695 20.7-15.524-0.58-0.109-0.805-0.574-1.035-1.035-4-0.379-4.375 2.87-7.762 3.105 1.251-2.372 4.122-3.124 5.692-5.176-4.104-1.419-6.086 3.503-9.833 4.14 1.304-4.388 7.317-4.068 9.315-7.762-5.852 0.188-9.481 5.35-13.455 5.692 1.999-3.349 6.943-3.753 9.315-6.728-6.844 0.685-10.465 7.939-15.525 7.245 2.325-3.372 9.536-4.604 10.35-7.763-2.31 0.75-6.6 4.1-8.3 2.08zm398.48-54.33v-2.069h-2.588c0.06 1.48 0.65 2.45 2.59 2.07zm-337.41 2.58c-0.473-2.114-1.586-3.588-3.623-4.14 0.18 2.41 1.76 3.41 3.62 4.14zm-16.56 7.77c1.704 3.765-3.514 7.731-4.658 11.902-2.015-2.724 2.762-5.371 1.036-7.763-1.749 2.018-4.394 7.952-1.036 10.351-0.207 1.347-1.544 1.561-1.552 3.105 3.489 0.823 7.016 1.608 6.21 6.728 5.846-0.844 8.353 1.65 9.315 5.691 8.653-1.091 25.006-1.303 19.665-11.384-0.83 0.896-1.934 1.516-3.105 2.069-5.491-0.145-6.439 4.256-10.868 5.176 0.003-0.521-0.418-0.616-0.517-1.036 2.253-4.129 8.738-4.026 12.42-6.728-7.507-0.745-10.68 5.49-15.525 5.692 3.707-3.71 8.687-6.148 14.49-7.762 2.276 1.559 2.957 2.189 6.728 1.553-1.123-3.028-2.377-2.606-4.658-2.588 0.286-3.218-3.681-2.184-3.105-5.692 1.197 0.003 2.765 4.009 3.105 1.552-1.474-5.413-1.922-12.141-6.727-12.419-5.815-0.337-12.505 10.93-17.595 10.867 3.64-4.641 8.289-8.272 13.972-10.867-0.925-4.078-4.971-5.035-7.245-7.763-2.99 3.55-6.67 6.42-10.34 9.31zm352.41-4.14c2.286-0.174 2.69-4.439 0-4.141-0.76 0.75-0.76 3.38 0 4.14zm-248.91 47.61c-0.617-1.116-2.475-2.55-1.552-3.623 0.915 0.465 1.51 1.249 2.586 1.553-0.356-2.23-1.995-3.178-2.586-5.175 1.574-2.078-0.355-3.678-0.519-6.211 1.291-0.367 2.127 2.279 3.104 0.519-3.895-3.522-3.525-11.309-8.796-13.456 5.067 0.808 5.678 3.69 11.384 3.105-0.203 2.474 2.834 2.271 0.519 4.141 0.313 0.894 2.454-0.04 2.588 1.034-1.061 0.838-3.392 0.405-4.141 1.553 1.604-0.052 2.871 0.235 3.622 1.035 0.184 1.79 0.606 2.754-0.518 4.14-1.064-0.142-0.486-1.928-1.552-2.07-1.096 2.328 1.164 5.248 1.552 7.764 3.768-0.545 0.524-8.103 4.141-8.798-0.004-7.587-6.859-8.321-6.728-16.043-0.773-0.605-2.117-0.643-2.588-1.552 4.461-18.9-28.177-23.888-38.812-12.938 2.572 0.632 4.741-1.55 5.692 0.517 0.995-2.087 2.431-1.22 3.623 0 0.401-1.151 0.299-2.806 1.553-3.104 0.638 1.572 1.779-0.561 3.105 0 1.164 0.517-1.119 2.821 0.517 3.622 0.397-1.672 1.433-2.707 3.105-3.105v2.588c2.04 1.215 1.582-0.975 3.622-1.035 0.434 0.602 0.683 1.388 0.518 2.588 1.463 0.429 1.341-0.729 2.588-0.518 0.198 2.733 2.167 3.698 4.14 4.657-1.01 1.161-0.278 3.72 1.552 3.622 2.828-0.621 1.383-5.518 2.588-7.762 2.378 1.003 1.385 6.818 4.141 8.798-1.944 1.477-0.611 5.436-2.071 6.209-1.972-0.097-3.404-0.733-3.622-2.587-5.058 0.746-7.255-1.368-10.867-2.07 0.428 1.463-0.729 1.341-0.517 2.588 1.666 1.731 3.723-0.05 5.175 1.553-4.306 0.179-9.897-0.927-11.386 2.069 1.655 0.07 3.961-0.51 3.623 1.554-6.438 1.408-11.125 7.799-11.386 13.454-0.064 1.397 1.167 2.176 1.553 4.141 0.319 1.629-0.291 4.177 0 5.175 1.894 6.505 9.176 7.374 13.973 10.868-1.354 0.604-2.226-1.598-2.069 0.517 2.767 2.752 6.182 4.857 11.385 5.176 0.668-2.567-1.253-2.543-1.035-4.657 1.49 0.062 0.898 2.206 2.587 2.069 1.087-0.638 2.019-1.433 3.105-2.069-0.26-2.156-1.811-3.021-2.07-5.176 2.416-1.495 1.159-3.637 2.587-5.692 1.55-0.6 1.95 2.47 2.62 1.03zm253.57-47.61c0.077-1.283 0.096-2.512-1.034-2.588-0.82 0.77-0.76 2.95 1.03 2.59zm-361.21 6.21c2.898-1.308 6.583-7.13 6.209-8.28-2.83 2.01-5.45 4.21-6.21 8.28zm42.95-5.7c-1.75-0.146-2.184-1.61-3.622-2.069-0.06 1.64 2.87 2.96 3.62 2.07zm-83.32 5.7c2.862 0.636 5.317-4.129 3.105-5.176-1.04 1.73-2.72 2.81-3.11 5.18zm396.92-0.52c3.08 0.245 1.426-1.551 1.553-3.623-3.07-0.25-1.42 1.55-1.55 3.62zm-300.67-2.59c-11.767-0.979-12.908 13.746-18.113 20.7-0.158 2.573 0.082 4.748 0.518 6.728-0.738-0.202-0.873-0.621-1.552 0 2.848 4.741 6.329 8.852 11.903 10.868-1.385 1.202-3.086 2.09-5.176 2.587-3.042 9.316-2.473 23.818 8.798 21.218-0.535-2.854-6.367-2.797-4.658-6.21-0.804-0.748-2.415-0.69-3.105-1.552 0.031-3.247 1.101-5.454 2.588-7.245-0.769-0.611-2.312-0.448-2.071-2.07 1.726-0.985 4.615-1.964 4.14-3.623 2.6-0.506 4.152-2.058 4.657-4.658-3.058-0.322-9.001 0.801-9.832-3.104 0.901 0.039 1.609-0.115 2.069-0.518-0.205-2.209-2.29-2.539-2.587-4.657 1.001-1.025 2.007-4.544 1.035-7.245 1.028-0.861 0.657 0.048 2.07 0-0.401-3.464 4.223-4.224 2.587-7.245 2.575 0.331 1.151-3.333 4.141-2.587-0.275-1.13-1.252-3.348 0.517-3.623 1.029 0.007 0.658 1.412 2.07 1.035 0.527-1.518 1.041-2.244 2.588-1.553-0.157-1.207-1.104-2.229 0.518-2.588 2.015 0.918 2.031 3.834 4.657 4.141 0.521-1.032 2.288-0.816 2.07-2.588-2.31-3.34-5.66-5.86-9.85-6.21zm-15 3.62c-0.306 3.29 4.333 0.038 1.552-0.517-0.09 0.61-0.82 0.57-1.55 0.52zm38.81-0.51c-6.707 1.756-14.642 3.248-15.525 9.832-0.539 4.018 3.885 11.176-3.105 12.421 1.33-2.388 3.061-6.815 2.07-9.833-2.586 0.864-3.767 3.134-4.657 5.692 0.002 1.083 2.819 1.945 1.553 2.587-1.595 0.388-0.631-1.784-2.588-1.034-0.633 2.358 1.42 2.03 1.035 4.141-0.7-0.164-0.989-0.737-2.07-0.519 0.428 1.463-0.729 1.341-0.518 2.588 3.086 0.654 3.419-4.15 6.21-2.069-0.666 3.128-4.626 2.964-5.174 6.209 0.099 1.799 1.829 1.965 2.069 3.622-0.666 1.168-2.477 1.509-0.518 2.588-0.713 0.022-1.136-0.242-1.552-0.517 0.322 1.92 1.454 3.029 2.069 4.657 2.852 0.264 5.137-0.038 6.21-1.553 0.639-1.675-1.675-0.396-1.035-2.069 3.73-1.79 6.048-4.993 7.245-9.315 0.039 0.901-0.116 1.608-0.518 2.07 3.337 0.219 3.768-4.009 3.104-6.211-0.912-1.573-1.602 1.413-2.069 0 0.25-9.32-0.93-21.16 7.78-23.29zm-130.41 0.51c-1.667 1.885-3.499 6.022-2.587 8.799 1.631 0.528 4.275-0.251 6.727 0.517 0.29-0.745 0.808-1.262 1.553-1.552 0.25-4.74-2.16-6.81-5.69-7.77zm407.27 3.63h2.588c0.245-1.626-0.646-2.114-1.553-2.588-0.59 0.62-1.48 0.94-1.04 2.59zm-320.85-0.52c1.113 1.124 8.497 0.672 5.175-1.036-1.18 1.56-4.33 0.35-5.18 1.04zm40.88-0.52c-1.807 3.368-3.114 7.235-2.588 12.938 2.981-0.296 2.922-3.633 5.176-4.657 1.357 0.085 7.856-1.453 5.692-3.104 4.65-1.589 8.432 0.892 11.902 2.069-2.43-6.69-10.45-9.44-20.18-7.25zm-143.34 6.21c-1.647-1.812-4.998-4.651-7.245-4.141 2.29 1.5 4.04 3.54 7.24 4.14zm-61.07 0c-0.182-1.716-1.55-2.246-2.588-3.106 0.19 1.72 1.55 2.25 2.59 3.11zm293.43-1.55c-3.891 0.542-6.594 6.199-10.351 3.623 2.133-1.155 6.58-2.722 6.21-4.657-2.421 1.891-5.95 2.675-7.762 5.175 3.57 6.07 8.74-1.92 11.9-4.13zm191.47 3.1c1.581 0.374 1.887-0.528 3.105-0.518 0.053-1.604-0.634-2.472-1.035-3.622h-2.07c-1.22 1.22 0.09 2.55 0 4.14zm-480.76-0.51c-0.09-1.807-1.191-2.604-2.588-3.104 0.29 1.61 1.24 2.55 2.59 3.1zm253.06 0c-5.15 5.032-1.021 15.707 4.141 16.043 0.071-4.17-2.706-8.285-3.623-10.867 3.317-1.229 3.533 3.341 5.692 1.552-0.627 0.159-1.784-1.495-0.518-1.552 2.215 2.442 2.207 7.108 4.657 9.314 0.39-7.83 0.5-18.35-10.35-14.48zm-178.02 4.65c0.336-1.888-0.349-2.756-1.035-3.622-2.265 0.15-3.925 0.905-3.622 3.622 4.534 2.045 10.261 9.079 14.49 2.588-2.425-1.887-3.741-4.884-6.21-6.728-2.15 0.45-1.23 3.95-3.63 4.14zm-66.76 4.14c-1.583-2.907-5.042-6.68-7.245-7.245 2.54 2.31 4.2 5.48 7.25 7.25zm475.07-2.07c1.026-1.019 0.329-2.956 0-4.14-3.62-0.92-3.32 4.94 0 4.14zm-217.35 7.25c2.199-2.114 2.989-5.636 5.693-7.245 1.196 1.456-1.8 2.033-1.036 4.657 1.518 0.596 1.922-2.481 2.588-1.035-0.021 0.713 0.244 1.137 0.518 1.554-0.473 0.906-0.962 1.797-2.588 1.553 0.796 3.817-3.022 3.066-1.553 6.209 4.968-1.071 7.55-4.524 11.903-6.209-0.073-5.103-3.679-6.673-5.175-10.352-5.98 0.77-11.15 5.07-10.35 10.88zm-399-4.14c0.763 9.544-0.764 16.445 1.035 25.875 4.669-0.743 5.864-3.923 10.868-2.588-1.091-7.929 0.207-18.053-1.035-26.909-4.108-1.25-6.639 3.31-10.868 3.63zm246.33-1.55c0.619 3.521 0.748 7.532 3.623 8.798 0.4-2.47-0.809-3.331-0.517-5.693 1.604 1.108 1.36 1.728 3.104 0.519 0.375 1.177 0.461 2.644 1.036 3.622 4.485 0.45 3.772-5.456 2.069-7.245-3.57 0.67-6.75-1.32-9.31 0zm-210.1 22.25c1.421-10.685-4.526-26.794-15.008-19.664 0.315 1.237-0.649 3.754 0.518 4.14 0.313-1.066-0.835-3.595 1.035-3.104 3.259 5.459-0.99 18.387 1.553 24.84-0.354 1.025-3.083-0.323-2.587 1.553 0.892 2.558 6.009 0.891 8.28 2.069 1.18-3.62 5.52-4.57 6.22-9.84zm578.57-17.6h2.07c1.27-1.775 0.332-4.922-2.588-4.14 0.06 1.49-0.28 3.39 0.52 4.14zm-595.65 6.21c-0.595-2.511 1.25-7.46-1.035-8.28 1.01 3.21-0.86 6.61 1.04 8.28zm216.32-0.51c0.624 1.792 2.706 2.126 4.14 3.105 0.547 3.825-2.768 3.787-4.14 5.692-0.231 5.341 3.41 11.383 8.28 8.28 0.723-1.487-1.41-2.629 0-3.104 4.77 1.535 2.743 12.675 10.868 7.762 1.28-5.419-3.208-5.07-2.588-9.833 3.719 0.781 2.231-1.294 3.623-2.069 1.618 2.522 4.646 3.635 7.245 5.176-1.333 1.734-3.738-1.434-4.657 0 0.35 0.897 3.948 1.172 2.587 2.069-2.06 0.334-2.08-1.369-4.14-1.035 0.661 2.445 2.831 3.38 6.209 3.105 4.18-2.53 1.979-10.066-3.104-8.28 0.461 0.303 2.952 1.088 1.553 1.553-1.706-0.191-2.586-1.209-3.623-2.07 1.273-1.265-0.383-2.244 0-4.14 6.829 1.222 11.676-4.544 7.245-9.833-13.045-2.787-7.171 19.453-15.008 8.279-1.46 2.244 1.053 4.276 2.07 5.693-1.371 0.699-1.412 2.728-3.623 2.588-3.129-2.016-5.129-5.637-3.623-10.867-2.005-1.734-3.839-0.488-5.175-2.588 1.926-1.42 3.521 1.069 5.692 1.035 0.76-8.28-10.5-9.46-9.83-0.51zm-236.5 17.07c-0.922-7.125 1.384-16.87-1.552-22.771 0.652 9.14-1.274 17.39 1.552 22.77zm614.79 1.04c0.635-7.474-1.324-12.445-1.035-21.218-0.713 0.021-1.136-0.244-1.552-0.518 0.32 7.36-0.18 13.61 2.58 21.74zm0.52-18.11c1.247-0.211 1.124 0.946 2.588 0.519 1.243-1.193 0.789-1.669 0.518-3.623h-3.105c-0.01 1.03-0.01 2.06-0.01 3.1zm-27.95 1.03c0.226-1.15 1.189-2.806-0.518-3.104-0.3 2.32 0.4 8.59 0.52 3.1zm1.04 15.01c0.084-2.327 0.115-4.601-1.553-5.175-0.309 1.072 0.64 3.399-0.518 3.622-0.66-1.687 0.649-2.49-1.035-2.588 0.369 5.798-2.932 8.62-1.552 13.974 3.195-0.946 5.236-3.043 9.832-2.588-3.44-7.896 2.381-20.44-4.14-25.357-1.76 4.86 0.83 14.85-1.04 18.12zm-175.95-13.46c-0.316-0.028-0.613-0.077-0.519-0.517 0.14-1.613 3.854-2.321 2.588-3.623-1.201 1.386-3.374 1.801-4.14 3.623 0.69-0.07 1.92 1.75 2.07 0.52zm-15.53-2.07c-0.405 2.302 0.689 3.105 0.517 5.175-0.358 1.021-2.887-0.128-3.104 1.035 5.15 5.782 9.907-5.493 3.623-7.245-0.06 0.62-0.16 1.22-1.04 1.02zm13.98 27.95c12.223-7.27 20.422-18.562 31.05-27.429 0.113-0.65 0.807-1.058-0.517-1.035-10.73 8.94-21.71 17.63-30.53 28.47zm-97.3 25.36c1.743-1.479 5.381-3.876 7.245-1.034-4.947-0.291-8.624 0.69-8.28 5.691 4.355 0.476 7.97 1.69 11.902 2.588 2.726-2.651 3.754-9.992 0.519-12.937-4.702 0.389-6.166-2.46-10.868-2.07-1.232 1.528-1.816 3.704-4.14 4.14-0.124-0.738-0.853-0.873-1.035-1.552 0.785-2.666 2.198-4.703 3.622-6.729-2.405-0.517-1.305-4.935-2.587-7.762-5.364-0.371-11.032-0.652-15.525 1.035-2.448-3.339-0.179-10.788 0-12.938 3.847 0.09 2.166-5.229 3.105-6.729-1.021-8.342-10.185-13.902-17.078-12.938 2.891 1.25 6.1 2.18 7.762 4.657-2.58-0.72-5.271 0.347-7.762 0.519 2.051 1.253-1.646 0.796 0.518 3.104-3.646-0.039-8.329-0.938-11.385 1.034 2.166 0.768 5.881-0.016 6.21 2.588-1.965-0.623-4.073-1.102-6.21-1.552-0.431 2.278-1.822 4.755-0.518 7.244-1.375 0.006-2.955-0.194-3.622 0.519 1.905 4.132 5.571 6.503 9.832 8.279 0.313 1.066-0.835 3.595 1.035 3.105 2.115-0.619 6.09 3.933 9.833 2.587 0.204-2.446-3.364-1.12-3.623-3.104 0.298-0.91-0.625-3.041 0.518-3.104 0.318 0.151 1.992 1.286 2.07 0-0.65-0.213-1.058-0.668-1.035-1.553 0.751-0.284 2.674 0.604 2.587-0.518-1.314-0.051-1.314-2.021 0-2.07 2.108 0.308 3.833 0.997 5.175 2.07-0.075 1.822-1.941 1.853-3.105 2.587 1.104 0.622 2.819 0.632 3.105 2.07-0.597 1.472-3.409 0.731-3.623 2.588 2.222 1.963 2.389-1.443 4.659-1.035-1.228 1.877-3.112 3.098-4.141 5.175 2.259 0.361 2.301-1.494 4.141-1.553-2.133 5.453 1.27 9.268 4.14 11.385v-7.244c2.227 1.732 2.023-1.862 3.622-0.518 0.053 1.605-1.628 1.477-1.036 3.622 1 0.553 2.747 0.358 2.071 2.588 3.417 0.388 6.272 5.325 10.35 6.728 1.277-0.306 2.748-3.077 4.14-1.553-1.32 0.03-3.92 1.49-2.56 2.56zm-24.32-17.6c0.33-1.883-1.071-2.034-2.588-2.069v2.069c0.69 0.67 1.91 0.67 2.59 0zm125.24-31.05c1.848-0.567 3.056-1.775 3.622-3.623-1.58 0.84-3.62 1.21-3.62 3.62zm200.79 0.52h3.105c0.046-1.934 0.579-1.476 0-3.105h-3.105c-0.01 1.03-0.01 2.06-0.01 3.1zm-202.86 0.52c-0.218-1.854-1.651-2.49-3.623-2.588 0.12 1.95 2.12 2.02 3.62 2.59zm-85.91 2.58c2.125 1.843 2.045 5.891 5.174 6.728-0.215-4.585-0.387-8.42-1.552-10.868-0.92 1.67-3.4 1.77-3.62 4.14zm-51.23-2.06c0.268-1.85-4.641-1.185-5.174-0.518 2.26-0.37 2.91 0.88 5.17 0.52zm135.07 2.58c-1.187 3.413-3.092 4.042-5.176 5.693-1.464-0.778-2.204-2.28-4.14-2.588 1.839 4.888 6.5 6.955 13.455 6.728 6.179-6.511-0.573-13.303-9.315-13.455 0.64 2.3 3.97 1.9 5.18 3.62zm205.96 2.07c1.463 0.428 1.341-0.729 2.588-0.518-0.104-1.794-0.43-3.364-2.588-3.104-0.74 0.69-0.74 2.93 0 3.62zm-246.84 12.94c-0.314 0.894-2.455-0.04-2.588 1.035 2.802 1.291-1.396 1.661-1.035 3.622 6.396-3.781 10.222-10.134 12.938-17.595-2.668-0.264-3.149-2.715-5.692-3.105 0.695 4.967-1.053 8.115-2.07 13.455-0.928 1.173-3.176 0.656-3.622 1.035 0.67 0.52 1.91 0.49 2.06 1.55zm-349.32-10.35c0.356-1.188 0.337-3.34-0.517-4.658-0.58 1.42-0.32 3.32 0.52 4.66zm557.35 12.94c-1.121 0.087-0.234-1.837-0.518-2.588-1.941-0.39-1.128 1.977-2.587 2.07-0.286-0.922-0.266-2.149-1.035-2.588-0.8 0.752-0.456 2.649-0.518 4.141 3.338 0.697 7.439 1.788 9.833-0.519-1.017-3.563 1.12-11.822-1.553-17.077-0.859 4.66 1.826 12.866-1.553 15.008-0.251-3.851 0.135-10.605-1.035-15.008-1.02 4.99 0.58 11.11-1.03 16.57zm-259.78-9.84c-1.346-0.31-1.863 0.207-1.553 1.553 2.945 1.843 2.58 4.56 6.21 6.21-0.165 1.215-1.602 1.157-2.069 2.07 3.037 0.067 5.561 0.647 7.244 2.069-0.325 1.056-2.615 0.146-2.069 2.07 1.913 1.05 3.081-0.353 5.692 0 3.241 5.067 9.841 0.253 12.42 2.07 0.665-0.888 1.069-2.035 2.588-2.07 0.664 0.887 1.069 2.035 2.587 2.07 2.426-0.852 4.633-1.922 5.692-4.141-10.598-2.856-14.06-12.85-28.463-11.902 2.795 4.622 11.406 3.429 15.525 6.728-11.848 1.944-20.515-6.664-27.945-12.42-0.71 3.97 2.19 4.35 4.13 5.69zm298.08-1.03c0.985 0.222 1.301 1.114 2.588 1.035 0.738-0.69 0.738-2.932 0-3.622h-2.071c0.42 1.46-0.73 1.34-0.52 2.59zm-412.97 1.03c0.616-1.538-2.182-2.223-2.588-1.035 0.99 0.23 0.94 1.49 2.59 1.04zm-14.49 0c-0.518 2.181-2.172 6.578 0 8.28 0.164-1.733 0.533-3.263 1.553-4.14 1.399 1.877 3.742 2.812 5.175 4.657 3.77-5.41-1.01-11.77-6.73-8.8zm385.54 6.21c-0.173-1.973 1.74-5.342-0.518-6.21 0.33 1.92-0.67 5.16 0.52 6.21zm-564.08-4.14c-1.603 8.208 0.843 18.911-1.035 28.98-1.746-7.743-0.867-18.109-1.553-26.91-1.209 0.17-2.138 0.621-3.105 1.035 2.009 5.447 0.634 15.35 2.588 18.112-2.019 1.165-0.95 6.193 0 6.21-0.11 0.625-0.574 0.317-1.035 0 2.65 2.208-0.41 3.515 0.518 6.21 3.09 0.912 7.139 3.265 10.35 1.034-0.826-11.428-0.639-23.056-1.035-33.119-2.798 0.39-2.454-2.37-5.693-1.55zm192.51 1.04c0.152 2.413-2.829 4.394-2.07 5.693-0.37-0.84 2.441-0.84 2.07 0-0.962 0.936-1.182 2.612-1.552 4.14 2.417 2.975 6.819 0.81 9.832 0 1.135 0.936 1.979 2.161 3.623 2.588 0.971-6.663-6.565-4.82-8.797-8.28 0.644-0.182-0.426-2.983 0-4.657-1.27-0.07-2.49-0.08-3.1 0.52zm363.81 0.52c0.364 3.258 1.689 5.555 4.657 6.21 0.511-3.099-1.774-3.4-1.552-6.21-1.82 1.17-1.71-1.09-3.11 0zm-313.61 25.87c0.32 1.923 1.233 3.251 1.552 5.175 3.757-0.212 5.517-2.419 7.245-4.657-1.98-1.298-1.346-5.209-3.623-6.21-0.157 3.059 2.643 5.439 2.07 7.245-5.225-4.608-5.132-14.533-7.245-22.253-2.601-1.54-5.868-2.412-7.245-5.175-1.239 0.312-2.361 0.743-4.14 0.518-4.23 5.575-14.537 25.063-2.588 27.944-2.036-8.235 0.312-22.773 6.728-27.428-1.74 9.007-8.077 17.585-4.658 28.463 2.176-0.658 4.327 1.35 4.658-0.517-1.3-4.116-5.162-13.299 1.035-13.456-3.029 2.556-1.003 9.672 0.518 12.421-0.193-2.875-0.739-4.945 0.517-7.245 1.139 0.586 0.036 3.414 1.553 3.623 0.52-0.689 0.489-1.927 1.553-2.071 1.215 0.165 1.158 1.602 2.07 2.071 1.304-0.976-1.087-2.69 1.035-3.106 0.4 3.051 1.866 5.034 2.07 8.28-2.15-0.08-1.86-2.61-3.11-3.61zm370.53-23.8v-2.069c-0.774 0.087-1.91-0.185-2.069 0.518 1.97-0.77 0.1 2.31 2.07 1.55zm-605.48 3.62c1.013-1.166 0.434-3.875-0.518-4.658-1.007 1.17-0.427 3.88 0.52 4.66zm240.13-0.52c0.251-0.611 0.552-1.174 1.035-1.553 0.114 0.403 0.434 0.602 1.035 0.518 0.145-1.18-0.125-1.945-1.035-2.07-0.3 0.79-2.88 1.89-1.04 3.1zm3.1-2.59c0.16 2.54 1.655 4.06 0 5.692 0.746 1.146 1.263-0.651 1.553 0.519-0.985 1.49-0.272 4.86 1.552 5.174 1.473-1.583-1.654-4.984 1.553-5.174 0.019 3.331 3.39 10.536 5.693 5.174-5.21-1.7-3.04-13.45-10.34-11.38zm-276.86 18.12c0.017-4.818-0.094-8.713-1.552-10.868-1.835 2.65 1.431 10.402-2.07 11.385 0.115-3.22 0.44-6.649-2.07-7.245-1.075 1.858-0.269 5.598-0.518 8.28 4.554 4.913 12.94 7.387 20.7 6.21 0.021-6.87-0.101-18.525-0.518-24.84-0.838-0.777-3.818-0.777-4.658 0 0.47 8.479 1.301 15.016 0 21.218-2.115-4.958-0.364-13.781-2.07-19.147-0.962 4.558-1.451 9.588-2.07 14.49-2.434-4.189 1.438-12.873-1.552-17.596-4.822 0.63 0.501 14.13-3.622 18.12zm612.72-17.6c0.177 1.894 1.771 2.369 3.104 3.105-0.005-1.375 0.196-2.956-0.517-3.623-1.46-0.43-1.33 0.72-2.58 0.51zm-335.34 11.9c-1.118-2.34-1.683-7.965-3.623-7.762 1.52 2.28 1.58 6.01 3.62 7.76zm326.02-6.21c1.161 13.494-0.393 20.363 0.518 31.566 1.425 0.012 6.964 1.145 6.21-2.588-2.349-0.967-0.704 2.057-2.588 1.553-0.857-11.722 0.418-22.112-0.517-32.603-2.07-0.17-2.5 1.29-3.62 2.07zm-603.92-0.51c-0.712 0.022-1.136-0.244-1.553-0.517-0.242 1.622 1.301 1.458 2.07 2.069-0.283-0.753 0.604-2.675-0.518-2.587 0.001 0.35 0.001 0.69 0.001 1.04zm200.79 1.55c1.784 1.601 8.504-0.666 5.693-2.069-1.17 2.56-4.66-0.34-5.69 2.07zm88.49-1.04c-1.288 0.079-1.602-0.813-2.587-1.035-0.28 1.9 2.49 3.97 2.59 1.04zm-76.07 2.59c-1.142 0.927-1.264 2.877-2.07 4.14-1.207-0.173-2.229-0.53-2.588-1.553-0.484-1.733 1.858-3.262 0.518-4.14-2.036 0.724-2.375 3.145-2.07 6.211 1.506 1.426 3.44 2.424 6.21 2.587 1.529-1.404 3.471-2.395 4.14-4.658-1.311-2.483-2.313-5.276-5.693-5.692-0.28 1.83 1.83 1.27 1.55 3.1zm165.6 0.52c-0.818 1.597-1.282 3.547-2.07 5.175-1.562-0.335-1.444-2.351-2.587-3.105-0.345 2.416-1.808 3.713-3.622 4.658-0.142-0.861-0.447-5.651-2.588-4.14 0.639 1.619 1.762 3.064 1.035 4.657-3.354-0.767-2.857 2.317-6.21 1.553 0.221-0.987 1.478-0.938 1.034-2.588-0.665-0.888-1.069-2.035-2.587-2.069 0.145 1.751 0.823 2.971 0.518 5.174-1.757 0.141-4.196-0.4-5.176 0.519-1.201-0.87 0.497-4.638-2.069-4.141 0.445 2.343-0.572 3.224-2.07 3.622-1.273-0.771-1.159-2.127-3.105-1.034-0.173-1.208-0.53-2.23-1.552-2.588-0.071 0.963-0.341 1.729-1.035 2.07-1.618-1.661-4.043-2.513-7.245-2.588-1.021-0.359 0.128-2.888-1.035-3.105-0.479 0.901 0.018 2.778-1.552 2.588-1.483-0.07 0.446-3.553-1.035-3.622 0.355 1.392-1.07 1-1.553 1.553-0.749-0.805-0.69-2.415-1.553-3.105 0.111 3.166-2.132 0.9-3.623 2.07 1.583 11.699 15.969 10.597 23.288 16.56-1.888 0.872-5.234 0.284-5.692 2.588 2.218 0.972 6.419-2.612 8.28 0.517-2.798 0.136-6.509-0.644-7.245 1.553 8.177-2.783 11.704 3.767 16.561 7.245-1.199-3.349 0.712-6.588-3.623-8.279 1.698-2.239-2.633-2.87-3.623-4.141 1.234-1.181 3.164-1.666 5.176-2.069 0.672-1.286-1.519-2.148 0-2.588 1.074 0.133 0.141 2.273 1.035 2.588 1.699-0.542 4.236-0.248 5.692-1.035 0.681-1.604-1.535-2.871 0-3.623 0.595 0.612 0.585 1.829 0.518 3.105 3.334 0.747 3.001-2.174 4.139-3.623 0.05 0.813-0.068 1.794 1.035 1.553 2.669-3.542 7.062-5.358 6.21-12.42-1.685-0.405-2.655-4.217-4.657-2.587 1.43 0.42 2.33 1.42 2.56 3.09zm45.02-1.04c-0.228-1.497-1.091-2.358-2.588-2.588 0.24 1.5 1.1 2.37 2.59 2.59zm-230.8 7.25c2.958 3.569 10.114 2.34 12.938-1.035-2.082-1.532-7.138-0.482-8.798-3.622 0.834-1.065 2.796-1 2.588-3.105-3.73-0.88-7.5 2.44-6.73 7.76zm238.05-5.18c1.336-0.414 4.387-1.789 3.105-3.105-0.66 1.4-2.65 1.49-3.1 3.1zm181.64 27.95c6.222 0.356 7.131-4.599 12.421-5.175-1.021-9.171-0.524-13.781-0.518-22.77-2.77-1.01-5.722-0.975-8.28-0.518-0.06 10.369-0.092 16.488-0.517 24.321-3.389-8.395 1.499-19.035-2.588-26.392-0.64 10.28-0.13 21.22-0.51 30.53zm-621.52-23.29c0.721 0.659 0.225 2.535 1.552 2.588 0.887-1.966 0.908-6.961-0.518-8.28 0.214 2.45 0.006 4.49-1.034 5.69zm610.65 9.32c0.867 1.491 0.412-2.644 0.518-3.622 0.976-2.646 0.337-6.907 0.518-10.35-0.109-0.581-0.574-0.806-1.035-1.035-0.01 4.99-0.01 9.99-0.01 15zm-312.05-12.94c-0.758-2.611-0.139 1.557 0.518 2.071 2.97-2.29 9.769 5.65 13.973 0.517-5.39-0.31-9.22-2.17-14.49-2.59zm345.69 21.22c7.376-2.366 9.271-17.785 2.071-19.666 1.001 4.689-0.151 12.98-1.553 16.561-2.87-5.318 1.113-14.735-2.07-19.147 0.5 7.94-1.13 17.8 1.55 22.26zm-403.13-8.28c-2.825 1.833-8.589 0.726-9.833 4.141 0.437 1.115 3.298-0.194 3.623 1.035-3.662 1.489-8.594 3.967-7.245 8.797 1.934 0.483 2.963-2.193 3.623 0-1.448 0.967-3.376 1.454-5.175 2.069-0.413 2.587 1.81 2.534 0.517 4.658 6.013 2.27 16.775 1.915 18.63-4.14 2.191 7.683-7.981 5.365-11.385 8.28 5.403-0.397 12.336-1.215 15.525-4.141-1.18-0.71-1.946 1.334-2.07 0-0.072-3.005 3.807-2.058 4.658-4.14 0.452-3.408 1.314-5.545 0.517-8.279-5.072 1.482-5.741 7.368-11.902 7.761-0.507-3.095 2.667-2.508 4.14-3.622 5.168-4.664 8.934-10.73 10.35-19.146-4.017 1.642-9.575 0.714-12.42 0 1-1.091 5.544-1.329 5.175-2.07-4.016-0.638-6.786-0.352-8.797 2.07-0.454 1.66 1.342 1.072 1.552 2.069-0.978-0.116-1.142 0.584-2.07 0.518 0.701-5.433-9.273-13.027-9.833-4.657 0.66 0.721 2.536 0.225 2.588 1.553-1.651 0.306-1.601-0.972-2.588 0-0.376 1.411 1.029 1.041 1.036 2.07-0.774 0.087-1.911-0.186-2.07 0.517 2.823 5.226 8.833 3.254 13.455 2.588h-1.553c-0.46 1.65 1.7 0.7 1.55 2.06zm157.32-7.25c0.011-2.345 1.076-3.277 0-5.175-0.29 1.12-1.24 4.23 0 5.17zm-110.23 0.52c-0.178-1.202-0.335-2.426-2.07-2.07-0.24 1.62 0.45 2.31 2.07 2.07zm3.62 2.59c-0.401-1.151-0.299-2.807-1.553-3.104 0.26 1.28-0.02 3.11 1.55 3.1zm-68.31 9.31c0.315-1.238-0.649-3.755 0.518-4.14 1.877 1.279 3.812 3.01 6.21 1.035-1.228-3.086-5.004-3.622-5.693-7.245-5.01 0.687-5.693-0.405-9.314-1.553-6.51 5.53 0.69 17.85 8.27 11.9zm174.4-2.59c-4.278-0.025-5.632-3.368-7.245-7.245-2.408 1.742 0.615 5.26 1.553 5.176-1.79 2.67 4.76 6.43 5.69 2.06zm237.53 1.56c-0.395 3.394 0.819 4.607 0.517 0.519v-7.764c-0.114-0.404-0.433-0.602-1.034-0.518-0.08 2.83-0.06 5.57 0.51 7.76zm-604.96 0c-1.18-1.579 0.571-6.092-2.07-6.21 0.325 2.81-1.975 6.42 2.07 6.21zm285.15 1.03c0.17-2.241-2.866-1.273-2.588-3.623 2.479-0.389 3.103 3.771 5.176 2.07-0.43-1.124-1.954-1.152-2.071-2.587h2.588c0.022-1.576-1.093-2.013-1.553-3.105-15.394-3.129-11.105 14.046-2.587 15.524 1.4 0.244 3.262-1.942 4.657 0.518-2.754 3.322-8.459 5.738-6.21 12.42 2.962 2.902 7.98 3.75 12.938 4.658 4.477-3.497 0.308-15.043 8.797-15.525 0.044-3.355 1.435-9.773-2.588-12.42-2.892-0.305-3.988 1.186-6.727 1.035-1.117 2.197-3.494 6.317 0 7.763-0.419-3.828 2.08-6.465 4.658-5.693-0.438 3.119-0.438 4.645 0 7.763-1.635 0.81-2.272-0.285-4.14-0.518 0.062 2.008 1.524 2.615 2.587 3.622-2.06 0.379-2.081 0.379-4.14 0-1.51 1.941-1.052 5.849-3.105 7.245-2.203-3.013 1.176-5.409 2.07-8.28-4.066 0.075-1.998 6.283-5.174 7.246-0.402-5.06 1.228-8.086 3.622-10.351-0.786-1.111-0.88-2.914-2.07-3.622-2.477-0.579-2.519 1.276-4.14 1.552-0.742-0.811-2.697-0.406-2.588-2.069 3.55 0.111 0.778-0.549 0.517-2.069 1.605-0.682 2.871 1.533 3.623 0-1.71 0.1-4.65-2.84-1.56-1.56zm-61.58 6.21c3.202-0.446-0.632-4.743 2.069-5.691 3.802 1.05 0.612 6.654 2.07 9.314 2.383-2.101 4.895-4.074 6.21-7.245-3.213-2.308-5.956-5.084-8.797-7.763-2.23 3.59-2.85 6.4-1.55 11.38zm139.72 16.04c-0.997 2.452-5.512 1.39-7.245 3.105 7.803 1.387 11.77-5.457 16.56-8.799 0.305-5.649-3.972-6.722-5.691-10.35-0.327 1.741 1.7 3.773 0.517 4.657-1.994-2.49-2.275-6.692-4.657-8.797-1.237-0.314-3.754 0.65-4.14-0.517 4.57-0.456-0.683-4.32-0.519-6.729-5.577 2.186-12.212 3.312-12.419 10.867 2.766-1.092 0.883 2.715 1.553 5.693 3.861 0.396 0.521 6.78 4.656 7.762-1.112-3.461-0.949-6.264 0-9.832 0.738 0.124 0.873 0.853 1.554 1.035 0.554-1.196 1.439-4.736 2.587-3.622-2.79 6.69 2.74 12.83 7.24 15.54zm-121.1-20.18c-0.75-3.242-3.838-0.966-6.21-2.586 0.28 2.98 3.49 3.48 6.21 2.59zm-258.23 7.76c0.538-3.334-0.188-5.245 0-9.314h-2.07c1.131 2.66 0.199 7.39 2.07 9.31zm1.553-8.79c-0.403 0.114-0.602 0.433-0.517 1.035 1.208 3.307-0.334 7.544 0.517 10.867 1.56 6.091 11.017 7.369 10.35 15.008 7.385-2.117 24.083-7.533 21.735-17.595-0.478-2.048-3.604-4.876-7.245-3.105-0.428 2.677 2.567 5.789 0 8.28-1.556-2.725-0.268-6.139-1.035-8.28-1.264-0.596-4.467-0.967-5.175-0.517-1.06 1.754 1.099 4.76-1.035 5.692v-6.211c-3.09-0.016-3.041-1.018-5.692-2.069-0.624 5.253 1.106 13.185-0.518 16.042-2.409-4.836 2.582-17.07-3.105-18.629 0.118 5.747 1.697 14.033 0 17.077-1.585-5.431-0.541-10.851-1.035-17.596-2.289-0.67-5.394-0.11-7.246 0.01zm592.54 9.83c0.6-1.984 1.38-8.146-0.517-9.313 0.34 2.93-0.68 7.23 0.52 9.31zm-254.61-3.62c4.146 1.082 10.371 4.842 8.28 8.798-1.541-4.081-5.283-5.319-8.28-6.728-3.125 4.218-0.049 12.274 0 16.043-0.667-0.713-2.247-0.512-3.622-0.519-0.402-1.149-0.3-2.805-1.553-3.104 0.24 2.45-0.45 0.769-2.07 1.035 0.104 2.655 2.497 3.023 3.623 4.657 8.465-1.274 10.528 9.016 21.218 5.693 2.246-2.755 5.772-4.232 5.175-9.833-2.325-2.505-3.883-5.778-6.728-7.763 2.342-1.421 2.707 1.144 5.175 1.034 0.756-1.133 0.487-4.7-1.553-4.657-1.88 0.331 1.201 2.42-0.517 2.588-2.554-1.24-5.322-2.268-7.246-4.14 2.124-0.71 4.226 1.249 5.176 0-1.507-1.082-3.868-1.308-5.693-2.07 0.53-6.86-9.96-4.75-11.38-1.03zm-71.41 1.03c1.942-0.39 1.128 1.977 2.588 2.07-0.07-1.54-1.87-4.3-2.59-2.07zm353.45 6.73c-0.465-1.601 2.681-5.54 0-7.245-1.52 2-0.95 4.72 0 7.24zm-300.15-5.69c0.327 2.777 2.156 4.055 3.104 6.21-2.396 1.377-2.055 3.997-6.21 2.588-1.27 6.597 7.574 5.692 11.385 4.14 2.27-6.95-2.34-15.87-8.28-12.94zm297.05 16.56c1.753-4.692 1.267-13.838 0.518-17.596h-1.035c-0.28 6.44 1.42 12.04 0.51 17.6zm-326.03-9.84c0.43-1.829 3.135-4.086 2.069-5.692-0.9 1.36-3.25 3.97-2.07 5.69zm314.12 11.91c-0.397-3.94 0.44-5.935-1.553-8.279-0.315 1.237 0.65 3.754-0.518 4.139h-3.105c-1.922-2.044 0.109-8.043-2.587-9.314-1.347 2.578 0.046 6.366 0.518 8.798 6.792 1.316 7.343 8.872 12.42 11.902 0.853-1.733 2.509-2.666 3.105-4.657-6.664-3.46 1.371-14.029-4.657-17.596-0.7 5.362 1.56 10.508 0 15.008-0.519-1.206-1.14-2.311-2.071-3.105 1.789-2.721-0.402-3.137 1.036-6.209-4.58 1.25 1.35 8.12-2.59 9.31zm-12.42-9.32c1.561-0.312 1.764 3.358 3.105 1.552-1.51-0.732 0.654-5.139-1.553-5.175-0.23 1.49-1.83 1.62-1.55 3.62zm-300.15 7.25c-0.309-0.922 1.517-2.149 0-2.588-0.11 0.58-0.575 0.805-1.035 1.035-0.116-0.401-0.014-1.021-0.517-1.035-0.1 1.48-0.06 2.82 1.55 2.59zm5.69 5.69c1.597-0.817 1.79-3.041 2.07-5.176h-1.552c-0.14 1.76-0.82 2.98-0.52 5.18z"/>
	<path d="m609.8 159.2c-0.671 5.197-6.621 9.592-8.797 15.007 0.62-5.25 6.31-9.9 8.8-15.01z"/>
	<path d="m599.45 174.73c-0.731 4.966-5.926 9.943-8.798 14.491 0.78-4.91 6.57-9.3 8.8-14.49z"/>
	<path d="m173.54 176.8c3.001 2.175 3.987 6.363 6.728 8.798-2.41-0.71-5.27-5.43-6.73-8.8z"/>
	<path d="m572.02 200.6c1.202 1.743-2.623 2.88-3.105 4.657-1.36-1.89 2.87-2.62 3.1-4.66z"/>
	<path d="m564.77 208.88c-3.573 3.845-5.802 9.035-10.868 11.386 3.86-3.57 6.77-8.07 10.87-11.39z"/>
	<path d="m510.44 231.13c0.802 1.684-3.169 3.027-4.657 4.14 1.25-1.67 3.4-2.46 4.66-4.14z"/>
	<path d="m230.98 249.76c3.287 0.514 6.218 5.854 9.833 7.763-3.54-0.25-6.66-5.4-9.83-7.76z"/>
	<path d="m228.4 250.8c4.242 0.764 7.029 7.458 11.385 9.832-4.26-0.74-7.68-6.8-11.38-9.83z"/>
	<path d="m241.85 259.08c4.019 4.196 8.747 4.951 10.35 10.351-3.95-2.61-8.58-7.28-10.35-10.35z"/>
	<path d="m370.19 271.5c2.04-0.66 1.343 1.416 2.07 2.069 1.2-0.165 1.987 0.084 2.587 0.519 0.65-0.128 0.521-1.029 0-1.035 2.029-0.871 2.125 2.323 0.517 3.623-0.601-0.435-1.387-0.684-2.587-0.519-0.04-2.38-2.01-2.82-2.59-4.66z"/>
	<path d="m355.7 325.32c1.619 2.63 0.875-0.926 2.587-1.034-0.203 2.76 0.874 3.603-0.517 5.175-1.35-0.72-1.46-2.67-2.07-4.14z"/>
	<path d="m420.39 334.12c0.928 0.066 1.092-0.634 2.07-0.519-0.411 5.587 1.374 8.977 2.588 12.938-2.058-0.53-1.366-3.809-4.141-3.622-0.28 1.832 1.832 1.272 1.553 3.105-3.56-1.62-2.45-7.62-2.07-11.9z"/>
	<path d="m91.259 131.26c2.938 17.531 1.091 38.539 3.623 56.925 2.226-0.353 0.055-3.561 1.035-4.141 2.971 10.604 1.967 24.273 2.587 34.156-2.226-5.037-0.985-8.45-1.552-15.008-2.343 4.123-0.06 11.185-1.035 15.524-0.792-2.14-0.946-4.92-1.553-7.245-1.225 5.963 0.59 17.637 1.553 24.841 1.459-2.896-1.846-8.971 1.035-9.833-0.38-0.483-0.941-0.784-1.553-1.035 5.057-1.452 2.417 11.12 3.105 15.007-1.534-0.363-0.82-2.975-2.587-3.104-0.604 2.601 1.14 4.692 0 6.21-2.415-4.251-2.829-10.379-3.105-16.043-0.381-7.82-1.686-16.65-0.518-23.287 0.226-1.279 0.197-0.664 1.035-0.517-4.52-20.626-3.982-47.52-5.175-69.346 1.253-0.29 3.964 0.49 3.105-3.1zm1.035 46.57c0.165-1.414 0.028-5.148-1.035-3.623 1.069 0.61-0.703 2.68 1.035 3.62zm3.104 20.18c0.38 8.434 2.499-4.371 0-6.209 0.61 2.73-0.069 4.65 0 6.21z"/>
	<path d="m376.4 282.88c0.451 2.004-2.26 0.845-1.553 3.104-2.978-0.473-4.881-2.02-6.728-3.622 2.73-3.41 4.8 0.5 8.28 0.52z"/>
</g>
<metadata><rdf:RDF><cc:Work><dc:format>image/svg+xml</dc:format><dc:type rdf:resource="http://purl.org/dc/dcmitype/StillImage"/><cc:license rdf:resource="http://creativecommons.org/licenses/publicdomain/"/><dc:publisher><cc:Agent rdf:about="http://openclipart.org/"><dc:title>Openclipart</dc:title></cc:Agent></dc:publisher></cc:Work><cc:License rdf:about="http://creativecommons.org/licenses/publicdomain/"><cc:permits rdf:resource="http://creativecommons.org/ns#Reproduction"/><cc:permits rdf:resource="http://creativecommons.org/ns#Distribution"/><cc:permits rdf:resource="http://creativecommons.org/ns#DerivativeWorks"/></cc:License></rdf:RDF></metadata></svg>
