<?xml version="1.0" standalone="no"?>
<!DOCTYPE svg PUBLIC "-//W3C//DTD SVG 20010904//EN"
 "http://www.w3.org/TR/2001/REC-SVG-20010904/DTD/svg10.dtd">
<svg version="1.0" xmlns="http://www.w3.org/2000/svg"
 width="300.000000pt" height="169.000000pt" viewBox="0 0 300.000000 169.000000"
 preserveAspectRatio="xMidYMid meet">
<metadata>
Created by potrace 1.10, written by Peter Selinger 2001-2011
</metadata>
<g transform="translate(0.000000,169.000000) scale(0.100000,-0.100000)"
fill="#000000" stroke="none">
<path d="M144 1673 c3 -10 12 -89 21 -177 8 -87 19 -164 25 -171 6 -7 13 -39
15 -72 9 -122 17 -198 21 -202 2 -2 -4 -13 -13 -24 -10 -11 -13 -17 -6 -14 8
5 10 -8 6 -49 -5 -54 -5 -56 16 -49 24 7 30 -12 5 -22 -12 -4 -15 -19 -12 -69
2 -56 5 -64 22 -64 18 0 18 -1 1 -20 -14 -15 -16 -30 -11 -72 3 -29 6 -71 6
-93 1 -35 2 -38 12 -20 12 19 12 19 20 -5 4 -14 5 19 2 72 -6 108 -9 103 61
112 22 2 33 2 24 0 -14 -4 -16 -18 -13 -82 2 -43 5 -84 8 -92 3 -8 8 -46 11
-85 3 -38 8 -87 9 -108 3 -32 0 -40 -17 -48 -22 -9 -22 -10 1 -5 16 3 22 -1
22 -15 0 -14 -7 -19 -30 -19 -21 0 -30 5 -30 17 0 12 -8 7 -29 -16 -16 -18
-34 -30 -40 -27 -5 4 -13 2 -16 -4 -4 -6 -16 -8 -28 -4 -20 6 -20 6 -3 -11 11
-12 20 -14 24 -8 13 20 69 24 158 13 49 -6 96 -14 104 -17 8 -3 19 -5 24 -4 4
1 38 -5 75 -13 36 -8 100 -20 141 -26 67 -9 665 -106 895 -144 157 -26 198
-28 220 -12 11 9 30 16 42 16 28 0 30 6 22 55 -5 30 -7 33 -8 13 -1 -30 -15
-37 -24 -13 -4 8 -15 12 -27 10 -11 -2 -20 -1 -20 3 0 11 -39 12 -45 2 -3 -5
7 -12 22 -16 48 -10 53 -13 53 -31 0 -16 -9 -18 -68 -18 -49 0 -69 4 -69 13 0
7 9 11 21 10 16 -2 22 3 24 25 3 27 -12 38 -21 15 -4 -8 -8 -4 -13 10 -5 19
-9 20 -22 10 -12 -10 -16 -10 -19 0 -5 14 -53 17 -53 2 0 -5 16 -12 35 -16 27
-5 35 -11 35 -28 0 -20 -4 -22 -42 -17 l-43 6 4 44 c2 38 1 43 -12 33 -7 -6
-17 -8 -21 -4 -4 4 -13 7 -19 7 -6 0 -14 11 -18 25 l-7 25 -1 -24 c-1 -18 -5
-22 -21 -18 -12 3 -20 0 -20 -8 0 -7 16 -16 35 -19 26 -5 35 -12 35 -26 0 -15
-7 -20 -27 -19 -31 1 -86 16 -64 18 18 1 8 87 -13 110 -8 9 -16 25 -19 36 -2
11 -5 -3 -6 -32 -1 -54 -16 -77 -35 -51 -9 12 -14 13 -23 3 -9 -10 -5 -14 23
-19 25 -5 34 -12 34 -26 0 -22 -15 -24 -70 -14 -17 4 -27 10 -21 13 7 5 7 39
2 106 -5 55 -9 80 -10 56 -1 -53 -8 -50 -21 10 l-9 44 4 -53 c2 -29 2 -66 -1
-81 -5 -24 -10 -27 -37 -23 -25 3 -29 1 -17 -7 8 -6 23 -11 33 -11 10 0 17 -8
17 -20 0 -15 -6 -20 -27 -19 -36 1 -86 17 -59 18 15 1 17 6 12 32 -3 17 -6 40
-6 51 0 17 -3 18 -15 8 -12 -10 -15 -10 -15 3 0 8 7 20 15 27 12 10 14 36 11
142 -2 71 -7 133 -11 136 -4 4 -5 -30 -3 -76 2 -52 0 -81 -7 -78 -5 2 -9 9 -7
15 1 6 -2 11 -8 11 -15 0 -12 -11 10 -45 11 -16 20 -46 20 -64 0 -44 -17 -29
-23 19 -3 31 -8 -78 -7 -152 0 -24 -4 -28 -29 -28 -36 0 -66 11 -53 19 6 4 7
43 2 106 -4 55 -8 83 -9 62 0 -21 -5 -36 -10 -33 -5 3 -12 -26 -16 -64 l-7
-70 -39 0 c-35 0 -53 13 -30 22 4 2 2 35 -4 73 -7 39 -14 61 -15 50 -1 -20 -1
-20 -10 0 -7 16 -9 17 -9 3 -1 -9 4 -20 9 -23 6 -3 10 -14 10 -23 0 -15 -2
-15 -10 -2 -8 12 -10 9 -10 -12 0 -28 -13 -37 -25 -18 -8 12 -25 13 -25 1 0
-5 12 -12 26 -15 16 -4 24 -12 22 -23 -2 -9 -6 -16 -10 -15 -5 1 -25 2 -45 2
-31 0 -34 2 -21 13 14 11 14 20 3 82 -7 39 -14 63 -15 55 -1 -8 -8 1 -16 20
l-14 35 7 -35 c6 -31 6 -151 -1 -157 -1 -1 -19 0 -40 4 -22 3 -33 9 -25 13 9
6 9 20 1 56 -9 46 -10 47 -11 14 -2 -32 -3 -34 -16 -16 -7 10 -18 15 -24 11
-7 -4 -11 4 -11 19 0 14 6 26 13 27 6 0 2 5 -10 11 -13 6 -23 15 -23 20 0 5
-4 6 -10 3 -6 -4 -4 -15 6 -30 10 -15 14 -34 10 -49 -5 -20 -2 -25 16 -28 33
-4 37 -38 5 -38 -33 0 -61 11 -49 19 7 4 7 22 2 51 -5 25 -10 65 -11 90 -1 27
-4 35 -6 21 -4 -19 -7 -21 -14 -10 -7 9 -8 -3 -4 -38 8 -62 2 -77 -26 -63 -11
6 -17 14 -15 18 3 5 1 14 -5 22 -6 11 -9 8 -9 -13 0 -23 6 -31 30 -40 47 -18
38 -37 -17 -37 -35 1 -44 3 -32 10 13 8 15 18 9 52 -5 24 -11 86 -14 138 -3
52 -5 102 -6 110 -1 20 -28 -29 -34 -64 -3 -15 -1 -24 5 -20 5 3 9 -7 9 -23 0
-15 2 -66 5 -112 l5 -84 -32 7 c-18 4 -57 10 -86 13 -29 3 -48 9 -42 13 8 5 8
36 0 116 -6 60 -13 160 -17 222 -6 109 -5 112 15 112 24 0 42 -28 41 -62 -1
-13 2 -34 5 -47 3 -14 1 -30 -5 -37 -13 -16 -30 -76 -20 -69 5 2 11 19 15 36
3 18 8 30 10 28 2 -2 7 -47 11 -99 9 -127 12 -172 14 -192 0 -10 8 -18 17 -18
13 0 15 10 9 73 -3 39 -8 97 -10 127 -15 216 -19 249 -29 253 -6 2 3 2 19 -1
17 -3 35 -5 42 -5 7 0 14 -25 19 -63 9 -88 31 -104 31 -23 0 35 -4 54 -9 47
-5 -8 -8 -9 -8 -2 0 18 22 31 65 37 22 3 32 3 22 1 -13 -4 -15 -12 -10 -32 6
-25 5 -26 -12 -12 -17 14 -18 13 -12 -3 4 -10 7 -26 8 -35 0 -14 2 -13 9 3 7
17 9 15 9 -12 1 -22 6 -33 16 -33 9 0 15 -10 16 -22 0 -13 3 -17 6 -10 7 19
-6 64 -17 57 -6 -4 -10 11 -10 36 0 45 15 44 23 -1 3 -19 5 -16 6 11 1 32 4
36 30 37 25 0 30 -4 33 -28 3 -16 0 -32 -6 -34 -7 -3 -6 -8 3 -15 10 -6 15
-25 14 -53 -1 -35 0 -38 7 -18 11 34 12 4 1 -42 -7 -29 -6 -38 4 -38 7 0 16
-6 19 -12 3 -7 3 42 0 110 l-4 122 35 0 c29 0 35 -4 36 -22 5 -103 10 -162 14
-166 3 -3 5 12 6 34 l1 39 9 -33 c5 -17 11 -32 12 -32 9 0 -7 176 -17 183 -6
5 -2 6 9 2 11 -5 32 -10 47 -12 20 -4 27 -12 30 -34 3 -20 0 -29 -11 -32 -14
-4 -14 -5 0 -6 21 -1 33 -41 12 -41 -8 0 -12 -4 -9 -8 2 -4 -4 -13 -15 -20
-14 -9 -19 -9 -19 0 0 6 -3 8 -6 5 -4 -4 -2 -13 5 -21 14 -16 51 -28 51 -16 0
5 -10 10 -22 12 -22 3 -21 5 8 20 17 10 34 15 37 12 3 -3 8 24 12 59 6 50 10
64 21 60 8 -3 11 -9 8 -14 -3 -5 0 -9 5 -9 6 0 11 5 11 10 0 6 7 10 15 10 11
0 15 -11 15 -40 0 -22 0 -42 0 -45 0 -3 -3 -5 -6 -4 -4 0 -10 -5 -15 -12 -6
-10 -11 -10 -26 1 -17 13 -17 13 -2 -4 14 -15 20 -16 39 -6 21 11 22 11 17
-11 -6 -23 -5 -23 8 -5 17 22 17 22 18 -96 1 -32 4 -58 9 -58 4 0 5 62 2 138
l-6 138 24 -2 c35 -2 59 -15 51 -28 -4 -6 1 -5 10 3 20 16 24 9 30 -49 3 -25
4 -20 5 18 2 38 6 52 14 49 7 -2 12 -9 11 -14 -1 -5 -5 -34 -8 -64 -6 -49 -6
-52 7 -34 20 27 30 58 18 50 -13 -8 -13 35 0 55 8 12 10 11 10 -7 0 -13 5 -23
11 -23 5 0 7 4 4 10 -3 5 -1 10 4 10 15 0 14 -43 -1 -58 -9 -9 -9 -15 1 -24
11 -10 13 -10 7 0 -4 6 -2 12 5 12 7 0 9 -8 4 -22 -4 -13 -6 -36 -6 -51 1 -17
-3 -26 -9 -22 -5 3 -10 2 -10 -3 0 -6 7 -13 16 -16 11 -4 14 -13 11 -27 -4
-16 -3 -18 9 -8 17 14 17 14 1 31 -10 10 -11 22 -2 58 l12 45 11 -55 c11 -51
11 -52 7 -10 -2 25 -1 71 2 103 5 47 9 57 24 57 11 0 19 -6 19 -12 0 -9 3 -8
10 2 16 25 29 -1 32 -67 2 -39 7 -63 15 -63 6 0 16 -17 22 -37 l11 -38 -6 44
c-2 24 -2 69 2 101 7 61 5 60 72 52 21 -3 13 -36 -15 -56 l-26 -19 6 25 c5 17
2 25 -6 25 -14 0 -17 -38 -4 -48 14 -10 57 2 57 16 0 7 7 16 16 19 8 3 12 10
9 16 -3 5 -1 10 6 10 7 0 9 -9 5 -22 -3 -13 -6 -31 -6 -41 0 -10 -4 -15 -10
-12 -6 4 -10 -7 -9 -27 1 -31 1 -32 9 -8 8 25 8 25 10 -5 1 -16 5 -39 10 -50
8 -16 9 -12 9 20 -1 22 -1 66 0 98 l1 59 38 -6 c20 -3 39 -5 42 -6 8 0 14 -65
12 -135 -1 -42 1 -55 8 -45 5 8 10 29 11 45 1 23 4 17 14 -25 15 -64 17 -56
15 62 -1 56 3 89 11 93 6 4 15 2 19 -5 4 -7 10 -8 14 -2 3 5 16 7 28 5 22 -4
23 -8 22 -96 0 -102 4 -137 17 -137 5 0 4 11 -1 24 -10 27 -2 69 11 60 5 -3 9
-18 9 -35 0 -16 4 -29 8 -29 5 0 9 45 9 101 1 55 4 103 7 106 2 3 11 1 18 -3
7 -4 27 -7 45 -5 30 2 32 1 33 -36 4 -82 3 -109 -3 -144 -3 -19 -1 -42 4 -50
6 -10 9 -2 9 26 0 48 14 76 24 50 3 -9 6 -28 6 -41 0 -13 3 -24 8 -24 4 0 8
44 8 99 1 54 4 102 7 107 3 5 25 8 50 6 l44 -4 6 -71 c6 -71 -3 -103 -28 -94
-6 3 -19 -1 -30 -9 -17 -12 -17 -14 -2 -14 9 0 17 5 17 10 0 7 8 6 22 -1 22
-12 22 -12 3 -19 -19 -7 -19 -7 1 -18 20 -11 22 -8 28 41 3 29 6 78 6 110 0
42 4 57 14 57 11 0 14 -20 14 -92 0 -115 -6 -178 -19 -178 -5 0 -9 10 -9 23
-1 21 -1 21 -11 3 -6 -10 -9 -38 -6 -62 2 -24 1 -41 -3 -39 -5 3 -6 -5 -3 -17
l5 -23 -19 23 c-18 21 -19 22 -19 3 0 -11 4 -17 8 -15 4 3 8 0 8 -5 0 -23 22
-10 31 19 13 35 29 39 30 8 1 -17 4 -13 11 12 5 19 7 49 5 67 -4 24 -1 35 11
43 11 6 13 13 7 17 -17 14 -18 43 0 37 8 -3 15 -1 15 5 0 6 -6 11 -14 11 -8 0
-16 8 -18 18 -5 24 3 73 11 68 3 -2 5 13 3 35 l-4 39 51 0 51 0 1 -52 c1 -29
1 -91 0 -138 -1 -47 -1 -111 -1 -142 0 -44 -3 -58 -14 -58 -8 0 -18 -4 -21
-10 -3 -5 0 -7 8 -4 9 3 17 -4 22 -18 7 -19 9 -15 12 22 3 31 11 50 26 62 16
12 22 29 24 60 1 24 4 84 8 133 3 50 6 101 5 114 0 22 2 23 52 17 29 -4 53 -8
54 -9 1 -1 5 -38 9 -82 l7 -81 -36 -32 c-34 -29 -53 -59 -21 -32 8 6 19 9 25
5 6 -3 10 3 10 14 0 12 3 21 8 21 16 0 38 56 32 80 -20 73 -21 98 -4 104 10 4
25 -1 36 -11 11 -10 18 -13 16 -8 -2 6 2 10 7 10 6 0 9 -2 8 -5 -1 -3 7 -6 17
-6 10 0 16 4 14 8 -3 4 11 8 31 8 32 0 36 -3 33 -22 -2 -13 -12 -26 -23 -30
-18 -5 -18 -6 3 -7 23 -1 23 -2 18 -114 -3 -61 -5 -121 -6 -132 0 -31 -18 -4
-22 34 -4 41 -28 55 -28 17 0 -17 -5 -26 -16 -26 -8 0 -12 -5 -9 -11 4 -6 9
-8 12 -5 3 3 14 -6 25 -19 11 -14 23 -23 26 -21 4 2 15 -2 25 -9 29 -21 24
-166 -5 -149 -8 5 -9 1 -5 -10 4 -10 7 -24 7 -32 0 -8 8 -14 18 -14 14 0 19 8
20 33 1 43 9 160 11 169 0 4 16 2 33 -3 43 -12 78 -12 78 1 0 6 -23 10 -50 10
-54 0 -64 9 -60 52 1 13 1 56 1 95 -1 61 1 72 14 67 8 -4 15 -10 15 -14 0 -4
6 -10 14 -13 12 -5 13 -1 4 26 -9 23 -8 32 0 35 7 2 12 8 12 13 0 12 -32 -1
-47 -18 -16 -20 -29 -10 -44 34 -10 31 -9 38 5 49 16 11 16 13 -1 18 -10 2 47
3 127 1 244 -6 112 12 -250 35 -299 19 -623 42 -1570 110 -493 36 -762 58
-767 63 -2 3 -7 36 -9 74 -10 141 -13 179 -18 223 -12 100 -16 144 -31 350
-19 254 -23 274 -54 278 -18 3 -22 0 -17 -15z m1206 -1063 c0 -22 -4 -28 -15
-24 -8 4 -15 17 -15 30 0 15 6 24 15 24 10 0 15 -10 15 -30z m120 -11 c0 -17
-4 -28 -10 -24 -5 3 -10 17 -10 31 0 13 5 24 10 24 6 0 10 -14 10 -31z m580
-34 c4 -41 0 -76 -9 -70 -14 8 -23 61 -16 86 8 24 22 15 25 -16z m-150 0 c0
-16 -6 -25 -15 -25 -9 0 -15 9 -15 25 0 16 6 25 15 25 9 0 15 -9 15 -25z m489
0 c1 -8 2 -27 1 -42 0 -16 0 -65 -1 -110 0 -46 -5 -86 -10 -89 -5 -3 -7 -10
-4 -15 4 -5 2 -9 -4 -9 -14 0 -24 75 -13 97 5 10 8 55 6 101 -3 63 0 82 10 82
7 0 14 -7 15 -15z m1 -295 c0 -5 -5 -12 -11 -16 -14 -8 -33 11 -25 25 7 11 36
4 36 -9z"/>
<path d="M204 1668 c3 -13 10 -75 16 -138 13 -126 17 -164 20 -167 2 -2 3 -6
5 -10 1 -5 5 -15 8 -23 4 -8 8 -25 10 -37 3 -24 17 -44 17 -24 0 31 96 34 102
2 3 -14 5 -14 11 2 5 14 2 20 -13 24 -15 4 -19 11 -15 24 4 11 2 19 -4 19 -5
0 -9 9 -8 20 2 24 13 26 21 4 3 -8 9 -13 13 -11 9 4 44 -29 37 -36 -2 -2 2
-10 11 -17 12 -10 16 -9 22 5 4 12 0 23 -12 31 -10 8 -15 14 -9 14 5 0 2 5 -6
10 -12 8 -11 10 7 10 14 0 21 -5 17 -13 -7 -20 32 -50 56 -44 18 5 25 -3 21
-25 -2 -12 47 -10 54 2 3 6 3 15 -1 22 -5 7 -11 5 -21 -7 -12 -17 -13 -17 -13
9 0 17 -4 25 -11 21 -6 -4 -13 2 -16 13 -3 13 -17 23 -34 27 -16 4 -29 10 -29
14 0 12 -49 5 -65 -9 -13 -10 -15 -8 -15 15 0 20 -4 26 -15 21 -8 -3 -15 -2
-15 2 0 4 -13 7 -30 7 -16 1 -27 -1 -25 -3 2 -3 -1 -14 -7 -26 -20 -34 -13
-56 17 -56 6 0 3 5 -5 11 -11 7 -12 12 -3 15 7 3 10 11 7 19 -4 10 0 12 15 8
20 -5 38 -33 21 -33 -6 0 -10 -9 -10 -20 0 -11 5 -20 12 -20 6 0 8 -3 5 -7 -4
-3 -25 0 -47 7 -29 10 -40 19 -41 34 0 12 -2 28 -3 36 -2 8 -6 60 -10 115 -10
148 -16 185 -32 185 -10 0 -13 -8 -10 -22z"/>
<path d="M2965 1439 c-16 -5 -64 -9 -105 -9 -79 0 -341 -16 -374 -23 -10 -2
-42 0 -70 5 -167 27 -195 29 -223 15 -22 -12 -49 -13 -128 -7 -55 5 -107 11
-116 15 -9 3 -33 -4 -53 -16 -34 -20 -42 -21 -91 -10 -47 11 -58 10 -87 -5
-18 -10 -44 -18 -58 -19 -72 -4 -80 -6 -80 -20 0 -9 -9 -15 -25 -15 -14 0 -25
-4 -25 -10 0 -5 -15 -10 -32 -10 -18 -1 -44 -7 -58 -15 -14 -8 -35 -14 -46
-15 -12 0 -27 -7 -35 -16 -10 -13 -30 -15 -93 -13 -45 1 -97 -1 -116 -4 -19
-4 -78 -4 -130 1 -53 4 -116 4 -140 1 -25 -3 -102 -9 -172 -13 -112 -5 -127
-4 -122 9 5 11 2 13 -10 9 -18 -7 -19 -19 -6 -49 8 -19 9 -19 9 -1 1 13 5 16
14 10 6 -5 24 -9 40 -8 29 1 35 -14 15 -35 -11 -10 -10 -12 2 -9 8 2 18 14 21
28 5 23 7 23 14 6 5 -11 3 -26 -3 -37 -7 -10 -12 -27 -12 -36 0 -15 2 -15 9
-3 6 8 9 17 7 20 -1 3 8 15 21 27 13 12 23 19 23 16 0 -4 6 0 12 9 9 12 37 18
98 23 47 4 88 9 93 12 4 2 7 -2 7 -9 0 -10 2 -10 8 -1 9 14 83 8 116 -9 14 -8
17 -7 11 3 -6 9 -3 10 8 6 10 -4 25 -10 35 -13 15 -5 15 -4 2 6 -12 9 -5 11
33 7 26 -3 47 -1 47 4 0 11 49 5 76 -9 29 -16 66 -12 52 5 -8 10 -5 13 11 13
12 0 29 4 39 9 9 6 35 13 57 17 31 5 36 8 21 13 -18 7 -18 8 -2 14 10 4 25 7
34 7 15 0 15 -2 2 -11 -13 -10 -13 -10 0 -6 67 23 120 51 108 58 -13 9 21 13
69 9 12 -1 32 5 45 12 39 22 314 40 356 23 25 -10 112 -11 112 -1 0 4 7 6 15
2 8 -3 14 0 12 7 -2 11 75 12 130 2 10 -2 24 -4 31 -4 7 -1 10 -5 7 -11 -8
-13 68 -13 132 0 59 11 294 22 436 19 53 -1 60 2 55 24 -2 10 -10 12 -33 6z
m-2232 -201 c-13 -6 -23 -20 -24 -32 0 -21 -1 -21 -8 -1 -11 25 5 45 33 44 21
0 21 0 -1 -11z"/>
<path d="M4 1378 c-9 -14 6 -48 21 -48 7 0 16 -6 18 -12 3 -7 4 1 3 18 l-3 32
43 -15 c24 -8 44 -19 44 -25 0 -5 -5 -6 -10 -3 -5 3 -10 2 -10 -4 0 -15 23
-26 28 -13 2 7 7 10 10 8 4 -2 8 7 8 20 2 26 -3 29 -94 43 -29 4 -55 4 -58 -1z"/>
<path d="M390 1326 c0 -4 7 -18 16 -31 13 -21 24 -25 58 -23 l41 1 -37 4 c-25
3 -44 13 -58 30 -11 14 -20 23 -20 19z"/>
<path d="M318 1261 c-3 -18 0 -28 6 -24 5 4 7 0 4 -8 -3 -8 0 -23 8 -34 8 -10
14 -14 14 -8 0 7 -5 15 -10 18 -7 4 -6 13 1 26 10 20 4 59 -11 59 -4 0 -10
-13 -12 -29z"/>
<path d="M420 1236 c0 -16 2 -18 9 -7 6 9 18 12 37 7 23 -6 26 -5 16 7 -7 8
-24 15 -37 15 -19 0 -25 -6 -25 -22z"/>
<path d="M40 1229 c-13 -9 -12 -10 3 -5 15 5 22 -4 18 -26 -1 -10 13 -10 22
-2 6 6 -14 44 -23 44 -3 0 -12 -5 -20 -11z"/>
<path d="M469 1218 c-7 -12 -3 -68 4 -68 5 0 6 7 3 16 -4 10 -1 14 6 11 14 -4
15 -19 3 -52 -4 -12 0 -9 9 6 21 35 23 53 9 55 -7 1 -17 2 -23 3 -5 0 -10 6
-10 12 0 5 5 7 12 3 7 -4 8 -3 4 4 -7 11 -14 15 -17 10z"/>
<path d="M420 1196 c0 -7 -7 -19 -15 -26 -17 -14 -20 -30 -4 -30 5 0 8 4 5 9
-6 9 13 29 27 29 5 0 12 4 15 8 4 4 1 4 -5 0 -7 -4 -13 -3 -13 3 0 5 6 12 13
14 7 3 5 6 -5 6 -10 1 -18 -5 -18 -13z"/>
<path d="M310 1182 c0 -12 5 -22 11 -22 7 0 9 -10 5 -27 l-6 -28 15 28 c15 25
14 29 -5 49 l-20 22 0 -22z"/>
<path d="M760 1195 c-1 -5 -2 -13 -1 -17 0 -5 -4 -8 -11 -8 -8 0 -9 -3 -2 -10
7 -7 19 -7 35 -1 16 7 18 10 7 10 -9 1 -19 9 -21 19 -3 9 -6 13 -7 7z"/>
<path d="M1298 1160 c-2 -6 -11 -12 -21 -14 -29 -4 -37 -19 -21 -41 14 -19 16
-19 25 -2 6 9 14 15 20 12 5 -3 6 1 3 10 -5 11 -2 14 10 9 20 -8 21 9 2 25
-10 8 -15 9 -18 1z"/>
<path d="M883 1133 c-9 -3 -10 -10 -3 -23 5 -10 7 -26 4 -34 -3 -9 -1 -16 5
-16 6 0 11 7 11 15 0 8 8 15 17 15 9 0 13 3 10 7 -4 3 -1 13 5 22 10 12 8 12
-8 -1 -27 -24 -37 -23 -24 2 11 20 6 23 -17 13z"/>
<path d="M963 1132 c-9 -6 -7 -12 8 -25 11 -10 25 -15 31 -11 7 4 6 9 -3 15
-10 6 -11 9 -1 9 6 0 12 5 12 10 0 12 -30 13 -47 2z"/>
<path d="M1335 1120 c-3 -5 1 -10 9 -10 12 0 14 -8 10 -32 -4 -27 -3 -30 6
-15 6 9 19 17 28 17 13 0 11 5 -10 25 -30 28 -34 29 -43 15z"/>
<path d="M345 1080 c6 -54 -7 -83 -24 -54 -6 11 -10 15 -10 9 0 -5 6 -19 14
-29 9 -12 15 -15 15 -7 0 10 3 11 13 3 11 -9 13 -3 11 31 -1 23 -7 53 -13 67
-10 22 -11 19 -6 -20z"/>
<path d="M165 1093 c5 -19 3 -22 -12 -16 -10 3 -15 3 -11 -2 4 -4 3 -15 -2
-24 -5 -10 -5 -23 1 -32 7 -12 9 -12 10 1 1 8 1 19 0 24 -1 4 6 14 15 21 14
10 15 15 5 31 -11 18 -12 17 -6 -3z"/>
<path d="M1435 1080 c-3 -5 -2 -10 4 -10 5 0 13 -9 16 -20 4 -11 11 -18 16
-15 15 10 10 42 -7 49 -21 8 -22 8 -29 -4z"/>
<path d="M1185 1070 c-3 -5 -18 -10 -32 -10 -26 0 -26 0 -8 -20 16 -18 20 -19
27 -5 13 22 36 18 41 -7 l4 -23 2 23 c1 27 -24 58 -34 42z"/>
<path d="M1560 1054 c0 -8 -4 -12 -10 -9 -5 3 -10 -1 -10 -10 0 -9 -4 -13 -10
-10 -5 3 -10 -1 -10 -10 0 -15 4 -14 36 4 19 12 40 19 45 16 5 -4 6 1 3 10 -4
9 -13 14 -21 11 -8 -3 -11 -1 -8 4 3 6 1 10 -4 10 -6 0 -11 -7 -11 -16z"/>
<path d="M2430 1049 c-12 -8 -12 -9 5 -7 11 1 25 0 30 -3 6 -4 28 -4 50 -1 36
5 37 6 15 13 -37 11 -83 10 -100 -2z"/>
<path d="M905 1030 c-3 -5 -4 -14 -1 -18 7 -11 -32 -54 -43 -48 -4 3 -7 -7 -6
-22 0 -15 -4 -30 -10 -34 -6 -5 -5 -8 3 -8 6 0 12 -5 12 -11 0 -6 -7 -9 -15
-6 -8 4 -17 2 -20 -4 -4 -5 6 -8 24 -7 25 2 28 5 20 19 -6 11 -5 20 1 24 15 9
12 27 -2 19 -7 -3 -1 4 15 17 17 15 29 36 31 57 4 33 1 39 -9 22z"/>
<path d="M2313 1033 c-13 -2 -23 -9 -23 -14 0 -7 -13 -8 -32 -4 -18 4 -30 4
-26 0 3 -3 31 -10 60 -14 40 -5 55 -4 55 5 0 7 -7 10 -16 6 -14 -5 -14 -3 -2
11 7 9 12 16 10 16 -2 -1 -14 -4 -26 -6z"/>
<path d="M1405 1018 c-4 -11 0 -24 10 -34 22 -22 25 -15 9 21 -10 25 -14 27
-19 13z"/>
<path d="M1635 1021 c-3 -6 2 -11 13 -11 12 0 22 -9 25 -21 6 -21 27 -18 27 4
0 7 -4 6 -10 -3 -6 -9 -10 -10 -10 -3 0 16 17 26 25 14 3 -6 12 -8 20 -5 23 9
7 24 -23 23 -15 -1 -34 1 -43 5 -10 4 -20 3 -24 -3z"/>
<path d="M1948 1008 c-15 -10 -25 -24 -22 -31 3 -9 -17 -13 -71 -14 -60 -2
-75 1 -75 12 0 15 -12 20 -23 9 -7 -7 18 -35 29 -34 4 1 10 -4 14 -10 5 -8 13
-9 21 -4 20 12 52 13 67 2 8 -7 12 -7 12 2 0 6 6 10 13 8 6 -3 12 -10 12 -15
0 -6 4 -15 9 -20 5 -4 6 4 2 20 -5 23 -3 29 19 37 14 5 25 15 25 22 0 9 -3 9
-11 -2 -9 -13 -10 -13 -6 0 2 8 11 14 21 12 19 -3 22 14 3 21 -7 3 -25 -4 -39
-15z"/>
<path d="M2380 1000 c0 -6 7 -10 16 -10 8 0 13 -4 10 -9 -4 -5 5 -4 18 2 14 7
24 12 23 13 -12 8 -67 11 -67 4z"/>
<path d="M1089 994 c-1 -5 -1 -13 0 -18 1 -4 -2 -13 -7 -20 -5 -6 -6 -20 -2
-31 6 -16 9 -11 15 23 4 24 4 46 1 49 -3 4 -7 2 -7 -3z"/>
<path d="M2028 993 c-22 -6 -24 -33 -2 -33 8 0 12 5 8 11 -4 8 0 9 15 4 16 -5
20 -3 15 9 -3 9 -9 15 -13 15 -3 -1 -14 -3 -23 -6z"/>
<path d="M2460 978 c0 -5 27 -8 60 -8 33 0 60 3 60 8 0 4 -27 7 -60 7 -33 0
-60 -3 -60 -7z"/>
<path d="M985 963 c-4 -13 -12 -20 -18 -16 -6 4 -7 1 -1 -8 5 -8 9 -17 9 -21
0 -15 13 -17 25 -3 10 12 9 15 -6 15 -15 0 -16 2 -6 9 8 5 12 17 9 27 -4 17
-6 17 -12 -3z"/>
<path d="M2313 958 c1 -19 10 -30 34 -42 28 -13 33 -14 33 -1 0 9 -6 12 -15 9
-10 -4 -15 0 -15 15 0 13 -5 19 -14 15 -8 -3 -16 2 -19 13 -3 10 -4 7 -4 -9z"/>
<path d="M2179 959 c-1 -8 -1 -20 0 -26 1 -7 -3 -13 -9 -13 -5 0 -10 5 -10 10
0 6 -8 5 -20 -2 -15 -10 -16 -14 -6 -20 20 -11 76 -5 76 10 0 6 5 12 10 12 6
0 10 5 10 12 0 6 -3 8 -7 5 -3 -4 -15 0 -25 10 -14 13 -18 13 -19 2z"/>
<path d="M2064 943 c3 -7 1 -13 -4 -13 -6 0 -10 -5 -10 -10 0 -13 38 10 44 27
3 7 -3 11 -15 10 -11 -1 -17 -7 -15 -14z"/>
<path d="M405 939 c-12 -19 2 -21 32 -5 l28 15 -27 1 c-15 0 -30 -5 -33 -11z"/>
<path d="M2730 940 c-8 -5 -25 -10 -36 -10 -16 0 -23 -8 -27 -27 l-5 -28 18
22 c22 28 63 22 98 -13 14 -13 42 -29 62 -35 33 -10 44 -9 83 10 24 12 52 30
62 41 18 20 17 20 -98 20 -117 0 -151 5 -141 21 7 11 3 11 -16 -1z m190 -40
c13 -9 13 -11 0 -20 -30 -19 -120 -4 -120 20 0 13 100 13 120 0z"/>
<path d="M2267 927 c4 -6 1 -8 -8 -5 -9 4 -14 -2 -14 -17 0 -20 3 -21 25 -12
39 17 41 21 14 34 -16 7 -22 8 -17 0z"/>
<path d="M2543 924 c-4 -11 -13 -13 -36 -8 -20 4 -27 3 -23 -5 4 -6 18 -11 32
-11 14 0 22 -4 19 -10 -3 -6 1 -7 9 -4 9 3 16 10 16 14 0 5 3 15 6 24 3 9 1
16 -5 16 -7 0 -14 -7 -18 -16z"/>
<path d="M901 922 c-1 -7 6 -15 15 -19 13 -5 13 -8 2 -15 -10 -8 -10 -9 2 -5
8 2 24 0 35 -5 20 -9 20 -9 1 6 -15 12 -16 16 -5 16 10 1 9 3 -4 11 -9 5 -21
8 -26 4 -5 -3 -12 1 -14 7 -4 10 -6 10 -6 0z"/>
<path d="M2412 918 c-5 -8 -6 -22 -2 -34 10 -26 26 -38 34 -25 4 5 2 12 -4 16
-5 3 -10 10 -10 16 0 14 24 6 32 -11 5 -11 7 -9 7 7 1 12 -8 27 -18 33 -25 13
-26 13 -39 -2z"/>
<path d="M139 905 c-6 -61 -5 -76 2 -80 4 -3 6 7 4 22 -2 16 1 33 5 38 5 6 5
17 0 25 -8 12 -10 11 -11 -5z"/>
<path d="M354 900 c1 -9 9 -14 20 -12 10 2 15 -1 12 -7 -4 -5 -2 -12 3 -16 6
-3 15 3 21 15 10 18 8 19 -19 16 -17 -2 -32 2 -34 8 -2 6 -3 4 -3 -4z"/>
<path d="M792 878 c-1 -39 2 -46 14 -41 11 4 12 8 4 13 -14 8 -4 50 11 50 5 0
9 5 9 11 0 8 -4 8 -14 0 -11 -9 -15 -9 -19 1 -2 7 -5 -8 -5 -34z"/>
<path d="M2004 911 c3 -5 -1 -12 -10 -15 -8 -3 -12 -10 -9 -16 3 -5 1 -10 -5
-10 -6 0 -8 -4 -5 -10 4 -6 11 -5 19 3 8 6 11 16 8 21 -3 5 2 6 12 3 14 -6 15
-3 6 13 -6 11 -13 20 -16 20 -3 0 -3 -4 0 -9z"/>
<path d="M288 853 c5 -83 9 -90 11 -20 0 37 -2 67 -7 67 -4 0 -6 -21 -4 -47z"/>
<path d="M1090 885 c-7 -8 -17 -12 -23 -8 -6 3 -7 1 -3 -6 4 -6 12 -9 17 -6 5
4 9 0 9 -8 0 -7 7 -14 15 -14 8 0 15 6 15 14 0 7 -3 12 -7 12 -20 -3 -27 2
-13 11 8 5 12 12 9 15 -4 3 -12 -1 -19 -10z"/>
<path d="M1407 893 c-11 -10 -8 -43 4 -43 5 0 7 -4 4 -10 -3 -5 -2 -10 4 -10
5 0 8 14 6 31 -4 35 -9 42 -18 32z"/>
<path d="M2340 891 c0 -5 -10 -11 -22 -14 -35 -10 -14 -19 26 -12 30 6 33 9
21 21 -16 16 -25 18 -25 5z"/>
<path d="M2573 873 c4 -3 2 -12 -5 -20 -8 -10 -8 -17 1 -26 10 -9 11 -8 5 7
-6 16 -4 18 14 14 12 -4 22 -3 22 1 0 10 -22 31 -34 31 -5 0 -6 -3 -3 -7z"/>
<path d="M8 795 l4 -76 36 7 c20 4 43 13 50 21 17 16 25 16 41 1 7 -7 12 -8
11 -3 -5 21 0 36 10 30 12 -7 13 5 1 23 -4 7 -13 12 -19 10 -6 -2 -17 6 -26
17 -15 20 -15 20 -9 -2 3 -12 13 -25 24 -28 25 -8 13 -34 -12 -28 -16 5 -18 8
-7 14 17 11 -1 10 -27 -1 -13 -6 -15 -9 -5 -9 9 -1 5 -7 -10 -15 -28 -14 -56
-2 -30 14 12 8 12 10 -2 15 -18 7 -20 45 -3 58 9 6 -9 26 -25 27 -3 0 -4 -34
-2 -75z"/>
<path d="M887 863 c-4 -7 -3 -14 3 -18 6 -4 8 -11 4 -16 -3 -5 -10 -6 -16 -3
-6 4 -8 2 -4 -4 3 -6 2 -13 -4 -17 -5 -3 -10 -1 -10 5 0 6 -5 8 -11 4 -8 -5
-8 -9 1 -14 9 -6 7 -11 -9 -20 -17 -9 -26 -9 -37 1 -11 9 -14 7 -14 -12 -1
-23 -1 -24 -16 -4 -8 11 -13 24 -10 31 2 6 0 17 -5 25 -6 10 -9 7 -9 -13 0
-15 -4 -30 -10 -33 -16 -10 -12 -24 8 -23 9 0 24 -3 34 -6 11 -5 18 -2 21 11
4 14 5 14 6 -4 0 -13 5 -23 11 -23 5 0 6 7 3 17 -5 12 -3 14 7 8 9 -5 11 -4 6
3 -7 12 4 16 34 13 12 -1 12 0 2 7 -10 7 -10 11 2 21 8 7 20 10 26 6 6 -4 17
-1 25 5 8 6 19 9 25 5 5 -3 10 -2 10 3 0 17 -28 22 -34 6 -3 -8 -10 -14 -17
-14 -6 0 -9 6 -6 13 6 18 -8 53 -16 40z"/>
<path d="M2150 859 c0 -6 -9 -8 -20 -4 -12 4 -20 2 -20 -5 0 -6 5 -8 10 -5 6
3 10 1 10 -6 0 -8 5 -7 17 2 9 8 19 13 22 12 14 -3 11 5 -4 10 -8 4 -15 2 -15
-4z"/>
<path d="M2687 853 c-9 -2 -15 -9 -12 -14 4 -5 1 -9 -6 -9 -10 0 -10 -3 0 -12
11 -10 14 -10 18 0 3 6 11 12 19 12 9 0 13 4 10 9 -4 5 0 12 6 14 16 7 -10 7
-35 0z"/>
<path d="M390 834 c0 -8 5 -14 10 -14 6 0 10 4 10 10 0 5 7 7 15 4 8 -4 15
-15 15 -25 0 -10 5 -19 10 -19 28 0 -6 48 -37 55 -15 2 -23 -1 -23 -11z"/>
<path d="M1676 835 c5 -13 4 -16 -4 -11 -7 4 -12 2 -12 -3 0 -6 4 -11 9 -11 5
0 8 -10 5 -23 -2 -15 1 -24 9 -24 8 0 14 6 14 14 0 7 -4 13 -9 13 -10 0 -6 23
5 31 4 3 1 12 -8 19 -13 11 -14 10 -9 -5z"/>
<path d="M2781 735 c-1 -58 -4 -112 -7 -120 -4 -11 1 -15 17 -16 13 0 66 -4
117 -7 70 -5 92 -4 92 6 0 6 -5 12 -11 12 -6 0 -9 10 -8 23 2 12 -1 29 -6 37
-5 8 -10 20 -10 25 -1 6 -6 9 -13 8 -12 -3 -76 56 -119 110 -42 50 -51 38 -52
-78z m55 51 c8 -8 14 -22 14 -30 0 -9 5 -16 10 -16 6 0 10 -10 11 -22 0 -22 1
-22 8 -3 8 19 8 19 20 -3 16 -30 5 -102 -15 -102 -8 0 -15 8 -15 18 -1 16 -2
16 -6 -1 -7 -26 -27 -15 -34 19 -5 23 -7 24 -8 7 0 -13 -5 -23 -11 -23 -11 0
-14 12 -12 45 3 47 7 55 27 56 15 1 16 2 3 6 -11 3 -16 14 -16 34 1 33 4 35
24 15z m105 -111 c5 4 9 -1 9 -10 0 -9 5 -13 10 -10 6 4 10 -7 10 -27 -1 -29
-2 -31 -11 -14 -9 14 -13 15 -19 6 -15 -24 -26 -1 -21 42 3 24 6 35 9 25 2 -9
8 -15 13 -12z"/>
<path d="M2930 823 c0 -14 -2 -15 -9 -5 -5 8 -15 12 -23 10 -9 -2 6 -20 43
-50 l57 -48 -1 51 c-2 42 -5 49 -19 45 -10 -2 -21 0 -24 5 -9 15 -24 10 -24
-8z"/>
<path d="M1512 804 c-18 -20 -5 -38 14 -20 15 16 19 36 7 36 -5 -1 -14 -7 -21
-16z"/>
<path d="M470 796 c0 -20 -22 -25 -39 -9 -7 8 -16 11 -19 8 -3 -3 0 -11 6 -17
14 -14 119 -21 126 -9 3 4 -14 6 -37 4 -33 -2 -38 -1 -24 7 9 6 15 15 12 21
-9 14 -25 11 -25 -5z"/>
<path d="M620 781 c0 -17 5 -31 10 -31 6 0 10 11 10 24 0 14 -4 28 -10 31 -6
4 -10 -7 -10 -24z"/>
<path d="M2250 807 c0 -4 7 -19 16 -32 16 -25 16 -25 -15 -25 -24 0 -31 -4
-31 -19 0 -11 5 -23 10 -26 6 -3 10 0 10 8 0 8 11 18 25 21 30 8 31 12 5 51
-11 17 -20 26 -20 22z"/>
<path d="M2090 785 c-7 -9 -19 -14 -27 -11 -8 3 -11 1 -8 -4 3 -6 1 -10 -4
-10 -6 0 -11 -4 -11 -9 0 -5 10 -7 22 -3 14 3 19 2 14 -6 -9 -14 3 -15 24 -2
13 8 12 10 -2 10 -22 0 -23 8 -1 32 9 10 14 18 11 18 -3 0 -11 -7 -18 -15z"/>
<path d="M2391 781 c-1 -18 -5 -22 -21 -18 -11 3 -22 2 -25 -3 -7 -11 24 -22
37 -13 7 4 8 1 3 -7 -4 -7 -2 -16 6 -22 10 -7 9 -8 -6 -3 -33 12 -61 8 -82
-11 -10 -9 -10 -17 0 -38 16 -34 25 -33 19 3 -3 22 1 32 16 40 16 8 21 7 26
-5 3 -8 10 -12 16 -9 5 3 10 1 10 -4 0 -6 5 -11 11 -11 6 0 9 6 6 13 -2 6 -1
19 3 27 3 8 1 31 -6 50 -11 29 -13 31 -13 11z"/>
<path d="M2690 785 c-11 -13 -8 -15 14 -15 14 0 26 -4 26 -10 0 -5 4 -10 9
-10 4 0 6 11 3 25 -5 28 -32 34 -52 10z"/>
<path d="M651 779 c-2 -36 56 -52 67 -19 5 13 3 13 -13 0 -17 -14 -18 -13 -11
5 6 16 5 18 -5 8 -18 -18 -27 -16 -32 5 -4 14 -5 14 -6 1z"/>
<path d="M1651 770 c-1 -15 4 -31 10 -37 13 -13 5 -43 -10 -43 -5 0 -16 6 -24
14 -8 8 -19 11 -26 6 -9 -5 -4 -9 13 -14 15 -4 25 -10 22 -14 -2 -4 14 -8 36
-8 24 -1 35 2 28 6 -7 5 -20 5 -29 2 -13 -4 -14 -3 -5 9 13 17 28 56 17 46 -4
-5 -13 7 -19 25 -12 30 -13 31 -13 8z"/>
<path d="M1991 764 c-23 -29 -27 -44 -10 -44 5 0 8 4 5 9 -3 4 3 18 13 30 14
16 21 18 24 9 4 -9 6 -9 6 -1 2 24 -18 22 -38 -3z"/>
<path d="M1084 765 c-4 -8 -10 -13 -14 -10 -15 9 -23 -16 -10 -28 9 -9 11 -9
7 -1 -12 21 19 22 32 1 12 -19 14 -19 23 -3 9 16 11 16 25 -1 8 -10 11 -11 7
-3 -10 22 -46 60 -56 60 -5 0 -11 -7 -14 -15z"/>
<path d="M1736 772 c-3 -5 2 -13 11 -16 15 -6 15 -8 3 -16 -8 -6 -10 -10 -5
-11 39 -6 54 -5 49 2 -2 4 -12 5 -22 2 -15 -6 -15 -4 1 15 18 20 18 20 0 18
-10 -2 -21 1 -24 6 -4 7 -9 6 -13 0z"/>
<path d="M2468 773 c6 -2 12 -9 12 -14 0 -4 -7 -6 -15 -3 -9 4 -15 0 -15 -9 0
-22 37 -10 43 14 4 14 0 19 -16 18 -12 0 -16 -3 -9 -6z"/>
<path d="M2577 760 c-3 -12 -3 -20 -1 -17 3 3 19 1 35 -3 17 -5 31 -5 34 1 4
5 -5 9 -19 9 -14 0 -29 7 -34 16 -8 14 -10 13 -15 -6z"/>
<path d="M1211 761 c-12 -8 -10 -14 7 -35 24 -31 37 -20 22 18 -11 29 -10 29
-29 17z"/>
<path d="M1393 743 c-3 -6 -2 -17 2 -23 3 -5 0 -10 -7 -11 -7 0 -4 -4 7 -9 28
-12 45 -12 45 1 0 5 -4 7 -10 4 -5 -3 -10 1 -10 9 0 9 -4 16 -10 16 -5 0 -10
5 -10 10 0 7 6 7 18 1 13 -7 19 -6 19 2 0 16 -38 16 -44 0z"/>
<path d="M1294 730 c5 -24 4 -24 -9 -6 -17 22 -29 17 -19 -8 7 -18 59 -23 69
-6 3 6 -1 7 -9 4 -11 -4 -19 2 -26 17 l-11 24 5 -25z"/>
<path d="M2134 740 c-12 -5 -25 -14 -30 -21 -4 -8 -3 -10 4 -5 15 9 52 16 52
10 0 -3 -10 -9 -22 -14 -22 -8 -22 -9 4 -7 19 1 25 6 23 19 -4 20 11 25 18 6
2 -7 8 -9 13 -5 5 4 2 12 -6 17 -18 12 -28 11 -56 0z"/>
<path d="M1927 712 c2 -16 0 -21 -8 -17 -8 6 -8 2 0 -13 6 -12 16 -24 23 -28
6 -4 8 -3 5 3 -4 6 0 13 8 17 8 3 15 11 15 17 0 8 -5 7 -17 -2 -15 -12 -16
-12 -10 4 3 9 2 17 -3 17 -5 0 -10 6 -13 13 -2 6 -2 1 0 -11z"/>
<path d="M177 719 c-10 -6 -27 -9 -38 -6 -11 3 -16 1 -13 -5 4 -5 -4 -9 -17
-7 -13 1 -32 -1 -42 -6 -9 -4 -24 -4 -33 -1 -14 5 -15 -2 -10 -56 3 -35 12
-137 21 -228 8 -91 17 -184 20 -207 l6 -42 52 25 c29 13 58 24 65 24 6 0 12 4
12 9 0 10 -55 8 -82 -4 -10 -4 -16 -11 -13 -15 3 -5 -5 -6 -16 -3 -21 6 -21 7
-3 21 13 10 15 16 7 19 -18 7 -25 61 -15 116 8 41 7 46 -5 35 -12 -9 -13 -7
-10 13 2 13 7 32 12 42 5 12 2 22 -8 30 -9 8 -17 38 -21 88 -3 42 -8 83 -11
91 -4 10 6 18 36 28 37 13 43 12 54 -3 6 -9 15 -63 19 -119 5 -57 10 -123 12
-148 3 -25 5 -69 5 -97 0 -29 5 -53 10 -53 11 0 5 140 -10 245 -5 33 -8 83 -7
112 0 28 -2 49 -6 46 -5 -2 -8 3 -8 13 0 12 6 15 21 11 15 -4 23 0 26 13 3 10
12 21 22 23 12 4 13 5 1 6 -8 0 -23 -4 -33 -10z"/>
<path d="M1524 718 c-8 -13 16 -38 35 -37 11 0 9 3 -6 9 -13 5 -23 15 -23 21
0 8 4 8 15 -1 9 -7 18 -10 22 -6 3 3 1 6 -6 6 -7 0 -10 4 -7 8 3 5 -2 9 -10 9
-8 0 -17 -4 -20 -9z"/>
<path d="M2552 714 c-12 -13 -9 -14 23 -12 32 2 35 4 19 15 -22 16 -26 16 -42
-3z"/>
<path d="M2715 700 c-18 -8 -19 -9 -1 -9 13 -1 16 -6 12 -17 -5 -14 -4 -15 9
-4 8 7 13 16 10 20 -3 5 1 11 7 13 9 4 8 5 -2 6 -8 0 -24 -4 -35 -9z"/>
<path d="M2043 674 c-4 -11 -8 -12 -13 -4 -5 8 -9 7 -13 -4 -9 -24 30 -20 43
4 8 14 8 20 0 20 -6 0 -13 -7 -17 -16z"/>
<path d="M2640 684 c0 -6 6 -16 13 -23 10 -11 8 -13 -10 -8 -21 5 -21 4 -6
-19 8 -13 23 -24 32 -25 9 0 31 -2 49 -5 25 -3 32 0 32 14 0 14 -2 15 -10 2
-5 -8 -12 -11 -16 -7 -4 3 -1 13 5 21 10 12 9 14 -6 11 -10 -1 -17 -7 -16 -12
1 -5 -4 -10 -12 -10 -7 0 -11 7 -8 16 3 12 2 11 -7 -2 -6 -9 -16 -15 -21 -11
-6 4 -7 10 0 17 6 8 5 19 -5 31 -8 11 -14 15 -14 10z"/>
<path d="M2170 671 c0 -5 -7 -8 -16 -7 -9 0 -19 -4 -21 -11 -3 -8 7 -11 30
-10 24 1 32 5 26 13 -5 6 -6 14 -2 17 3 4 1 7 -5 7 -7 0 -12 -4 -12 -9z"/>
<path d="M82 607 c-2 -45 0 -49 10 -32 18 30 20 61 5 73 -11 9 -14 2 -15 -41z"/>
<path d="M2467 642 c4 -16 11 -22 23 -19 9 2 26 0 36 -6 16 -9 17 -8 7 5 -7 8
-10 18 -6 22 4 4 -4 3 -17 -2 -19 -7 -28 -5 -37 7 -10 14 -11 13 -6 -7z"/>
<path d="M1154 638 c3 -10 2 -18 -3 -18 -9 0 -33 -72 -26 -78 2 -2 7 7 11 22
3 15 13 26 23 26 13 0 13 2 2 9 -10 7 -11 9 -1 13 11 3 11 8 1 24 -10 15 -11
15 -7 2z"/>
<path d="M627 573 c-12 -11 -7 -57 13 -113 11 -30 19 -47 20 -37 0 9 5 17 10
17 18 0 10 35 -14 57 -17 16 -22 30 -18 52 4 31 1 37 -11 24z"/>
<path d="M1372 562 c3 -12 1 -24 -6 -27 -6 -3 -1 -3 12 -1 14 3 22 -1 22 -9 0
-8 4 -17 10 -20 7 -4 7 2 1 18 -6 14 -7 28 -3 32 3 3 -2 3 -12 -1 -13 -5 -17
-4 -12 4 3 6 1 14 -5 18 -8 5 -10 1 -7 -14z"/>
<path d="M1785 558 c-9 -35 -3 -55 11 -37 6 8 8 25 4 39 l-7 25 -8 -27z"/>
<path d="M2090 560 c-12 -8 -10 -10 9 -10 21 0 22 -2 10 -17 -12 -14 -12 -16
0 -8 11 6 13 4 8 -9 -4 -10 -3 -15 4 -11 5 4 16 1 24 -5 9 -7 15 -8 15 -2 0 5
-7 13 -16 16 -11 4 -14 13 -11 27 3 12 3 18 0 15 -4 -3 -11 -2 -17 4 -7 5 -17
5 -26 0z"/>
<path d="M1010 515 c0 -30 3 -35 23 -34 16 1 18 2 5 6 -22 6 -23 12 -3 27 13
10 13 13 -5 24 -19 11 -20 10 -20 -23z"/>
<path d="M1265 534 c-9 -9 -14 -23 -11 -31 3 -8 6 -20 7 -26 0 -7 4 -3 8 8 5
12 4 23 -3 27 -8 6 -8 8 0 8 7 0 14 7 18 15 7 19 1 19 -19 -1z"/>
<path d="M1142 528 c-7 -7 -12 -16 -12 -22 0 -5 7 -1 15 10 13 17 14 17 15 2
0 -11 5 -15 15 -12 11 4 15 -1 16 -17 1 -17 3 -19 6 -7 5 19 -15 52 -33 55 -6
1 -16 -3 -22 -9z"/>
<path d="M2310 530 c0 -7 -3 -11 -6 -7 -8 8 -44 -25 -38 -35 3 -4 1 -8 -4 -8
-6 0 -8 -8 -5 -18 7 -30 29 -22 27 10 -2 28 12 40 18 14 3 -12 5 -12 16 0 11
12 10 14 -4 14 -14 0 -14 3 -4 15 7 9 10 18 6 22 -3 3 -6 0 -6 -7z"/>
<path d="M1533 520 c-24 -10 -30 -25 -13 -35 6 -3 10 -2 10 3 0 5 9 12 20 15
11 3 20 10 20 16 0 13 -7 13 -37 1z"/>
<path d="M278 501 c-4 -13 -11 -20 -18 -16 -8 5 -9 -19 -4 -87 7 -99 11 -112
33 -99 11 7 12 29 5 117 -6 68 -12 100 -16 85z"/>
<path d="M1372 463 c0 -54 1 -56 13 -33 13 24 11 68 -4 83 -5 5 -9 -18 -9 -50z"/>
<path d="M2576 488 c-3 -18 -8 -44 -11 -57 -2 -13 5 -43 15 -67 22 -48 24 -58
11 -50 -13 8 -21 -18 -10 -35 7 -11 9 -10 9 6 0 15 2 17 9 6 5 -7 14 -10 20
-7 6 4 9 11 7 15 -3 4 6 14 19 21 15 8 23 20 21 29 -3 9 -8 36 -11 61 -7 45
-24 88 -25 62 0 -7 -4 -10 -10 -7 -5 3 -10 2 -10 -4 0 -5 6 -12 13 -14 9 -4 9
-6 -1 -6 -10 -1 -10 -6 2 -23 12 -17 13 -25 3 -37 -10 -12 -9 -14 3 -9 11 4
16 -1 18 -18 2 -30 -20 -32 -47 -2 -17 18 -20 32 -17 86 2 41 8 67 17 73 11 7
11 9 -2 9 -11 0 -19 -11 -23 -32z"/>
<path d="M1536 481 c-4 -6 -14 -7 -23 -4 -13 5 -15 2 -10 -11 4 -10 7 -20 7
-22 0 -2 5 -4 10 -4 6 0 10 6 10 14 0 8 6 16 13 19 6 2 9 7 6 11 -4 4 -10 3
-13 -3z"/>
<path d="M724 444 c1 -19 8 -40 15 -47 10 -9 10 -7 2 15 -7 20 -7 28 2 30 9 2
7 8 -5 20 -16 16 -17 15 -14 -18z"/>
<path d="M961 439 c-1 -19 5 -28 19 -32 17 -4 20 0 19 26 -1 24 -3 26 -6 10
-2 -13 -8 -23 -13 -23 -5 0 -11 10 -13 23 -4 20 -4 19 -6 -4z"/>
<path d="M1820 448 c0 -6 -3 -8 -6 -5 -10 9 -46 -41 -41 -56 3 -6 6 -4 6 7 1
15 4 16 15 7 12 -10 13 -8 9 8 -4 15 -1 21 11 21 9 0 16 7 16 15 0 8 -2 15 -5
15 -3 0 -5 -5 -5 -12z"/>
<path d="M2980 441 c-5 -11 -10 -50 -11 -88 0 -60 -15 -169 -18 -135 0 6 -8
12 -17 12 -9 0 -14 6 -12 12 3 7 -1 33 -9 57 -7 24 -13 63 -13 85 0 23 -5 48
-11 56 -8 11 -9 7 -4 -17 4 -21 3 -33 -4 -33 -6 0 -11 11 -11 24 0 23 -18 48
-21 29 -6 -38 -3 -63 8 -63 12 0 14 -5 17 -42 1 -7 5 -16 10 -20 10 -7 12
-160 2 -176 -3 -5 -5 -40 -4 -76 3 -63 4 -66 29 -66 22 0 27 6 38 48 8 34 9
56 2 75 -8 20 -7 28 4 34 9 6 17 49 25 148 6 77 14 143 16 147 3 5 3 8 0 8 -3
0 -10 -9 -16 -19z m-42 -308 c1 -56 -5 -83 -20 -83 -9 0 -10 103 0 123 10 20
19 2 20 -40z"/>
<path d="M1062 373 c-1 -49 -6 -73 -14 -73 -9 0 -9 -3 0 -12 19 -19 23 -4 19
78 l-3 79 -2 -72z"/>
<path d="M1945 420 c0 -8 7 -14 13 -12 16 3 16 -15 0 -20 -9 -3 -9 -6 0 -12 7
-4 12 -2 12 4 0 6 4 9 9 6 5 -4 7 3 4 15 -3 11 -11 18 -19 15 -7 -3 -15 0 -17
7 -2 7 -3 5 -2 -3z"/>
<path d="M412 403 c-1 -32 11 -43 23 -23 3 6 0 10 -7 11 -7 0 -4 4 7 9 16 7
17 9 3 9 -9 1 -18 7 -21 14 -2 6 -4 -3 -5 -20z"/>
<path d="M1917 386 c-8 -20 3 -56 17 -57 6 -1 18 0 26 1 12 2 12 -2 -3 -17
-18 -21 -23 -63 -7 -63 6 0 8 11 4 25 -5 22 -3 25 19 25 14 0 30 -7 35 -17 11
-19 3 -95 -10 -104 -5 -3 -3 -9 5 -12 11 -4 16 8 21 55 6 46 10 58 22 54 8 -3
14 -1 14 4 0 5 12 16 28 24 15 8 23 15 17 16 -5 0 -3 5 5 10 13 8 12 10 -2 10
-10 0 -18 -7 -18 -16 0 -8 -4 -13 -9 -10 -5 4 -12 0 -14 -6 -3 -7 -6 -2 -6 12
-1 19 -4 21 -10 11 -5 -8 -7 -20 -4 -28 3 -8 -2 -13 -12 -13 -9 0 -16 7 -14
18 3 30 -1 42 -12 42 -7 0 -9 -10 -5 -25 5 -19 3 -23 -9 -19 -13 6 -19 17 -17
35 1 4 -8 4 -20 1 -14 -3 -19 -1 -14 7 9 13 -2 51 -14 51 -4 0 -10 -6 -13 -14z"/>
<path d="M433 363 c-7 -2 -13 -19 -13 -36 0 -37 16 -26 24 16 2 15 4 27 3 26
-1 0 -8 -3 -14 -6z"/>
<path d="M2128 319 c-16 -38 -16 -40 0 -37 12 2 18 14 19 41 1 20 1 37 0 37
-1 0 -10 -18 -19 -41z"/>
<path d="M2244 308 c-5 -8 0 -9 16 -5 13 3 30 1 37 -5 10 -8 13 -6 13 6 0 19
-55 23 -66 4z"/>
<path d="M2988 228 c-3 -51 -7 -99 -9 -107 -2 -7 2 -16 9 -18 9 -4 12 22 12
106 0 61 -2 111 -4 111 -2 0 -6 -42 -8 -92z"/>
<path d="M2222 195 c-15 -32 -17 -78 -3 -56 5 8 7 20 4 28 -3 7 -1 13 4 13 5
0 9 9 10 20 2 26 -1 25 -15 -5z"/>
<path d="M645 108 c-22 -12 -53 -21 -70 -21 l-30 2 30 -7 c22 -6 41 -1 73 16
23 13 42 26 42 28 0 6 -1 5 -45 -18z"/>
<path d="M1927 86 c-4 -10 7 -16 39 -21 35 -5 44 -10 44 -27 0 -19 -4 -20 -62
-13 -57 7 -61 6 -46 -9 18 -18 108 -23 108 -6 0 6 9 10 20 10 11 0 20 -4 20
-10 0 -5 12 -9 28 -9 21 1 23 3 6 6 -16 3 -20 9 -17 24 4 13 11 18 20 15 8 -3
28 -6 44 -6 22 0 29 -5 29 -20 0 -16 7 -20 36 -20 24 0 33 4 28 11 -8 13 75 8
109 -6 13 -6 16 -4 11 9 -4 10 -12 15 -19 12 -8 -3 -16 2 -19 11 -4 9 -13 13
-22 9 -10 -4 -23 3 -34 16 -17 21 -19 21 -14 3 3 -14 -3 -23 -21 -32 -22 -10
-27 -8 -40 10 -8 12 -15 18 -15 13 0 -5 -7 -3 -15 4 -9 7 -18 10 -22 7 -3 -4
-13 -2 -20 5 -11 9 -16 9 -23 -1 -4 -8 -12 -11 -18 -7 -5 3 -13 -2 -17 -12 -6
-15 -9 -13 -21 11 -8 15 -19 25 -24 22 -6 -4 -16 -3 -22 2 -23 13 -46 13 -51
-1z"/>
</g>
</svg>
