<?xml version="1.0" standalone="no"?>
<!DOCTYPE svg PUBLIC "-//W3C//DTD SVG 20010904//EN"
 "http://www.w3.org/TR/2001/REC-SVG-20010904/DTD/svg10.dtd">
<svg version="1.0" xmlns="http://www.w3.org/2000/svg"
 width="300.000000pt" height="169.000000pt" viewBox="0 0 300.000000 169.000000"
 preserveAspectRatio="xMidYMid meet">
<metadata>
Created by potrace 1.10, written by Peter Selinger 2001-2011
</metadata>
<g transform="translate(0.000000,169.000000) scale(0.050000,-0.050000)"
fill="#000000" stroke="none">
<path d="M291 3325 c13 -67 66 -613 61 -619 -2 -3 -45 8 -95 23 -193 58 -246
51 -253 -33 -6 -75 41 -196 77 -196 31 0 22 35 -13 48 -18 7 -27 25 -21 42 7
17 2 30 -11 30 -12 0 -17 5 -11 12 6 6 34 -3 61 -21 48 -31 51 -31 91 23 33
44 42 48 42 20 1 -19 14 -40 31 -47 43 -16 17 -46 -32 -37 -29 6 -38 0 -31
-18 13 -34 -24 -72 -57 -59 -14 5 -32 1 -39 -11 -7 -11 -25 -15 -42 -9 -16 6
-29 1 -29 -12 0 -13 9 -18 20 -11 11 7 20 -3 20 -23 0 -31 3 -31 29 4 26 34
30 35 30 5 1 -18 -8 -39 -19 -46 -25 -16 -7 -50 26 -50 14 0 12 8 -6 20 -24
16 -21 19 15 20 37 0 44 8 35 45 -9 34 1 50 39 68 39 18 51 18 51 0 0 -13 9
-10 20 7 14 22 19 23 20 4 0 -44 40 -4 42 42 1 35 5 32 20 -16 10 -33 17 -82
14 -110 -2 -27 7 -70 20 -94 25 -45 3 -80 -36 -56 -26 16 -25 -3 3 -56 23 -42
24 -42 40 -4 14 35 16 34 12 -8 -7 -74 -43 -71 -81 8 -33 68 -35 69 -70 34
-37 -37 -53 -112 -21 -92 9 6 17 23 17 39 0 32 41 31 65 -1 23 -32 17 -50 -12
-38 -44 16 -52 -82 -12 -143 23 -36 37 -44 44 -26 5 15 -4 46 -19 69 -23 36
-23 46 4 68 22 18 30 19 30 1 0 -13 9 -18 20 -11 11 7 20 -7 20 -31 0 -32 -7
-39 -26 -26 -14 9 -11 3 8 -15 27 -24 37 -84 49 -275 13 -229 16 -243 57 -244
40 0 41 -1 5 -29 -33 -24 -36 -48 -28 -176 10 -142 8 -149 -31 -138 -27 7 -36
3 -26 -13 8 -13 27 -23 42 -23 34 0 31 -82 -4 -110 -14 -11 -25 -49 -26 -85 0
-36 0 -91 0 -124 0 -32 9 -64 21 -72 14 -8 20 1 16 24 -3 20 2 49 11 64 10 16
9 33 -1 40 -10 7 -17 24 -15 38 2 14 4 44 6 66 3 62 43 25 40 -37 -1 -30 5
-110 13 -179 10 -89 8 -133 -11 -155 -26 -31 -16 -37 45 -31 19 2 35 -8 35
-21 0 -14 -6 -19 -13 -12 -7 7 -31 2 -55 -11 -23 -13 -51 -24 -62 -24 -42 -3
-110 -35 -102 -47 4 -8 -16 -15 -45 -15 -29 -1 -70 -9 -90 -19 -37 -16 -37
-15 -1 27 20 24 57 43 82 43 56 0 146 40 146 66 0 10 -14 8 -30 -6 -42 -35
-40 -40 -65 220 -28 294 -24 544 10 555 14 5 25 29 25 55 0 26 11 51 25 56 14
4 7 4 -15 -1 -22 -6 -64 -11 -93 -13 -29 -1 -49 -9 -44 -17 6 -9 -16 -16 -47
-16 -174 0 -170 2 -157 -119 6 -60 25 -276 43 -480 17 -203 37 -394 45 -423
l13 -54 125 54 c71 30 121 63 116 76 -5 13 4 28 19 34 18 7 24 1 17 -18 -13
-33 24 -40 43 -9 24 38 177 26 630 -49 283 -47 540 -89 630 -101 171 -23 968
-153 1110 -181 463 -89 1456 -178 1307 -116 -43 17 -5 91 41 79 23 -6 62 -12
87 -12 32 0 45 -12 45 -40 0 -48 109 -58 126 -12 11 27 32 26 228 -18 87 -20
126 -3 112 49 -6 22 -17 36 -26 31 -8 -5 -20 13 -25 40 -5 28 -4 50 3 50 8 0
13 17 13 39 0 21 -7 34 -15 28 -9 -5 -16 18 -16 51 0 48 7 58 33 48 27 -10 31
-3 21 36 -7 29 1 64 19 88 31 39 31 38 22 -17 -7 -36 0 -60 17 -67 15 -5 22
-20 15 -31 -8 -13 -4 -15 11 -6 18 11 18 22 -2 46 -23 28 -21 29 16 9 63 -34
94 -80 82 -124 -7 -27 0 -40 19 -40 16 0 24 -9 17 -20 -7 -11 -4 -34 6 -52 26
-47 48 -2 27 55 -10 26 -14 74 -10 107 23 181 19 190 -105 201 -107 10 -134
36 -115 109 7 28 16 127 20 220 12 264 13 270 52 268 19 -1 66 -3 104 -5 51
-2 68 -12 68 -38 -1 -19 6 -91 14 -159 16 -133 11 -143 -96 -212 -67 -42 -71
-73 -10 -76 34 -2 36 -5 10 -12 -19 -5 -35 -17 -35 -26 0 -9 -11 -21 -25 -26
-14 -5 -1 -6 29 -2 30 4 61 -3 68 -16 24 -38 67 44 55 104 -6 31 -1 61 11 69
12 7 22 4 22 -8 0 -11 13 -21 28 -21 33 0 55 -49 40 -88 -16 -41 27 -112 68
-112 19 0 48 -10 64 -21 22 -15 9 -17 -45 -8 -41 8 -76 6 -77 -4 -21 -145 -9
-281 25 -272 39 10 47 29 23 52 -33 34 -20 68 26 66 26 -2 48 -10 48 -18 0 -8
16 -16 35 -16 30 -2 29 -4 -5 -18 -22 -8 -51 -11 -65 -6 -16 6 -21 -2 -13 -22
6 -18 18 -31 25 -29 34 7 124 -46 112 -66 -10 -16 -19 -14 -31 5 -12 18 -17
19 -18 3 0 -13 9 -29 20 -36 12 -7 7 -31 -13 -61 -28 -43 -28 -49 -1 -49 17 0
35 11 41 25 8 20 10 20 11 0 4 -64 115 -26 117 40 2 36 6 123 9 195 l6 130
115 -6 c71 -4 115 2 115 15 0 12 -43 21 -101 21 -106 0 -127 18 -119 105 2 25
3 106 2 180 -1 107 5 135 28 135 17 0 30 -8 30 -18 0 -10 13 -23 29 -29 24 -9
26 -2 10 39 -10 28 -19 59 -19 69 0 29 60 23 63 -6 2 -14 10 16 18 65 12 74
14 64 10 -55 -4 -111 1 -145 22 -145 25 0 35 -30 32 -95 0 -14 6 -25 15 -25
22 0 42 -120 25 -147 -8 -13 -16 -129 -16 -258 l-1 -235 52 0 c59 0 117 155
90 240 -7 23 -4 54 8 68 12 14 26 83 32 154 11 139 25 311 41 522 l11 133 -86
11 c-47 5 -167 15 -266 22 -403 25 -1682 114 -2320 160 -374 28 -932 68 -1240
91 -1512 109 -1550 112 -1550 140 0 10 14 13 30 6 20 -7 30 1 30 24 0 19 15
45 33 59 23 17 26 28 10 38 -13 8 -24 3 -26 -12 -1 -14 -13 51 -27 144 l-25
170 -2 -168 c-4 -210 -20 -201 -35 20 -7 92 -15 191 -19 218 -45 323 -78 799
-49 706 12 -35 29 -70 40 -76 11 -7 20 -43 20 -81 0 -66 3 -69 58 -59 51 9 57
5 48 -30 -7 -25 -1 -40 16 -40 20 0 20 -6 3 -23 -18 -18 -33 -12 -64 25 -35
42 -40 43 -40 11 -1 -20 18 -52 40 -70 25 -20 46 -67 53 -118 6 -49 20 -79 31
-72 11 7 16 0 10 -15 -5 -15 -1 -45 10 -65 14 -27 13 -34 -4 -24 -16 10 -19
-3 -10 -42 11 -54 10 -55 -20 -18 -17 21 -31 30 -30 20 1 -33 48 -79 84 -82
41 -3 45 15 10 52 -14 15 -16 22 -4 15 12 -6 33 8 48 32 26 41 25 42 -10 14
-33 -27 -35 -27 -24 4 13 35 -24 136 -51 136 -9 0 -10 10 -2 23 23 38 27 124
6 150 -13 15 -13 28 1 36 12 8 21 40 21 72 0 33 8 59 18 59 29 0 59 -108 47
-170 -6 -32 -3 -51 8 -44 35 22 17 223 -21 231 -22 4 -31 18 -23 37 12 32 -20
86 -51 86 -28 0 -21 -75 7 -87 15 -6 12 -10 -9 -11 -19 -1 -59 9 -90 22 -31
13 -58 25 -60 26 -2 1 -14 122 -26 271 -12 148 -25 301 -29 339 -5 39 -9 77
-10 85 0 8 -41 15 -90 15 -87 0 -90 -2 -80 -55z m389 -1903 c0 -21 6 -53 12
-71 9 -24 3 -29 -25 -20 -36 12 -36 11 0 -18 24 -20 35 -53 33 -96 -2 -37 -2
-76 0 -87 3 -11 4 -26 3 -33 -1 -7 7 -40 16 -74 10 -35 10 -67 1 -73 -9 -6 -9
-39 0 -75 64 -255 12 -419 -85 -269 -36 54 -57 386 -25 381 22 -4 24 245 3
267 -7 7 -14 -50 -15 -126 -2 -125 -4 -130 -19 -58 -13 68 -25 283 -21 365 3
44 122 31 122 -13z m162 4 c5 2 7 1 5 -2 -1 -3 6 -39 16 -80 10 -41 22 -91 27
-112 5 -20 -5 -56 -21 -79 -16 -23 -28 -56 -28 -72 1 -18 11 -9 24 19 23 50
23 50 30 -18 5 -42 -2 -74 -19 -85 -19 -12 -20 -21 -3 -32 24 -16 33 -51 29
-110 -2 -40 -54 -48 -67 -10 -5 14 -9 -4 -10 -40 -2 -62 20 -86 44 -47 6 10 0
23 -14 29 -14 5 -5 11 20 11 25 1 46 -5 47 -13 1 -8 4 -67 7 -130 l5 -115 -68
0 c-41 0 -63 8 -56 20 7 12 3 117 -8 235 -50 523 -52 672 -8 648 23 -12 44
-20 48 -17z m178 -7 c0 -12 8 -16 18 -10 22 13 51 -258 31 -290 -8 -13 -3 -30
11 -39 34 -21 7 -60 -41 -60 -39 0 -51 -22 -26 -46 7 -8 25 -4 39 7 18 16 23
12 19 -15 -5 -38 -12 -39 -64 -9 -35 19 -84 390 -60 452 13 35 73 43 73 10z
m225 -28 c31 -44 18 -78 -18 -48 -30 24 -33 22 -21 -21 8 -34 1 -57 -22 -75
-19 -14 -25 -26 -14 -26 30 -1 62 25 76 59 6 17 10 -42 9 -130 -2 -88 4 -179
13 -203 14 -37 9 -41 -41 -35 -54 7 -53 6 8 -15 59 -21 90 -57 48 -57 -23 0
-16 -61 14 -115 25 -45 12 -145 -18 -145 -30 0 -59 74 -59 149 0 39 -10 71
-22 71 -15 0 -17 -34 -8 -105 13 -102 49 -155 104 -155 14 0 26 -13 26 -30 0
-21 -21 -30 -72 -30 -52 0 -69 8 -62 27 6 14 3 66 -6 115 -13 71 -38 415 -46
628 -5 155 51 227 111 141z m207 -74 c-8 -47 -4 -77 8 -77 11 0 20 -13 20 -30
0 -16 -9 -30 -20 -30 -11 0 -19 -43 -17 -95 2 -90 3 -92 15 -25 l13 70 14 -65
c15 -70 1 -131 -26 -114 -9 5 -16 -6 -14 -26 1 -19 -5 -66 -13 -105 -8 -38 -7
-60 2 -47 12 18 26 16 55 -5 38 -28 38 -28 0 -28 -33 -1 -34 -4 -9 -20 25 -16
24 -19 -8 -20 -21 0 -49 16 -64 35 -34 46 -27 -5 10 -72 14 -26 20 -68 14 -93
-10 -38 -3 -48 33 -54 58 -8 74 -76 18 -76 -56 0 -105 21 -93 41 6 9 2 57 -10
107 -11 50 -25 252 -32 448 l-12 357 64 0 c63 0 64 -1 52 -76z m-1177 -85 c9
-80 6 -91 -22 -80 -19 7 -33 35 -33 66 0 55 -32 102 -69 102 -12 0 -7 -9 9
-20 18 -11 20 -20 6 -20 -12 0 -27 -16 -32 -35 -6 -21 -10 -13 -12 21 -1 39
-10 52 -27 41 -16 -9 -14 -2 4 21 15 19 44 31 65 25 20 -5 36 1 36 13 0 63 66
-55 75 -134z m1401 53 c-4 -66 -14 -93 -33 -89 -37 7 -21 -61 17 -71 27 -7 27
-6 0 13 -16 12 -23 22 -15 22 8 0 22 0 30 0 8 0 16 -41 17 -91 2 -62 -4 -88
-20 -82 -35 13 -29 -73 7 -101 21 -17 23 -25 6 -25 -14 -1 -25 -10 -25 -21 0
-11 10 -18 22 -15 15 3 26 -68 32 -213 l10 -218 -47 13 c-26 7 -56 13 -67 13
-11 0 -22 69 -25 155 -3 85 -10 185 -16 222 -9 50 -5 63 13 52 16 -10 19 -7 8
10 -24 40 -49 339 -36 435 19 140 131 132 122 -9z m224 14 c0 -30 -11 -60 -25
-66 -15 -6 -11 -10 10 -11 38 -2 51 -82 14 -82 -12 0 -16 -8 -10 -18 13 -21
-45 -47 -71 -31 -10 6 -18 -3 -18 -20 0 -18 14 -37 30 -44 44 -17 36 -46 -10
-37 -22 4 -40 -1 -40 -11 0 -11 19 -19 41 -19 26 0 36 -8 27 -23 -10 -16 -1
-20 27 -12 30 7 42 1 41 -22 0 -18 5 -143 12 -278 l13 -245 -68 0 c-58 0 -69
7 -69 45 1 139 -33 381 -46 335 -13 -45 -14 -44 -12 14 1 35 9 59 18 54 8 -6
10 107 4 250 -13 294 -12 299 71 286 51 -7 61 -17 61 -65z m149 19 c-6 -10 -3
-18 8 -18 11 0 23 11 28 24 16 50 48 -6 52 -95 3 -51 -2 -88 -11 -83 -22 13
-67 -38 -50 -57 8 -8 -2 -10 -22 -2 -40 14 -47 -176 -7 -201 11 -7 13 -2 5 11
-8 13 -1 29 17 35 22 9 31 39 31 100 0 48 8 88 17 88 33 0 40 -25 20 -77 -11
-29 -23 -134 -26 -233 -3 -99 -12 -196 -20 -215 -12 -26 -6 -35 23 -35 34 0
37 14 33 135 l-4 135 18 -140 c21 -171 12 -206 -55 -214 -72 -8 -85 -56 -16
-56 30 0 47 9 40 20 -7 11 -3 20 9 20 11 0 21 -28 21 -61 0 -68 -129 -87 -131
-19 0 17 -7 88 -15 160 -41 381 -31 825 18 806 15 -5 23 -18 17 -28z m324
-135 c8 -93 5 -100 -32 -93 -25 5 -49 -7 -61 -30 -29 -53 -25 -69 10 -40 20
16 30 17 30 3 0 -12 14 -17 30 -10 31 12 30 19 41 -363 2 -84 -7 -131 -29
-158 -29 -36 -29 -38 0 -27 26 9 32 -5 33 -77 1 -82 -2 -88 -52 -88 -76 1 -93
20 -95 110 -1 44 -8 266 -15 494 l-14 413 45 8 c69 11 101 -31 109 -142z m130
111 c0 -8 -7 -54 -14 -103 -8 -57 -3 -119 15 -174 l29 -86 22 85 c20 82 20 85
-22 72 -34 -11 -39 -8 -21 14 40 51 53 107 19 79 -25 -21 -27 -16 -11 40 22
76 40 99 40 52 0 -18 14 -33 30 -33 35 0 40 -42 8 -74 -12 -12 -16 -33 -8 -46
11 -18 20 -18 34 3 12 18 14 10 4 -23 -8 -27 -14 -68 -12 -89 1 -22 -9 -47
-22 -56 -18 -11 -15 -21 11 -36 38 -23 48 -79 14 -79 -12 0 -17 8 -11 17 6 9
-21 26 -60 38 -66 21 -69 20 -56 -22 8 -23 14 -54 14 -67 1 -13 13 -29 28 -35
16 -6 23 -3 17 7 -6 10 2 23 17 29 37 14 87 -100 57 -130 -14 -14 -33 -14 -60
0 -22 12 -46 16 -53 8 -7 -7 16 -22 53 -34 88 -29 115 -261 32 -277 l-47 -9
45 -15 c67 -22 60 -90 -10 -90 -76 1 -95 19 -98 100 -23 623 -25 963 -6 956
12 -4 22 -14 22 -22z m294 -22 c16 -10 22 -35 15 -63 -7 -26 -3 -52 8 -59 11
-7 14 1 8 19 -7 17 -2 31 10 31 26 0 21 44 -8 65 -11 8 -3 15 18 15 30 0 35
-11 27 -55 -6 -30 -4 -73 4 -95 9 -23 3 -74 -13 -120 -15 -44 -24 -96 -19
-115 5 -19 3 -31 -6 -26 -19 12 -101 -99 -101 -138 0 -17 9 -31 20 -31 19 0
28 29 22 66 -2 10 6 11 18 4 11 -7 21 -1 21 14 1 14 11 4 23 -24 12 -27 20
-62 18 -77 -3 -15 5 -21 17 -14 11 7 21 4 21 -8 0 -11 -8 -21 -19 -21 -11 0
-11 -25 0 -65 45 -155 8 -309 -54 -224 -24 32 -27 33 -27 3 0 -19 22 -39 50
-46 73 -18 69 -88 -5 -87 -93 3 -115 23 -117 109 -23 975 -22 999 69 942z
m318 -9 c35 -4 31 -83 -4 -83 -16 0 -39 -16 -51 -35 -19 -29 -20 -24 -11 25
l11 60 -28 -50 c-33 -58 -14 -77 64 -67 47 7 49 5 14 -11 -38 -18 -38 -19 5
-21 60 -1 62 -92 3 -142 -42 -37 -39 -119 5 -119 10 0 14 8 8 19 -6 10 -3 24
9 31 11 7 20 1 19 -14 -1 -49 -53 -96 -106 -96 -40 0 -53 -10 -53 -40 0 -22
10 -40 22 -40 15 0 13 -12 -5 -33 -23 -30 -20 -29 28 2 30 19 56 32 57 28 17
-76 16 -118 -2 -107 -25 16 -18 -29 10 -62 15 -18 24 -18 35 -1 9 14 15 8 15
-17 0 -22 6 -60 13 -85 7 -27 3 -45 -11 -45 -12 0 -22 23 -22 50 0 28 -9 50
-20 50 -11 0 -20 -16 -20 -35 0 -20 -18 -47 -40 -60 -38 -24 -58 -89 -25 -82
46 10 125 -31 125 -65 0 -39 -75 -51 -140 -22 -33 15 -32 2 -46 514 -15 566
-14 572 141 553z m256 -22 c36 -1 43 -15 46 -103 3 -59 -3 -97 -14 -90 -37 23
-64 -39 -34 -80 27 -37 28 -37 25 0 -2 21 5 41 17 45 14 5 17 -25 10 -86 -9
-80 -61 -154 -61 -87 0 12 11 16 25 7 17 -10 16 -4 -2 19 -16 19 -47 33 -70
32 -24 0 -32 -6 -18 -11 36 -15 31 -47 -7 -47 -26 0 -29 -15 -19 -85 22 -143
81 -219 121 -155 7 11 0 15 -14 10 -17 -7 -26 6 -26 37 0 35 9 44 35 37 46
-11 63 -81 37 -149 -12 -31 -13 -58 -3 -65 22 -13 21 -130 -1 -130 -9 0 -12
-19 -8 -42 7 -34 3 -37 -20 -18 -18 15 -25 49 -19 97 6 48 3 63 -9 45 -10 -16
-14 -40 -9 -54 6 -14 -9 -35 -31 -47 -39 -21 -61 -85 -27 -78 46 10 125 -31
125 -65 0 -30 -14 -38 -65 -38 -102 1 -105 10 -108 320 -1 160 -5 299 -7 310
-30 130 4 489 45 481 25 -4 64 -9 86 -10z m253 -30 c23 3 30 -5 23 -28 -8 -26
-3 -24 21 6 36 44 38 31 42 -319 1 -162 -3 -182 -39 -201 -66 -33 -68 -118 -3
-101 41 10 52 5 52 -23 -1 -30 -3 -31 -20 -5 -11 17 -20 26 -21 20 -1 -5 -5
-26 -9 -45 -3 -19 1 -31 10 -25 19 12 40 -37 40 -93 0 -26 -9 -34 -25 -25 -20
11 -20 8 0 -13 39 -42 31 -99 -15 -99 -36 0 -51 32 -42 86 2 10 -6 11 -18 4
-11 -7 -16 -35 -11 -62 10 -57 -22 -45 -51 19 -15 34 -17 29 -8 -26 12 -76 37
-100 106 -101 48 0 81 -51 52 -80 -57 -56 -179 3 -180 87 0 46 -3 198 -7 338
-4 141 -1 261 6 269 7 7 14 2 16 -11 1 -12 3 -32 5 -43 1 -11 10 -19 20 -18
10 1 24 -9 32 -23 11 -17 25 -18 53 -2 34 20 34 22 2 22 -19 1 -35 10 -35 21
0 11 -10 18 -22 15 -13 -3 -27 6 -32 20 -6 16 2 21 21 13 23 -8 27 -1 19 30
-7 30 -1 42 22 42 17 0 32 16 32 35 -1 30 -3 31 -20 5 -11 -16 -20 -22 -20
-13 0 10 -17 -3 -38 -29 l-37 -46 -15 66 c-21 98 7 369 37 346 13 -11 38 -16
57 -13z m396 -101 c7 -159 6 -199 -8 -278 -7 -47 -4 -88 10 -105 17 -20 17
-27 -2 -27 -15 0 -21 -16 -14 -40 11 -42 -14 -55 -36 -20 -7 12 -23 14 -36 6
-13 -7 -12 2 4 21 24 30 24 32 -5 21 -19 -7 -33 -2 -33 11 0 30 52 83 66 68 6
-6 6 8 0 31 -6 24 -20 48 -32 56 -13 8 -16 0 -9 -19 7 -18 1 -42 -14 -54 -20
-17 -30 -16 -38 3 -20 51 -49 -26 -41 -112 6 -67 5 -71 -8 -22 -8 33 -13 123
-11 200 2 77 5 185 5 241 l2 100 98 5 99 4 3 -90z m325 -75 c6 -80 3 -155 -7
-167 -10 -12 -11 -29 -3 -38 8 -8 -3 -6 -25 5 -30 16 -51 14 -79 -7 -32 -23
-33 -28 -6 -28 17 0 35 8 38 19 4 10 24 5 46 -10 38 -29 38 -29 0 -30 -38 0
-38 -1 -2 -28 20 -16 31 -38 24 -50 -7 -11 -2 -21 13 -21 16 0 18 -6 6 -15
-11 -8 -20 -46 -20 -85 0 -38 9 -77 20 -85 12 -9 10 -15 -7 -15 -14 0 -23 -11
-18 -25 17 -52 -78 -125 -115 -88 -41 41 -41 41 -43 -2 -1 -19 -8 -51 -17 -71
-11 -28 -5 -39 28 -48 43 -11 48 -61 4 -51 -21 5 -31 -23 -23 -65 2 -11 -7 -9
-21 4 -36 36 -33 384 4 408 15 9 19 18 8 18 -11 0 7 25 40 55 57 53 58 55 16
61 -39 6 -42 13 -24 58 16 43 15 48 -8 29 -21 -17 -27 -16 -28 2 0 14 -6 66
-14 115 -10 63 -8 81 6 61 11 -17 26 -23 35 -15 8 8 4 25 -9 38 -13 13 -24 67
-24 120 l0 96 97 0 98 0 10 -145z m-4165 29 c0 -26 -9 -41 -20 -34 -11 7 -20
41 -20 76 1 49 5 57 20 34 11 -16 20 -51 20 -76z m4491 74 c8 -13 13 -145 11
-295 -3 -150 -4 -309 -3 -353 1 -60 -10 -89 -44 -115 -31 -25 -34 -32 -10 -23
19 7 35 3 35 -8 0 -12 5 -33 11 -49 6 -17 -2 -28 -20 -28 -17 0 -31 12 -31 26
0 36 -49 34 -79 -1 -18 -23 -16 -33 13 -50 20 -11 26 -21 13 -21 -13 -1 -19
-18 -13 -39 11 -42 -22 -72 -56 -51 -15 10 -15 20 0 35 32 32 27 55 -10 41
-21 -9 -28 -29 -22 -61 5 -29 2 -42 -9 -31 -22 22 -29 150 -10 181 8 12 18 60
23 108 6 56 4 72 -7 47 -10 -24 -14 13 -10 98 3 76 15 144 27 151 15 9 15 30
2 66 -17 43 -15 50 9 41 16 -6 29 -1 29 11 0 12 -13 22 -30 22 -22 0 -30 22
-30 80 0 44 7 80 15 80 26 -1 76 -39 52 -40 -13 0 -19 -16 -14 -37 14 -53 56
-45 60 12 2 26 19 65 38 86 20 22 29 45 22 52 -7 8 -13 3 -13 -11 0 -13 -9
-19 -20 -12 -11 7 -20 2 -20 -10 0 -12 -8 -17 -19 -11 -10 6 -24 2 -31 -9 -23
-37 -50 1 -50 71 0 68 1 69 89 69 49 0 95 -10 102 -22z m594 -71 c19 -1 35 5
35 15 0 26 68 22 94 -4 31 -31 9 -86 -23 -59 -17 14 -24 12 -24 -9 0 -17 16
-30 37 -30 37 0 40 -75 17 -476 -2 -48 -41 -3 -41 48 0 28 -9 45 -20 38 -11
-7 -14 1 -8 19 8 19 1 31 -15 31 -19 1 -20 5 -4 15 17 11 15 51 -6 155 -16 77
-30 151 -31 165 -2 14 -11 25 -21 25 -10 0 -12 -19 -4 -43 9 -28 6 -38 -9 -28
-13 8 -22 0 -22 -19 0 -18 -7 -28 -17 -22 -9 6 -16 -2 -16 -17 0 -15 10 -23
24 -18 31 12 50 -64 23 -91 -16 -16 -13 -22 10 -22 36 0 64 -53 37 -69 -25
-16 -81 9 -81 36 0 14 -7 12 -18 -4 -10 -16 -16 40 -14 138 2 96 13 169 25
173 12 4 18 32 14 62 -5 34 -2 43 8 24 8 -16 31 -31 50 -33z m-4970 -36 c3
-70 4 -167 0 -202 -5 -59 -95 -42 -95 18 -1 35 -4 38 -20 13 -15 -23 -19 -18
-20 25 0 30 -9 55 -20 55 -11 0 -20 14 -20 30 0 17 9 30 20 30 11 0 20 -13 20
-30 0 -16 9 -30 20 -30 11 0 20 11 20 24 0 19 5 19 24 0 13 -13 33 -24 45 -24
12 0 8 9 -9 20 -27 18 -27 22 0 40 26 17 25 19 -4 20 -18 0 -38 7 -44 16 -5 9
11 16 36 16 25 0 46 -9 47 -21z m5610 -56 c43 -57 46 -69 21 -92 -16 -15 -24
-39 -19 -54 6 -14 -2 -37 -18 -50 -24 -20 -29 -14 -29 34 -1 44 -5 50 -20 27
-16 -25 -20 -23 -22 10 -2 22 -5 67 -7 100 -8 111 22 119 94 25z m-4830 -61
c14 5 25 -5 25 -22 0 -18 -11 -32 -25 -32 -17 -1 -18 -5 -3 -15 51 -34 49
-185 -2 -185 -14 0 -31 -14 -38 -31 -9 -24 -2 -29 27 -19 39 12 84 -74 55
-103 -26 -26 -130 16 -121 49 4 19 1 109 -9 200 -17 179 -15 191 34 166 17 -9
43 -13 57 -8z m-870 -221 c-6 -10 0 -24 12 -31 17 -10 14 -26 -7 -53 -17 -22
-29 -30 -26 -19 2 11 -3 49 -12 85 -17 74 6 136 29 74 8 -22 9 -47 4 -56z
m3810 -132 c25 -41 15 -101 -17 -101 -10 0 -7 -18 7 -41 21 -33 20 -44 -5 -59
-20 -13 -22 -19 -5 -20 15 0 25 -28 25 -73 0 -68 -3 -71 -35 -43 -66 57 -196
40 -138 -18 7 -7 13 -2 13 11 0 28 53 31 70 3 7 -11 0 -15 -16 -9 -30 12 -86
-41 -60 -57 9 -5 50 -15 91 -22 102 -19 110 -93 10 -90 -97 3 -170 26 -139 45
13 9 19 25 12 36 -15 24 -25 461 -10 446 22 -22 34 -228 13 -235 -12 -4 8 -7
44 -7 36 0 61 4 55 9 -5 6 5 21 23 34 25 18 28 32 11 62 -20 35 -22 36 -35 3
-16 -42 -69 -47 -69 -6 0 15 13 41 29 57 16 16 24 47 17 71 -14 57 74 60 109
4z m-235 -61 c0 -44 -10 -80 -22 -80 -19 0 -21 107 -3 145 16 33 25 11 25 -65z
m1199 -8 c31 -38 -35 -60 -101 -34 -45 18 -43 20 22 21 53 1 63 6 40 21 -16
11 -20 20 -7 20 12 0 33 -13 46 -28z m-665 -249 c20 17 26 10 26 -32 0 -64
-33 -60 -77 10 -22 35 -23 42 -3 24 20 -17 34 -18 54 -2z m343 -37 c-18 -23
-19 -29 -2 -19 16 10 25 4 25 -16 0 -39 -9 -39 -49 1 -35 35 -25 68 23 68 26
0 27 -5 3 -34z"/>
<path d="M814 985 c-19 -30 21 -111 47 -94 10 6 19 20 19 31 0 11 -8 15 -19 9
-10 -6 -21 9 -25 34 -4 31 -11 37 -22 20z"/>
<path d="M865 727 c-14 -6 -25 -38 -25 -71 0 -52 5 -57 30 -36 16 13 27 46 25
72 -2 26 -4 47 -4 46 -1 0 -12 -6 -26 -11z"/>
<path d="M1850 780 c-22 -9 -28 -18 -13 -19 23 -1 23 -7 3 -31 -14 -16 -17
-30 -7 -30 9 0 4 -9 -12 -19 -17 -10 -23 -26 -14 -34 18 -19 55 34 41 57 -6 9
2 16 17 16 14 0 28 18 30 40 1 22 1 39 -1 39 -2 -1 -22 -10 -44 -19z"/>
<path d="M2306 1274 c7 -19 5 -34 -4 -34 -10 0 -23 -22 -30 -48 -6 -27 -18
-64 -25 -83 -10 -24 -6 -31 10 -21 12 8 23 32 23 53 0 23 14 39 33 39 19 0 28
6 21 13 -8 7 -6 23 4 35 11 14 6 33 -14 51 -28 26 -30 26 -18 -5z"/>
<path d="M2260 906 c0 -39 9 -47 43 -42 61 9 65 70 5 81 -40 8 -48 1 -48 -39z"/>
<path d="M2747 990 c5 -33 2 -74 -7 -91 -10 -17 -10 -43 -1 -57 12 -19 19 -16
30 11 30 75 30 121 -1 159 -29 36 -30 35 -21 -22z"/>
<path d="M2751 450 c15 -86 29 -117 29 -64 0 21 11 29 30 21 17 -6 30 -4 30 6
-1 25 -39 80 -40 57 -1 -11 -15 -2 -32 20 -29 37 -30 35 -17 -40z"/>
<path d="M3065 1039 c-25 -10 -45 -26 -45 -37 0 -10 -4 -31 -10 -45 -20 -55
25 -91 59 -47 39 52 39 82 1 50 -26 -22 -29 -20 -18 9 8 19 28 30 47 26 21 -6
34 4 36 28 3 41 -4 43 -70 16z"/>
<path d="M3553 1076 c-14 -56 -2 -69 35 -37 16 13 25 37 19 52 -16 42 -41 35
-54 -15z"/>
<path d="M4187 1124 c-33 -22 -24 -80 11 -74 18 3 41 -2 52 -11 12 -9 20 3 20
31 0 26 -4 43 -8 39 -5 -5 -18 0 -31 10 -12 10 -32 12 -44 5z"/>
<path d="M4273 685 c-7 -19 -21 -56 -33 -81 -17 -40 -14 -46 15 -40 25 5 36
28 39 81 5 81 -3 95 -21 40z"/>
<path d="M4509 631 c-38 -29 -37 -30 11 -28 28 2 59 0 70 -3 38 -9 70 0 70 21
0 12 -8 16 -19 10 -10 -6 -24 -3 -31 9 -18 28 -56 25 -101 -9z"/>
<path d="M1900 3366 c0 -9 121 -15 270 -14 149 1 270 -6 270 -16 0 -10 9 -13
21 -6 42 27 163 32 147 7 -10 -16 -4 -20 20 -10 20 7 39 13 44 13 4 0 8 8 8
18 0 11 -167 20 -390 21 -214 1 -390 -5 -390 -13z"/>
<path d="M2777 3366 c32 -6 42 -19 34 -40 -9 -25 -6 -27 15 -9 15 12 34 17 41
9 7 -7 13 -3 13 9 0 13 29 26 65 31 36 4 2 8 -75 8 -77 0 -119 -3 -93 -8z"/>
<path d="M5920 2878 c-27 -11 -104 -18 -170 -16 -140 4 -559 -18 -690 -36 -49
-7 -99 -14 -110 -15 -11 -1 -60 4 -110 12 -356 57 -416 61 -463 31 -46 -30
-369 -18 -479 17 -23 7 -66 -5 -107 -30 -66 -41 -88 -42 -235 -10 -30 6 -78
-1 -110 -17 -31 -16 -108 -35 -171 -43 -80 -10 -115 -23 -115 -42 0 -18 -20
-29 -50 -29 -27 0 -50 -9 -50 -20 0 -11 -25 -20 -55 -21 -65 0 -250 -62 -292
-97 -20 -16 -88 -23 -206 -19 -98 3 -188 -1 -201 -9 -13 -8 -137 -6 -275 4
-142 11 -276 12 -307 2 -30 -9 -164 -22 -298 -28 l-244 -12 -6 65 c-4 49 -15
64 -41 59 -21 -3 -35 7 -35 26 0 18 -10 26 -21 19 -12 -7 -27 5 -32 28 -7 25
-34 46 -69 53 -32 7 -58 20 -58 29 0 8 -36 11 -80 7 -64 -6 -80 -2 -80 25 0
21 -11 29 -30 22 -16 -7 -30 -5 -30 3 0 8 -27 14 -59 15 -33 0 -56 -3 -51 -8
5 -4 -2 -27 -15 -51 -39 -71 -7 -151 41 -102 6 5 0 10 -13 10 -13 0 -23 9 -23
20 0 11 18 20 40 20 22 0 40 11 41 25 0 14 9 9 21 -10 11 -20 29 -31 39 -24
11 6 19 -3 19 -21 0 -18 7 -28 15 -23 9 5 37 -2 63 -16 39 -21 41 -27 14 -37
-18 -7 -32 -3 -32 10 0 12 -5 17 -12 11 -6 -6 4 -35 24 -65 34 -52 26 -149
-23 -275 -8 -20 -4 -35 9 -35 12 0 20 11 17 25 -3 14 9 25 25 25 39 0 59 28
62 90 3 38 6 33 16 -20 12 -73 -27 -145 -68 -123 -11 6 -8 -4 7 -22 14 -18 26
-74 26 -124 0 -63 8 -88 24 -80 13 7 7 -1 -12 -17 -19 -16 -35 -39 -35 -51 0
-13 -13 -23 -30 -23 -16 0 -30 10 -30 21 0 12 8 16 18 10 9 -6 22 12 27 39 12
63 8 62 -34 -1 -41 -63 -8 -128 43 -86 23 19 33 18 47 -4 14 -22 4 -30 -42
-35 -32 -4 -59 -14 -59 -23 0 -9 -15 -22 -33 -29 -29 -11 -29 -9 -5 21 15 19
17 28 4 21 -14 -9 -28 2 -36 26 -18 57 -41 50 -44 -15 -3 -48 -1 -50 15 -15
14 31 17 22 13 -38 -4 -85 41 -127 60 -54 6 23 23 42 39 42 67 0 122 60 115
126 -7 61 -6 62 19 18 14 -25 31 -39 39 -31 8 7 14 -5 14 -28 0 -22 13 -46 29
-52 31 -12 23 33 -14 81 -10 13 -13 33 -7 43 6 10 -4 31 -23 46 -30 23 -32 23
-15 -4 11 -17 4 -14 -15 7 -36 40 -48 85 -17 65 19 -12 50 48 33 65 -6 5 -22
0 -36 -12 -21 -17 -24 -4 -18 62 7 76 10 79 26 36 13 -35 24 -43 40 -27 12 12
34 17 49 11 32 -12 38 25 8 44 -11 7 -16 32 -11 56 4 24 9 49 10 54 1 6 10 -3
20 -19 25 -40 50 -12 30 33 -8 20 -14 42 -13 49 2 7 -14 8 -35 3 -22 -6 -34
-22 -28 -37 6 -15 5 -36 -2 -47 -14 -24 -71 -7 -71 21 0 11 10 13 23 5 17 -10
20 4 10 50 -11 55 -8 61 20 45 18 -10 48 -14 67 -9 26 7 38 -8 49 -57 8 -37
19 -56 25 -42 18 48 43 25 32 -30 -5 -30 -12 -68 -13 -85 -2 -16 -12 -37 -23
-47 -12 -9 -8 -13 10 -7 17 4 29 24 27 43 -2 18 8 30 21 25 13 -5 34 13 46 40
20 42 19 45 -5 25 -24 -19 -29 -17 -29 14 1 46 21 75 58 83 24 5 24 1 3 -25
-22 -26 -20 -31 8 -31 18 0 28 -8 22 -18 -6 -10 4 -23 21 -30 21 -8 29 -27 22
-52 -12 -47 11 -52 46 -10 13 16 33 24 43 18 11 -7 9 -23 -5 -40 -13 -16 -18
-35 -11 -42 7 -7 2 -25 -10 -40 -34 -41 -7 -53 32 -14 22 22 32 59 28 107 -6
90 49 183 87 145 19 -19 17 -24 -8 -24 -45 0 -60 -55 -31 -116 35 -72 72 -79
59 -12 -7 38 -3 50 13 40 13 -8 29 -1 35 17 7 17 32 32 55 32 42 2 42 2 3 18
-22 8 -51 11 -65 6 -14 -5 -25 0 -25 11 0 11 32 20 71 20 38 0 83 10 98 23 21
17 31 17 42 -1 11 -17 6 -19 -13 -8 -19 11 -21 9 -8 -4 27 -28 156 -51 140
-26 -7 11 -25 20 -40 20 -15 0 -33 9 -39 19 -7 11 7 14 33 8 26 -5 56 -11 69
-12 13 -1 19 -12 14 -25 -10 -26 3 -30 143 -39 55 -4 109 -9 120 -12 51 -10
72 3 61 39 -10 31 -3 37 36 35 27 -2 45 -10 40 -18 -5 -8 14 -6 43 5 64 24 75
25 62 3 -6 -10 11 -13 38 -8 30 6 44 18 36 32 -8 14 -1 13 17 -2 47 -38 210
-82 238 -64 14 8 35 13 47 10 12 -2 15 -1 7 4 -8 5 -10 17 -4 27 6 10 -5 18
-25 18 -20 0 -49 10 -66 21 -28 19 -4 18 165 -13 19 -3 44 -11 55 -18 11 -7
26 1 32 18 6 17 31 37 55 44 24 7 95 39 158 69 86 42 135 53 195 46 48 -5 80
0 80 12 0 12 38 22 85 23 70 2 76 5 35 17 -27 8 -69 7 -93 -1 -44 -16 -67 -6
-67 27 0 11 13 14 29 8 17 -6 34 -5 39 4 5 8 66 9 136 2 94 -9 154 -3 236 23
83 27 100 28 71 7 -21 -16 -51 -29 -66 -29 -15 0 -22 -9 -15 -19 6 -11 -13
-26 -44 -33 -31 -7 -74 -29 -96 -47 -22 -19 -69 -46 -105 -60 -36 -14 -65 -33
-65 -43 0 -9 -13 -12 -30 -5 -16 6 -30 2 -30 -8 0 -18 -109 -54 -145 -48 -8 2
-15 -7 -15 -18 0 -12 -7 -17 -16 -11 -9 5 -41 -10 -72 -35 l-56 -45 70 -4 c42
-3 82 7 101 26 16 16 56 30 88 30 31 0 66 8 76 18 79 75 300 161 326 127 25
-32 26 -31 14 10 -15 49 4 63 95 73 28 3 65 16 81 29 16 14 51 19 79 12 73
-18 201 -20 229 -2 13 8 42 -4 67 -29 l44 -44 -11 44 c-11 42 -7 43 137 40 82
-2 155 2 162 9 7 7 -11 13 -41 13 -29 0 -53 7 -53 16 0 26 91 16 128 -15 28
-23 38 -23 51 -2 13 21 19 20 29 -2 9 -21 15 -21 24 -2 6 14 21 25 33 25 12 0
16 -5 10 -12 -17 -16 49 -88 81 -88 14 0 20 10 13 21 -8 13 3 12 26 -3 53 -33
108 -11 91 36 -12 31 -9 33 20 9 28 -23 38 -22 65 5 40 40 57 40 89 2 21 -25
17 -30 -29 -30 -29 0 -48 -8 -42 -18 6 -10 28 -14 49 -8 21 5 57 -1 80 -13 50
-27 54 -16 11 27 -28 29 -25 31 35 21 47 -7 55 -5 27 7 -48 21 -21 38 64 40
35 1 75 8 89 16 41 26 118 22 108 -5 -6 -15 1 -21 19 -14 16 6 29 21 29 33 0
12 12 5 27 -15 19 -26 41 -34 75 -25 46 11 46 11 9 -17 -48 -36 -31 -54 59
-58 l70 -4 0 147 c0 80 -7 145 -15 145 -8 -1 -37 -10 -65 -21z"/>
<path d="M4019 2520 c-12 -8 -45 -10 -73 -4 -55 10 -60 -36 -5 -51 24 -7 23
-4 -1 13 -26 18 -25 21 5 22 19 0 35 -9 35 -20 0 -11 10 -20 21 -20 12 0 16 9
9 20 -8 13 14 17 59 11 41 -5 71 -1 71 11 0 11 -9 15 -20 8 -11 -7 -20 -4 -20
5 0 22 -49 24 -81 5z"/>
<path d="M295 2444 c-36 -7 -50 -84 -15 -84 11 0 20 15 20 32 0 27 5 28 30 8
17 -14 30 -17 30 -7 -1 35 -31 59 -65 51z"/>
<path d="M200 2401 c0 -21 -9 -44 -20 -51 -11 -7 -19 -23 -18 -36 1 -19 3 -19
11 0 13 32 67 9 67 -29 0 -20 8 -24 25 -11 14 10 45 17 70 15 51 -4 58 15 17
49 -21 18 -30 18 -36 -1 -15 -43 -76 -1 -76 52 0 28 -9 51 -20 51 -11 0 -20
-17 -20 -39z"/>
<path d="M2288 2404 c8 -14 5 -39 -9 -55 -25 -30 -17 -33 111 -33 78 0 80 2
39 33 -43 33 -77 41 -61 14 6 -9 -2 -16 -18 -16 -16 0 -24 6 -19 14 5 8 -7 27
-25 42 -25 20 -30 21 -18 1z"/>
<path d="M5371 2401 c-8 -12 -31 -17 -51 -11 -20 6 -89 -6 -153 -29 -64 -22
-101 -41 -82 -43 53 -5 63 -7 89 -24 31 -20 146 -10 161 13 6 11 1 13 -12 5
-13 -8 -23 -4 -23 9 0 14 14 18 33 10 19 -7 40 -2 48 11 10 16 22 9 38 -21 21
-38 19 -43 -12 -39 -21 2 -50 -1 -67 -8 -16 -6 -48 -15 -70 -19 -22 -5 52 -6
165 -4 193 4 205 2 205 -36 0 -33 -5 -36 -30 -15 -23 19 -30 19 -30 1 0 -14
-13 -10 -34 10 -22 22 -37 26 -42 12 -4 -13 -48 -23 -97 -23 -50 0 -84 -8 -78
-19 7 -11 -10 -12 -44 -3 -30 9 -71 14 -90 11 -20 -3 -35 5 -33 18 8 68 -2 74
-105 64 -57 -6 -118 -24 -136 -41 -43 -38 -61 -38 -61 0 0 41 -32 38 -64 -7
-14 -21 -30 -38 -36 -39 -5 -1 -26 -7 -45 -15 -44 -17 -46 -53 -2 -45 18 3 37
-5 42 -19 6 -17 -10 -25 -48 -24 -31 1 -77 -4 -102 -12 -31 -9 -45 -5 -46 14
0 18 -7 16 -21 -8 -11 -19 -40 -36 -64 -37 -34 -1 -31 -5 16 -18 163 -44 287
-34 198 16 -23 13 -7 18 55 20 48 1 148 7 222 13 83 7 135 4 135 -8 0 -12 18
-14 45 -3 25 9 59 13 75 9 17 -4 1 8 -35 26 -77 41 -87 74 -14 47 66 -26 277
-25 219 0 -49 21 -10 26 183 24 120 -2 122 -1 122 52 1 77 -10 86 -67 59 -40
-18 -54 -17 -67 3 -10 16 -32 21 -59 13 -27 -9 -42 -5 -42 10 0 17 30 21 100
14 55 -5 100 -1 100 8 0 9 14 17 30 17 17 0 30 -10 30 -21 0 -12 16 -19 35
-16 19 3 46 -1 59 -9 13 -8 30 -4 38 9 8 14 6 18 -8 10 -12 -8 -29 -1 -38 15
-10 18 -57 33 -121 38 -72 6 -100 1 -91 -14 6 -12 0 -11 -15 3 -15 14 -55 25
-89 25 -34 0 -72 10 -84 22 -15 15 -25 15 -35 -1z m-312 -180 c19 -12 39 -11
56 3 33 28 48 14 25 -23 -14 -23 -27 -24 -67 -6 -38 17 -52 17 -58 0 -4 -13
-13 -9 -21 11 -14 38 18 45 65 15z m-128 -62 c8 -14 43 -17 91 -9 47 8 78 6
78 -6 0 -11 -55 -20 -123 -19 -92 0 -130 -8 -147 -32 -13 -18 -29 -27 -35 -21
-14 14 68 103 99 106 13 1 30 -8 37 -19z"/>
<path d="M7 2371 c0 -16 7 -25 16 -19 10 6 17 -4 17 -22 0 -18 -9 -27 -20 -20
-11 7 -20 -5 -20 -25 0 -21 13 -38 29 -38 16 0 25 7 20 15 -5 8 -1 21 10 27
12 8 11 30 -3 62 -25 55 -49 65 -49 20z"/>
<path d="M3560 2340 c-23 -15 -15 -19 34 -20 35 0 69 9 76 20 16 26 -70 26
-110 0z"/>
<path d="M4500 2333 c-153 -80 -146 -73 -112 -111 18 -19 26 -41 19 -49 -8 -7
-4 -13 8 -13 32 0 50 35 26 49 -26 16 40 81 96 96 24 6 38 3 32 -7 -6 -10 -2
-18 10 -18 11 0 21 10 21 21 0 12 9 16 20 9 11 -7 20 -3 20 7 0 11 20 24 45
29 25 5 5 10 -45 11 -49 2 -112 -9 -140 -24z"/>
<path d="M1297 2305 c-2 -19 -2 -54 0 -78 3 -28 -11 -46 -41 -54 l-44 -11 44
-48 c44 -47 60 -86 26 -65 -20 12 -18 -40 3 -60 7 -7 7 -28 2 -46 -6 -18 12 4
40 49 41 66 48 93 34 140 -17 55 -18 54 -19 -26 -1 -46 -9 -88 -17 -93 -26
-16 -16 159 11 192 20 25 20 32 -4 41 -18 7 -25 27 -18 53 6 22 5 41 -2 41 -6
0 -13 -16 -15 -35z"/>
<path d="M2543 2299 c-54 -33 -62 -46 -43 -70 20 -23 18 -31 -8 -41 -17 -7
-32 -34 -32 -61 0 -28 9 -44 20 -37 11 7 20 3 20 -9 0 -35 -26 -24 -75 33 -33
39 -52 47 -68 31 -12 -12 -33 -17 -47 -12 -42 16 -53 -27 -17 -63 20 -20 32
-62 31 -107 -2 -58 2 -66 18 -38 25 43 58 46 58 4 0 -17 -7 -27 -16 -22 -9 6
-12 -22 -7 -61 5 -43 14 -61 23 -46 9 14 26 19 38 11 12 -7 17 -22 11 -32 -6
-11 -2 -19 10 -19 11 0 21 -10 21 -21 0 -12 -10 -15 -23 -7 -14 9 -18 5 -9 -9
21 -33 -20 -28 -55 7 -34 34 -53 38 -53 13 0 -9 24 -27 53 -41 73 -33 130 16
92 78 -32 50 -32 66 0 47 19 -11 18 -6 -1 17 -22 28 -20 35 17 46 35 12 41 25
31 73 -7 36 -4 54 8 47 11 -7 20 -40 20 -74 0 -61 1 -61 40 -26 46 42 55 88
10 50 -25 -20 -30 -19 -30 8 0 17 10 32 21 32 12 0 16 8 10 18 -6 10 0 23 14
29 20 8 20 10 0 11 -14 1 -25 12 -25 23 0 12 9 16 19 9 11 -6 17 18 14 60 -3
40 2 77 11 83 9 5 15 -2 11 -17 -3 -14 6 -24 20 -21 14 3 25 -13 25 -35 0 -22
-8 -40 -17 -40 -27 0 -46 -122 -23 -150 11 -13 14 -29 8 -35 -20 -20 13 -96
36 -83 11 7 13 19 3 26 -9 6 -18 43 -19 80 -2 61 1 65 24 32 15 -20 22 -44 15
-54 -6 -10 6 -31 26 -47 20 -15 29 -28 19 -28 -10 -1 -3 -18 16 -39 23 -25 27
-43 13 -51 -12 -8 -16 -35 -9 -60 8 -35 2 -50 -25 -57 -32 -8 -31 -10 5 -12
33 -1 41 -13 37 -52 -3 -27 3 -50 13 -50 10 0 18 13 18 28 0 16 11 33 25 39
17 7 17 10 2 11 -14 1 -19 20 -12 45 8 31 4 39 -14 28 -19 -12 -20 -7 -6 22
19 36 12 87 -14 107 -38 30 -76 147 -55 170 26 27 74 -7 74 -52 0 -15 -13 -9
-29 13 -19 25 -30 29 -30 13 -2 -56 50 -83 76 -41 13 21 19 47 12 58 -6 10 -3
19 7 19 21 0 67 -49 59 -62 -3 -5 5 3 17 17 28 31 50 32 43 3 -3 -13 15 -26
40 -30 25 -4 45 2 45 13 0 12 -9 16 -20 9 -11 -7 -20 -3 -20 9 0 11 14 21 30
21 28 0 38 -23 32 -70 -1 -11 11 -3 28 19 16 21 30 29 30 17 0 -11 -13 -32
-30 -46 -39 -33 -39 -68 1 -52 18 6 26 3 19 -8 -7 -11 2 -20 20 -20 18 0 27 9
20 20 -7 11 -3 20 10 20 15 0 15 11 1 37 -29 55 2 72 34 19 l27 -46 -13 45
c-7 27 -3 45 11 45 12 0 17 9 10 20 -7 12 -23 15 -34 7 -13 -8 -16 -4 -8 10
37 59 77 24 64 -57 -10 -64 -6 -80 18 -80 17 0 30 18 30 40 0 56 33 50 44 -7
6 -32 -10 -74 -48 -125 -32 -43 -48 -81 -37 -84 12 -4 21 -25 21 -47 0 -22 8
-34 19 -28 10 6 25 1 33 -12 9 -14 6 -18 -9 -9 -14 9 -23 0 -23 -23 0 -21 13
-38 29 -38 22 0 28 23 24 91 -3 58 -14 90 -28 87 -35 -7 10 93 66 149 40 39
48 92 31 188 -1 7 -23 8 -48 4 -66 -13 -184 22 -184 54 0 15 -22 28 -49 30
-52 4 -101 -30 -101 -70 0 -12 -8 -17 -18 -11 -11 6 -35 -4 -54 -24 -31 -30
-34 -30 -23 -2 6 17 1 44 -12 59 -15 17 -9 16 16 -3 35 -26 37 -26 25 8 -8 20
-14 40 -14 45 0 28 -105 45 -155 24 -86 -35 -122 -39 -81 -8 33 24 -27 112
-76 112 -6 0 -27 18 -45 40 l-33 40 -67 -41z"/>
<path d="M4765 2324 c-25 -4 -40 -15 -34 -25 6 -11 0 -20 -15 -21 -51 -2 -93
-14 -129 -35 -30 -17 -21 -20 43 -14 44 4 82 10 85 12 3 2 14 6 25 9 11 3 27
7 35 10 8 3 22 4 30 2 8 -1 15 6 15 17 0 10 41 15 92 10 67 -6 89 -2 83 16 -8
24 -127 33 -230 19z"/>
<path d="M1750 2300 c-7 -12 -7 -49 1 -83 9 -43 5 -67 -14 -79 -20 -13 -15
-17 18 -18 26 0 45 12 45 29 0 18 12 25 30 18 17 -6 30 -2 30 9 0 12 6 36 13
56 10 24 6 30 -10 20 -13 -8 -37 -1 -53 15 -22 23 -24 32 -5 40 15 6 12 10 -9
11 -18 1 -39 -7 -46 -18z"/>
<path d="M576 2275 c17 -20 18 -34 4 -38 -24 -8 19 -117 46 -117 9 0 10 10 2
23 -8 13 -15 50 -16 83 -1 35 -15 65 -32 71 -25 8 -26 4 -4 -22z"/>
<path d="M1960 2285 c-40 -13 -80 -65 -80 -104 1 -27 3 -27 20 -1 14 22 19 23
20 4 0 -15 -27 -50 -61 -78 -34 -28 -57 -63 -52 -77 12 -28 -62 -115 -85 -100
-8 5 -14 -17 -12 -50 3 -49 -3 -58 -32 -49 -37 12 -71 -20 -40 -39 26 -16 14
-77 -18 -88 -18 -6 -22 6 -14 40 7 26 4 61 -7 77 -13 22 -18 10 -19 -44 0 -63
-6 -73 -40 -66 -48 9 -50 -2 -10 -43 17 -16 30 -22 30 -12 0 10 14 18 30 18
17 0 30 -12 30 -26 0 -15 10 -27 21 -27 12 0 16 17 10 38 -14 42 60 110 95 88
11 -7 14 -2 6 11 -18 29 18 30 70 2 21 -12 33 -31 25 -43 -8 -14 -4 -17 10 -8
13 8 18 25 10 37 -9 14 2 17 31 10 37 -10 40 -7 21 17 -13 15 -16 28 -6 29 9
0 1 9 -18 21 -19 11 -44 15 -55 8 -28 -17 -25 17 3 45 18 18 30 15 52 -11 27
-32 28 -32 17 2 -7 21 -3 31 8 24 11 -7 20 2 20 19 0 17 -10 31 -23 31 -13 0
-17 7 -9 15 9 8 25 15 37 15 12 0 26 13 31 28 5 16 0 22 -12 14 -12 -7 -27 -3
-34 9 -18 29 -75 -19 -62 -53 5 -14 -4 -36 -20 -50 -64 -53 -73 -97 -24 -117
28 -11 34 -19 15 -20 -17 0 -49 12 -70 28 -22 17 -28 30 -14 30 14 1 25 18 25
40 0 21 17 44 38 50 32 11 36 23 22 72 -10 34 -9 63 1 70 19 11 27 -4 20 -39
-2 -10 9 -9 23 3 14 12 32 20 39 18 8 -2 21 5 30 15 10 11 6 12 -11 2 -19 -11
-24 -7 -17 12 5 15 21 26 33 23 18 -4 18 5 2 35 -17 32 -15 40 9 40 17 0 31
-9 31 -20 0 -31 76 -100 110 -100 17 0 30 -11 30 -25 1 -17 7 -15 20 5 29 45
25 56 -35 89 -30 16 -47 30 -38 30 10 1 7 14 -7 31 -13 16 -32 25 -40 20 -9
-6 -12 8 -6 30 13 49 33 50 109 5 40 -24 63 -28 73 -13 8 12 28 28 44 35 17 8
10 10 -15 5 -25 -4 -50 0 -56 10 -12 18 -171 20 -229 3z"/>
<path d="M1653 2267 c-7 -8 -13 -37 -12 -65 l0 -52 40 47 c54 65 29 127 -28
70z"/>
<path d="M3815 2266 c-19 -5 -35 -18 -35 -28 0 -12 17 -10 41 3 31 16 49 16
71 -2 25 -21 70 -13 46 9 -18 16 -90 26 -123 18z"/>
<path d="M5720 2230 c0 -52 50 -71 65 -25 5 14 21 25 37 25 65 0 42 37 -27 43
-68 5 -75 1 -75 -43z"/>
<path d="M3620 2229 c0 -16 9 -29 20 -29 11 0 20 -10 20 -21 0 -12 -9 -16 -20
-9 -11 7 -20 3 -20 -9 0 -11 12 -21 28 -21 47 0 85 -60 51 -81 -21 -13 -17
-16 16 -14 25 2 46 17 47 34 1 17 9 9 18 -19 9 -28 17 -36 18 -17 1 19 28 38
67 46 36 8 54 19 40 25 -14 5 -19 20 -11 33 10 17 6 17 -15 2 -87 -64 -226
-13 -204 74 2 7 -9 18 -26 24 -17 7 -29 0 -29 -18z"/>
<path d="M60 2210 c-14 -17 -20 -37 -13 -43 6 -7 18 2 25 20 7 18 20 28 30 22
10 -7 13 -20 7 -30 -6 -11 -3 -19 8 -19 10 0 24 14 31 31 6 18 3 26 -8 19 -11
-7 -20 -3 -20 9 0 31 -31 26 -60 -9z"/>
<path d="M5901 2211 c-13 -16 -50 -34 -83 -41 -32 -7 -53 -22 -47 -32 7 -11
28 -9 52 4 23 12 59 17 81 11 57 -15 96 5 96 49 0 46 -64 51 -99 9z"/>
<path d="M1160 2190 c-17 -21 -18 -30 -2 -30 12 0 22 -10 22 -22 0 -12 -13
-17 -29 -11 -17 6 -36 1 -43 -11 -9 -13 -5 -17 9 -8 31 19 29 -13 -2 -46 -21
-22 -17 -23 23 -2 42 22 47 21 35 -9 -7 -19 0 -47 15 -62 24 -24 30 -24 40 3
7 17 3 25 -8 18 -11 -7 -20 -3 -20 9 0 11 9 21 20 21 11 0 20 14 20 30 0 17
-11 28 -24 25 -16 -3 -23 17 -19 60 7 72 0 79 -37 35z"/>
<path d="M4165 2189 c-12 -21 -30 -39 -39 -39 -9 0 -14 -13 -12 -30 2 -23 -4
-21 -24 6 -15 21 -31 28 -38 17 -16 -25 15 -45 79 -52 38 -4 52 6 61 41 17 68
0 106 -27 57z"/>
<path d="M4231 2175 c20 -65 48 -111 48 -80 1 14 11 25 22 25 12 0 16 -8 10
-19 -6 -10 0 -25 13 -34 36 -21 96 -24 108 -3 6 9 19 12 29 5 10 -6 13 3 7 20
-9 22 0 31 28 31 23 0 57 6 76 13 27 11 32 6 22 -20 -7 -18 -4 -33 7 -33 29 0
23 59 -10 92 -25 25 -32 24 -51 -7 -19 -30 -20 -29 -10 10 20 72 -37 55 -67
-20 -15 -36 -31 -54 -36 -40 -6 14 -18 25 -28 25 -10 0 -13 -14 -6 -30 8 -22
2 -27 -21 -18 -39 15 -40 31 -7 66 20 20 12 23 -42 15 -52 -8 -64 -4 -55 18 6
18 -2 29 -20 29 -23 0 -27 -12 -17 -45z"/>
<path d="M1674 2142 c-42 -71 -42 -75 -3 -75 21 0 29 12 22 38 -6 21 2 42 19
48 15 6 28 19 28 29 0 36 -32 16 -66 -40z"/>
<path d="M0 2120 c0 -42 29 -54 50 -20 19 31 50 3 36 -33 -8 -22 -2 -29 24
-24 47 9 64 57 20 57 -20 0 -27 9 -18 25 8 14 8 19 -1 11 -8 -7 -37 -5 -63 5
-41 15 -48 12 -48 -21z"/>
<path d="M1397 2085 c9 -19 14 -46 9 -60 -5 -14 5 -30 22 -37 18 -7 27 -22 20
-35 -6 -13 3 -6 21 16 31 39 37 33 34 -39 -2 -40 -2 -40 14 0 23 54 5 117 -25
92 -27 -22 -61 -4 -64 33 -4 55 -9 65 -29 65 -13 0 -14 -13 -2 -35z"/>
<path d="M3428 2095 c-8 -14 -7 -18 2 -10 9 8 32 1 50 -15 26 -23 46 -26 82
-12 43 18 44 20 8 24 -22 2 -49 5 -60 7 -11 1 -31 9 -44 17 -13 8 -30 3 -38
-11z"/>
<path d="M5589 2067 c-56 -51 -92 -61 -84 -23 6 31 -122 22 -164 -11 -23 -19
-25 -17 -11 7 15 25 13 26 -14 4 -24 -19 -34 -20 -40 -2 -6 18 -18 18 -50 1
-22 -12 -85 -19 -139 -15 -53 4 -86 3 -73 -2 41 -15 -16 -62 -61 -50 -26 7
-35 1 -29 -17 6 -18 41 -28 97 -29 49 -1 107 -9 129 -18 32 -12 34 -11 10 6
-20 14 -22 21 -5 22 14 0 25 8 25 18 0 10 -37 13 -83 7 -63 -8 -79 -5 -68 14
11 18 81 23 248 21 128 -3 240 -2 248 0 8 3 23 6 33 8 10 1 25 8 32 16 8 7 36
5 62 -5 52 -20 108 -6 108 26 0 11 -13 9 -30 -5 -17 -14 -37 -19 -45 -11 -8 8
1 26 21 40 32 24 31 27 -16 36 -34 6 -66 -5 -101 -38z"/>
<path d="M1734 2072 c-7 -18 -27 -32 -43 -32 -17 0 -31 -9 -31 -21 0 -11 -13
-18 -29 -15 -31 7 -31 6 -31 -89 1 -44 6 -56 18 -38 9 15 13 44 7 65 -5 21 0
38 13 38 12 0 22 -10 22 -21 0 -12 10 -15 21 -8 12 7 18 24 12 37 -5 14 10 37
34 52 39 24 41 24 15 -8 -20 -24 -22 -40 -7 -55 29 -29 54 51 29 95 -17 30
-19 30 -30 0z"/>
<path d="M21 2061 c-22 -14 -25 -180 -2 -177 37 3 47 -7 21 -24 -22 -14 -23
-19 -4 -20 15 0 22 -7 17 -16 -6 -9 6 -17 26 -18 49 -4 42 49 -14 110 -53 58
-61 114 -13 96 17 -7 37 -12 45 -12 7 0 0 -9 -16 -19 -17 -10 -24 -25 -16 -33
8 -7 26 -3 41 9 15 12 35 16 44 8 9 -8 10 -4 2 10 -8 14 -4 25 8 25 12 0 16
10 9 22 -10 16 -18 15 -29 -2 -11 -18 -26 -14 -55 15 -22 22 -51 34 -64 26z"/>
<path d="M2240 2061 c0 -11 -12 -21 -28 -21 -28 0 -58 -67 -69 -155 -2 -14
-19 -24 -38 -23 -21 1 -25 5 -10 11 30 12 33 79 5 97 -11 7 -14 -1 -7 -20 6
-17 -5 -50 -26 -74 -20 -24 -26 -36 -12 -28 14 8 25 5 25 -7 0 -51 99 -21 111
34 6 30 20 70 29 89 13 22 10 36 -6 43 -13 5 -8 11 12 11 28 2 34 -8 24 -38
-7 -22 -4 -40 7 -40 27 0 45 56 22 71 -11 6 -15 20 -9 29 6 9 2 23 -10 30 -11
7 -20 3 -20 -9z"/>
<path d="M3895 2016 c-31 -22 -50 -48 -44 -58 12 -19 9 -20 -141 -27 -120 -6
-150 3 -150 44 0 23 -6 25 -28 7 -35 -30 -54 -99 -30 -113 10 -6 18 5 18 25 1
31 4 31 20 6 14 -22 10 -38 -16 -60 -37 -32 -37 -110 1 -87 13 8 17 2 10 -16
-6 -18 0 -30 16 -30 15 0 22 8 16 18 -37 60 67 140 112 86 27 -32 105 -29 147
5 15 13 34 18 41 10 7 -7 13 2 13 21 0 18 9 33 20 33 11 0 20 -13 20 -28 0
-16 11 -33 25 -39 14 -5 5 -11 -19 -11 -24 -1 -50 -13 -58 -25 -10 -16 -4 -20
19 -11 18 7 33 3 33 -8 0 -11 10 -14 23 -6 14 8 18 5 10 -8 -21 -33 22 -48 68
-23 24 12 37 34 31 50 -5 15 -2 33 9 40 11 6 16 31 12 55 -4 24 -3 31 2 16 7
-22 12 -22 25 -3 11 18 19 19 29 3 7 -12 4 -22 -8 -22 -11 0 -21 -13 -21 -30
0 -16 10 -30 21 -30 12 0 16 9 9 20 -7 11 1 25 17 32 17 6 35 25 42 42 8 22 2
27 -20 18 -21 -8 -29 -3 -24 13 9 27 -33 78 -59 71 -9 -2 -43 10 -76 28 -57
30 -64 30 -115 -8z"/>
<path d="M4175 2039 c51 -20 56 -40 21 -75 -34 -34 6 -29 54 7 32 25 35 34 12
48 -22 13 -20 19 10 27 21 5 -2 10 -52 10 -73 1 -81 -2 -45 -17z"/>
<path d="M4748 2003 c8 -13 28 -23 44 -23 18 0 24 -10 16 -23 -10 -16 -5 -18
14 -5 15 9 34 18 41 18 34 0 39 30 5 30 -21 0 -60 6 -86 13 -34 9 -44 6 -34
-10z"/>
<path d="M193 1945 c-8 -13 -29 -17 -48 -10 -30 11 -30 9 -4 -19 16 -18 32
-24 36 -14 12 32 34 19 34 -21 0 -21 -6 -34 -13 -30 -8 5 -19 -4 -25 -20 -15
-39 31 -73 68 -50 24 15 23 18 -6 19 -30 0 -32 6 -11 38 17 28 18 52 3 84 -13
30 -25 38 -34 23z"/>
<path d="M1962 1912 c-25 -61 -17 -112 16 -112 33 0 39 28 23 100 l-15 70 -24
-58z"/>
<path d="M1220 1910 c-20 -25 -19 -30 8 -30 17 0 32 -10 32 -22 0 -12 -13 -17
-30 -11 -19 7 -30 0 -30 -19 0 -17 9 -25 20 -18 11 7 20 -2 20 -20 0 -18 9
-27 20 -20 12 7 15 23 7 36 -10 18 -7 18 13 0 20 -18 32 -17 54 5 16 16 40 23
53 16 13 -8 16 -6 6 5 -9 10 -27 18 -40 18 -13 0 -20 22 -17 50 4 38 1 43 -14
21 -15 -22 -25 -23 -48 -4 -23 18 -34 17 -54 -7z"/>
<path d="M1537 1901 c-7 -46 -9 -47 -42 -13 -19 19 -35 26 -35 14 0 -11 20
-31 45 -45 26 -13 35 -27 21 -32 -13 -4 -18 -23 -11 -41 11 -30 8 -30 -21 -7
-18 15 -29 36 -23 45 6 10 6 18 -1 18 -7 0 -21 -26 -33 -59 -14 -42 -29 -55
-54 -47 -26 10 -28 7 -9 -14 20 -22 30 -21 59 2 31 25 33 23 21 -22 -12 -48
-11 -49 18 -10 17 22 37 38 45 36 8 -2 16 12 17 31 4 53 15 92 28 103 7 6 6
28 -2 50 -14 37 -16 36 -23 -9z"/>
<path d="M4344 1886 c-12 -31 -22 -45 -22 -32 -1 16 -27 10 -75 -19 -42 -24
-62 -47 -48 -51 14 -5 33 3 42 18 9 15 23 21 30 14 27 -28 -18 -60 -69 -49
-47 9 -56 2 -76 -63 -23 -74 -23 -74 14 -29 20 25 40 35 44 23 4 -12 40 -23
80 -24 41 -1 69 -9 64 -18 -6 -8 4 -10 21 -4 17 7 25 22 18 35 -8 15 -4 15 13
-1 22 -20 18 -31 -20 -62 l-46 -38 43 -43 43 -43 -49 0 c-30 0 -53 14 -61 39
-7 24 -23 35 -41 28 -16 -6 -29 -2 -29 10 0 12 -13 17 -30 10 -16 -6 -30 -19
-30 -29 0 -9 12 -12 27 -7 15 6 26 -3 26 -20 0 -39 -21 -40 -53 -1 -35 43 -75
37 -72 -10 1 -22 7 -38 12 -36 6 3 42 -14 81 -38 88 -55 158 -54 148 1 -7 34
-4 35 27 8 45 -39 124 -58 124 -29 0 12 14 4 31 -17 18 -22 27 -28 20 -15 -7
13 10 39 38 57 28 18 46 41 41 49 -6 9 1 21 15 27 16 6 13 10 -8 11 -53 3 -80
102 -28 102 18 0 25 -12 18 -30 -7 -18 0 -30 18 -30 16 0 39 -23 52 -51 24
-53 16 -89 -20 -89 -50 0 -76 -54 -51 -108 28 -60 55 -70 40 -14 -14 55 18
104 53 83 23 -15 24 -24 3 -49 -14 -17 -21 -42 -15 -56 6 -16 10 -13 11 9 1
19 16 35 32 35 17 0 30 9 30 19 0 11 12 15 28 9 32 -12 54 93 29 139 -11 19
-6 33 13 40 17 7 29 23 28 37 -1 20 -3 21 -11 1 -6 -14 -20 -25 -31 -25 -11 0
-15 14 -8 31 8 21 3 26 -13 17 -18 -10 -19 -7 -5 8 35 39 107 7 96 -43 -8 -38
-5 -37 26 10 34 51 107 66 160 32 12 -8 28 -9 34 -2 19 18 -38 66 -89 75 -26
5 -49 11 -52 13 -3 2 -16 5 -30 7 -13 1 -27 20 -31 42 -5 33 -3 35 15 10 17
-25 20 -22 21 14 0 50 -67 95 -113 78 -18 -7 -25 -26 -18 -48 8 -27 -1 -36
-43 -40 -42 -3 -49 1 -30 20 33 33 30 56 -7 56 -17 0 -26 -8 -20 -18 10 -16
-20 -9 -149 34 -16 6 -38 9 -47 6 -10 -2 -30 7 -45 20 -15 12 -28 16 -28 7 0
-8 -17 0 -38 19 -36 33 -39 32 -58 -22z m116 -286 c0 -11 14 -20 30 -20 17 0
30 -10 30 -21 0 -12 -10 -15 -21 -8 -12 7 -35 -4 -52 -24 -16 -20 -24 -26 -17
-12 7 15 0 25 -19 25 -38 0 -39 13 -6 50 29 34 55 38 55 10z"/>
<path d="M3029 1881 c6 -9 0 -22 -14 -28 -20 -8 -20 -10 0 -11 14 -1 25 -15
25 -31 0 -56 34 -49 36 8 1 34 -11 63 -28 69 -17 6 -25 3 -19 -7z"/>
<path d="M5420 1874 c-38 -12 -76 -30 -83 -40 -7 -11 -22 -13 -33 -6 -12 7
-35 -16 -53 -51 -17 -35 -25 -58 -18 -51 7 8 25 4 40 -9 21 -17 37 -10 68 30
40 51 43 51 95 18 l54 -33 -38 44 c-21 24 -28 44 -15 44 12 0 34 -18 48 -40
30 -49 59 -53 41 -6 -9 24 5 18 43 -18 31 -29 86 -58 123 -65 36 -7 68 -19 72
-27 3 -8 58 -58 121 -111 l115 -98 0 102 c0 107 -46 148 -130 116 -18 -7 -30
0 -30 16 0 16 17 34 37 40 20 6 58 34 83 61 l47 50 -169 3 c-149 3 -158 5 -78
19 60 10 28 12 -97 6 -126 -7 -182 -3 -174 11 8 12 11 20 7 19 -3 -1 -37 -12
-76 -24z"/>
<path d="M2867 1864 c-12 -8 -15 -31 -8 -53 9 -25 19 -30 28 -16 8 13 30 18
49 12 26 -8 28 -6 7 9 -15 10 -34 29 -41 41 -7 11 -23 15 -35 7z"/>
<path d="M5086 1846 c-8 -20 -29 -24 -74 -15 -41 9 -55 7 -42 -7 61 -61 270
-31 270 38 0 23 -145 8 -154 -16z"/>
<path d="M1003 1843 c5 -19 -20 -28 -93 -30 -62 -2 -109 -14 -123 -33 -33 -42
-14 -62 40 -41 27 10 58 10 75 0 15 -10 20 -19 11 -19 -10 0 -7 -13 7 -30 14
-16 17 -30 7 -30 -9 0 -3 -9 13 -20 26 -17 25 -19 -4 -20 -18 0 -38 16 -45 36
-16 52 -99 46 -125 -10 -20 -42 -19 -44 21 -22 66 37 96 36 88 -1 -4 -18 -18
-31 -31 -28 -31 6 -31 -28 -1 -47 38 -23 172 -33 184 -13 7 11 -12 16 -43 11
-43 -7 -47 -4 -22 12 22 14 29 39 22 74 -7 41 -3 50 16 38 17 -10 21 -8 12 6
-7 12 -25 18 -40 12 -16 -6 -32 8 -39 36 -20 72 -15 87 14 47 15 -21 40 -32
57 -26 30 12 36 82 8 110 -8 8 -12 3 -9 -12z"/>
<path d="M267 1760 c-21 -78 9 -150 47 -113 7 7 4 13 -7 13 -23 0 -23 80 0
117 10 15 10 34 -1 45 -11 11 -26 -14 -39 -62z"/>
<path d="M2604 1816 c-17 -17 -17 -31 1 -53 20 -23 20 -31 -1 -38 -18 -6 -20
-16 -5 -34 35 -42 -20 -74 -68 -39 -35 25 -35 28 -4 28 20 0 30 9 22 21 -8 14
-26 10 -51 -13 -47 -43 -49 -66 -3 -59 19 3 46 -3 60 -14 14 -11 25 -14 25 -7
0 8 13 2 28 -12 15 -14 23 -35 16 -46 -6 -11 4 -7 23 8 32 26 32 30 0 65 -18
20 -25 37 -15 37 10 0 19 27 20 60 1 33 -8 60 -20 60 -12 0 -10 8 5 18 15 10
19 22 8 29 -10 6 -29 1 -41 -11z"/>
<path d="M3244 1794 c7 -48 56 -72 56 -27 0 16 11 33 25 38 14 5 0 13 -31 19
-48 9 -55 5 -50 -30z"/>
<path d="M15 1660 c4 -93 11 -181 16 -195 17 -56 225 30 230 95 1 20 7 17 19
-10 9 -22 18 -28 19 -14 0 15 10 21 21 14 25 -15 25 10 1 49 -10 17 -25 24
-32 16 -8 -7 -30 7 -50 31 -31 37 -40 40 -63 16 -15 -16 -16 -22 -2 -15 13 8
29 5 36 -7 7 -11 2 -20 -10 -20 -12 0 -17 -8 -11 -18 6 -10 -4 -23 -21 -30
-23 -9 -29 -4 -21 16 6 16 -2 34 -18 40 -16 6 -29 21 -29 33 0 12 8 16 19 10
10 -6 24 8 32 31 7 24 19 35 26 26 20 -28 56 -28 56 -1 0 30 -105 42 -123 13
-23 -37 -62 -21 -83 35 -16 43 -19 18 -12 -115z"/>
<path d="M3107 1765 c4 -44 -3 -65 -20 -65 -15 0 -27 -11 -27 -25 -1 -20 -4
-20 -17 0 -12 20 -25 15 -54 -18 -22 -24 -28 -37 -14 -29 17 10 25 -1 25 -37
0 -53 29 -69 47 -26 8 20 10 20 11 0 1 -14 11 -25 22 -25 11 0 19 7 18 15 -7
40 5 47 37 22 32 -24 32 -24 8 8 -15 19 -36 30 -45 24 -34 -21 -18 33 22 76
22 23 40 61 40 84 -1 31 -5 35 -18 13 -15 -22 -20 -20 -29 10 -6 21 -9 9 -6
-27z"/>
<path d="M2120 1779 c0 -12 -8 -16 -19 -10 -10 6 -24 3 -31 -9 -7 -11 7 -20
31 -20 30 0 40 -9 32 -30 -7 -16 -4 -30 5 -30 21 0 39 61 27 95 -10 30 -45 33
-45 4z"/>
<path d="M1140 1759 c0 -12 -11 -15 -25 -6 -20 12 -20 8 -1 -15 17 -21 19 -49
7 -89 -17 -56 -32 -27 -23 45 2 13 -15 22 -37 21 -26 -2 -34 -10 -21 -23 12
-12 10 -30 -5 -51 -23 -28 -21 -28 13 -1 35 28 37 26 24 -15 -12 -35 -7 -45
20 -45 32 0 32 -3 -3 -30 -33 -25 -33 -28 -4 -18 19 7 35 4 35 -6 0 -10 43
-20 95 -23 52 -2 121 -6 153 -9 37 -2 62 7 68 26 9 27 6 27 -26 0 -34 -28 -36
-27 -23 10 12 32 10 35 -10 15 -14 -14 -34 -25 -46 -25 -12 0 -9 8 5 17 14 9
30 47 35 85 6 49 3 59 -11 38 -21 -32 -27 -17 -21 52 4 57 -53 79 -69 27 -7
-21 -26 -39 -43 -39 -18 0 -24 10 -15 25 11 20 8 20 -13 0 -33 -30 -20 -44 53
-57 67 -12 59 -6 78 -66 10 -32 7 -43 -8 -33 -13 8 -23 -2 -24 -23 -2 -20 -8
-10 -15 22 -7 32 -26 63 -41 68 -21 7 -24 -1 -14 -28 8 -20 8 -30 0 -23 -8 8
-31 -5 -51 -28 -29 -34 -37 -37 -37 -11 0 17 8 37 19 43 10 6 13 36 7 66 -6
30 -11 71 -10 90 1 19 -2 35 -7 35 -5 0 -9 -10 -9 -21z"/>
<path d="M2257 1756 c15 -19 21 -43 15 -54 -7 -10 2 -33 19 -50 35 -35 79 -44
59 -12 -7 11 4 21 24 22 28 1 29 4 6 12 -16 6 -57 35 -89 63 -33 29 -48 38
-34 19z"/>
<path d="M3696 1715 c-7 -36 0 -63 21 -80 20 -16 26 -17 17 -2 -8 13 -3 28 11
34 18 7 19 15 3 26 -12 10 -26 31 -32 47 -6 19 -13 9 -20 -25z"/>
<path d="M5140 1730 c0 -16 -10 -30 -21 -30 -12 0 -15 -11 -5 -25 40 -63 21
-116 -30 -83 -35 23 -54 26 -70 10 -12 -12 -38 -22 -58 -22 -41 0 -49 -32 -11
-47 14 -5 0 -11 -31 -11 -52 -2 -54 -5 -25 -33 17 -18 31 -40 31 -50 0 -11 29
-19 65 -19 36 0 103 -4 149 -8 58 -5 87 0 94 20 6 15 25 28 41 28 17 0 31 9
31 20 0 11 -22 20 -49 20 -59 0 -66 10 -83 119 -13 83 -12 85 29 63 49 -26 55
-9 15 43 -32 43 -72 46 -72 5z"/>
<path d="M5349 1738 c-6 -10 -4 -18 5 -19 9 0 0 -9 -19 -21 -39 -22 -42 -36
-17 -75 14 -23 25 -22 66 5 27 18 54 28 59 22 6 -5 9 8 7 30 -4 62 -74 102
-101 58z"/>
<path d="M1773 1725 c-8 -12 -3 -29 9 -36 14 -9 -3 -25 -43 -42 -55 -23 -61
-32 -37 -52 16 -14 25 -23 21 -21 -5 3 -26 -5 -47 -16 -30 -16 -48 -13 -78 14
-21 19 -38 26 -39 16 0 -10 -13 5 -29 32 l-29 50 0 -54 c-1 -29 -10 -59 -21
-66 -31 -19 -23 -56 9 -43 17 6 35 3 42 -8 19 -31 65 -22 75 16 7 26 10 24 12
-10 1 -25 11 -45 21 -45 11 0 14 15 7 33 -9 24 -6 29 14 17 17 -11 21 -8 12 7
-14 22 10 31 64 24 17 -2 22 15 15 53 -8 46 -5 51 15 25 26 -33 94 -30 94 5 0
11 14 15 32 8 20 -8 28 -3 23 13 -11 32 -78 46 -71 14 4 -13 -7 -29 -22 -34
-16 -6 -22 -1 -15 11 7 11 6 41 -4 66 -10 27 -22 36 -30 23z"/>
<path d="M3763 1706 c12 -14 30 -21 39 -15 27 17 20 -16 -11 -58 -37 -48 -19
-104 22 -71 23 19 26 17 16 -14 -11 -31 -9 -33 9 -8 16 23 13 36 -12 55 -29
22 -24 32 14 29 6 0 11 23 12 53 1 45 -7 53 -54 54 -43 0 -51 -5 -35 -25z"/>
<path d="M4049 1665 c3 -19 -3 -46 -13 -59 -11 -13 -14 -33 -8 -43 7 -11 -7
-15 -33 -10 -42 9 -42 8 -10 -18 19 -16 28 -35 20 -43 -7 -8 2 -8 21 -1 19 7
34 30 34 51 0 21 7 38 15 38 8 0 15 27 15 60 0 33 -10 60 -23 60 -13 0 -21
-16 -18 -35z"/>
<path d="M2071 1658 c6 -10 23 -18 38 -18 15 0 26 -23 26 -55 -1 -30 -5 -44
-10 -30 -4 14 -17 25 -28 25 -11 0 -14 -8 -8 -18 6 -10 -7 -14 -29 -8 -22 6
-35 18 -30 26 5 9 -3 26 -18 39 -35 28 -115 -47 -98 -91 13 -35 49 -37 45 -3
-7 52 2 77 22 64 12 -7 17 -25 11 -40 -6 -15 -2 -33 9 -40 10 -6 19 0 19 15 1
18 5 19 15 4 8 -12 33 -20 55 -16 39 5 39 5 2 -23 -21 -15 -45 -23 -54 -18 -8
5 -21 0 -29 -12 -22 -37 118 -13 146 24 14 19 19 48 13 66 -7 17 -3 43 9 58
18 21 7 31 -47 48 -39 12 -65 13 -59 3z"/>
<path d="M3544 1649 c-18 -21 -19 -29 -2 -29 13 0 -1 -19 -30 -42 -51 -40 -52
-44 -18 -69 30 -22 42 -21 71 6 31 28 35 28 35 0 0 -38 -34 -52 -106 -44 -30
3 -54 -3 -54 -14 0 -53 -88 -2 -110 63 -22 65 -90 111 -90 60 0 -12 -10 -16
-22 -9 -12 8 -8 -8 10 -35 33 -50 26 -76 -21 -76 -15 0 -21 13 -14 30 6 17 2
30 -9 30 -40 0 -37 -50 4 -74 29 -17 33 -25 12 -26 -44 -2 100 -63 170 -72 49
-6 53 -3 25 14 -19 11 -46 14 -58 6 -14 -9 -18 -5 -9 9 14 22 -10 31 -63 24
-14 -1 -25 11 -25 28 0 17 10 31 21 31 13 0 16 17 9 40 -7 23 -4 40 9 40 18 0
26 -41 19 -93 -3 -27 53 -44 109 -33 50 10 58 7 47 -21 -7 -18 -3 -33 9 -33
12 0 17 17 12 37 -11 42 38 51 84 15 22 -17 25 -16 14 3 -9 14 -7 25 3 25 11
0 31 29 46 65 14 36 40 77 57 92 19 16 10 15 -22 -4 -54 -32 -86 -24 -62 15
41 65 0 99 -51 41z"/>
<path d="M5562 1505 c-2 -96 -8 -203 -14 -237 -13 -70 52 -87 327 -88 139 0
177 67 86 149 -22 20 -38 46 -35 57 2 12 -7 23 -20 23 -35 1 -246 211 -246
244 0 15 -21 27 -47 27 -47 0 -48 -5 -51 -175z"/>
<path d="M3949 1633 c-29 -16 -40 -41 -37 -83 2 -33 -6 -71 -17 -85 -14 -18
-11 -25 12 -25 17 0 40 -16 51 -35 17 -28 21 -21 21 39 1 40 -8 79 -20 87 -14
8 -14 21 2 41 13 15 17 28 9 28 -8 0 -4 14 10 30 29 34 25 35 -31 3z"/>
<path d="M2247 1590 c-6 -17 -25 -30 -42 -30 -26 0 -25 -7 7 -43 34 -39 34
-42 3 -31 -42 15 -46 -12 -7 -44 21 -18 30 -16 40 11 12 30 16 30 43 -5 28
-37 29 -37 15 2 -7 22 -25 49 -39 60 -29 22 -13 59 32 73 23 8 22 12 -6 23
-22 8 -39 2 -46 -16z"/>
<path d="M2892 1588 c-17 -43 -15 -49 10 -43 13 3 25 -11 29 -30 3 -19 -1 -35
-8 -35 -8 0 -16 -25 -17 -55 -2 -30 1 -44 7 -31 7 17 24 18 60 5 38 -15 48
-13 42 6 -5 14 -24 22 -42 19 -18 -3 -33 4 -33 15 0 12 14 21 30 21 17 0 30
10 30 21 0 12 -9 16 -20 9 -11 -7 -15 1 -9 16 6 16 -4 35 -22 42 -19 7 -28 25
-22 42 7 17 4 30 -5 30 -10 0 -23 -14 -30 -32z"/>
<path d="M2499 1571 c14 -16 19 -39 12 -50 -9 -13 2 -15 32 -4 48 18 75 63 37
63 -12 0 -16 -10 -8 -23 8 -13 3 -18 -14 -12 -15 5 -26 20 -23 33 3 12 -10 22
-27 22 -27 0 -28 -6 -9 -29z"/>
<path d="M5370 1580 c-7 -11 -34 -15 -61 -8 -28 7 -49 4 -49 -8 0 -12 -16 -26
-35 -32 -19 -6 -6 -8 29 -5 35 3 60 -1 55 -9 -5 -7 5 -19 23 -26 46 -18 68
-15 68 10 0 12 -13 17 -30 11 -16 -7 -30 -3 -30 8 0 10 18 19 40 19 22 0 40
-7 40 -16 0 -8 17 -17 37 -18 29 -2 35 8 28 45 -10 51 -89 71 -115 29z"/>
<path d="M2372 1566 c-27 -7 -31 -14 -13 -25 20 -13 20 -26 1 -60 -13 -25 -17
-50 -9 -58 8 -7 18 -2 23 12 5 14 18 25 29 25 11 0 13 -11 5 -23 -10 -16 -4
-20 19 -11 19 7 33 3 33 -11 0 -16 6 -17 21 -2 27 27 -11 129 -46 122 -14 -3
-23 6 -20 20 3 14 3 24 0 23 -3 -2 -22 -7 -43 -12z"/>
<path d="M3646 1499 c-24 -64 0 -101 40 -61 31 31 54 27 54 -9 0 -41 32 -21
45 27 10 40 -48 49 -100 17 -31 -19 -33 11 -3 41 12 12 14 26 4 33 -10 6 -28
-16 -40 -48z"/>
<path d="M2587 1501 c-70 -26 -81 -37 -64 -66 21 -38 126 -49 147 -15 7 11 -1
15 -17 8 -39 -15 -66 32 -31 54 17 10 31 9 35 -3 3 -10 15 -14 25 -8 10 6 18
-5 18 -24 0 -33 3 -33 32 -3 69 68 -21 104 -145 57z"/>
<path d="M2786 1487 c-5 -14 -4 -35 3 -46 8 -12 2 -22 -13 -22 -14 -1 -8 -10
14 -19 56 -24 90 -24 90 1 0 12 -9 16 -20 9 -23 -14 -27 16 -6 37 8 8 16 27
18 42 5 35 -73 33 -86 -2z"/>
<path d="M3834 1466 c-8 -13 -6 -29 6 -36 11 -7 20 -21 20 -32 0 -11 -9 -15
-20 -8 -28 17 -25 -17 3 -45 16 -16 35 -17 60 -3 46 24 49 61 4 44 -23 -9 -29
-5 -19 11 8 12 5 23 -5 23 -11 0 -23 16 -27 35 -5 24 -12 28 -22 11z"/>
<path d="M5354 1447 c-21 -21 26 -67 68 -67 21 0 38 -9 38 -19 0 -11 -16 -15
-35 -8 -29 9 -30 7 -6 -10 32 -22 89 8 71 38 -6 8 1 21 15 27 14 6 -5 6 -41 0
-45 -8 -63 -4 -60 13 7 27 -30 47 -50 26z"/>
<path d="M5288 1393 c-5 -15 -8 -35 -7 -45 8 -41 -3 -56 -21 -28 -11 17 -19
21 -19 10 0 -55 73 -108 164 -119 97 -11 116 5 77 66 -23 37 -33 37 -75 -1
-37 -33 -115 -17 -82 16 8 8 5 26 -7 41 -13 15 -17 40 -11 57 7 16 7 30 2 30
-6 0 -15 -12 -21 -27z"/>
<path d="M3600 1381 c0 -10 -18 -13 -40 -7 -22 6 -40 3 -40 -7 0 -27 115 -28
137 0 16 18 11 25 -18 28 -21 1 -39 -5 -39 -14z"/>
<path d="M4048 1345 c-33 -33 -33 -35 2 -42 21 -4 48 7 60 24 18 25 29 26 48
7 19 -19 22 -17 11 11 -7 19 -30 35 -50 35 -20 0 -52 -16 -71 -35z"/>
<path d="M4340 1341 c0 -11 -13 -15 -28 -9 -32 12 -62 -23 -34 -41 26 -16 91
14 97 44 3 14 -4 25 -15 25 -11 0 -20 -9 -20 -19z"/>
<path d="M4933 1284 c15 -56 127 -57 127 -1 0 20 -10 37 -21 37 -12 0 -16 -9
-9 -20 17 -28 -57 -25 -85 3 -17 17 -20 12 -12 -19z"/>
<path d="M4936 764 c-29 -18 -58 -49 -63 -68 -8 -31 -1 -30 48 9 43 35 98 103
73 93 -2 -1 -28 -16 -58 -34z"/>
<path d="M5975 455 c-6 -102 -14 -197 -18 -212 -4 -16 4 -32 18 -37 19 -7 25
43 25 212 0 270 -10 285 -25 37z"/>
<path d="M1292 217 c-58 -30 -101 -38 -160 -30 -48 6 -69 4 -52 -6 44 -24 216
-48 184 -25 -20 13 -11 25 35 44 34 14 67 33 73 43 14 23 10 22 -80 -26z"/>
<path d="M280 219 c153 -41 363 -57 373 -29 4 12 -37 21 -98 22 -58 1 -159 7
-225 14 -96 9 -106 8 -50 -7z"/>
<path d="M740 128 c-27 -17 -34 -26 -13 -19 20 6 65 12 100 12 53 2 57 4 23
19 -53 23 -53 23 -110 -12z"/>
<path d="M640 103 c0 -11 -38 -15 -85 -11 -122 13 -36 -23 103 -42 73 -10 98
-20 80 -32 -21 -13 -16 -17 17 -18 25 0 45 8 45 18 0 22 -50 42 -103 42 -22 0
-34 8 -28 19 6 10 3 24 -9 31 -11 7 -20 4 -20 -7z"/>
<path d="M1020 86 c152 -39 158 -42 119 -67 -49 -31 -11 -21 70 18 l76 37
-138 13 c-75 7 -164 17 -197 22 -33 6 -1 -5 70 -23z"/>
<path d="M100 46 c-38 -17 -59 -36 -45 -40 14 -5 55 9 90 32 76 48 55 52 -45
8z"/>
<path d="M1620 38 c-43 -35 -44 -38 -6 -19 24 11 69 22 100 22 49 2 51 4 16
19 -55 24 -54 24 -110 -22z"/>
<path d="M989 38 c-8 -12 -40 -18 -71 -13 -32 4 -58 0 -58 -10 0 -27 166 -8
175 20 10 31 -28 33 -46 3z"/>
</g>
</svg>
