<?xml version="1.0" standalone="no"?>
<!DOCTYPE svg PUBLIC "-//W3C//DTD SVG 20010904//EN"
 "http://www.w3.org/TR/2001/REC-SVG-20010904/DTD/svg10.dtd">
<svg version="1.0" xmlns="http://www.w3.org/2000/svg"
 width="300.000000pt" height="225.000000pt" viewBox="0 0 300.000000 225.000000"
 preserveAspectRatio="xMidYMid meet">
<metadata>
Created by potrace 1.10, written by Peter Selinger 2001-2011
</metadata>
<g transform="translate(0.000000,225.000000) scale(0.100000,-0.100000)"
fill="#000000" stroke="none">
<path d="M2390 2179 c0 -6 -9 -8 -20 -4 -11 4 -20 2 -20 -4 0 -6 -9 -11 -20
-11 -11 0 -20 -5 -20 -11 0 -8 11 -9 33 -5 20 3 26 2 17 -3 -27 -15 -63 -24
-56 -13 3 5 -4 12 -16 16 -14 3 -26 0 -31 -9 -4 -8 -15 -11 -24 -8 -9 4 -19
-1 -25 -10 -4 -9 -15 -14 -23 -11 -8 4 -15 1 -15 -5 0 -6 -11 -11 -25 -11 -14
0 -25 -4 -25 -10 0 -5 -9 -10 -20 -10 -11 0 -20 -4 -20 -10 0 -5 5 -10 11 -10
5 0 7 -4 4 -10 -4 -6 -16 -4 -31 6 -15 10 -24 12 -24 5 0 -6 -9 -11 -19 -11
-11 0 -23 -5 -26 -11 -4 -6 -13 -8 -21 -5 -16 6 -29 -10 -14 -19 5 -3 10 -12
10 -18 0 -8 -3 -9 -8 -1 -11 16 -41 24 -48 13 -3 -5 -14 -7 -25 -4 -14 5 -19
2 -19 -10 0 -11 -5 -15 -15 -12 -8 4 -17 2 -20 -4 -4 -5 -11 -7 -16 -4 -5 4
-9 1 -9 -6 0 -6 -8 -9 -19 -6 -11 3 -22 -1 -25 -9 -3 -7 -12 -11 -21 -8 -8 4
-15 1 -15 -6 0 -7 -7 -10 -15 -6 -8 3 -15 1 -15 -5 0 -6 -9 -8 -20 -4 -11 3
-20 2 -20 -4 0 -5 -13 -12 -30 -16 -16 -4 -30 -11 -30 -17 0 -6 -7 -8 -15 -4
-8 3 -15 1 -15 -5 0 -6 -4 -7 -10 -4 -5 3 -10 2 -10 -3 0 -5 -17 -14 -37 -20
-30 -9 -39 -9 -45 2 -5 8 -22 12 -47 10 -28 -2 -41 2 -45 12 -3 9 -10 12 -16
9 -6 -3 -13 0 -15 8 -8 18 -58 10 -71 -11 -5 -10 -7 -33 -3 -52 l6 -35 2 42
c1 31 6 43 19 47 23 8 84 -22 79 -37 -5 -15 -33 -16 -30 -1 1 7 -8 9 -24 6
l-27 -5 24 -9 c14 -5 28 -14 32 -21 6 -9 10 -9 16 0 4 6 20 16 35 22 22 9 33
7 53 -6 24 -15 25 -20 20 -80 -3 -37 -1 -63 4 -63 6 0 10 18 10 40 0 22 4 40
10 40 5 0 7 -8 4 -17 -5 -15 -4 -16 5 -3 8 11 7 18 -4 26 -20 15 -19 21 8 28
15 4 18 8 10 14 -7 4 7 9 34 10 25 1 54 9 63 17 9 8 25 15 36 15 10 0 26 5 34
11 12 9 11 10 -7 6 -20 -4 -21 -2 -12 14 5 10 12 19 15 19 3 0 3 -4 0 -9 -3
-5 1 -12 10 -15 26 -10 44 -7 44 8 0 16 27 29 42 20 8 -5 28 0 93 26 11 4 43
16 70 25 28 10 64 23 80 30 56 24 70 28 83 26 6 -1 12 3 12 9 0 5 6 10 14 10
7 0 31 8 52 17 22 9 41 17 44 18 3 1 19 5 35 10 17 4 35 10 40 14 6 3 15 6 20
6 48 3 114 61 98 88 -7 11 -33 8 -33 -4z"/>
<path d="M2447 2169 c-9 -6 -15 -15 -11 -20 3 -6 12 -3 21 8 14 17 14 17 10
-3 -3 -13 3 -25 14 -33 11 -6 18 -17 16 -24 -1 -6 5 -10 13 -9 8 2 12 1 8 -3
-4 -4 5 -17 19 -29 16 -14 26 -33 26 -49 0 -15 4 -30 10 -34 6 -4 7 -1 2 6 -6
10 -3 11 14 2 11 -7 21 -17 21 -23 0 -9 3 -9 12 0 8 8 5 19 -15 44 -15 18 -52
66 -82 106 -31 39 -57 72 -58 72 -1 0 -10 -5 -20 -11z"/>
<path d="M76 2108 c16 -13 31 -23 34 -23 3 -1 15 -6 26 -13 12 -6 24 -9 28 -5
7 7 -40 33 -59 33 -7 0 -18 7 -25 15 -7 8 -17 15 -23 15 -5 0 3 -10 19 -22z"/>
<path d="M2392 2090 c-20 -16 -22 -27 -20 -80 3 -68 11 -81 30 -50 7 11 18 20
25 20 6 0 15 5 19 12 5 8 2 9 -9 5 -11 -4 -17 -1 -17 8 0 8 -6 15 -12 16 -7 0
-3 5 10 11 24 12 31 31 8 22 -10 -4 -13 3 -11 25 1 17 2 31 1 31 0 -1 -11 -9
-24 -20z"/>
<path d="M2447 2094 c-31 -17 -30 -32 0 -19 10 5 23 7 29 7 6 -1 11 5 11 13 0
18 -4 18 -40 -1z"/>
<path d="M2239 2040 c-46 -21 -56 -28 -41 -32 11 -3 26 -1 32 6 9 8 14 8 17
-1 3 -8 12 -4 26 10 13 13 22 17 25 9 2 -7 11 -12 19 -12 13 0 13 -3 3 -15 -9
-10 -9 -15 -1 -15 6 0 11 -4 11 -10 0 -5 -7 -10 -15 -10 -8 0 -15 -4 -15 -9 0
-5 -3 -16 -6 -25 -5 -13 -1 -13 26 -3 30 11 31 13 28 71 -3 53 -5 60 -25 61
-13 1 -50 -10 -84 -25z"/>
<path d="M2466 1995 c1 -25 8 -53 15 -61 6 -8 13 -31 14 -52 2 -20 6 -77 10
-127 8 -114 15 -156 25 -150 4 3 18 -12 30 -33 l22 -37 -24 23 c-27 25 -48 29
-48 8 0 -16 36 -70 73 -110 15 -16 41 -50 58 -75 25 -36 30 -40 25 -20 -4 19
-1 29 10 33 11 4 12 10 5 23 -14 24 -55 72 -45 53 4 -8 3 -12 -1 -7 -5 4 -10
17 -12 29 -2 12 -12 36 -23 53 -28 46 -27 103 3 115 l22 9 -24 0 c-24 1 -24 2
-5 15 15 11 22 12 33 3 12 -9 13 -9 7 1 -4 6 -2 12 3 12 6 0 11 5 11 10 0 6
-9 10 -20 10 -13 0 -26 12 -37 35 -9 19 -20 35 -25 35 -4 0 -8 9 -8 20 0 11
-5 20 -10 20 -15 0 -50 86 -50 123 0 24 -3 28 -10 17 -8 -13 -10 -12 -10 3 0
9 3 17 6 17 10 0 64 -58 64 -70 0 -6 4 -9 8 -6 5 3 15 -5 22 -18 7 -13 23 -30
36 -37 13 -7 24 -16 24 -21 0 -16 -16 -8 -45 22 -15 16 -32 27 -36 24 -11 -6
33 -53 44 -47 4 2 7 -2 7 -9 0 -16 39 -52 47 -44 3 3 0 12 -7 21 -7 8 -8 15
-2 15 16 0 33 -26 27 -42 -6 -16 13 -41 44 -58 11 -5 32 -49 52 -110 18 -55
36 -100 40 -100 4 0 12 7 19 15 11 13 8 33 -15 113 -15 53 -33 102 -38 107 -7
7 -8 4 -4 -7 4 -12 2 -15 -9 -11 -19 7 -18 33 2 33 24 0 12 23 -59 117 -63 83
-77 96 -77 67 0 -8 -4 -12 -10 -9 -5 3 -10 1 -10 -5 0 -7 9 -14 20 -17 11 -3
17 -9 14 -14 -3 -5 2 -9 11 -9 9 0 13 -4 10 -10 -3 -5 -1 -10 5 -10 6 0 8 -4
5 -10 -4 -6 1 -7 11 -3 13 5 16 3 11 -10 -3 -9 -2 -16 2 -14 5 1 9 -2 10 -8 3
-29 -35 -1 -135 102 l-111 114 3 -46z m102 -246 c13 -22 22 -41 20 -42 -2 -1
-13 -8 -25 -15 -13 -7 -23 -8 -23 -3 0 5 5 11 11 13 8 3 4 18 -10 46 -29 56
-5 57 27 1z"/>
<path d="M2140 2000 c-8 -6 -39 -17 -68 -26 -32 -9 -50 -20 -46 -26 4 -7 2 -8
-4 -4 -12 7 -92 -15 -92 -26 0 -4 -7 -5 -16 -1 -14 5 -14 3 -2 -16 11 -18 14
-19 24 -6 6 8 15 15 19 15 5 0 17 7 27 17 11 9 18 11 18 5 0 -18 18 -14 40 8
11 11 35 21 53 23 17 1 43 12 56 25 24 22 19 30 -9 12z"/>
<path d="M1304 1952 c-11 -7 -27 -42 -19 -42 2 0 14 10 26 23 12 12 19 17 16
11 -5 -9 34 -54 48 -54 16 0 1 40 -20 54 -27 18 -35 19 -51 8z"/>
<path d="M533 1923 c6 -10 94 -37 122 -38 6 0 17 -4 25 -9 13 -8 13 -7 0 6 -8
8 -37 20 -65 26 -27 6 -59 14 -69 18 -13 5 -17 4 -13 -3z"/>
<path d="M2351 1868 c-1 -58 -4 -67 -22 -73 -19 -6 -20 -12 -16 -68 7 -77 7
-76 17 -52 4 11 5 41 2 68 -4 43 -3 47 17 47 18 0 21 4 16 20 -6 17 -2 20 29
20 20 0 36 5 36 10 0 6 -11 8 -25 4 -20 -5 -25 -2 -25 13 0 11 11 25 25 31 29
13 34 42 8 42 -15 0 -16 -2 -3 -10 13 -8 12 -10 -3 -10 -10 0 -15 -4 -12 -10
3 -5 1 -10 -4 -10 -6 0 -11 5 -11 11 0 5 -4 8 -9 4 -5 -3 -12 3 -14 12 -3 10
-5 -12 -6 -49z"/>
<path d="M2285 1901 c-3 -5 -19 -13 -36 -16 -23 -5 -28 -9 -18 -16 8 -5 23 -9
34 -9 17 0 17 2 5 10 -13 8 -13 10 1 10 26 0 19 -71 -8 -81 -16 -6 -23 -3 -28
9 -6 15 -8 14 -16 -7 -7 -19 -15 -22 -39 -19 -16 3 -31 0 -33 -5 -2 -6 -21
-11 -43 -11 -21 -1 -43 -6 -49 -12 -11 -13 -80 -31 -142 -37 -41 -5 -43 -4
-43 23 0 21 -7 30 -30 40 -16 7 -30 16 -30 21 0 5 -7 9 -16 9 -8 0 -12 5 -9
10 3 6 1 10 -6 10 -8 0 -8 4 1 15 17 20 7 29 -20 20 -20 -6 -22 -12 -17 -51 2
-24 10 -51 17 -59 12 -14 16 -13 36 6 19 18 26 20 39 9 19 -16 20 -31 0 -24
-17 7 -21 -11 -5 -21 6 -3 10 -19 10 -34 0 -21 -6 -30 -22 -35 -33 -9 -34 -8
-47 21 -11 23 -10 29 5 40 10 7 13 13 6 13 -6 0 -19 -12 -29 -26 -13 -20 -14
-30 -5 -44 20 -33 -10 -30 -74 8 -48 27 -60 39 -56 54 2 10 9 21 15 25 6 4 8
-2 4 -17 -5 -21 -3 -22 30 -17 50 8 55 16 51 80 l-3 56 -55 -22 c-45 -18 -55
-27 -55 -46 0 -30 -17 -37 -35 -16 -10 12 -10 15 4 15 9 0 16 5 16 10 0 13
-13 13 -44 -1 -28 -13 -25 -29 5 -29 13 0 18 -4 13 -12 -4 -6 -3 -9 2 -6 5 3
18 -3 28 -13 25 -25 10 -24 -31 1 -32 19 -32 19 -38 0 -4 -11 -11 -20 -16 -20
-5 0 -9 -7 -9 -16 0 -24 33 -13 40 13 3 16 9 20 19 14 9 -6 10 -11 2 -15 -6
-4 -9 -12 -5 -17 3 -6 11 -4 17 5 11 14 15 13 41 -9 16 -14 35 -25 42 -25 8 0
11 -6 7 -16 -4 -12 -2 -15 8 -12 8 3 28 -1 46 -8 25 -11 33 -11 36 -1 3 6 6
-1 6 -18 1 -24 -2 -27 -10 -15 -8 12 -10 11 -7 -5 5 -32 31 -23 39 13 8 38 7
37 37 46 21 7 22 5 22 -45 0 -39 3 -50 11 -42 6 6 10 32 8 57 -3 25 -1 46 3
46 5 0 8 -23 8 -52 0 -68 8 -58 11 14 l2 56 57 16 c31 9 61 16 68 16 6 0 13
-23 15 -57 l4 -58 -1 62 -1 61 153 43 c149 42 152 43 152 70 0 54 -28 97 -45
70z m-585 -87 c0 -1 -7 -9 -15 -18 -13 -13 -13 -16 0 -29 15 -15 11 -22 -24
-42 -11 -6 -13 -4 -8 8 4 10 1 17 -6 17 -8 0 -7 4 3 11 12 8 10 9 -7 4 -32 -9
-30 16 3 36 22 13 54 21 54 13z"/>
<path d="M2020 1810 c-47 -15 -76 -28 -65 -29 11 0 38 6 60 14 22 8 50 15 61
15 12 0 24 7 28 15 3 8 4 15 3 14 -1 0 -40 -13 -87 -29z"/>
<path d="M2386 1783 c8 -21 16 -40 17 -43 1 -3 -5 -16 -12 -29 -8 -14 -9 -21
-2 -17 6 4 11 0 11 -10 0 -26 11 -10 15 22 1 16 8 28 14 27 5 -2 -3 17 -20 42
-37 55 -44 57 -23 8z"/>
<path d="M1432 1772 c1 -26 6 -41 12 -39 12 4 9 43 -5 67 -6 10 -8 1 -7 -28z"/>
<path d="M1230 1745 c-63 -25 -120 -42 -127 -40 -13 4 -23 -104 -10 -112 4 -2
8 20 8 49 1 29 3 45 6 35 2 -9 8 -15 13 -12 5 3 7 12 3 20 -3 8 0 15 5 15 6 0
13 -8 15 -17 3 -13 5 -11 7 7 1 23 2 23 10 5 7 -16 9 -17 9 -3 1 9 5 20 11 23
6 3 7 -1 4 -9 -3 -9 -1 -16 5 -16 6 0 11 8 12 18 0 14 2 14 9 -3 5 -11 9 -14
9 -7 1 6 6 12 11 12 6 0 8 -16 4 -42 -5 -30 -4 -39 4 -34 7 4 12 31 13 59 0
39 3 47 9 32 8 -19 9 -19 16 5 l8 25 7 -25 7 -25 1 28 c1 15 5 27 9 27 4 0 6
-23 5 -51 -3 -34 0 -49 6 -44 6 3 11 29 11 57 0 28 3 49 6 45 4 -3 6 -27 6
-52 -1 -32 2 -45 11 -42 7 2 11 22 10 51 -1 25 2 44 7 41 5 -3 12 0 16 6 4 8
3 9 -4 5 -7 -4 -12 -2 -12 3 0 17 -16 13 -140 -34z"/>
<path d="M2280 1723 c0 -36 4 -63 10 -63 13 0 13 90 0 110 -7 11 -10 -3 -10
-47z"/>
<path d="M2243 1713 c6 -72 6 -70 15 -56 10 16 2 113 -10 113 -6 0 -8 -23 -5
-57z"/>
<path d="M2210 1701 c0 -34 4 -61 10 -61 6 0 10 24 10 54 0 30 -4 58 -10 61
-6 4 -10 -17 -10 -54z"/>
<path d="M2175 1733 c2 -10 4 -38 4 -62 1 -27 5 -41 10 -35 11 11 2 114 -9
114 -5 0 -7 -8 -5 -17z"/>
<path d="M2140 1690 c0 -33 4 -50 13 -50 8 0 11 15 9 50 -5 65 -22 65 -22 0z"/>
<path d="M2110 1681 c0 -28 5 -51 10 -51 6 0 10 20 10 44 0 25 -4 48 -10 51
-6 4 -10 -13 -10 -44z"/>
<path d="M2080 1664 c0 -36 4 -54 9 -46 8 13 4 92 -5 101 -2 2 -4 -22 -4 -55z"/>
<path d="M2049 1683 c0 -16 -2 -38 -3 -51 -2 -13 1 -25 6 -28 4 -3 8 20 8 50
0 56 -9 80 -11 29z"/>
<path d="M1989 1688 c-5 -58 -4 -90 3 -100 4 -8 8 14 8 50 0 34 -2 62 -5 62
-3 0 -5 -6 -6 -12z"/>
<path d="M2670 1681 c0 -11 -5 -21 -11 -21 -5 0 -7 5 -3 12 5 7 3 8 -5 3 -7
-4 -11 -18 -8 -31 2 -13 0 -24 -4 -24 -5 0 -9 -5 -9 -11 0 -8 5 -7 15 1 13 11
18 10 28 -4 11 -15 13 -15 24 3 11 18 10 19 -4 14 -11 -5 -14 -3 -8 6 6 10 2
11 -16 6 -24 -8 -24 -7 -5 13 10 12 23 19 27 16 15 -9 10 13 -6 26 -13 10 -15
9 -15 -9z"/>
<path d="M1021 1674 c-18 -8 -40 -13 -48 -10 -9 4 -11 2 -7 -6 5 -8 2 -9 -9
-5 -10 3 -17 2 -17 -3 0 -5 -8 -7 -19 -5 -16 3 -18 -2 -13 -43 6 -61 12 -66
12 -11 0 24 4 39 8 34 6 -10 15 -11 40 -6 4 1 1 5 -6 10 -11 7 -11 9 2 14 11
4 16 1 17 -11 0 -14 2 -14 9 3 8 18 9 17 9 -7 1 -22 -3 -26 -16 -22 -17 5 -17
5 -1 -6 10 -6 15 -17 11 -27 -4 -11 -3 -14 5 -9 7 4 13 28 14 54 l1 47 7 -50
7 -50 1 51 c2 44 5 53 23 57 20 5 21 3 16 -46 -4 -34 -3 -45 3 -32 14 31 12
95 -2 94 -7 0 -28 -7 -47 -15z"/>
<path d="M1425 1680 c-16 -5 -136 -41 -265 -80 -129 -40 -271 -83 -315 -96
-44 -13 -81 -29 -83 -34 -5 -13 -32 -13 -32 -1 0 5 8 12 19 16 13 4 20 19 24
57 7 59 5 65 -16 43 -9 -8 -20 -15 -26 -15 -6 0 -11 -4 -11 -8 0 -5 -22 -18
-50 -30 -48 -21 -60 -35 -41 -46 14 -9 42 5 34 17 -3 6 -1 7 5 3 6 -4 28 0 48
9 59 24 53 8 -7 -19 -37 -17 -47 -25 -31 -25 25 -1 28 -12 10 -41 -9 -15 -10
-23 -2 -28 18 -12 23 -60 7 -66 -29 -12 -33 -5 -33 56 0 34 -2 59 -4 57 -9
-10 -12 -140 -3 -146 6 -3 7 -1 3 5 -5 8 0 12 13 12 12 0 21 -4 21 -10 0 -5 5
-10 11 -10 8 0 7 5 -1 15 -11 13 -10 14 4 9 9 -3 16 -1 16 5 0 6 5 11 11 11 6
0 9 -7 5 -15 -3 -8 -1 -15 3 -15 13 0 20 25 12 39 -4 6 -15 9 -24 5 -13 -4
-17 -1 -17 15 0 12 5 21 12 21 6 0 9 2 6 5 -9 9 49 66 72 70 23 4 75 21 133
41 20 8 37 11 37 8 0 -4 7 -1 15 6 8 7 15 9 15 4 0 -4 5 -3 12 4 7 7 20 12 29
12 10 0 30 5 46 12 15 6 34 10 41 9 6 -1 12 3 12 8 0 6 6 8 14 5 8 -3 25 0 38
7 13 7 29 12 36 11 6 -2 12 2 12 8 0 6 10 8 26 4 21 -5 25 -4 19 6 -6 9 -4 11
5 5 15 -9 131 25 124 36 -3 5 2 9 10 9 9 0 15 -3 14 -7 -5 -17 24 -54 38 -49
8 3 14 1 14 -5 0 -5 11 -14 24 -19 13 -5 70 -31 127 -59 93 -44 107 -54 133
-98 16 -26 30 -49 30 -49 1 -1 30 4 66 11 266 54 371 74 410 80 25 3 57 8 71
11 28 5 95 -27 82 -39 -3 -4 -1 -7 5 -7 19 0 24 20 8 35 -25 25 -30 78 -11
115 25 49 8 81 -42 79 -65 -2 -93 -10 -93 -26 0 -12 -3 -13 -13 -5 -10 8 -24
8 -53 0 -21 -7 -41 -15 -44 -18 -3 -3 -23 -6 -45 -7 -25 -1 -44 -9 -53 -20 -9
-13 -15 -15 -20 -6 -6 9 -17 10 -45 2 -22 -6 -35 -14 -31 -21 4 -6 -1 -8 -15
-3 -30 9 -81 -4 -81 -20 0 -11 7 -12 28 -6 15 5 54 14 87 21 33 7 82 19 109
26 27 8 52 11 57 8 5 -3 9 -1 9 3 0 5 8 9 18 10 9 1 56 10 104 21 86 19 98 19
98 -2 0 -6 -5 -4 -10 4 -8 13 -10 12 -10 -2 0 -11 -8 -18 -18 -18 -10 0 -117
-23 -238 -51 -257 -59 -375 -82 -383 -74 -8 9 21 25 47 25 15 0 21 4 16 12 -4
6 -3 8 3 5 15 -9 73 3 73 15 0 10 -79 1 -115 -12 -24 -9 -70 11 -58 25 4 4 3
5 -4 1 -7 -4 -27 1 -44 10 -25 13 -29 18 -18 26 10 7 8 8 -9 5 -14 -3 -20 -1
-15 6 4 7 0 8 -11 4 -11 -5 -15 -3 -10 5 5 8 2 9 -9 5 -10 -3 -17 -2 -17 4 0
6 -4 8 -9 5 -4 -3 -17 1 -27 10 -18 14 -18 15 4 4 20 -10 22 -8 22 17 0 20 -3
24 -9 14 -5 -8 -18 -12 -30 -8 -12 3 -19 1 -15 -4 9 -15 -9 -10 -39 9 -15 10
-24 22 -20 25 3 4 4 7 2 6 -2 -1 -17 -5 -34 -9z m985 -105 c0 -16 -4 -23 -14
-19 -9 3 -15 -5 -19 -25 -7 -33 -5 -33 -127 -50 -41 -6 -86 -13 -100 -16 -14
-3 -54 -10 -90 -16 -36 -7 -76 -16 -89 -21 -48 -18 -130 -21 -145 -5 -18 18
-8 31 11 15 11 -9 13 -8 11 3 -2 8 7 15 20 17 12 2 22 8 22 13 0 6 7 6 19 -1
25 -13 34 -13 25 1 -4 7 -1 10 7 7 8 -3 26 1 41 8 18 9 29 11 33 3 5 -7 11 -6
21 2 8 6 17 9 20 6 4 -3 13 1 22 9 12 13 16 13 23 2 7 -11 12 -11 29 0 11 7
26 10 31 6 8 -4 7 -9 -2 -15 -9 -5 -9 -9 -3 -9 7 0 19 12 29 26 13 21 19 24
26 13 5 -8 9 -10 9 -6 0 4 10 2 23 -4 19 -11 20 -10 9 3 -10 13 -9 18 3 28 12
10 15 10 15 -3 0 -22 17 -30 24 -11 4 10 2 13 -6 8 -7 -4 -8 -3 -4 4 4 7 19
12 34 12 42 0 72 11 72 26 0 8 5 14 10 14 6 0 10 -11 10 -25z"/>
<path d="M2340 1535 c0 -9 -10 -20 -22 -25 -13 -5 -17 -9 -10 -9 16 -1 62 29
62 40 0 5 -7 9 -15 9 -8 0 -15 -7 -15 -15z"/>
<path d="M1955 1641 c0 -27 3 -53 8 -57 4 -4 7 18 7 49 0 32 -3 57 -7 57 -5 0
-8 -22 -8 -49z"/>
<path d="M2920 1665 c0 -9 -6 -18 -14 -21 -26 -10 -6 -32 30 -32 24 0 38 6 45
20 6 11 8 22 6 25 -3 2 -8 -5 -12 -16 -7 -22 -14 -25 -38 -15 -9 3 -12 14 -9
30 2 13 2 24 -2 24 -3 0 -6 -7 -6 -15z"/>
<path d="M1904 1636 c-3 -8 -4 -29 -1 -48 3 -28 4 -27 5 12 2 48 18 45 25 -5
3 -24 4 -21 6 13 1 32 -3 42 -14 42 -9 0 -18 -6 -21 -14z"/>
<path d="M795 1632 c-11 -11 -4 -23 12 -20 14 2 17 -4 15 -37 -2 -32 0 -37 8
-22 6 9 9 21 5 26 -3 5 -1 12 5 16 5 3 10 -2 11 -12 1 -13 3 -11 10 7 6 20 8
15 6 -22 -1 -27 1 -48 5 -48 10 0 10 92 0 105 -7 10 -68 16 -77 7z"/>
<path d="M887 1592 c7 -69 11 -74 12 -15 1 28 -3 54 -8 57 -5 3 -6 -16 -4 -42z"/>
<path d="M1376 1585 c4 -8 1 -15 -5 -15 -6 0 -11 5 -11 10 0 6 -5 10 -11 10
-8 0 -8 -4 0 -14 9 -11 5 -15 -18 -19 -21 -5 -34 -16 -46 -42 -10 -19 -22 -35
-29 -35 -6 0 -4 -4 4 -9 8 -6 18 -7 22 -5 4 3 5 -2 2 -9 -3 -8 -14 -17 -25
-20 -10 -3 -19 -10 -19 -17 0 -7 8 -9 21 -5 16 6 20 4 14 -6 -5 -8 -4 -11 1
-6 5 5 9 12 10 15 0 4 4 15 8 25 5 9 6 26 3 38 -4 16 -3 18 8 9 9 -8 14 -6 19
6 9 22 8 24 -9 24 -13 0 -14 2 -3 14 11 12 15 12 29 0 14 -12 17 -11 27 11 7
15 16 24 21 21 5 -4 7 3 4 14 -3 11 -9 20 -14 20 -5 0 -6 -7 -3 -15z"/>
<path d="M1420 1576 c0 -3 14 -13 31 -22 25 -12 29 -18 18 -25 -12 -8 -12 -11
1 -19 20 -13 25 -12 39 4 10 12 8 13 -9 9 -14 -4 -20 -1 -18 7 2 7 -12 22 -29
32 -18 11 -33 17 -33 14z"/>
<path d="M2695 1540 c5 -14 8 -31 8 -37 0 -16 13 -17 22 -3 3 6 -4 23 -16 38
l-21 27 7 -25z"/>
<path d="M2965 1538 c-10 -6 -28 -12 -40 -13 -11 -1 -28 -5 -37 -10 -10 -4
-25 -5 -33 -2 -8 4 -17 1 -21 -4 -3 -6 -15 -9 -25 -6 -32 9 -41 -16 -24 -64 8
-24 15 -55 15 -68 0 -21 3 -23 38 -16 48 8 64 24 34 31 -12 4 -23 10 -23 15
-5 27 -2 34 21 41 15 5 7 5 -22 2 -29 -3 -48 -1 -48 5 0 16 56 39 71 30 20
-12 31 -11 23 2 -5 8 3 10 24 7 17 -2 29 -1 27 3 -3 3 9 9 25 13 21 4 30 11
30 26 0 23 -7 24 -35 8z"/>
<path d="M1122 1533 c-28 -5 -24 -27 6 -31 17 -3 22 2 22 17 0 12 -1 20 -2 20
-2 -1 -13 -4 -26 -6z"/>
<path d="M1367 1506 c-15 -14 -27 -26 -25 -27 42 -10 61 0 56 31 l-3 22 -28
-26z"/>
<path d="M1440 1475 l25 -14 -33 -7 c-23 -5 -29 -9 -21 -15 7 -4 19 -3 26 3 7
6 13 7 13 2 0 -5 5 -2 10 6 8 13 10 12 10 -3 0 -10 6 -17 12 -15 12 4 38 -14
38 -27 0 -3 -9 -3 -21 0 -19 6 -20 5 -9 -16 12 -22 13 -22 26 -4 18 25 18 35
-3 51 -16 12 -15 12 7 7 23 -6 24 -5 10 12 -9 11 -10 16 -2 11 6 -4 12 -3 12
3 0 5 -9 9 -20 8 -10 -1 -17 -3 -15 -6 3 -2 0 -10 -6 -17 -8 -9 -15 -7 -34 12
-13 13 -30 24 -37 24 -7 -1 -2 -7 12 -15z"/>
<path d="M877 1440 c-3 -11 -1 -20 5 -20 5 0 6 -4 3 -10 -3 -5 -1 -10 5 -10 7
0 9 7 6 16 -5 12 -2 15 10 10 11 -4 14 -1 12 11 -5 26 -34 28 -41 3z"/>
<path d="M1030 1445 c-25 -8 -64 -30 -86 -49 -36 -31 -42 -43 -51 -96 -5 -33
-6 -60 -1 -60 4 0 8 15 8 33 0 67 17 58 23 -14 4 -49 12 -78 23 -88 15 -15 16
-15 11 2 -5 13 -1 17 18 17 15 0 25 6 25 14 0 8 -8 13 -17 12 -15 -1 -18 7
-16 49 2 31 10 60 23 77 l20 27 -30 -11 c-21 -7 -33 -20 -39 -41 -9 -30 -9
-30 -10 -6 -2 48 87 102 186 113 50 5 89 -6 59 -17 -9 -4 -16 -17 -15 -29 0
-13 3 -17 6 -10 8 21 25 13 21 -10 -2 -13 -8 -22 -14 -21 -10 2 -30 -105 -22
-113 2 -1 15 0 31 3 27 5 27 7 28 82 2 106 0 114 -23 134 -25 21 -93 22 -158
2z"/>
<path d="M829 1438 c-8 -8 -22 -14 -31 -12 -26 3 -30 -23 -5 -30 36 -9 42 -7
21 9 -18 13 -18 14 6 8 14 -3 31 -11 39 -17 12 -9 13 -8 4 9 -6 11 -12 26 -15
34 -3 11 -6 11 -19 -1z"/>
<path d="M1417 1401 c5 -20 -26 -39 -37 -21 -4 6 -14 8 -23 4 -32 -12 -17 -21
39 -21 49 0 55 2 51 18 -3 11 0 19 6 19 15 0 -14 20 -30 20 -6 0 -9 -8 -6 -19z"/>
<path d="M234 1386 c1 -14 -4 -20 -14 -18 -12 3 -13 1 -3 -9 11 -10 16 -9 28
7 18 24 19 41 2 41 -7 0 -13 -10 -13 -21z"/>
<path d="M2708 1398 c8 -10 11 -21 9 -25 -3 -5 1 -17 9 -28 13 -17 16 -18 24
-5 15 23 13 27 -22 51 -21 15 -28 17 -20 7z"/>
<path d="M397 1376 c4 -17 -1 -27 -16 -35 -24 -13 -29 -44 -7 -35 12 4 14 -2
11 -27 -4 -31 -4 -32 13 -16 13 14 14 21 5 35 -8 14 -7 22 2 36 12 16 14 16
20 -3 3 -12 4 -24 1 -29 -7 -12 36 -13 51 0 10 8 13 6 13 -6 0 -9 4 -16 8 -16
16 0 21 12 11 24 -5 6 -16 20 -23 31 -11 16 -16 17 -29 7 -16 -14 -33 0 -22
17 3 5 0 13 -6 17 -8 5 -9 3 -4 -6 5 -9 4 -11 -3 -6 -7 4 -12 14 -12 22 0 8
-4 14 -9 14 -4 0 -6 -11 -4 -24z"/>
<path d="M609 1388 c-1 -7 -1 -19 0 -26 1 -7 -5 -19 -14 -28 -16 -16 -20 -43
-7 -45 47 -8 47 -8 47 53 1 41 -3 58 -12 58 -7 0 -14 -6 -14 -12z"/>
<path d="M1082 1386 c-29 -8 -56 -17 -60 -21 -4 -5 0 -6 9 -2 9 3 37 9 63 12
25 4 49 11 52 16 6 11 3 11 -64 -5z"/>
<path d="M2088 1377 c-60 -11 -108 -23 -108 -27 0 -3 9 -16 21 -29 23 -24 42
-140 21 -127 -6 4 -9 19 -6 34 3 15 1 38 -4 52 -8 21 -10 12 -13 -46 l-4 -71
32 7 c18 4 33 6 35 5 2 -2 2 30 0 71 -4 73 -4 74 -30 75 -24 0 -25 1 -7 8 31
13 185 34 192 27 4 -3 -2 -6 -13 -6 -18 0 -19 -6 -14 -77 4 -66 8 -78 23 -78
10 0 21 -5 25 -10 8 -12 32 -18 32 -9 0 4 -7 12 -15 18 -10 8 -17 40 -21 109
-6 80 -10 97 -23 96 -9 -1 -64 -11 -123 -22z"/>
<path d="M255 1371 c-3 -5 -1 -13 5 -16 8 -5 7 -12 -2 -23 -11 -13 -10 -15 5
-9 12 4 17 1 17 -9 0 -11 5 -14 16 -10 14 5 15 4 4 -9 -7 -9 -19 -14 -27 -11
-8 3 -11 1 -8 -4 3 -6 0 -10 -8 -10 -18 0 -30 -27 -16 -35 5 -4 12 1 15 9 3 9
11 16 16 16 6 0 16 7 23 16 9 14 16 14 33 5 14 -8 22 -8 22 -1 0 5 -7 10 -15
10 -8 0 -15 7 -15 15 0 8 -7 15 -15 15 -9 0 -15 6 -14 13 4 29 -2 47 -15 47
-8 0 -17 -4 -21 -9z"/>
<path d="M1588 1367 c-16 -6 -28 -14 -28 -19 0 -14 28 -9 44 8 14 13 21 26 14
23 -2 -1 -15 -6 -30 -12z"/>
<path d="M1278 1363 c-18 -5 -34 -62 -25 -87 3 -7 -1 -25 -8 -40 -8 -15 -9
-24 -3 -20 5 4 15 0 20 -7 8 -11 9 -11 5 3 -4 11 4 21 26 32 25 12 28 16 12
16 -12 0 -26 -5 -33 -12 -7 -7 -12 -8 -12 -4 0 5 10 18 23 29 l22 19 -22 -6
c-26 -8 -29 -1 -10 18 20 21 48 16 41 -7 -4 -13 -2 -17 5 -13 6 4 11 14 11 22
0 8 4 13 9 10 10 -6 37 22 29 30 -3 2 -17 0 -32 -6 -18 -6 -25 -6 -21 0 3 6 1
10 -4 10 -6 0 -11 -4 -11 -10 0 -5 -7 -10 -17 -10 -14 0 -14 2 2 20 10 11 16
19 14 19 -2 -1 -12 -3 -21 -6z"/>
<path d="M1536 1356 c3 -9 2 -16 -4 -16 -6 0 -12 6 -15 13 -3 8 -7 6 -12 -6
-5 -11 -1 -25 10 -37 11 -12 13 -20 7 -20 -7 0 -12 -7 -12 -15 0 -24 17 -17
24 10 4 17 11 23 24 19 15 -5 15 -4 -1 6 -11 7 -16 18 -12 30 3 10 1 21 -4 25
-7 3 -8 0 -5 -9z"/>
<path d="M2580 1332 c0 -48 9 -58 27 -32 12 17 11 23 -3 45 -9 14 -18 25 -20
25 -2 0 -4 -17 -4 -38z"/>
<path d="M2900 1360 c0 -6 -11 -10 -25 -10 -25 0 -29 -7 -20 -32 5 -12 16 -12
75 1 69 16 96 38 43 35 -16 -1 -38 3 -50 7 -14 5 -23 5 -23 -1z"/>
<path d="M198 1320 c-24 -23 -23 -25 12 -25 21 0 30 5 30 16 0 24 -22 29 -42
9z"/>
<path d="M2099 1333 c-22 -3 -25 -8 -21 -29 3 -16 11 -24 25 -24 19 0 19 1 3
19 -17 19 -16 20 26 29 42 10 19 13 -33 5z"/>
<path d="M1430 1315 c24 -13 24 -16 1 -19 -18 -2 -24 -16 -7 -16 10 0 23 6 31
13 11 11 10 15 -6 25 -10 7 -24 12 -31 12 -7 -1 -2 -7 12 -15z"/>
<path d="M1663 1304 c-18 -19 -16 -29 2 -14 21 17 29 7 16 -19 -10 -17 -9 -20
4 -15 9 4 14 9 11 12 -3 2 0 14 6 26 6 11 7 18 3 14 -5 -4 -13 -4 -19 1 -7 6
-16 4 -23 -5z"/>
<path d="M739 1292 c-2 -6 -33 -25 -69 -42 -36 -17 -51 -28 -35 -24 17 3 46
10 65 15 32 7 33 6 16 -6 -11 -8 -34 -18 -53 -21 -19 -4 -33 -12 -33 -21 0 -8
-5 -11 -11 -7 -8 4 -9 -1 -4 -16 5 -14 3 -20 -3 -16 -6 3 -13 0 -15 -6 -4 -10
-6 -10 -6 0 -1 7 -5 10 -11 7 -5 -3 -15 3 -21 14 -7 10 -18 17 -26 14 -7 -3
-10 -9 -7 -14 3 -5 -2 -9 -11 -9 -11 0 -15 5 -12 15 4 8 1 17 -5 21 -6 4 -8 3
-5 -3 4 -6 0 -16 -7 -22 -11 -10 -19 -7 -36 11 -22 23 -22 23 -16 1 8 -24 -1
-32 -37 -35 -15 -1 -28 -10 -30 -20 -5 -16 -3 -16 19 -1 19 12 43 14 117 10
50 -3 101 -7 112 -10 16 -3 21 2 25 32 3 24 11 37 23 39 10 2 17 -3 17 -12 0
-19 -16 -21 -23 -3 -3 6 -6 8 -6 2 0 -5 11 -23 24 -40 14 -16 25 -24 25 -16 0
8 7 19 15 25 8 6 18 31 21 56 3 25 11 51 17 58 7 9 7 16 0 23 -7 7 -12 7 -14
1z"/>
<path d="M2760 1290 c-25 -4 -57 -7 -71 -6 -31 2 -51 -16 -38 -35 7 -11 9 -11
9 4 0 21 10 22 36 2 19 -14 18 -14 -3 -15 -13 0 -23 -4 -23 -9 0 -12 70 9 93
27 10 9 17 11 17 4 0 -6 9 -10 19 -9 16 1 17 4 9 15 -6 7 -7 12 -2 11 21 -4
44 2 44 11 0 11 -23 11 -90 0z"/>
<path d="M44 1278 c-5 -7 -2 -9 7 -4 8 4 5 0 -5 -8 -11 -9 -14 -16 -7 -16 7 0
10 -4 6 -9 -7 -12 12 -24 25 -16 8 5 7 11 -1 21 -10 12 -9 13 5 8 19 -7 21 7
4 24 -15 15 -25 15 -34 0z"/>
<path d="M1120 1272 c0 -10 -13 -25 -29 -35 -35 -20 -42 -21 -35 -4 3 8 -3 13
-16 13 -15 0 -20 -7 -20 -27 l0 -26 55 16 c52 15 55 18 55 49 0 17 -2 32 -5
32 -3 0 -5 -8 -5 -18z"/>
<path d="M1790 1279 c0 -7 -10 -20 -22 -30 -11 -11 -18 -22 -13 -27 4 -4 10
-1 12 6 8 21 23 13 21 -10 0 -13 0 -27 2 -33 5 -22 -1 -46 -10 -40 -5 3 -10
-1 -10 -10 0 -10 7 -15 17 -13 14 3 17 16 17 86 1 45 -2 82 -6 82 -5 0 -8 -5
-8 -11z"/>
<path d="M169 1273 c-1 -4 -1 -12 0 -17 1 -5 -5 -6 -14 -3 -9 4 -15 1 -15 -9
0 -11 6 -14 23 -9 17 5 19 4 7 -4 -13 -10 -8 -15 13 -12 4 0 7 -6 7 -15 0 -8
-4 -13 -8 -10 -9 5 -13 -2 -46 -77 -20 -47 -20 -53 -1 -33 8 8 15 21 15 29 0
8 8 18 17 21 14 6 15 9 4 15 -20 13 -2 34 25 28 30 -5 33 21 4 46 -11 9 -17
23 -14 31 3 8 1 17 -5 21 -6 3 -12 3 -12 -2z"/>
<path d="M2556 1264 c-4 -10 -12 -14 -22 -10 -10 4 -25 -3 -40 -19 -13 -14
-28 -25 -34 -25 -5 0 -10 -5 -10 -12 0 -6 -7 -3 -16 8 -14 18 -15 18 -4 -3 6
-13 7 -23 3 -23 -4 0 -1 -6 7 -13 23 -18 18 -42 -10 -45 -20 -2 -22 -1 -10 7
11 8 12 11 2 11 -9 0 -11 7 -6 22 6 19 5 21 -8 11 -8 -7 -19 -9 -24 -5 -4 4
-3 -1 5 -10 11 -15 8 -17 -26 -23 -63 -10 -70 -17 -64 -65 0 -5 7 -7 15 -4 8
3 24 1 35 -5 13 -7 22 -8 26 -1 3 5 15 10 25 10 10 0 22 9 25 20 3 11 11 20
16 20 5 0 23 15 41 33 17 17 28 27 24 20 -3 -6 -2 -14 4 -18 5 -3 10 -2 10 4
0 6 11 13 25 17 14 4 24 9 21 12 -3 2 -1 13 4 22 8 15 6 18 -8 15 -9 -1 -16
-9 -14 -17 3 -17 -24 -32 -40 -22 -6 4 -14 1 -18 -5 -5 -9 -10 -8 -20 4 -11
13 -8 15 16 16 16 1 32 1 37 0 4 0 7 5 7 13 0 17 24 28 67 30 39 2 51 12 35
28 -8 8 -12 9 -12 1 0 -6 -9 -9 -20 -6 -12 3 -20 0 -20 -6 0 -7 -4 -10 -10 -6
-5 3 -7 12 -3 20 3 8 3 15 0 15 -3 0 -8 -7 -11 -16z m-161 -144 c-3 -5 -1 -10
4 -10 6 0 11 -6 11 -14 0 -8 -14 -15 -34 -18 -19 -2 -34 0 -33 5 1 5 -4 12
-12 15 -8 3 -11 0 -7 -7 4 -6 3 -11 -2 -11 -6 0 -12 6 -15 14 -7 18 19 25 50
15 17 -6 21 -5 16 6 -3 10 1 15 12 15 9 0 13 -4 10 -10z"/>
<path d="M2142 1258 c-5 -7 -12 -24 -15 -38 -4 -23 -4 -22 -6 5 -1 23 -3 27
-11 15 -8 -13 -10 -12 -10 4 0 28 -6 16 -14 -26 l-7 -37 35 1 c23 1 33 5 29
12 -4 7 -1 6 8 -1 8 -7 20 -8 28 -4 9 6 10 11 2 15 -6 4 -11 20 -11 37 0 31
-11 37 -28 17z"/>
<path d="M336 1241 c-4 -6 -10 -9 -14 -7 -4 2 -8 -8 -9 -22 -1 -22 0 -23 9 -9
5 10 13 15 19 12 5 -4 19 1 31 11 19 13 19 15 4 10 -11 -4 -23 -2 -26 5 -6 8
-9 8 -14 0z"/>
<path d="M404 1209 c4 -27 3 -39 -3 -30 -5 8 -11 9 -15 3 -3 -5 1 -13 10 -16
28 -11 34 -6 23 21 -5 14 -8 32 -5 39 3 8 0 16 -6 20 -8 5 -9 -6 -4 -37z"/>
<path d="M1628 1225 c-4 -21 3 -32 15 -23 1 1 14 -10 29 -25 28 -28 48 -35 48
-17 0 6 -5 10 -11 10 -5 0 -7 4 -4 10 3 5 0 7 -9 4 -19 -7 -52 26 -48 49 2 9
-1 17 -6 17 -5 0 -12 -11 -14 -25z"/>
<path d="M1303 1221 c9 -37 -71 -51 -97 -16 -9 12 -15 15 -20 6 -4 -6 0 -14 8
-17 9 -3 16 -12 16 -18 0 -8 14 -13 35 -13 38 0 71 -21 48 -30 -7 -3 -13 -11
-13 -19 0 -8 -9 -23 -21 -35 -25 -25 -20 -32 14 -24 22 6 25 11 21 34 -6 29
18 62 31 41 9 -15 25 -2 25 21 0 10 6 19 14 19 15 0 31 -64 20 -82 -4 -6 -3
-8 3 -5 8 5 9 -17 6 -68 -5 -64 -3 -75 10 -75 9 0 19 5 23 12 4 6 3 8 -4 4 -6
-3 -13 -2 -17 4 -3 5 -2 10 3 10 5 0 7 19 5 43 -4 31 -2 39 6 31 6 -6 13 -25
16 -44 5 -40 20 -58 29 -35 3 9 2 13 -4 10 -6 -3 -10 1 -10 11 0 13 3 14 15 4
17 -14 35 -5 35 16 0 8 5 12 10 9 6 -3 10 -2 10 3 0 4 -16 14 -35 22 -25 10
-31 16 -23 23 10 7 10 10 1 14 -7 2 -13 12 -13 21 0 15 -2 15 -10 2 -8 -12
-10 -12 -16 3 -3 9 -1 24 6 32 10 12 10 21 2 40 -12 27 -38 35 -28 10 5 -15
-15 -21 -28 -8 -3 4 -16 8 -27 10 -14 2 -19 -2 -17 -14 3 -21 -33 -26 -40 -5
-2 8 2 10 14 5 13 -5 16 -3 11 10 -4 10 -1 17 6 17 8 0 8 3 -2 9 -7 5 -10 14
-7 20 4 6 2 11 -5 11 -6 0 -9 -8 -6 -19z"/>
<path d="M1555 1229 c4 -6 -3 -13 -14 -16 -20 -5 -20 -7 11 -29 27 -21 29 -24
11 -24 -20 0 -34 -18 -32 -43 0 -7 4 -2 9 11 5 12 14 22 21 22 6 0 8 -7 5 -16
-4 -11 -1 -14 11 -12 9 2 18 10 20 18 4 13 3 13 -6 0 -9 -13 -11 -13 -11 2 0
9 5 20 10 23 6 3 10 12 9 18 0 9 -2 9 -6 0 -3 -9 -10 -10 -24 -3 -21 12 -26
31 -6 26 6 -1 9 -1 5 1 -4 2 -4 11 -1 19 3 8 0 14 -7 14 -6 0 -8 -5 -5 -11z"/>
<path d="M2370 1231 c0 -5 -14 -13 -31 -16 -23 -5 -28 -10 -18 -16 8 -5 17 -3
21 4 6 9 10 9 17 -2 5 -8 16 -11 30 -6 17 5 19 10 11 26 -11 20 -30 26 -30 10z"/>
<path d="M117 1223 c-4 -3 -1 -13 6 -21 10 -13 9 -15 -6 -9 -14 5 -16 3 -8
-12 6 -10 9 -20 8 -23 -1 -2 6 5 15 15 14 14 15 23 8 38 -12 21 -14 22 -23 12z"/>
<path d="M912 1198 c-1 -20 3 -40 8 -43 8 -5 7 -11 0 -20 -13 -16 -4 -39 11
-30 12 8 12 55 0 55 -6 0 -12 17 -14 38 l-4 37 -1 -37z"/>
<path d="M2620 1220 c-8 -5 -10 -10 -5 -10 6 0 11 -13 10 -30 0 -31 -14 -43
-16 -12 0 14 -2 14 -9 -3 -16 -37 -12 -55 13 -54 16 1 18 2 5 6 -19 5 -25 23
-9 23 37 0 55 -32 25 -44 -11 -4 -13 -13 -9 -27 6 -17 4 -21 -9 -16 -8 3 -18
2 -21 -3 -4 -6 5 -10 19 -10 14 0 26 5 26 11 0 5 5 7 11 3 8 -4 9 0 4 15 -5
15 -2 21 9 21 21 0 20 27 0 38 -12 6 -15 18 -12 36 3 15 0 30 -8 37 -8 6 -11
15 -8 20 7 11 3 11 -16 -1z"/>
<path d="M1456 1211 c-6 -10 10 -25 37 -34 10 -4 16 -11 13 -15 -3 -5 1 -9 8
-9 17 0 16 28 -1 45 -7 7 -13 10 -13 6 0 -5 -5 -3 -12 4 -14 14 -25 15 -32 3z"/>
<path d="M2670 1210 c-12 -8 -10 -10 10 -10 25 -1 25 -1 5 -17 -15 -12 -16
-14 -3 -10 9 3 19 1 22 -6 3 -9 5 -8 5 1 1 7 6 10 11 7 6 -3 10 -1 10 4 0 6
-4 11 -10 11 -5 0 -10 7 -10 15 0 17 -18 19 -40 5z"/>
<path d="M40 1201 c0 -5 -8 -11 -18 -13 -31 -9 -23 -35 9 -30 40 6 53 25 28
40 -10 7 -19 8 -19 3z"/>
<path d="M235 1199 c4 -6 13 -8 21 -5 17 6 17 5 4 -29 -7 -19 -7 -24 2 -19 8
5 9 0 6 -14 -5 -16 -2 -22 10 -22 15 0 15 -2 2 -10 -13 -8 -13 -11 -1 -22 10
-10 12 -10 7 0 -5 7 -1 12 9 12 9 0 13 -5 9 -11 -4 -7 1 -10 11 -7 28 5 30 28
3 29 -12 0 -17 3 -10 6 6 2 9 10 5 15 -4 7 2 9 17 5 17 -4 20 -3 11 6 -9 9
-16 9 -31 -1 -27 -16 -35 -15 -20 3 10 12 10 15 -4 15 -9 0 -16 4 -16 10 0 5
6 7 13 4 19 -7 17 24 -2 32 -29 13 -52 14 -46 3z"/>
<path d="M1124 1202 c5 -8 -19 -24 -54 -35 -11 -4 -9 -6 4 -6 20 -1 20 -1 0
-17 -18 -14 -18 -15 6 -9 19 5 22 4 10 -4 -8 -6 -23 -11 -32 -11 -10 0 -18 -4
-18 -9 0 -6 9 -9 20 -8 11 1 20 4 20 8 0 4 16 6 35 5 31 -3 35 -1 30 15 -4 13
-1 19 9 19 9 0 16 5 16 11 0 7 -10 4 -26 -6 -20 -13 -29 -14 -37 -6 -14 14 10
34 31 26 9 -3 10 0 2 15 -6 11 -13 20 -16 20 -3 0 -3 -4 0 -8z"/>
<path d="M787 1188 c3 -5 -3 -18 -13 -29 -10 -11 -12 -19 -6 -19 7 0 12 5 12
10 0 16 22 12 35 -6 10 -14 15 -15 31 -5 14 9 15 11 2 7 -9 -2 -19 2 -22 10
-3 8 -1 14 4 14 24 0 7 18 -19 22 -17 2 -27 0 -24 -4z"/>
<path d="M2890 1183 c-32 -6 -72 -33 -48 -33 9 0 18 5 20 12 3 7 12 9 22 5 9
-4 14 -11 11 -17 -3 -6 4 -10 16 -10 17 0 20 3 12 11 -6 6 -9 18 -6 25 3 8 4
13 2 13 -2 -1 -15 -4 -29 -6z"/>
<path d="M320 1165 c0 -8 2 -15 4 -15 2 0 11 -3 20 -6 10 -4 16 -1 16 9 0 8
-7 18 -16 21 -22 9 -24 8 -24 -9z"/>
<path d="M991 1172 c-6 -2 -9 -8 -6 -12 3 -5 -5 -16 -17 -24 -16 -12 -18 -16
-7 -16 9 0 21 11 28 24 9 16 19 22 32 19 10 -3 19 -1 19 5 0 10 -24 12 -49 4z"/>
<path d="M72 1132 c-24 -49 -25 -52 -6 -52 9 0 14 3 11 7 -4 3 -2 12 3 19 13
15 21 54 12 54 -4 0 -13 -12 -20 -28z"/>
<path d="M1463 1146 c4 -9 -1 -16 -11 -18 -12 -3 -7 -7 14 -15 l32 -11 -11 29
c-6 16 -15 29 -20 29 -5 0 -7 -6 -4 -14z"/>
<path d="M2555 1117 c1 -26 5 -50 10 -54 4 -5 5 -2 1 5 -4 7 -3 18 2 25 7 8 6
22 -2 41 -11 28 -12 28 -11 -17z"/>
<path d="M196 1134 c-9 -8 -16 -21 -16 -27 0 -7 5 -4 11 6 8 14 14 16 24 7 8
-7 20 -10 27 -7 8 3 6 6 -6 6 -12 1 -16 6 -12 16 7 20 -8 19 -28 -1z"/>
<path d="M2920 1130 c-41 -23 -54 -25 -44 -7 4 6 3 8 -1 4 -5 -4 -10 -15 -11
-23 -1 -9 0 -13 3 -10 3 3 22 -6 42 -21 l36 -25 -30 25 c-34 31 -28 42 22 39
32 -3 52 9 53 28 0 13 -37 7 -70 -10z"/>
<path d="M1660 1131 c0 -9 27 -22 56 -27 7 -1 9 6 7 17 -6 21 -23 26 -23 7 0
-9 -3 -9 -12 0 -14 14 -28 16 -28 3z"/>
<path d="M856 1115 c-6 -17 13 -55 28 -55 4 0 3 6 -3 14 -6 7 -9 20 -5 29 3 8
1 18 -4 21 -6 3 -13 -1 -16 -9z"/>
<path d="M1182 1114 c-10 -11 -10 -14 0 -15 7 -1 0 -5 -17 -9 l-30 -8 32 -1
c17 0 38 -4 47 -7 9 -3 16 -1 16 5 0 6 -7 11 -16 11 -8 0 -13 4 -10 8 10 16
-9 30 -22 16z"/>
<path d="M1916 1121 c-8 -12 3 -41 15 -41 13 0 11 14 -3 28 -10 10 -5 11 22 6
40 -8 38 0 -2 10 -15 3 -29 2 -32 -3z"/>
<path d="M617 1114 c-4 -4 -7 -14 -7 -23 0 -12 -28 -23 -110 -45 -68 -17 -109
-33 -107 -40 5 -14 35 -10 110 14 32 11 74 22 93 26 37 7 45 -2 48 -51 1 -21
6 -25 36 -26 19 0 29 -3 22 -6 -6 -2 -9 -9 -6 -14 8 -14 34 9 28 25 -3 8 -16
11 -34 8 -35 -5 -37 1 -10 30 24 26 9 52 -26 44 -25 -7 -39 15 -21 33 7 7 8
14 1 21 -6 6 -13 7 -17 4z"/>
<path d="M1630 1113 c1 -18 28 -44 35 -33 4 6 1 17 -5 25 -13 16 -30 20 -30 8z"/>
<path d="M2520 1110 c-11 -7 -12 -12 -3 -21 6 -6 9 -18 6 -25 -3 -8 -1 -14 5
-14 11 0 11 18 -1 37 -4 7 0 13 10 15 11 2 14 6 8 10 -6 4 -17 3 -25 -2z"/>
<path d="M376 1098 c-5 -10 -12 -16 -16 -13 -4 3 -10 -2 -14 -10 -3 -8 -13
-15 -23 -15 -15 0 -16 -2 -3 -10 20 -13 33 -12 24 1 -4 7 -1 10 6 7 21 -7 24
-28 3 -28 -17 -1 -17 -1 0 -14 16 -12 16 -14 1 -20 -8 -3 -23 -6 -32 -5 -10 1
-7 4 8 8 22 7 19 9 -22 15 -25 5 -55 5 -66 2 -11 -4 -23 -2 -27 4 -3 5 -12 10
-18 10 -7 0 2 -9 18 -20 17 -11 35 -20 40 -20 6 0 3 5 -5 10 -8 5 -10 10 -5
10 6 -1 19 -7 29 -15 11 -8 30 -15 42 -15 12 0 25 -7 28 -16 9 -24 7 -36 -6
-28 -8 5 -9 0 -6 -14 4 -15 2 -22 -9 -22 -8 0 -11 5 -8 10 4 6 -3 8 -17 6 -13
-3 -27 -5 -31 -5 -5 -1 -6 -5 -3 -10 3 -5 15 -7 26 -4 14 4 22 -1 29 -18 5
-13 10 -18 10 -11 1 7 6 10 12 7 6 -5 4 -12 -8 -20 -12 -9 -20 -10 -24 -3 -7
12 -29 2 -29 -13 0 -5 9 -9 19 -9 11 0 23 -4 26 -10 3 -5 -1 -10 -9 -10 -9 0
-16 -5 -16 -11 0 -5 5 -7 10 -4 6 3 10 2 10 -4 0 -5 -4 -13 -10 -16 -5 -3 -10
-1 -10 5 0 7 -7 9 -16 6 -14 -5 -15 -4 -4 9 8 9 8 15 2 15 -6 0 -13 -4 -16 -9
-8 -12 4 -42 13 -36 4 2 8 -2 8 -10 0 -8 -3 -13 -6 -12 -3 2 -18 9 -34 17 -30
15 -37 33 -9 24 14 -5 14 -4 2 5 -12 8 -12 11 3 17 24 9 21 26 -5 22 -11 -2
-23 -11 -25 -20 -1 -10 -5 -26 -7 -35 -3 -10 -5 -20 -5 -22 -1 -2 -9 3 -18 10
-11 10 -14 10 -9 2 4 -7 3 -13 -3 -13 -5 0 -11 5 -13 10 -2 6 -12 4 -25 -5
-23 -16 -21 -55 3 -55 21 0 17 -17 -6 -23 -11 -3 -18 -1 -14 4 8 14 -6 11 -22
-5 -19 -20 -18 -24 9 -28 16 -2 22 -9 21 -25 -1 -13 2 -23 7 -23 4 0 11 -14
14 -32 12 -52 45 -72 45 -27 0 9 -7 19 -15 23 -8 3 -15 10 -15 15 0 6 6 8 13
6 18 -7 41 11 32 25 -4 7 -20 10 -36 8 -25 -4 -28 -2 -23 15 8 26 12 48 13 72
1 20 7 21 99 18 149 -3 162 -5 162 -20 0 -17 24 -12 26 5 3 25 5 27 12 14 6
-9 12 -6 20 13 7 15 8 25 2 25 -6 0 -10 -8 -10 -17 0 -15 -2 -14 -15 3 -13 16
-14 16 -9 2 5 -16 -1 -18 -50 -18 -64 0 -62 -4 -47 95 5 33 12 83 16 110 3 28
11 69 16 91 12 48 8 101 -5 72z"/>
<path d="M1010 1086 c0 -19 4 -23 20 -19 23 6 25 14 8 31 -18 18 -28 14 -28
-12z"/>
<path d="M1083 1085 c-3 -9 -4 -18 -1 -20 7 -7 48 7 48 17 0 5 -4 6 -10 3 -5
-3 -10 -1 -10 4 0 17 -20 13 -27 -4z"/>
<path d="M1552 1095 c4 -4 3 -14 -2 -20 -11 -14 25 -53 38 -41 4 4 -1 14 -12
21 -10 8 -15 18 -12 24 4 5 1 13 -6 17 -7 4 -10 4 -6 -1z"/>
<path d="M2435 1089 c-4 -5 1 -9 10 -9 9 0 14 -4 11 -9 -3 -4 6 -6 19 -3 32 6
31 8 -5 20 -18 7 -32 7 -35 1z"/>
<path d="M2960 1085 c-14 -17 -5 -35 17 -35 13 0 14 2 2 17 -9 11 -10 14 -2 9
9 -5 11 -2 7 8 -7 20 -9 20 -24 1z"/>
<path d="M155 1070 c-27 -13 -33 -19 -20 -19 28 -1 95 18 95 27 0 14 -35 10
-75 -8z"/>
<path d="M818 1083 c16 -6 15 -23 -1 -23 -8 0 -24 -9 -37 -20 -13 -11 -31 -18
-41 -15 -9 3 -19 -1 -22 -9 -13 -32 46 -21 88 17 14 12 28 16 50 11 l30 -6
-27 26 c-15 14 -33 26 -40 25 -10 0 -10 -2 0 -6z"/>
<path d="M2230 1075 c7 -8 19 -15 26 -15 8 0 14 7 14 15 0 10 -10 15 -26 15
-22 0 -25 -2 -14 -15z"/>
<path d="M1174 1057 c14 -10 15 -17 7 -40 -14 -37 -14 -37 9 -37 11 0 20 -4
20 -9 0 -15 46 0 58 20 10 16 9 19 -3 19 -8 0 -14 -5 -12 -11 4 -22 -29 -16
-40 7 -9 19 -8 24 3 24 8 0 14 5 14 10 0 6 -9 10 -19 10 -11 0 -23 5 -26 10
-3 6 -11 10 -18 10 -6 0 -3 -6 7 -13z"/>
<path d="M940 1050 c-13 -9 -12 -12 5 -22 11 -7 23 -13 28 -14 4 -1 9 -2 12
-3 3 0 -2 -13 -12 -28 -17 -27 -17 -28 1 -13 18 14 19 13 14 -11 -5 -26 -4
-26 25 -16 30 10 30 10 8 19 -16 6 -22 14 -18 27 2 11 -3 23 -14 30 -11 6 -19
18 -19 26 0 17 -9 19 -30 5z"/>
<path d="M2805 1046 c-22 -7 -50 -12 -62 -10 -13 1 -20 -2 -17 -8 3 -5 8 -7
11 -5 2 3 25 -2 50 -9 60 -18 66 -18 54 3 -7 13 -5 21 7 30 21 15 10 15 -43
-1z"/>
<path d="M70 1040 c0 -5 -7 -7 -15 -4 -8 3 -24 -1 -37 -10 -12 -9 -18 -16 -12
-16 5 0 15 5 22 12 9 9 12 9 12 -2 0 -12 2 -12 9 -2 4 8 11 13 15 13 18 -3 26
0 26 9 0 6 -4 10 -10 10 -5 0 -10 -4 -10 -10z"/>
<path d="M1630 1024 c0 -10 -6 -14 -15 -10 -8 3 -22 3 -30 0 -11 -5 -12 -9 -2
-19 14 -15 30 -9 21 8 -3 7 2 3 10 -7 9 -11 17 -17 17 -13 1 4 2 11 3 16 0 5
4 13 9 17 10 11 9 24 -3 24 -5 0 -10 -7 -10 -16z"/>
<path d="M2325 1021 c-5 -13 -7 -14 -15 -1 -8 13 -10 12 -10 -2 0 -20 15 -24
25 -7 5 7 14 4 27 -8 15 -13 22 -15 25 -5 3 7 24 12 58 12 33 0 55 -5 58 -12
4 -10 6 -10 6 -1 2 22 -24 30 -121 37 -36 2 -48 0 -53 -13z"/>
<path d="M2673 1027 c7 -18 -8 -24 -18 -7 -10 16 -25 12 -19 -5 4 -9 0 -15 -7
-16 -8 0 -24 -2 -36 -3 -13 -2 -23 1 -23 6 0 4 -10 7 -22 7 -17 -1 -19 -2 -5
-6 9 -2 17 -9 17 -14 0 -12 71 -11 90 1 9 5 17 5 20 0 3 -5 11 -1 16 8 9 13 8
21 -4 32 -14 13 -15 12 -9 -3z"/>
<path d="M2901 1029 c-1 -9 7 -19 17 -23 9 -3 23 -9 30 -12 7 -3 12 1 12 10 0
10 -9 16 -24 16 -13 0 -27 6 -29 13 -4 7 -6 6 -6 -4z"/>
<path d="M1110 1019 c0 -5 -5 -7 -12 -3 -7 4 -8 3 -4 -4 4 -7 1 -12 -8 -12 -9
0 -16 -4 -16 -10 0 -5 5 -10 10 -10 6 0 9 -5 8 -11 -2 -6 3 -14 11 -17 10 -3
12 1 8 17 -4 15 1 29 14 42 15 15 16 19 4 19 -8 0 -15 -5 -15 -11z"/>
<path d="M900 1008 c0 -23 15 -37 29 -28 12 7 12 11 -2 24 -19 19 -27 20 -27
4z"/>
<path d="M1338 1006 c-16 -5 -28 -16 -28 -24 0 -12 -3 -12 -15 -2 -9 7 -18 10
-21 7 -12 -11 36 -28 49 -17 6 6 21 17 32 25 26 18 17 24 -17 11z"/>
<path d="M804 998 c-3 -4 2 -8 11 -8 10 0 14 -5 10 -12 -4 -7 -1 -6 7 3 7 9
20 18 28 21 8 3 0 6 -18 5 -18 0 -35 -4 -38 -9z"/>
<path d="M1795 1000 c5 -9 2 -10 -13 -6 -14 5 -21 1 -25 -13 -4 -16 0 -19 24
-19 21 1 29 6 29 19 0 10 -5 21 -12 25 -7 5 -8 3 -3 -6z"/>
<path d="M35 985 l-30 -13 27 -1 c30 -1 45 -16 26 -25 -19 -9 37 3 67 14 14 5
25 15 25 22 0 9 -3 9 -12 0 -14 -14 -32 -16 -24 -3 6 9 -16 21 -37 21 -7 -1
-25 -7 -42 -15z"/>
<path d="M175 984 c-10 -8 -14 -14 -8 -14 7 0 14 4 18 10 7 11 34 2 53 -17 7
-7 23 -12 35 -12 20 2 20 2 -2 6 -19 4 -21 7 -10 15 11 8 11 9 -3 4 -10 -3
-20 -1 -23 3 -9 16 -42 18 -60 5z"/>
<path d="M1123 967 c-1 -25 3 -33 16 -33 15 0 16 3 5 25 -7 13 -11 28 -8 33 3
4 1 8 -3 8 -5 0 -9 -15 -10 -33z"/>
<path d="M2010 991 c0 -22 28 -31 66 -22 l39 9 -43 1 c-26 1 -41 5 -37 11 3 6
-1 10 -9 10 -9 0 -16 -4 -16 -9z"/>
<path d="M2200 989 l-25 -7 27 -1 c36 -1 59 -11 52 -22 -3 -5 -9 -7 -13 -5 -4
3 -8 -1 -8 -9 0 -19 5 -19 23 0 20 20 41 20 24 0 -10 -12 -8 -14 7 -10 11 2
26 0 33 -5 19 -12 4 -40 -21 -40 -13 0 -19 5 -16 13 4 10 -3 12 -27 8 -29 -5
-29 -6 -6 -9 23 -4 24 -5 5 -13 -20 -8 -20 -8 1 -8 11 -1 24 -5 30 -10 14 -15
51 21 59 58 7 31 6 32 -13 22 -17 -9 -24 -7 -41 15 -22 27 -50 35 -91 23z"/>
<path d="M611 979 c5 -41 -2 -59 -22 -59 -15 0 -19 -4 -15 -16 3 -9 6 -20 6
-25 0 -5 4 -9 10 -9 5 0 7 7 4 15 -4 9 0 15 8 15 8 0 15 6 15 13 0 6 4 24 8
38 4 17 2 30 -5 34 -7 4 -11 1 -9 -6z"/>
<path d="M1538 968 c-7 -13 -11 -29 -10 -35 3 -14 -14 -18 -20 -5 -1 5 -14 5
-28 1 -25 -7 -25 -7 4 -8 27 -1 28 -2 13 -19 -15 -16 -15 -18 3 -19 13 -1 17
3 13 13 -3 8 1 14 11 14 10 0 16 9 16 24 0 14 10 32 22 40 18 13 19 16 6 16
-10 0 -23 -10 -30 -22z"/>
<path d="M753 962 c-3 -11 -16 -23 -29 -26 -16 -4 -24 -14 -25 -29 0 -12 -2
-31 -3 -42 -2 -11 -7 -56 -11 -99 -7 -71 -6 -79 9 -73 26 10 20 -38 -10 -70
-14 -16 -23 -35 -21 -45 5 -18 -1 -21 -38 -19 -14 0 -16 -1 -5 -6 8 -3 18 -11
22 -16 10 -16 40 13 33 31 -6 17 23 54 36 46 8 -5 13 10 10 29 -1 7 15 11 32
8 4 0 7 7 7 17 1 16 1 16 14 0 7 -10 19 -18 25 -18 7 0 10 -4 7 -9 -8 -12 14
-28 44 -33 14 -2 24 -8 23 -13 -1 -6 16 -10 38 -10 44 0 53 19 13 29 -17 5
-24 12 -20 21 3 8 0 17 -6 21 -6 4 -8 3 -4 -4 3 -5 0 -13 -6 -16 -9 -3 -7 -10
7 -22 20 -17 20 -17 0 -9 -11 4 -30 10 -42 12 -16 4 -23 13 -23 28 0 35 10 54
25 48 8 -2 24 2 37 11 l22 16 -29 0 c-23 0 -27 3 -15 10 8 5 11 10 6 10 -5 0
-24 -16 -42 -35 -33 -37 -58 -46 -47 -19 5 14 3 15 -15 5 -26 -14 -52 -14 -52
0 0 5 4 8 9 5 5 -3 12 1 15 10 10 25 7 34 -9 34 -8 0 -15 -7 -15 -15 0 -8 -6
-12 -13 -10 -16 7 -10 95 7 95 6 0 25 -4 43 -9 37 -11 46 -5 30 19 -10 17 -12
17 -24 2 -11 -15 -12 -15 -13 6 0 15 -6 22 -20 22 -28 0 -25 29 5 40 17 6 25
17 25 33 0 13 5 28 11 34 8 8 8 13 -1 18 -7 4 -13 -1 -17 -13z"/>
<path d="M194 955 c3 -9 0 -15 -10 -15 -8 0 -12 -4 -9 -10 13 -20 35 -10 33
15 -1 14 -6 25 -11 25 -5 0 -7 -7 -3 -15z"/>
<path d="M500 940 c-12 -16 -20 -30 -18 -31 2 0 21 -2 43 -4 22 -1 30 -1 17 2
-16 3 -22 10 -18 19 3 9 1 12 -4 9 -14 -9 -12 9 2 23 7 7 9 12 6 12 -4 0 -16
-13 -28 -30z"/>
<path d="M2569 962 c47 -15 33 -28 -26 -25 -56 2 -143 -13 -98 -17 11 -1 23
-2 27 -1 51 7 106 6 101 -2 -3 -6 -1 -7 6 -3 6 4 18 3 25 -3 10 -8 12 -5 12
11 -1 15 7 24 24 29 l25 7 -26 1 c-15 1 -42 3 -60 6 -26 4 -28 3 -10 -3z"/>
<path d="M2900 959 c0 -5 0 -12 1 -16 0 -3 -12 -12 -28 -19 l-28 -12 25 -1
c31 -1 55 13 46 28 -4 6 -1 11 6 12 23 1 62 9 66 14 3 2 -16 4 -42 3 -25 0
-46 -4 -46 -9z"/>
<path d="M1238 950 c-2 -6 -17 -12 -33 -14 -20 -1 -29 -7 -27 -16 2 -8 -3 -19
-11 -25 -14 -10 -17 -16 -17 -35 0 -5 -7 -6 -17 -3 -11 4 -14 3 -9 -5 9 -15
36 -15 56 -1 12 9 12 10 -4 5 -16 -5 -17 -4 -6 9 7 8 16 13 20 10 5 -3 10 5
12 17 3 21 4 21 21 4 9 -10 17 -13 17 -8 0 5 8 9 18 9 52 0 61 3 55 19 -3 9
-9 12 -12 7 -8 -11 -91 -16 -91 -5 0 14 59 31 63 18 2 -6 8 -7 13 -3 5 4 2 12
-6 17 -20 13 -38 12 -42 0z"/>
<path d="M1625 949 c-4 -5 -10 -7 -14 -4 -12 7 -61 -67 -67 -101 -3 -16 -11
-32 -17 -36 -9 -6 -9 -8 1 -8 8 0 12 -15 12 -42 0 -59 -10 -71 -44 -58 -20 7
-25 7 -20 -1 3 -6 2 -14 -3 -18 -5 -3 -6 -19 -2 -36 6 -28 7 -29 8 -4 1 34 11
42 29 26 13 -9 14 -9 8 1 -4 7 -2 12 8 12 8 0 16 5 18 12 5 15 57 -21 58 -39
0 -15 50 -18 50 -4 0 5 7 17 16 25 12 12 16 39 18 107 1 83 0 91 -21 105 -25
16 -30 34 -10 34 8 0 19 -11 25 -24 8 -18 16 -23 31 -19 28 7 26 14 -11 43
-39 31 -66 42 -73 29z m20 -101 c0 -27 2 -48 6 -48 3 0 6 -7 6 -15 0 -8 -5
-15 -10 -15 -5 0 -4 -6 2 -14 16 -19 3 -46 -23 -46 -21 -1 -21 -1 -1 -16 20
-15 19 -15 -5 -12 -14 2 -23 7 -22 12 2 5 -2 12 -9 16 -20 13 -23 110 -5 154
12 30 20 37 38 34 20 -3 23 -9 23 -50z"/>
<path d="M2805 941 c20 -12 34 -15 42 -9 20 16 5 28 -35 28 l-37 0 30 -19z"/>
<path d="M1730 935 c0 -10 5 -13 12 -9 7 5 9 2 6 -8 -4 -8 -2 -21 3 -29 5 -8
9 -9 9 -3 0 6 7 11 15 11 18 0 20 -13 3 -20 -8 -4 -7 -6 3 -6 9 -1 20 6 23 15
8 22 8 26 -3 20 -5 -4 -23 6 -40 20 -25 21 -31 23 -31 9z"/>
<path d="M1864 936 c-3 -7 -4 -19 -2 -27 2 -8 -3 -13 -10 -11 -8 1 -11 -2 -8
-7 4 -5 16 -4 31 2 16 8 20 14 11 17 -7 3 -12 13 -10 23 3 20 -4 23 -12 3z"/>
<path d="M1030 919 c0 -5 -7 -9 -16 -9 -14 0 -14 -3 -4 -15 11 -14 7 -19 -13
-16 -4 1 -3 -8 4 -20 11 -21 10 -22 -20 -16 -24 5 -31 3 -31 -9 0 -8 7 -22 15
-30 16 -16 21 -39 7 -30 -5 3 -9 -1 -9 -9 0 -19 21 -19 36 -1 9 11 8 17 -4 29
-14 14 -14 17 0 25 14 7 21 24 24 57 1 6 6 3 11 -5 8 -11 9 -7 4 14 -7 27 -6
28 24 24 17 -2 29 -1 27 3 -7 10 -55 17 -55 8z"/>
<path d="M776 903 c-8 -19 11 -43 33 -43 13 1 13 2 -3 11 -11 7 -14 14 -8 18
6 4 5 10 -3 18 -10 10 -14 9 -19 -4z"/>
<path d="M1115 905 c-3 -8 -7 -22 -10 -30 -5 -16 4 -19 20 -7 12 9 15 52 3 52
-5 0 -11 -7 -13 -15z"/>
<path d="M1390 908 c0 -10 7 -18 16 -18 14 0 14 -1 0 -16 -9 -8 -16 -21 -17
-27 -5 -101 -4 -107 16 -107 12 0 16 3 9 8 -12 8 -12 101 0 120 9 14 36 16 36
3 0 -5 -8 -11 -17 -13 -17 -3 -17 -4 0 -11 13 -5 20 -1 26 16 7 19 5 23 -22
29 -16 3 -33 12 -38 20 -7 10 -9 9 -9 -4z"/>
<path d="M1970 912 c0 -7 -4 -11 -9 -8 -5 3 -11 -3 -14 -14 -3 -14 1 -24 15
-31 16 -9 17 -13 6 -26 -12 -15 -11 -15 9 -2 12 7 19 16 14 19 -4 3 -7 15 -6
27 1 12 -2 28 -7 35 -6 11 -8 10 -8 0z"/>
<path d="M2072 899 c13 -20 16 -42 13 -84 -3 -40 0 -61 9 -71 20 -20 29 7 26
85 -1 48 2 62 12 59 9 -4 13 -26 12 -81 -1 -58 2 -74 11 -67 6 5 15 7 18 3 4
-3 7 33 7 82 l0 88 -46 -7 c-31 -4 -52 -2 -63 6 -13 11 -13 9 1 -13z"/>
<path d="M2391 896 c-1 -13 -6 -17 -21 -13 -19 5 -19 4 -2 -19 11 -14 26 -23
42 -22 23 1 24 1 3 5 -13 2 -23 11 -23 19 0 12 4 13 21 3 15 -8 19 -8 15 0 -5
7 4 11 23 11 16 0 33 6 37 13 4 6 4 9 -1 5 -4 -4 -16 -3 -26 3 -13 6 -19 6
-19 -1 0 -14 -37 -13 -43 3 -3 7 -6 4 -6 -7z"/>
<path d="M2859 887 c-1 -7 -1 -16 0 -21 1 -5 -17 -6 -41 -3 l-43 6 28 -15 c16
-9 35 -13 42 -10 8 3 23 -7 35 -21 11 -14 23 -23 27 -20 3 4 -5 15 -18 26 -16
14 -19 20 -10 21 11 0 9 4 -5 15 -16 12 -16 14 -3 15 9 0 28 -6 42 -13 19 -10
23 -17 16 -29 -6 -11 -5 -19 2 -24 7 -4 9 -3 5 4 -4 6 8 16 29 23 35 13 47 29
21 29 -8 0 -17 -6 -19 -12 -4 -9 -8 -9 -14 -3 -8 10 -45 29 -75 39 -10 3 -19
0 -19 -7z"/>
<path d="M77 874 c4 -10 17 -13 44 -10 24 3 37 1 34 -5 -4 -5 -1 -9 4 -9 15 0
14 17 -1 26 -7 5 -29 9 -50 10 -28 1 -35 -1 -31 -12z"/>
<path d="M498 879 c10 -14 10 -18 -4 -23 -24 -9 -27 -8 -20 10 6 15 4 15 -10
3 -14 -12 -14 -14 2 -26 9 -7 20 -10 25 -8 4 3 10 1 14 -5 3 -5 12 -10 18 -10
7 0 4 5 -6 11 -13 8 -15 14 -7 23 7 10 6 17 -7 27 -16 13 -17 12 -5 -2z"/>
<path d="M1882 873 c-7 -10 -10 -13 -7 -6 3 7 -2 9 -17 5 l-23 -6 25 -10 c26
-11 40 -46 19 -46 -7 0 -9 -3 -6 -6 4 -4 18 1 31 10 16 10 27 12 31 6 4 -6 -4
-15 -17 -20 -23 -11 -23 -11 2 -5 14 2 32 5 40 5 9 0 5 6 -10 17 -14 10 -34
16 -45 14 -15 -2 -17 0 -8 9 6 7 9 18 6 25 -2 7 4 15 14 18 16 4 16 5 -2 6
-11 0 -26 -7 -33 -16z"/>
<path d="M15 870 c3 -5 1 -10 -5 -10 -6 0 -4 -8 6 -17 13 -13 19 -14 22 -5 2
7 8 9 14 6 6 -4 8 1 6 11 -1 10 -13 20 -26 22 -14 2 -21 -1 -17 -7z"/>
<path d="M889 868 c-1 -4 -2 -13 -3 -18 0 -6 -8 -15 -16 -20 -13 -9 -13 -10 0
-10 8 0 21 9 28 20 7 12 18 17 28 13 11 -4 15 -2 12 7 -5 15 -47 22 -49 8z"/>
<path d="M1234 861 c7 -10 -31 -33 -44 -26 -3 2 -11 -4 -19 -12 -13 -14 -11
-15 21 -9 20 4 39 3 42 -2 3 -5 -7 -12 -23 -15 -24 -5 -28 -10 -24 -27 5 -17
1 -20 -30 -20 -20 0 -38 -4 -41 -9 -3 -4 5 -6 18 -4 13 3 27 0 30 -6 10 -16
26 -13 26 4 0 9 9 15 25 15 14 0 25 -5 25 -12 0 -9 3 -9 12 0 7 7 17 12 23 12
5 0 3 -5 -5 -10 -12 -8 -10 -10 8 -10 13 0 21 4 17 9 -3 5 3 11 12 14 10 2 1
5 -19 6 -65 3 -68 4 -68 18 0 13 12 16 60 14 20 0 19 2 -8 10 -29 9 -33 13
-28 34 3 13 1 27 -6 31 -7 4 -8 3 -4 -5z"/>
<path d="M1793 854 c5 -5 -6 -13 -24 -19 -32 -11 -52 -35 -29 -35 6 0 8 5 5
10 -9 15 4 12 21 -5 14 -13 14 -15 0 -15 -9 0 -16 -5 -16 -11 0 -6 6 -9 14 -6
11 4 12 -2 5 -31 -4 -20 -6 -40 -3 -44 3 -4 0 -8 -5 -8 -8 0 -8 -5 0 -17 6
-10 21 -18 34 -18 16 0 20 3 14 12 -7 7 -5 13 3 16 7 3 3 6 -9 6 -13 1 -23 7
-23 14 0 20 12 28 24 18 15 -12 144 -19 181 -10 l30 8 -35 -1 c-100 -1 -120 2
-120 17 0 8 -5 15 -11 15 -5 0 -7 -5 -4 -10 3 -6 -1 -13 -10 -16 -18 -7 -26
-2 -29 18 -1 7 -5 19 -10 27 -5 8 -3 17 5 22 12 8 12 10 0 18 -12 8 -12 12 -2
24 9 12 9 17 -1 23 -7 4 -9 3 -5 -2z"/>
<path d="M67 832 c-15 -10 -24 -22 -20 -27 5 -4 0 -5 -9 -2 -17 6 -46 -19 -34
-30 3 -3 6 -1 6 6 0 8 8 11 20 8 10 -3 27 1 37 9 14 10 15 13 3 14 -10 0 -7 5
8 16 12 8 27 12 32 9 6 -3 10 -1 10 4 0 16 -22 13 -53 -7z"/>
<path d="M1054 825 c-13 -27 -9 -35 18 -35 10 0 17 -6 16 -12 -4 -19 34 -21
57 -4 19 15 19 15 -12 16 -17 0 -38 3 -47 6 -29 11 -17 21 24 19 46 -2 51 5
15 22 -21 9 -25 9 -25 -5 -1 -15 -2 -15 -11 1 -14 23 -22 21 -35 -8z"/>
<path d="M2647 836 c-23 -23 -22 -25 14 -24 16 1 26 4 21 7 -5 3 -11 12 -13
20 -4 11 -8 10 -22 -3z"/>
<path d="M2720 828 c0 -7 -3 -23 -6 -35 -4 -14 -2 -23 5 -23 7 0 9 5 6 10 -3
6 -2 10 3 10 6 0 9 11 8 25 -1 25 -16 36 -16 13z"/>
<path d="M2240 822 c0 -14 15 -28 30 -27 8 1 14 6 12 13 -1 9 3 9 18 0 11 -7
20 -17 20 -21 0 -5 7 -15 15 -24 12 -12 13 -18 4 -29 -14 -16 -6 -17 39 -4 28
7 33 7 28 -5 -4 -12 -2 -13 14 -3 25 16 18 21 -22 20 -23 -1 -28 2 -18 8 8 5
15 19 15 32 0 16 5 22 17 20 13 -2 16 2 12 13 -5 12 -10 13 -17 6 -6 -6 -20
-11 -31 -11 -16 0 -17 -3 -8 -12 19 -19 14 -30 -10 -26 -13 2 -22 9 -21 15 2
7 -7 15 -19 18 -14 5 -17 10 -9 14 7 4 -6 8 -29 9 -22 1 -40 -1 -40 -6z"/>
<path d="M1980 812 c0 -5 5 -13 12 -20 9 -9 5 -12 -19 -12 -18 0 -35 -4 -38
-10 -6 -9 53 -3 64 7 11 9 8 32 -5 37 -8 3 -14 2 -14 -2z"/>
<path d="M87 790 c-7 -11 -17 -18 -20 -15 -4 3 -5 2 -2 -1 7 -11 -15 -45 -26
-39 -5 4 -6 12 -3 18 4 7 3 8 -1 4 -5 -4 -11 -20 -12 -35 -3 -21 -1 -24 7 -12
7 11 12 12 18 3 5 -8 12 -2 21 18 7 16 19 29 27 29 9 0 12 5 8 11 -3 6 -1 15
6 19 8 5 9 10 2 14 -6 3 -17 -3 -25 -14z"/>
<path d="M880 795 c0 -8 -9 -15 -20 -15 -12 0 -20 -7 -20 -16 0 -15 2 -15 25
0 19 13 30 14 45 6 15 -8 21 -6 30 10 6 12 7 20 1 20 -5 0 -12 -6 -15 -12 -3
-10 -9 -8 -19 5 -17 21 -27 22 -27 2z"/>
<path d="M1835 800 c-4 -6 -4 -14 -1 -17 3 -3 1 -12 -6 -20 -8 -11 -7 -12 6
-7 9 3 16 10 16 15 0 5 8 9 18 10 13 0 14 2 2 6 -8 3 -18 10 -21 16 -4 5 -9 4
-14 -3z"/>
<path d="M783 782 c-37 -17 -44 -42 -13 -42 11 0 20 -6 21 -12 0 -7 4 -4 8 7
5 12 4 26 -3 34 -8 11 -8 13 1 8 6 -4 15 -2 18 4 11 17 2 18 -32 1z"/>
<path d="M2583 776 c-6 -7 -8 -17 -5 -22 10 -13 35 -17 27 -4 -3 5 -2 10 3 10
5 0 9 7 9 15 0 18 -18 19 -34 1z"/>
<path d="M903 742 c9 -10 17 -24 17 -30 0 -16 30 -30 51 -25 31 8 21 22 -12
18 -27 -3 -29 -2 -17 13 10 12 10 14 0 8 -7 -4 -14 -1 -18 8 -3 8 -13 17 -22
21 -14 5 -14 4 1 -13z"/>
<path d="M2730 740 c0 -10 -8 -23 -17 -29 -24 -13 -16 -19 35 -24 37 -5 41 -3
31 9 -7 8 -20 12 -30 9 -11 -4 -19 -2 -19 4 0 6 5 11 11 11 5 0 7 5 3 11 -3 6
0 15 7 20 11 7 10 9 -3 9 -11 0 -18 -8 -18 -20z"/>
<path d="M2813 754 c4 -5 -3 -14 -15 -21 -22 -12 -21 -12 11 -9 36 4 71 -11
71 -30 0 -6 7 -17 15 -24 12 -10 15 -9 15 5 0 18 -35 50 -79 73 -14 7 -22 10
-18 6z"/>
<path d="M1335 710 c-8 -9 -15 -22 -15 -29 0 -8 -7 -11 -17 -7 -16 5 -16 4 1
-8 10 -8 15 -19 12 -25 -7 -11 4 -194 11 -187 2 2 6 23 8 47 2 24 4 49 5 54 5
21 0 36 -10 30 -6 -3 -7 1 -4 9 3 9 10 14 15 11 9 -6 29 27 28 47 0 7 -4 3 -9
-9 -14 -35 -27 -27 -22 12 2 19 8 33 12 30 5 -3 10 -1 12 4 5 15 43 18 40 3
-1 -8 2 -11 8 -7 6 4 10 -6 10 -23 0 -21 -9 -37 -30 -53 -16 -13 -30 -31 -30
-39 0 -10 7 -7 20 10 l20 25 -6 -90 c-5 -93 -10 -108 -23 -86 -7 10 -10 10
-13 1 -2 -7 -21 -12 -46 -12 -23 0 -42 -4 -42 -10 0 -6 -11 -8 -25 -6 -14 3
-25 1 -25 -3 0 -5 -8 -5 -17 -2 -13 5 -15 2 -10 -11 4 -10 7 -25 7 -34 0 -14
2 -15 9 -2 6 8 8 17 6 21 -3 3 14 10 38 14 70 13 81 15 85 20 2 2 14 0 27 -5
36 -14 58 9 66 71 4 30 11 73 14 96 8 47 -9 125 -31 144 -21 18 -62 17 -79 -1z"/>
<path d="M2510 713 c0 -15 2 -16 10 -3 8 13 11 12 16 -6 4 -15 11 -20 25 -17
25 7 25 23 0 23 -11 0 -23 5 -26 10 -10 16 -25 12 -25 -7z"/>
<path d="M1065 710 c3 -5 -2 -10 -12 -10 -14 0 -15 -2 -4 -9 7 -5 10 -14 7
-20 -4 -6 -12 -9 -17 -6 -5 4 -9 2 -9 -2 0 -5 -14 -9 -31 -9 -23 -1 -29 2 -24
14 4 12 3 13 -10 2 -8 -7 -13 -16 -10 -20 9 -14 66 -20 87 -9 16 8 23 8 29 -2
6 -9 8 -4 6 15 -3 40 26 58 48 31 9 -11 13 -14 9 -6 -5 11 -1 13 20 9 18 -4
26 -1 26 9 0 20 -24 26 -64 15 -21 -6 -36 -7 -36 -1 0 5 -5 9 -11 9 -5 0 -7
-4 -4 -10z"/>
<path d="M2433 697 c0 -17 6 -23 23 -25 l24 -2 -22 25 c-26 30 -25 30 -25 2z"/>
<path d="M290 688 c0 -13 0 -30 -1 -38 -1 -8 0 -21 2 -28 2 -8 -5 -19 -16 -25
-11 -7 -22 -13 -24 -15 -3 -1 5 -9 17 -18 28 -19 28 -31 0 -40 -23 -8 -30 -9
-55 -12 -7 -1 -13 -6 -13 -12 0 -5 6 -8 13 -7 6 2 2 -1 -10 -7 -29 -12 -30
-30 -2 -21 14 5 25 1 35 -12 9 -10 13 -12 9 -5 -4 8 2 12 19 12 14 0 27 4 30
8 3 5 -9 6 -26 4 -23 -4 -29 -1 -26 9 3 8 12 13 21 13 9 -1 15 3 14 10 -1 6 5
12 13 12 8 1 21 2 28 3 6 0 12 8 12 16 0 8 -5 14 -11 13 -7 -2 -15 8 -19 22
-6 21 -4 26 12 27 10 1 16 -2 13 -8 -4 -5 -1 -9 4 -9 6 0 11 9 11 21 0 11 4
17 10 14 5 -3 7 0 4 8 -8 21 14 31 66 33 25 1 53 5 62 9 10 4 23 5 30 2 8 -4
5 -8 -9 -12 -36 -11 -27 -25 12 -19 29 4 34 3 29 -11 -5 -11 -2 -14 10 -9 9 3
13 10 10 15 -3 5 16 9 43 9 33 0 44 -3 33 -10 -18 -11 -8 -23 14 -14 23 9 20
34 -4 34 -11 0 -20 7 -20 15 0 8 -6 15 -12 15 -7 0 -24 3 -38 5 -21 5 -22 4
-5 -4 17 -7 18 -10 4 -15 -8 -4 -28 0 -43 8 -21 10 -53 12 -133 8 -96 -5 -106
-3 -100 11 4 10 2 17 -3 17 -5 0 -10 -10 -10 -22z"/>
<path d="M2062 704 c3 -3 36 -6 74 -6 37 -1 81 -8 96 -16 16 -8 32 -11 35 -8
4 3 1 6 -5 6 -6 0 -10 6 -8 13 1 6 1 9 -1 5 -3 -4 -16 -3 -29 3 -27 9 -171 13
-162 3z"/>
<path d="M2600 695 c0 -10 69 -42 79 -36 7 5 4 11 -11 18 -24 12 -68 23 -68
18z"/>
<path d="M1210 669 c0 -6 -7 -8 -16 -5 -12 4 -15 2 -10 -9 3 -8 1 -15 -4 -15
-17 0 -25 5 -22 13 1 4 -2 7 -8 7 -5 0 -10 -4 -10 -10 0 -5 -8 -10 -19 -10
-10 0 -25 -10 -33 -22 -10 -15 -24 -21 -46 -20 -18 0 -32 -4 -32 -9 0 -6 4 -7
10 -4 6 3 7 -1 4 -9 -7 -18 11 -22 21 -6 4 6 11 7 17 4 7 -4 8 -2 4 4 -4 7 -3
12 3 12 5 0 12 -6 14 -12 3 -7 6 -3 6 9 1 22 18 40 28 29 3 -3 0 -13 -7 -21
-11 -13 -11 -16 1 -13 8 2 13 -2 12 -8 -2 -8 8 -9 32 -4 35 8 49 -2 20 -14 -8
-3 -15 -9 -15 -13 0 -9 100 -47 106 -40 4 4 -23 16 -69 31 -16 5 -16 7 0 26
11 13 21 16 27 10 6 -6 16 -10 24 -10 10 0 10 3 -2 16 -10 10 -24 13 -37 9
-16 -5 -19 -4 -14 5 5 9 4 11 -4 6 -22 -14 -61 -14 -61 0 0 13 20 21 63 28 9
1 20 5 23 9 11 11 24 8 22 -4 -2 -6 2 -13 8 -16 7 -2 10 5 7 20 -4 18 -10 23
-24 20 -15 -4 -18 -1 -13 11 3 9 3 16 0 16 -3 0 -6 -5 -6 -11z"/>
<path d="M7 663 c-13 -21 8 -31 33 -18 14 8 20 14 13 15 -6 0 -18 3 -26 6 -8
3 -17 1 -20 -3z"/>
<path d="M2567 643 c-4 -6 0 -16 8 -23 8 -7 15 -19 15 -26 0 -16 26 -19 35 -4
3 6 -1 10 -9 10 -8 0 -22 12 -29 26 -8 15 -17 22 -20 17z"/>
<path d="M2846 642 c-3 -5 -18 -8 -33 -7 -18 2 -20 1 -5 -2 12 -2 27 -13 32
-24 6 -10 16 -19 23 -18 9 0 9 2 0 5 -6 3 -9 16 -7 30 4 24 0 31 -10 16z"/>
<path d="M2920 636 c0 -8 5 -18 12 -22 7 -4 8 -3 4 4 -10 17 0 15 30 -4 19
-13 22 -19 13 -31 -7 -7 -9 -16 -5 -20 3 -3 6 0 6 8 0 11 2 11 9 1 5 -9 8 -3
9 17 0 20 -4 31 -13 31 -7 0 -20 6 -27 13 -20 18 -38 19 -38 3z"/>
<path d="M1559 622 c-14 -9 -24 -23 -21 -31 5 -14 -14 -31 -35 -31 -7 0 -13 6
-13 14 0 8 -4 18 -10 21 -6 3 -9 -4 -8 -17 2 -19 8 -25 32 -26 16 -2 32 -5 34
-7 8 -8 -13 -116 -22 -115 -5 1 -12 -4 -17 -11 -16 -26 -22 2 -12 56 9 49 8
55 -6 53 -23 -5 -17 -117 7 -134 14 -10 18 -10 20 2 2 8 11 13 20 12 13 -2 18
6 20 29 2 23 7 30 18 26 8 -3 14 0 14 5 0 6 -8 13 -17 15 -17 4 -17 5 0 6 9 0
17 5 17 11 0 5 -7 7 -15 4 -12 -5 -15 2 -14 40 2 35 6 46 18 46 10 0 17 9 19
25 1 14 1 25 -1 24 -1 0 -14 -8 -28 -17z"/>
<path d="M1670 631 c0 -6 7 -11 15 -11 8 0 15 -4 15 -10 0 -14 57 -13 62 1 2
7 17 8 41 4 27 -5 37 -12 33 -21 -4 -9 2 -14 16 -14 18 0 19 2 7 16 -12 14 -9
15 22 9 18 -4 49 -8 67 -8 37 -1 39 -4 15 -23 -16 -12 -16 -12 5 -7 12 3 22
12 22 19 0 15 65 20 74 6 3 -5 -9 -8 -25 -7 -18 1 -33 -4 -36 -12 -6 -15 14
-43 31 -43 6 0 3 7 -6 14 -30 22 -22 36 14 25 18 -5 44 -9 57 -9 21 0 22 2 10
17 -13 15 -12 15 7 5 17 -9 24 -9 34 2 7 9 32 15 63 15 129 2 132 2 115 12
-13 7 -201 6 -218 -1 -3 -1 -9 -2 -14 -1 -10 2 -89 6 -294 16 -63 2 -118 7
-123 10 -5 4 -9 1 -9 -4z"/>
<path d="M37 619 c-17 -10 -16 -12 7 -36 31 -30 33 -64 7 -80 -13 -8 -17 -19
-14 -37 4 -21 2 -26 -16 -26 -11 0 -21 -4 -21 -10 0 -5 20 -10 45 -10 35 0 47
4 56 21 8 15 8 19 0 15 -7 -4 -11 1 -11 13 0 12 6 21 13 21 8 0 7 4 -3 10 -13
9 -13 11 0 20 11 7 12 10 2 10 -9 0 -11 7 -7 21 5 14 3 19 -3 15 -6 -3 -15 7
-20 23 -8 22 -7 31 1 35 7 3 6 5 -3 5 -8 0 -23 -4 -33 -10z"/>
<path d="M444 615 c-18 -9 -19 -12 -7 -24 17 -15 37 -2 31 21 -2 11 -8 12 -24
3z"/>
<path d="M372 579 c-18 -7 -21 -11 -11 -22 19 -20 48 -16 43 6 -5 26 -5 26
-32 16z"/>
<path d="M496 568 c-11 -15 -12 -25 -5 -34 5 -6 9 -16 8 -20 -4 -22 3 -30 24
-31 19 -2 20 -1 5 8 -20 11 -24 45 -6 51 16 6 18 36 2 42 -7 3 -20 -4 -28 -16z"/>
<path d="M761 560 c-24 -41 -8 -62 22 -29 12 13 26 18 40 14 17 -5 19 -4 7 4
-13 9 -13 11 2 11 9 0 19 4 22 8 2 4 -10 7 -27 7 -18 -1 -35 3 -39 9 -3 5 -16
-6 -27 -24z"/>
<path d="M2408 578 c-5 -12 -18 -18 -37 -18 -16 0 -31 -5 -33 -11 -6 -17 -46
-1 -50 19 -3 16 -4 16 -11 -1 -5 -13 0 -20 21 -28 15 -5 34 -13 42 -16 23 -10
50 -11 44 -2 -2 4 -11 6 -18 3 -8 -3 -17 -1 -20 4 -3 6 13 12 39 14 25 2 45 1
45 -2 0 -3 29 -4 65 -4 36 1 65 -2 65 -8 0 -5 10 -3 23 3 12 7 39 11 61 10 24
-2 36 1 32 8 -4 6 -40 9 -92 7 -68 -2 -84 0 -80 11 3 7 1 13 -4 13 -6 0 -10
-4 -10 -10 0 -5 -15 -10 -34 -10 -25 0 -36 5 -38 18 -3 16 -4 16 -10 0z"/>
<path d="M2900 575 c0 -12 -14 -15 -64 -15 -35 0 -79 -7 -97 -15 -30 -13 -31
-14 -9 -14 14 1 39 -1 55 -4 17 -2 23 -2 15 0 -24 8 -38 26 -15 20 58 -15 80
-17 65 -7 -11 7 -7 8 17 4 25 -5 33 -2 42 14 14 26 14 32 1 32 -5 0 -10 -7
-10 -15z"/>
<path d="M560 566 c0 -8 -10 -24 -22 -36 -23 -21 -13 -27 13 -7 20 16 31 45
19 52 -6 4 -10 -1 -10 -9z"/>
<path d="M2929 575 c-13 -12 3 -43 27 -54 19 -8 24 -8 24 4 0 7 -9 16 -19 20
-11 3 -21 13 -23 21 -2 9 -6 13 -9 9z"/>
<path d="M1640 552 c0 -7 -4 -10 -10 -7 -5 3 -10 1 -10 -4 0 -6 7 -11 15 -11
8 0 15 5 15 11 0 6 9 9 20 6 11 -3 20 0 20 6 0 7 -11 12 -25 12 -14 0 -25 -6
-25 -13z"/>
<path d="M1887 553 c6 -14 53 -18 53 -4 0 5 -13 11 -29 13 -21 3 -28 1 -24 -9z"/>
<path d="M960 547 c0 -9 7 -17 15 -17 8 0 15 -5 15 -11 0 -5 -4 -8 -9 -5 -5 3
-14 -1 -21 -9 -9 -10 -9 -15 -1 -15 6 0 11 5 11 11 0 5 4 8 9 4 5 -3 13 -1 16
5 5 8 11 8 20 0 10 -8 20 -8 32 -2 16 9 15 11 -10 17 -15 4 -27 12 -27 17 0 6
-6 8 -14 5 -7 -3 -19 0 -25 6 -8 8 -11 7 -11 -6z"/>
<path d="M447 535 c-8 -8 -17 -12 -19 -10 -3 3 -5 -2 -5 -10 0 -8 6 -15 13
-15 7 0 17 -7 22 -16 8 -15 10 -15 15 0 4 10 1 16 -8 16 -18 0 -18 5 -5 31 13
23 7 25 -13 4z"/>
<path d="M587 544 c-11 -11 -8 -36 3 -29 6 3 10 2 10 -4 0 -5 -6 -12 -12 -14
-8 -3 -6 -6 5 -6 18 -1 20 12 8 42 -3 10 -10 15 -14 11z"/>
<path d="M1860 540 c8 -5 11 -10 5 -10 -5 0 -2 -7 8 -15 19 -14 47 -10 47 6 0
5 -9 9 -20 9 -11 0 -20 5 -20 10 0 6 -8 10 -17 10 -15 0 -16 -2 -3 -10z"/>
<path d="M2135 541 c-3 -2 -5 -11 -5 -20 1 -13 3 -12 15 3 13 17 15 18 15 3 0
-21 2 -21 44 1 l34 18 -49 0 c-27 0 -52 -2 -54 -5z"/>
<path d="M349 517 c-9 -7 -14 -22 -12 -38 2 -19 -3 -28 -19 -36 -15 -6 -18
-12 -10 -17 7 -4 12 -2 12 4 0 6 4 8 10 5 5 -3 12 6 16 20 3 13 10 23 14 20 4
-2 5 7 2 20 -6 31 6 33 18 3 6 -16 9 -18 9 -7 1 25 -21 40 -40 26z"/>
<path d="M621 508 c0 -15 -5 -30 -11 -33 -5 -3 -10 -12 -9 -18 0 -8 2 -8 6 1
4 10 8 10 19 1 11 -9 15 -8 20 4 3 9 11 14 18 11 7 -3 19 3 27 12 12 15 12 17
-1 12 -56 -20 -58 -20 -63 9 l-4 28 -2 -27z"/>
<path d="M890 520 c0 -5 0 -13 1 -16 0 -4 -5 -11 -13 -15 -10 -7 -9 -9 5 -9 9
0 17 5 17 10 0 6 4 9 9 8 5 -2 9 0 10 5 3 21 0 27 -14 27 -8 0 -15 -4 -15 -10z"/>
<path d="M1810 520 c0 -5 6 -10 14 -10 8 0 16 -7 20 -15 3 -8 16 -15 28 -15
l23 0 -21 13 c-12 6 -31 18 -43 25 -13 8 -21 9 -21 2z"/>
<path d="M840 507 c0 -7 -10 -17 -22 -22 -26 -12 -36 -35 -14 -35 10 0 13 6
10 15 -8 20 6 19 22 -2 15 -20 18 -34 7 -32 -19 3 -33 -2 -47 -17 -22 -22 -21
-37 3 -25 10 6 21 7 25 4 3 -3 6 1 6 10 0 8 8 17 17 19 22 4 23 39 3 55 -10 9
-11 12 -2 13 14 0 17 30 2 30 -5 0 -10 -6 -10 -13z"/>
<path d="M1720 511 l-35 -7 37 -5 c20 -3 35 -2 32 2 -2 4 8 10 23 12 25 4 26
4 3 4 -14 0 -41 -3 -60 -6z"/>
<path d="M2463 509 c-6 -6 -24 -11 -41 -11 -17 -1 -29 -5 -26 -10 3 -5 20 -6
37 -3 33 7 54 21 46 30 -3 2 -10 0 -16 -6z"/>
<path d="M2685 504 c-28 -12 -25 -13 42 -11 39 1 69 5 67 9 -3 5 -10 6 -15 3
-5 -4 -9 -2 -9 3 0 13 -50 11 -85 -4z"/>
<path d="M739 503 c-1 -5 -1 -15 0 -24 1 -9 -5 -22 -14 -29 -10 -8 -15 -9 -15
-1 0 6 -4 11 -10 11 -5 0 -10 -9 -10 -19 0 -13 6 -18 18 -16 9 2 20 4 25 4 4
1 7 8 7 16 0 8 7 15 15 15 8 0 15 5 15 10 0 6 -5 10 -11 10 -6 0 -9 7 -5 15 3
8 1 15 -4 15 -6 0 -11 -3 -11 -7z"/>
<path d="M1940 485 c-7 -8 -21 -15 -32 -15 -17 0 -18 -3 -8 -15 14 -17 46 -20
55 -6 3 6 -4 8 -16 6 l-22 -4 20 19 c11 10 36 20 54 23 l34 4 -36 1 c-22 1
-42 -4 -49 -13z"/>
<path d="M2090 490 c-1 -8 -3 -21 -4 -28 0 -7 -7 -16 -14 -21 -10 -6 -10 -10
3 -21 13 -11 14 -10 9 4 -4 9 -3 16 2 15 5 -1 25 0 44 1 l35 2 -30 7 c-20 4
-31 14 -36 31 -4 14 -8 18 -9 10z"/>
<path d="M2155 490 c10 -15 11 -20 14 -41 0 -5 6 -7 12 -3 8 4 7 9 -2 15 -11
7 -10 9 4 9 9 0 17 -4 17 -9 0 -5 7 -11 15 -15 9 -3 15 0 15 9 0 8 -12 18 -27
21 -16 4 -34 12 -42 18 -12 9 -13 8 -6 -4z"/>
<path d="M413 476 c4 -9 -4 -16 -21 -21 -21 -5 -23 -8 -11 -17 11 -7 8 -8 -10
-4 -17 3 -21 2 -13 -6 17 -17 95 -11 90 8 -1 5 -8 8 -16 6 -9 -2 -11 4 -6 22
4 17 2 26 -6 26 -7 0 -10 -6 -7 -14z"/>
<path d="M985 481 c-11 -11 -3 -18 18 -16 37 4 38 5 32 14 -5 10 -42 11 -50 2z"/>
<path d="M1056 478 c-4 -9 -3 -25 3 -35 6 -10 11 -12 11 -5 0 6 7 12 15 12 8
0 15 5 15 11 0 6 -6 9 -14 6 -9 -4 -16 1 -19 11 -4 16 -4 16 -11 0z"/>
<path d="M1664 483 c5 -9 -1 -13 -18 -13 -28 0 -29 -1 -20 -23 3 -9 13 -13 26
-9 11 3 24 -1 28 -9 7 -11 12 -10 28 4 19 17 52 14 52 -5 0 -5 5 -6 10 -3 16
10 12 35 -4 29 -8 -3 -23 -1 -33 5 -17 10 -17 10 2 11 16 0 17 2 5 10 -15 9
-33 -7 -24 -21 2 -4 -3 -9 -10 -12 -13 -5 -45 21 -38 30 2 3 0 8 -4 11 -4 4
-4 1 0 -5z"/>
<path d="M2295 470 c-4 -6 7 -10 27 -10 21 0 37 -7 45 -18 8 -14 24 -19 60
-19 28 0 36 2 18 4 -46 7 -55 23 -12 23 61 0 187 -22 181 -32 -3 -5 -22 -6
-42 -2 -20 4 -34 3 -30 -1 4 -4 34 -9 65 -11 32 -1 52 0 46 3 -22 8 -14 23 11
23 49 0 87 -12 82 -26 -3 -8 1 -14 8 -14 8 0 12 8 9 23 -5 24 -11 26 -96 27
-27 0 -81 5 -120 11 -40 5 -107 12 -150 14 -42 2 -81 6 -86 10 -5 3 -12 1 -16
-5z"/>
<path d="M1836 439 c-17 -34 -21 -53 -7 -30 5 7 21 14 36 14 23 0 25 1 11 9
-9 5 -14 13 -11 18 3 5 1 11 -4 14 -5 4 -17 -8 -25 -25z"/>
<path d="M1996 453 c-3 -8 -10 -12 -15 -8 -5 3 -12 1 -16 -5 -3 -5 1 -10 9
-10 8 0 18 5 21 10 3 6 11 10 16 10 6 0 7 -6 3 -12 -6 -10 -5 -10 8 -1 8 7 19
9 23 5 5 -4 5 -2 2 4 -11 19 -45 23 -51 7z"/>
<path d="M892 444 c-8 -9 -9 -14 -2 -14 6 0 9 -4 6 -8 -2 -4 15 -8 40 -8 24 0
44 4 44 9 0 5 -9 5 -20 2 -14 -5 -20 -2 -20 10 0 9 -5 13 -11 9 -6 -3 -14 -2
-18 4 -4 6 -11 5 -19 -4z"/>
<path d="M1153 446 c-13 -6 -23 -16 -23 -22 0 -17 37 -5 45 13 7 20 5 21 -22
9z"/>
<path d="M2238 441 c-7 -12 -22 -21 -33 -22 -19 0 -19 -1 -1 -8 14 -5 16 -10
8 -15 -7 -4 -10 -12 -7 -17 4 -5 -1 -9 -10 -9 -10 0 -13 -5 -9 -12 5 -8 0 -7
-11 2 -17 14 -18 13 -12 -3 4 -10 3 -16 -2 -12 -12 7 -41 -4 -41 -16 0 -11
113 1 121 13 4 6 28 6 65 -1 32 -5 82 -12 111 -15 28 -3 57 -8 65 -11 11 -4
125 -16 386 -41 34 -3 60 -9 57 -14 -3 -5 -1 -11 5 -15 5 -3 10 1 10 9 0 9 6
16 13 16 9 0 9 2 -1 9 -7 4 -25 6 -39 3 -17 -3 -24 -1 -19 6 4 6 -1 11 -11 10
-10 0 -33 3 -52 7 -25 6 -32 5 -27 -4 7 -11 -31 -9 -104 6 -14 3 -56 7 -95 9
-38 2 -77 7 -85 10 -31 14 -167 35 -243 37 -33 1 -52 7 -55 16 -3 8 0 11 7 7
6 -4 11 0 11 9 0 17 1 17 160 -5 36 -5 92 -12 125 -14 33 -3 121 -12 195 -20
144 -17 280 -21 280 -8 0 4 -24 6 -53 6 -73 -2 -347 24 -437 41 -41 8 -115 17
-165 21 -49 3 -92 8 -94 10 -2 2 4 4 13 4 10 0 16 5 14 12 -7 21 -27 20 -40
-1z"/>
<path d="M201 410 c-10 -30 -10 -30 27 -29 36 1 36 1 11 10 -20 7 -26 15 -22
29 8 31 -4 23 -16 -10z"/>
<path d="M506 425 c-10 -7 -15 -18 -11 -24 3 -6 -2 -11 -12 -11 -10 0 -36 -9
-58 -19 l-40 -19 33 -1 c17 -1 32 4 32 10 0 6 6 9 12 7 7 -3 24 1 37 8 16 9
29 10 36 4 12 -10 65 8 65 21 0 14 -31 18 -56 8 -15 -5 -29 -7 -32 -4 -3 3 -1
5 5 5 5 0 10 7 10 15 0 8 -1 15 -1 15 -1 0 -9 -7 -20 -15z"/>
<path d="M625 430 c4 -6 -1 -7 -11 -3 -13 5 -15 2 -9 -18 10 -34 15 -36 29
-17 8 11 17 14 27 7 10 -6 10 -9 2 -9 -7 0 -13 -5 -13 -12 0 -8 6 -6 17 5 16
16 16 18 -5 37 -22 21 -48 28 -37 10z"/>
<path d="M2785 431 c-25 -10 51 -21 148 -21 87 0 82 10 -8 15 -37 2 -79 6 -93
9 -15 3 -36 1 -47 -3z"/>
<path d="M1005 410 c8 -13 55 -13 75 0 11 7 2 10 -33 10 -30 0 -46 -4 -42 -10z"/>
<path d="M1588 406 c-27 -20 -22 -37 11 -34 15 1 40 -6 55 -15 l26 -18 -2 30
c-2 26 -4 28 -26 20 -30 -11 -35 -11 -27 1 3 6 1 10 -5 10 -6 0 -8 5 -5 10 9
14 -7 12 -27 -4z"/>
<path d="M2105 410 c3 -6 1 -10 -5 -10 -6 0 -8 -4 -5 -10 3 -5 -1 -10 -10 -10
-9 0 -13 5 -10 10 3 6 0 10 -8 10 -8 0 -17 -10 -19 -23 -4 -22 -3 -22 39 -12
40 9 59 25 31 25 -10 0 -10 2 0 9 11 7 10 9 -3 14 -9 4 -13 3 -10 -3z"/>
<path d="M275 395 c11 -9 19 -20 18 -25 -2 -5 12 -7 30 -5 25 4 28 3 12 -4
-19 -9 -19 -10 3 -10 26 -1 30 17 5 25 -10 3 -29 11 -43 17 -41 19 -46 19 -25
2z"/>
<path d="M1880 390 c-6 -11 -18 -19 -27 -18 -9 2 -18 -3 -21 -11 -3 -8 0 -11
7 -7 6 4 11 1 11 -6 0 -8 4 -7 11 4 5 9 16 15 24 12 8 -4 12 -10 9 -15 -3 -5
8 -8 25 -7 40 3 40 27 0 35 -20 4 -28 10 -25 19 8 21 -2 17 -14 -6z"/>
<path d="M1995 400 c4 -7 -2 -14 -14 -17 -33 -9 -27 -35 7 -27 49 12 54 22 21
42 -13 9 -18 9 -14 2z"/>
<path d="M1706 385 c-10 -8 -15 -19 -11 -25 8 -12 53 -11 72 3 6 4 14 3 19 -4
5 -8 3 -9 -6 -4 -9 5 -11 4 -6 -3 5 -9 12 -8 26 0 25 16 11 30 -32 32 -18 1
-35 4 -38 8 -3 3 -13 0 -24 -7z"/>
<path d="M2795 390 c3 -5 25 -10 47 -10 51 0 45 9 -12 16 -28 3 -40 1 -35 -6z"/>
<path d="M1022 381 c-8 -5 -12 -15 -10 -22 2 -10 9 -8 27 9 24 22 12 32 -17
13z"/>
<path d="M957 346 c-42 -42 -46 -52 -17 -34 11 7 20 17 20 21 0 5 7 6 16 3 8
-3 13 -2 9 3 -3 5 0 11 6 13 7 2 10 10 7 18 -3 10 -15 3 -41 -24z"/>
<path d="M626 348 c2 -3 -8 -11 -23 -16 -25 -9 -25 -11 -6 -11 25 -1 73 18 73
30 0 4 -11 6 -24 5 -13 0 -22 -4 -20 -8z"/>
<path d="M1442 332 c-19 -3 -20 -5 -8 -18 19 -18 26 -18 26 2 0 8 5 12 10 9 6
-4 8 -11 5 -16 -4 -5 3 -9 14 -9 12 0 21 3 21 8 0 12 -43 27 -68 24z"/>
<path d="M440 318 c-14 -5 -47 -10 -75 -11 -33 0 -39 -2 -17 -4 17 -2 32 -9
32 -16 0 -8 3 -8 12 1 7 7 21 12 33 12 12 0 30 7 41 15 22 17 10 18 -26 3z"/>
<path d="M1329 325 c-1 -5 -1 -13 0 -17 0 -5 -6 -8 -14 -8 -8 0 -15 -4 -15
-10 0 -5 9 -10 20 -10 11 0 20 5 20 10 0 6 6 5 14 -2 8 -7 12 -16 9 -20 -2 -5
1 -8 6 -8 6 0 11 8 12 18 0 14 2 14 9 -3 8 -18 9 -18 9 5 0 14 -4 32 -10 40
-9 12 -10 11 -5 -5 6 -19 5 -19 -8 -2 -10 14 -15 15 -19 5 -4 -10 -8 -10 -16
2 -6 8 -11 11 -12 5z"/>
<path d="M1869 323 c0 -5 -2 -16 -4 -26 -2 -9 1 -15 6 -11 5 3 9 0 9 -7 0 -8
4 -8 15 1 13 11 14 10 9 -6 -6 -15 -4 -17 6 -7 16 14 5 33 -20 33 -13 0 -17 5
-14 15 4 8 3 15 0 15 -3 0 -6 -3 -7 -7z"/>
<path d="M2087 316 c-4 -11 -1 -13 10 -9 11 4 14 2 9 -5 -4 -7 -13 -12 -19
-12 -7 0 -13 -12 -13 -26 -2 -24 -1 -25 12 -6 9 13 23 19 42 17 25 -2 29 1 24
17 -2 10 -10 17 -16 15 -6 -3 -18 2 -27 10 -14 12 -17 12 -22 -1z"/>
<path d="M58 313 c-27 -2 -48 -7 -48 -11 0 -10 83 -2 95 9 5 5 7 8 5 7 -3 -1
-26 -3 -52 -5z"/>
<path d="M1065 281 c-14 -28 -14 -30 4 -28 11 0 19 4 18 7 -1 3 4 15 11 28 11
18 10 22 -2 22 -9 0 -22 -13 -31 -29z"/>
<path d="M2264 295 c-18 -14 -18 -14 9 -16 15 -2 39 -4 55 -6 15 -2 41 -5 57
-7 17 -2 41 -6 55 -9 28 -7 208 -33 288 -43 33 -4 52 -11 52 -19 0 -7 7 -16
16 -19 12 -4 15 -2 10 9 -4 11 2 15 24 15 21 0 30 -5 30 -16 0 -8 -4 -12 -10
-9 -6 3 -7 -1 -4 -9 9 -24 31 -19 38 9 4 14 11 25 16 25 6 0 10 5 10 11 0 6
-14 8 -35 5 -26 -4 -37 -2 -41 8 -4 11 -12 13 -31 5 -35 -13 -76 -12 -67 3 4
7 3 8 -4 4 -7 -4 -18 -4 -24 1 -7 4 -35 9 -63 11 -27 1 -66 4 -85 6 -19 2 -45
4 -57 5 -12 0 -24 10 -28 21 -3 11 -13 20 -21 20 -8 0 -13 -4 -9 -9 9 -16 -8
-19 -60 -10 -27 6 -57 11 -65 12 -9 2 -20 6 -26 10 -6 3 -20 0 -30 -8z"/>
<path d="M824 292 c-5 -4 -10 -17 -10 -29 0 -16 3 -19 13 -12 7 6 16 8 21 6 4
-3 14 -2 22 4 12 7 9 9 -10 10 -14 0 -19 3 -12 6 6 2 10 9 6 14 -6 11 -15 11
-30 1z"/>
<path d="M1127 286 c-4 -10 0 -14 14 -11 14 3 19 -2 19 -18 1 -21 1 -21 12 -3
9 15 7 22 -8 33 -23 17 -31 16 -37 -1z"/>
<path d="M907 255 c-4 -8 -2 -17 4 -21 11 -6 39 13 39 27 0 15 -37 10 -43 -6z"/>
<path d="M1752 254 c-11 -12 -10 -14 3 -14 9 0 13 -5 10 -11 -4 -6 2 -5 13 2
12 7 20 14 19 14 -1 0 -9 6 -17 12 -11 8 -18 8 -28 -3z"/>
<path d="M1377 243 c-9 -2 -15 -9 -12 -14 4 -5 1 -9 -4 -9 -6 0 -11 -5 -11
-12 0 -7 7 -5 18 5 12 11 22 13 34 6 11 -6 19 -6 23 1 3 6 -4 10 -17 11 -22 0
-22 1 -3 9 21 9 3 11 -28 3z"/>
<path d="M1928 238 c-4 -10 0 -21 13 -30 16 -11 24 -32 28 -70 1 -5 6 -8 12
-8 8 0 8 4 0 14 -9 10 -9 16 -1 21 8 5 8 11 -1 21 -9 11 -9 14 0 14 7 0 9 5 6
10 -4 6 -11 8 -16 5 -5 -4 -9 2 -9 12 0 14 -2 15 -9 4 -7 -11 -10 -10 -13 5
-3 17 -4 17 -10 2z"/>
<path d="M2099 243 c-1 -4 -1 -11 -1 -15 1 -3 -5 -12 -14 -18 -12 -11 -13 -10
-8 4 6 15 3 17 -38 20 -7 1 -12 -7 -10 -18 3 -14 -1 -17 -13 -12 -10 3 -14 2
-9 -5 4 -7 28 -9 70 -4 61 6 64 6 64 -15 0 -13 4 -18 11 -15 7 5 9 -3 7 -21
-3 -30 -6 -31 -73 -21 -25 4 -31 1 -31 -13 0 -14 5 -16 23 -9 14 5 23 5 23 -1
0 -5 12 -5 29 0 16 4 33 5 37 2 4 -4 4 -1 0 6 -9 15 20 16 30 0 4 -7 3 -8 -4
-4 -7 4 -12 1 -12 -9 0 -9 5 -15 12 -13 7 3 20 -2 30 -11 19 -16 51 -24 42
-10 -3 5 2 9 10 9 9 0 16 4 16 10 0 5 -6 7 -13 4 -19 -7 -96 52 -108 83 -5 15
-17 32 -27 39 -15 12 -12 13 22 14 46 0 39 15 -7 15 -18 1 -38 4 -44 8 -7 5
-14 5 -14 0z"/>
<path d="M2220 230 c9 -16 8 -20 -6 -20 -13 0 -14 -3 -4 -15 15 -18 82 -20
111 -2 17 10 22 9 32 -4 16 -21 70 -32 63 -12 -4 9 4 7 24 -7 17 -12 30 -16
30 -10 0 7 8 5 23 -4 13 -8 42 -12 72 -11 31 2 59 -2 73 -12 13 -8 29 -12 35
-10 7 3 0 10 -15 16 -30 11 -36 26 -15 34 6 3 2 6 -11 6 -15 1 -21 -3 -16 -10
3 -6 -4 -4 -17 4 -15 9 -46 14 -84 13 -41 -1 -63 3 -71 12 -6 9 -33 15 -70 16
-32 2 -67 6 -78 11 -12 5 -21 3 -26 -6 -7 -11 -13 -9 -28 9 -24 27 -36 29 -22
2z"/>
<path d="M1022 220 c-22 -18 -22 -19 -2 -17 11 1 20 4 20 8 0 3 10 11 23 17
20 10 21 11 2 11 -11 0 -30 -8 -43 -19z"/>
<path d="M1198 233 c12 -2 20 -9 17 -14 -4 -5 3 -9 14 -9 12 0 21 4 21 9 0 12
-26 21 -53 20 -22 -2 -21 -2 1 -6z"/>
<path d="M1730 219 c0 -6 -9 -9 -20 -6 -11 3 -20 1 -20 -4 0 -5 10 -10 23 -10
12 -1 32 -3 45 -4 27 -3 28 3 5 21 -22 17 -33 17 -33 3z"/>
<path d="M487 213 c-3 -5 20 -9 51 -10 36 -1 51 2 41 8 -17 11 -86 12 -92 2z"/>
<path d="M1061 199 c-12 -13 -24 -18 -32 -14 -8 5 -10 4 -5 -3 8 -13 76 -12
76 1 0 4 9 3 19 -3 13 -7 22 -7 26 0 3 6 -2 13 -12 16 -10 3 -26 10 -35 15
-13 6 -23 3 -37 -12z"/>
<path d="M785 199 c-3 -8 -20 -14 -40 -15 -19 0 -32 3 -29 7 5 8 -35 3 -43 -5
-3 -3 -2 -9 1 -14 8 -13 94 -5 161 14 40 12 43 14 14 10 -20 -2 -42 1 -47 6
-8 8 -13 7 -17 -3z"/>
<path d="M1480 203 c1 -27 69 -41 77 -16 3 9 -6 10 -33 6 -27 -4 -35 -3 -30 5
4 7 2 12 -3 12 -6 0 -11 -3 -11 -7z"/>
<path d="M143 188 c-30 -6 -40 -13 -36 -23 7 -20 33 -19 33 0 0 8 9 15 19 15
11 0 23 5 26 10 3 6 5 10 3 9 -2 -1 -22 -5 -45 -11z"/>
<path d="M909 179 l-23 -17 27 1 c15 1 27 5 27 9 0 3 12 11 28 16 l27 10 -31
-1 c-17 0 -42 -8 -55 -18z"/>
<path d="M1270 195 c0 -11 45 -27 87 -30 25 -2 50 -10 54 -17 4 -7 11 -10 14
-6 3 3 0 12 -8 19 -8 8 -16 21 -20 29 -4 12 -6 11 -6 -2 -1 -19 -21 -25 -21
-7 0 8 -12 10 -35 6 -21 -3 -33 -2 -30 4 4 5 -3 9 -14 9 -12 0 -21 -2 -21 -5z"/>
<path d="M858 163 c-10 -2 -18 -8 -18 -12 0 -4 -8 -8 -17 -9 -39 -4 -65 -14
-200 -78 -78 -36 -88 -40 -78 -24 3 6 2 10 -3 10 -6 0 -12 -7 -16 -15 -3 -8
-9 -14 -13 -14 -4 1 -19 -3 -33 -9 -23 -10 -23 -11 -4 -11 21 -1 55 11 142 50
23 11 48 17 54 13 6 -4 8 -3 5 3 -7 11 44 28 115 38 26 4 46 11 43 15 -2 4 7
13 20 20 14 7 25 17 25 22 0 4 -1 7 -2 7 -2 -1 -11 -3 -20 -6z"/>
<path d="M380 149 c0 -4 22 -6 50 -6 27 1 50 5 50 8 0 4 -22 6 -50 6 -27 -1
-50 -4 -50 -8z"/>
<path d="M1209 151 c10 -7 8 -13 -10 -30 -12 -11 -26 -21 -31 -21 -4 0 -8 -4
-8 -10 0 -16 27 -12 34 6 3 8 10 12 16 9 5 -3 10 3 10 14 0 12 5 21 10 21 20
0 9 16 -12 17 -16 2 -19 0 -9 -6z"/>
<path d="M1655 149 c4 -6 -2 -17 -14 -25 -12 -8 -21 -23 -21 -33 0 -11 -7 -22
-16 -25 -8 -3 -12 -10 -9 -16 3 -6 0 -13 -9 -16 -17 -7 -30 -34 -16 -34 6 0
19 14 29 31 11 17 32 40 48 50 23 15 24 19 9 19 -18 0 -18 1 -3 18 19 21 22
42 6 42 -5 0 -7 -5 -4 -11z"/>
<path d="M2000 137 c0 -20 5 -27 20 -27 11 0 20 2 20 5 0 3 -9 15 -20 27 l-20
22 0 -27z"/>
<path d="M2670 151 c0 -9 61 -22 69 -15 8 7 -4 13 -37 19 -18 3 -32 1 -32 -4z"/>
<path d="M2925 150 c3 -5 0 -10 -8 -10 -8 0 -17 -11 -19 -25 -3 -14 -1 -25 3
-25 5 0 9 5 9 12 0 9 3 9 12 0 15 -15 48 -16 48 -1 0 6 -9 9 -20 6 -13 -3 -20
0 -20 9 0 8 6 11 16 7 14 -5 13 -3 -2 15 -19 23 -30 29 -19 12z"/>
<path d="M57 134 c2 -7 -5 -15 -17 -19 -28 -9 -21 -16 8 -8 12 3 22 11 22 18
0 8 8 16 18 18 9 3 5 4 -9 4 -17 -1 -25 -6 -22 -13z"/>
<path d="M1573 144 c4 -4 -7 -24 -23 -44 -16 -20 -27 -40 -24 -43 9 -8 35 4
29 13 -3 5 11 24 30 44 l35 36 -27 0 c-14 0 -23 -3 -20 -6z"/>
<path d="M1810 139 c0 -5 -5 -7 -11 -4 -16 11 -59 -4 -59 -20 0 -15 28 -13 75
5 27 10 34 30 10 30 -8 0 -15 -5 -15 -11z"/>
<path d="M2362 137 c-25 -14 -20 -27 11 -27 12 0 17 5 14 14 -3 8 -1 17 6 20
7 2 8 5 2 5 -5 0 -20 -5 -33 -12z"/>
<path d="M2775 140 c-3 -5 -3 -10 2 -10 4 0 1 -4 -7 -10 -12 -8 -12 -10 4 -16
14 -5 15 -9 4 -15 -10 -7 -10 -9 0 -9 7 0 15 7 18 15 9 23 23 18 17 -7 -4 -22
-4 -22 10 -5 15 18 16 18 36 -2 11 -11 22 -17 25 -12 3 4 -9 15 -26 25 -23 14
-27 20 -17 27 13 8 12 10 -10 13 -5 0 -13 4 -17 9 -10 10 -32 9 -39 -3z"/>
<path d="M431 131 c-7 -5 -27 -8 -42 -7 -16 1 -29 -1 -29 -6 0 -14 65 -9 86 7
20 15 8 21 -15 6z"/>
<path d="M494 129 c-18 -4 1 -7 49 -8 42 0 77 -4 77 -9 0 -4 18 -6 41 -4 22 2
37 7 34 11 -10 9 -168 17 -201 10z"/>
<path d="M1000 125 c0 -8 -8 -15 -18 -15 -10 0 -33 -11 -52 -25 -19 -14 -44
-25 -57 -25 -13 0 -23 -4 -23 -9 0 -5 -12 -12 -27 -16 -14 -3 -36 -13 -47 -22
-20 -15 -20 -15 9 -8 16 3 47 15 70 25 22 9 50 21 61 24 12 4 29 15 39 26 10
11 23 20 30 20 7 0 20 9 30 20 16 18 16 20 2 20 -10 0 -17 -7 -17 -15z"/>
<path d="M1287 119 c-9 -5 -23 -7 -30 -3 -6 4 -9 4 -5 -1 4 -4 -4 -18 -19 -31
-22 -19 -24 -25 -14 -38 7 -8 19 -12 28 -9 11 5 12 7 2 14 -7 4 -17 5 -23 2
-5 -3 -6 -1 -2 6 4 6 12 8 18 5 7 -4 8 -2 4 4 -3 6 2 16 13 21 25 14 34 14 26
1 -3 -6 1 -7 9 -4 9 3 13 10 10 15 -3 5 4 9 16 9 12 0 18 5 15 10 -8 13 -25
12 -48 -1z"/>
<path d="M1873 111 c-17 -11 -34 -17 -37 -14 -3 4 -6 1 -6 -5 0 -6 12 -9 28
-7 15 2 31 4 36 4 5 1 6 4 3 8 -4 3 -2 12 4 20 15 18 10 16 -28 -6z"/>
<path d="M273 108 c-24 -4 -51 -12 -60 -18 -15 -9 -13 -10 12 -5 17 3 49 8 73
12 23 3 45 9 47 14 6 9 -10 8 -72 -3z"/>
<path d="M2730 112 c-8 -3 -19 -10 -23 -16 -6 -8 -10 -7 -14 2 -2 6 -9 12 -14
12 -6 0 -7 -5 -3 -12 5 -8 0 -9 -16 -5 -17 4 -20 3 -11 -6 8 -8 101 -12 107
-4 7 9 -15 33 -26 29z"/>
<path d="M90 75 c-36 -7 -68 -11 -72 -9 -4 2 -10 -1 -14 -7 -7 -12 47 -9 111
5 11 3 33 5 48 5 16 1 26 5 22 11 -7 12 -10 12 -95 -5z"/>
<path d="M1953 83 c9 -2 17 -9 17 -14 0 -6 5 -7 11 -3 7 4 10 -1 7 -12 -2 -11
-13 -23 -26 -29 -29 -13 -28 -20 3 -23 19 -1 25 3 25 18 0 13 7 20 19 20 28 0
51 10 51 23 0 8 -3 8 -11 0 -6 -6 -19 -8 -30 -6 -15 4 -17 8 -8 19 9 12 4 14
-32 13 -24 -1 -36 -3 -26 -6z"/>
<path d="M2310 83 c0 -3 7 -14 16 -24 15 -16 14 -19 -5 -31 -25 -15 -27 -25
-6 -25 8 0 15 4 15 9 0 16 29 40 40 33 5 -3 10 -1 10 5 0 6 5 8 10 5 6 -3 10
-3 10 2 0 4 27 7 60 5 36 -1 60 2 60 8 0 5 -10 10 -22 10 -13 1 -46 2 -75 4
-41 3 -53 0 -56 -13 -4 -14 -5 -13 -6 2 0 9 -6 17 -12 17 -5 0 -7 -6 -3 -12 6
-10 4 -10 -7 0 -14 13 -29 16 -29 5z"/>
<path d="M2563 79 c24 -6 45 -5 55 1 12 7 2 9 -38 9 -55 -1 -55 -1 -17 -10z"/>
<path d="M2070 59 c0 -4 7 -12 15 -19 9 -7 14 -19 11 -27 -4 -8 -1 -11 5 -8 6
4 8 13 5 21 -3 8 -1 14 4 14 6 0 10 6 10 13 0 6 -11 12 -25 12 -14 0 -25 -3
-25 -6z"/>
<path d="M390 51 c0 -5 -10 -13 -22 -18 -19 -9 -15 -10 24 -9 54 1 59 6 23 23
-14 6 -25 8 -25 4z"/>
<path d="M1085 50 c-4 -6 -11 -7 -17 -4 -6 4 -8 2 -5 -3 4 -6 -8 -18 -26 -27
-26 -12 -28 -16 -11 -16 12 0 37 11 56 24 19 13 41 26 49 29 8 3 2 6 -13 6
-15 1 -30 -4 -33 -9z"/>
<path d="M1676 35 c-16 -13 -32 -22 -37 -20 -4 3 -11 0 -14 -6 -5 -7 4 -9 27
-5 55 9 70 17 58 31 -5 6 -7 15 -3 18 17 17 -5 4 -31 -18z"/>
<path d="M216 38 c4 -6 3 -8 -3 -5 -11 7 -63 -14 -63 -25 0 -4 14 -3 31 2 16
5 37 6 46 3 11 -4 14 -2 9 5 -4 7 -2 12 3 12 6 0 11 5 11 10 0 6 -9 10 -21 10
-13 0 -18 -4 -13 -12z"/>
<path d="M1492 29 c-28 -25 -28 -29 3 -27 15 2 24 7 21 15 -3 6 0 13 7 16 7 2
8 5 1 10 -6 3 -21 -3 -32 -14z"/>
<path d="M2506 40 c6 -6 21 -13 35 -15 13 -3 25 -9 27 -15 2 -6 40 -10 90 -9
68 1 80 3 57 10 -16 5 -37 6 -47 3 -9 -2 -19 0 -23 6 -3 5 -18 10 -33 9 -15
-1 -40 3 -55 10 -36 14 -65 15 -51 1z"/>
<path d="M2776 29 c3 -6 0 -15 -7 -20 -9 -6 2 -8 31 -7 31 1 36 2 17 5 -20 3
-27 9 -23 19 3 8 -1 14 -10 14 -9 0 -12 -5 -8 -11z"/>
</g>
</svg>
