<?xml version="1.0" encoding="UTF-8" standalone="no"?>
<!-- Created with Inkscape (http://www.inkscape.org/) -->

<svg
   width="210mm"
   height="297mm"
   viewBox="0 0 210 297"
   version="1.1"
   id="svg5"
   inkscape:version="1.1.2 (0a00cf5339, 2022-02-04)"
   sodipodi:docname="drawing-3.svg"
   xmlns:inkscape="http://www.inkscape.org/namespaces/inkscape"
   xmlns:sodipodi="http://sodipodi.sourceforge.net/DTD/sodipodi-0.dtd"
   xmlns="http://www.w3.org/2000/svg"
   xmlns:svg="http://www.w3.org/2000/svg">
  <sodipodi:namedview
     id="namedview7"
     pagecolor="#ffffff"
     bordercolor="#666666"
     borderopacity="1.0"
     inkscape:pageshadow="2"
     inkscape:pageopacity="0.0"
     inkscape:pagecheckerboard="0"
     inkscape:document-units="mm"
     showgrid="false"
     inkscape:zoom="0.46235269"
     inkscape:cx="396.88316"
     inkscape:cy="561.25984"
     inkscape:window-width="1440"
     inkscape:window-height="816"
     inkscape:window-x="0"
     inkscape:window-y="0"
     inkscape:window-maximized="1"
     inkscape:current-layer="layer1" />
  <defs
     id="defs2" />
  <g
     inkscape:label="Layer 1"
     inkscape:groupmode="layer"
     id="layer1">
    <path
       id="rect1592"
       style="fill:#000080;stroke:#ff00ff;stroke-width:0.916296"
       d="m 99.465908,15.091223 16.977542,18.257282 c 3.5956,3.866632 -37.876163,8.484626 -32.738147,11.221989 96.424297,51.371671 -11.026832,8.395475 -16.54025,12.593214 -7.254944,5.523681 -16.821788,7.440655 -21.450327,4.29815 L 38.241778,56.388166 C 33.613239,53.245661 35.541007,46.13312 42.98258,40.745232 48.558344,36.708238 16.222821,51.208785 7.6443979,10.678142 6.5448479,5.4830765 76.736027,-9.3520058 99.465908,15.091223 Z"
       sodipodi:nodetypes="sssssssss" />
    <ellipse
       style="fill:#000080;stroke:#ff00ff;stroke-width:1.101"
       id="path1616"
       cx="112.77545"
       cy="126.03566"
       rx="17.121805"
       ry="22.967293" />
    <ellipse
       style="fill:#800000;stroke:#ff00ff;stroke-width:17.46805073;stroke-miterlimit:4;stroke-dasharray:none"
       id="path1618"
       cx="238.04784"
       cy="119.15611"
       rx="50.239338"
       ry="48.498539"
       transform="matrix(0.78725512,0.61662742,-0.98142954,-0.19182297,0,0)" />
    <ellipse
       style="fill:#00ffff;stroke:#ff00ff;stroke-width:17.4681;stroke-miterlimit:4;stroke-dasharray:none"
       id="ellipse1766"
       cx="-60.861862"
       cy="-191.64145"
       rx="50.239338"
       ry="48.498539"
       transform="matrix(0.78725512,0.61662742,-0.98142954,-0.19182297,0,0)" />
    <ellipse
       style="fill:#800000;stroke:#ff00ff;stroke-width:17.4681;stroke-miterlimit:4;stroke-dasharray:none"
       id="ellipse1768"
       cx="84.921875"
       cy="-106.21687"
       rx="50.239338"
       ry="48.498539"
       transform="matrix(0.78725512,0.61662742,-0.98142954,-0.19182297,0,0)" />
    <ellipse
       style="fill:#a02c2c;stroke:#ff00ff;stroke-width:17.4681;stroke-miterlimit:4;stroke-dasharray:none"
       id="ellipse1770"
       cx="448.38907"
       cy="243.43527"
       rx="50.239338"
       ry="48.498539"
       transform="matrix(0.78725512,0.61662742,-0.98142954,-0.19182297,0,0)" />
    <path
       style="fill:none;stroke:#000000;stroke-width:0.264583px;stroke-linecap:butt;stroke-linejoin:miter;stroke-opacity:1"
       d="m 24.604701,225.88845 c 0,0 94.310199,-112.40774 164.442649,-29.36827"
       id="path1903"
       sodipodi:nodetypes="cc" />
    <path
       style="fill:none;stroke:#000000;stroke-width:0.264583px;stroke-linecap:butt;stroke-linejoin:miter;stroke-opacity:1"
       d="m 27.535269,272.12483 c 4.635821,-20.74745 31.796864,-31.39628 42.247311,-8.48615 21.336708,16.0748 28.619536,-18.84701 43.49523,-21.8796 7.04986,8.63693 13.15425,30.61334 26.74971,13.2335 4.87696,-4.67344 8.87414,-10.77041 15.24564,-13.55937"
       id="path1905"
       sodipodi:nodetypes="cccccc" />
    <path
       style="fill:none;stroke:#000000;stroke-width:0.264583px;stroke-linecap:butt;stroke-linejoin:miter;stroke-opacity:1"
       d="m 18.797214,197.8927 c -15.1716673,-30.3686 52.502611,-18.0887 22.917437,2.17677 -7.999824,-11.57743 -29.915603,-23.0043 -24.440511,1.0588 4.046368,11.72203 26.569075,49.24985 -0.357089,40.53395 -22.6579757,-23.85232 -9.0681517,-57.99165 7.081865,-80.9638"
       id="path2906"
       sodipodi:nodetypes="cssssscsssssssssssssscs" />
    <path
       style="fill:none;stroke:#000000;stroke-width:0.264583px;stroke-linecap:butt;stroke-linejoin:miter;stroke-opacity:1"
       d="m 26.337111,148.43294 c 31.241103,100.12927 112.844069,3.22623 145.777319,95.66483"
       id="path3838" />
    <path
       style="fill:none;stroke:#000000;stroke-width:0.264583px;stroke-linecap:butt;stroke-linejoin:miter;stroke-opacity:1"
       d="M 15.911353,141.40494 C -36.338023,2.2376586 87.886491,46.735264 66.904578,104.63983 36.293761,189.11766 215.20588,-83.465518 130.72882,133.43138"
       id="path3840" />
    <path
       id="rect3864"
       style="fill:#00ffff;stroke:#ff00ff;stroke-width:11.772"
       d="m 42.121048,66.491035 c 19.451797,17.80513 42.926185,-41.196966 61.199922,-41.466086 19.18786,-0.282581 33.12108,57.339435 51.29276,41.466086 l 77.96965,51.675015 -77.96965,55.22924 H 42.121048 Z"
       sodipodi:nodetypes="csccccc" />
    <path
       style="fill:none;stroke:#000000;stroke-width:32;stroke-linecap:butt;stroke-linejoin:miter;stroke-opacity:1"
       d="M 15.911353,141.40494 C 73.849869,279.09694 110.76027,275.878 110.76027,275.878 l 21.78814,9.32148 39.56602,-41.10171"
       id="path4206" />
  </g>
</svg>
