<?xml version="1.0" encoding="UTF-8" standalone="no"?>
<!-- Created with Inkscape (http://www.inkscape.org/) -->

<svg
   width="210mm"
   height="297mm"
   viewBox="0 0 210 297"
   version="1.1"
   id="svg5"
   inkscape:version="1.1.2 (0a00cf5339, 2022-02-04)"
   sodipodi:docname="drawing.svg"
   xmlns:inkscape="http://www.inkscape.org/namespaces/inkscape"
   xmlns:sodipodi="http://sodipodi.sourceforge.net/DTD/sodipodi-0.dtd"
   xmlns="http://www.w3.org/2000/svg"
   xmlns:svg="http://www.w3.org/2000/svg">
  <sodipodi:namedview
     id="namedview7"
     pagecolor="#ffffff"
     bordercolor="#666666"
     borderopacity="1.0"
     inkscape:pageshadow="2"
     inkscape:pageopacity="0.0"
     inkscape:pagecheckerboard="0"
     inkscape:document-units="mm"
     showgrid="false"
     inkscape:zoom="0.46235269"
     inkscape:cx="364.4404"
     inkscape:cy="561.25984"
     inkscape:window-width="1440"
     inkscape:window-height="816"
     inkscape:window-x="0"
     inkscape:window-y="0"
     inkscape:window-maximized="1"
     inkscape:current-layer="layer1" />
  <defs
     id="defs2">
    <inkscape:path-effect
       effect="powerstroke"
       id="path-effect925"
       is_visible="true"
       lpeversion="1"
       offset_points="61,4.99214"
       not_jump="false"
       sort_points="true"
       interpolator_type="CubicBezierJohan"
       interpolator_beta="0.2"
       start_linecap_type="zerowidth"
       linejoin_type="extrp_arc"
       miter_limit="4"
       scale_width="1"
       end_linecap_type="zerowidth" />
    <inkscape:path-effect
       effect="spiro"
       id="path-effect923"
       is_visible="true"
       lpeversion="1" />
  </defs>
  <g
     inkscape:label="Layer 1"
     inkscape:groupmode="layer"
     id="layer1">
    <path
       style="fill:#aa0000;fill-rule:nonzero;stroke:#000080;stroke-width:0.264583px;stroke-linecap:butt;stroke-linejoin:miter;stroke-opacity:1"
       d="M 28.390865,231.25558 C 21.598932,231.19836 14.41445,229.36825 7.9812615,225.50397 2.0972891,221.96958 -3.1319649,216.72424 -6.6781816,210.196 c -3.2982827,-6.07182 -5.1153034,-13.24384 -4.8609884,-20.61287 0.239367,-6.93588 2.3278726,-14.02406 6.2612553,-20.20804 3.735257,-5.8725 9.1331227,-10.90403 15.6262197,-14.22142 6.208809,-3.17215 13.40438,-4.75701 20.650131,-4.32498 6.966956,0.41541 13.957876,2.70391 19.959019,6.73426 5.796467,3.89289 10.646888,9.40601 13.763481,15.89813 0.455896,0.99665 0.876816,2.02685 1.243168,3.08706 1.710628,4.67433 2.29521,9.85191 1.41948,14.85891 -0.854281,4.88431 -3.126552,9.60086 -6.640168,13.21775 -3.437659,3.53867 -8.081535,5.99783 -13.046085,6.63836 -2.441581,0.31501 -4.955119,0.17959 -7.368918,-0.39899 -2.390825,-0.57309 -4.678298,-1.57981 -6.688777,-3.0062 -2.239035,-1.60399 -4.135169,-3.72202 -5.4131,-6.18268 -1.257046,-2.42049 -1.907707,-5.17447 -1.780729,-7.90885 0.125121,-2.69376 1.014634,-5.36442 2.597936,-7.54939 1.561935,-2.15542 3.805352,-3.82719 6.336078,-4.63174 2.350872,-0.74544 4.947393,-0.75046 7.400079,-0.12231 2.425657,0.62117 4.712273,1.84613 6.719057,3.45861 2.001469,1.58749 3.707221,3.52607 5.201582,5.68255 1.48982,2.14993 2.761535,4.50377 3.909765,6.9267 1.152435,2.43175 2.17505,4.89349 3.280695,7.43001 1.08925,2.49891 2.244014,5.03347 3.615334,7.47903 1.370961,2.44483 3.005215,4.84455 4.952037,6.96306 1.942906,2.11425 4.20934,3.96277 6.855115,5.29044 3.630126,1.83305 7.762245,2.55614 11.798625,2.28689 4.012184,-0.26759 7.915076,-1.49483 11.44079,-3.35953 3.504,-1.87213 6.59102,-4.33768 9.3289,-7.13419 2.73041,-2.78889 5.121,-5.91446 7.23977,-9.12664 4.2214,-6.39982 7.50788,-13.22133 11.3309,-19.55057 1.90676,-3.15672 3.96834,-6.21349 6.28634,-8.99226 2.31348,-2.77335 4.86861,-5.25306 7.76027,-7.2736 3.52106,-2.46487 7.54559,-4.20111 11.7639,-5.14791 4.21386,-0.9458 8.60379,-1.09984 12.85307,-0.41752 4.24739,0.68202 8.35754,2.19024 12.09063,4.37208 3.73063,2.18041 7.07109,5.02562 9.78664,8.36895 5.43644,6.69317 8.39114,15.35528 8.33299,23.99436 -0.0581,8.63561 -3.09596,17.21861 -8.3646,24.07659 -5.27065,6.86061 -12.73936,11.99521 -20.99187,14.61968 -8.26207,2.62754 -17.28937,2.7584 -25.67339,0.53378 -8.40025,-2.22892 -16.15245,-6.79944 -22.29378,-12.94937 -6.15801,-6.16663 -10.70687,-13.90502 -13.26869,-22.23074 -1.54786,-5.01885 -2.39563,-10.24853 -3.0998,-15.66752 -0.69625,-5.35803 -1.26382,-11.02588 -2.25372,-16.54368 -2.106055,-11.72991 -6.211273,-23.215 -12.711594,-33.31261 -6.533569,-10.1492 -15.533016,-18.85362 -26.337703,-24.43336 -10.869469,-5.61311 -23.558982,-7.94787 -35.695503,-5.82392 -6.113406,1.06993 -12.029332,3.29746 -17.3186474,6.51411 -5.3097723,3.2291 -10.01189202,7.46961 -13.6520879,12.57097 -2.9993827,4.19823 -5.2288363,8.91445 -6.6090897,13.84993 -1.386065,4.9563 -1.921273,10.15281 -1.509334,15.29782 0.41389,5.16911 1.78349,10.23126 3.9633776,14.89204 2.1902194,4.68288 5.2077995,8.98105 8.92752835,12.59372 3.73910185,3.63146 8.14670035,6.52459 12.89841505,8.55203 4.776974,2.03821 9.924758,3.21163 15.131898,3.37234 5.237334,0.16162 10.466717,-0.70774 15.34558,-2.4698 4.907664,-1.77245 9.487327,-4.4575 13.391652,-7.94415 3.867805,-3.4324 7.097531,-7.63599 9.266355,-12.38258 2.198065,-4.81071 3.282884,-10.16272 2.940093,-15.48437 -0.348002,-5.40141 -2.183374,-10.72784 -5.411506,-15.12029 -3.281939,-4.46552 -7.983295,-7.89652 -13.322725,-9.49575 -4.932901,-1.48028 -10.28408,-1.35447 -15.09112,0.34014 -4.906122,1.72956 -9.169119,5.06711 -11.994988,9.35797 -2.890514,4.38909 -4.227844,9.69997 -3.782331,14.8591 0.456884,5.29051 2.778461,10.32098 6.424923,14.05379 1.908263,1.95301 4.179092,3.53802 6.646316,4.64898 2.508901,1.12973 5.24677,1.78267 8.060125,1.81587 2.858759,0.0462 5.708543,-0.5426 8.283801,-1.73511 2.664672,-1.23396 5.003138,-3.10138 6.758139,-5.4127 1.82428,-2.40264 2.990164,-5.25076 3.356477,-8.19356 0.382889,-3.07633 -0.115809,-6.20119 -1.404268,-8.94048 -1.356533,-2.88392 -3.558803,-5.27798 -6.221662,-6.83712 -2.829287,-1.65653 -6.103462,-2.32926 -9.223572,-1.98549 -3.259973,0.35889 -6.219619,1.80184 -8.437855,3.86855 -2.426886,2.2611 -3.921426,5.20177 -4.458201,8.15455 0,0 4.911644,0.89287 4.911644,0.89287 0,0 4.911644,0.89287 4.911644,0.89287 0.172212,-0.94733 0.664216,-1.92666 1.441731,-2.66318 0.708446,-0.6711 1.691137,-1.16477 2.749372,-1.2966 1.008099,-0.12525 2.159228,0.0768 3.173639,0.64697 0.951976,0.53522 1.814716,1.41689 2.361665,2.52129 0.518316,1.04685 0.763889,2.32228 0.631542,3.61756 -0.126509,1.23708 -0.601935,2.51559 -1.405669,3.62715 -0.772353,1.068 -1.858998,1.99562 -3.151313,2.63286 -1.247869,0.61523 -2.69895,0.96493 -4.208062,0.97869 -1.453539,0.001 -2.957226,-0.32015 -4.407976,-0.95151 -1.431051,-0.62279 -2.772092,-1.53144 -3.902651,-2.65912 -2.204837,-2.19892 -3.680565,-5.25726 -4.003776,-8.48999 -0.314867,-3.14969 0.465146,-6.49279 2.237494,-9.26715 1.731426,-2.71022 4.425232,-4.89708 7.554771,-6.05065 3.064256,-1.12947 6.567351,-1.27431 9.816837,-0.35039 3.511408,1.00152 6.762042,3.26422 9.082801,6.33535 2.280497,3.01806 3.677099,6.8101 3.985583,10.76812 0.303647,3.89718 -0.434713,7.95142 -2.082235,11.69056 -1.625013,3.6879 -4.121392,7.0661 -7.222296,9.89472 -3.124496,2.82823 -6.834132,5.04646 -10.855048,6.52944 -3.997248,1.47426 -8.274574,2.21127 -12.536443,2.10877 -4.240811,-0.10201 -8.483837,-1.03123 -12.456981,-2.69447 -3.952217,-1.65449 -7.6126985,-4.02532 -10.7091125,-6.9915 -3.0827558,-2.95312 -5.62057441,-6.50401 -7.4814407,-10.41219 -1.852045,-3.88966 -3.0230356,-8.1119 -3.3970204,-12.4078 -0.37249,-4.27896 0.040465,-8.64437 1.1826971,-12.84119 1.1374629,-4.17925 2.9927282,-8.17065 5.4884687,-11.71609 3.0340864,-4.30395 7.0066696,-7.94751 11.5704218,-10.75898 4.54724,-2.80129 9.655016,-4.75946 14.937606,-5.71541 10.542355,-1.90767 21.783312,0.0394 31.546379,5.00975 9.701489,4.93906 17.94515,12.76513 24.011373,22.06899 6.034564,9.25536 9.94542,19.91651 11.998027,30.977 0.988216,5.32071 1.545858,10.64139 2.308197,16.23948 0.749082,5.50074 1.682139,11.13042 3.416808,16.63441 2.90058,9.18475 7.99405,17.71669 14.88837,24.51908 6.87569,6.78402 15.53,11.80711 24.92593,14.22564 9.37769,2.41384 19.45252,2.19847 28.68971,-0.81506 9.22645,-3.01001 17.54951,-8.8174 23.41818,-16.5754 5.86644,-7.75502 9.20934,-17.41444 9.20231,-27.15068 -0.007,-9.74024 -3.39952,-19.46032 -9.5977,-26.97625 -3.10596,-3.76632 -6.90009,-6.94521 -11.11464,-9.36656 -4.21831,-2.42349 -8.87033,-4.09538 -13.69471,-4.83328 -4.83099,-0.73892 -9.78718,-0.52399 -14.52191,0.57571 -4.7408,1.10112 -9.27581,3.093 -13.25471,5.92259 -3.24642,2.31256 -6.04549,5.09602 -8.51241,8.10824 -2.46938,3.01525 -4.62192,6.27953 -6.5642,9.56156 -3.89655,6.58439 -7.09898,13.37622 -11.07507,19.52356 -1.99321,3.0817 -4.20851,6.02268 -6.70423,8.61803 -2.5003,2.6001 -5.27007,4.84084 -8.366442,6.53105 -3.101473,1.7122 -6.501594,2.83709 -9.957403,3.12969 -3.476874,0.29442 -7.010719,-0.27157 -10.089356,-1.75802 -2.239811,-1.08977 -4.224485,-2.65088 -5.983272,-4.51864 -1.766101,-1.87553 -3.290923,-4.04609 -4.603905,-6.32253 -1.321924,-2.29203 -2.456868,-4.69926 -3.567287,-7.16533 -1.109036,-2.46299 -2.200205,-5.00035 -3.408417,-7.47282 -1.218684,-2.49394 -2.594054,-4.97808 -4.227166,-7.27574 -1.641513,-2.30948 -3.547586,-4.43645 -5.822137,-6.19687 -2.302353,-1.76147 -4.947319,-3.11009 -7.784762,-3.76584 -2.869082,-0.66313 -5.922195,-0.59689 -8.708758,0.35877 -2.99988,1.02666 -5.579252,3.05597 -7.336648,5.59454 -1.782321,2.57463 -2.722368,5.65189 -2.799376,8.69983 -0.07817,3.09507 0.721712,6.15189 2.165893,8.79722 1.46859,2.68999 3.594136,4.95776 6.053249,6.64513 2.200716,1.52377 4.681853,2.57848 7.251185,3.16372 2.594438,0.59094 5.285054,0.70503 7.89162,0.33913 5.2887,-0.74242 10.167669,-3.4098 13.742892,-7.1707 3.658124,-3.84815 5.968702,-8.80386 6.803381,-13.88892 0.855837,-5.214 0.189459,-10.56003 -1.618632,-15.35106 -0.426337,-1.07215 -0.904382,-2.10671 -1.412444,-3.10044 -3.220757,-6.59306 -8.192462,-12.1635 -14.102656,-16.07767 -6.119189,-4.05258 -13.218756,-6.32431 -20.270735,-6.70237 -7.334513,-0.3932 -14.593205,1.25237 -20.83883,4.48643 -6.5318645,3.38227 -11.9408969,8.48022 -15.6700158,14.40584 -3.9270554,6.24015 -5.9915392,13.37159 -6.2037482,20.33329 -0.225468,7.39666 1.623605,14.58016 4.9458791,20.65211 3.5720709,6.52849 8.8200354,11.76523 14.7123762,15.29059 6.4423517,3.85444 13.6288287,5.67735 20.4198297,5.73456 z"
       id="path921"
       inkscape:path-effect="#path-effect923;#path-effect925"
       inkscape:original-d="m 28.390865,231.25558 c 12.22326,-19.31928 24.446253,-38.63883 36.668985,-57.95864 12.222731,-19.31981 0.88547,2.06276 1.327808,3.09375 0.442339,1.03098 -22.131374,21.40615 -33.197458,32.10883 -11.066084,10.70268 1.219287,-18.66953 1.828533,-28.00469 0.609245,-9.33517 28.680042,28.48929 43.019668,42.73354 14.339623,14.24425 42.151859,-35.62108 63.227399,-53.43202 21.07553,-17.81093 -24.90175,25.23162 -37.35301,37.84703 -12.451266,12.61541 -3.69257,-21.69474 -5.539247,-32.5425 -1.84667,-10.84776 -66.59285,-28.68845 -99.8896717,-43.03308 -33.2968243,-14.34462 37.4352337,35.52325 56.1524537,53.28448 18.717226,17.76123 -3.430281,-30.39031 -5.145818,-45.58587 -1.715537,-15.19555 -13.349356,20.92332 -20.024431,31.38458 -6.675075,10.46126 9.054997,-12.35089 13.582099,-18.52674 4.527103,-6.17584 -5.695455,5.3279 -8.543578,7.99144" />
  </g>
</svg>
